<svg width="1126" height="209" viewBox="0 0 1126 209" xmlns="http://www.w3.org/2000/svg"><g fill="none" fill-rule="evenodd"><path fill="#FFF" d="M0 0h1126v209H0z"/><path d="M174.074 42.824L173.684 65h-2.91l.39-22.176h2.91zm6.583 0v2.663h-16.115v-2.663h16.115zM194.777 54.955c.15-1.298.07-2.314-.237-3.048-.308-.735-.983-1.102-2.025-1.102-.896 0-1.727.3-2.493.9-.766.6-1.402 1.528-1.908 2.782-.505 1.255-.79 2.81-.854 4.664l-.294-7.066h1.327l-.608 1.184c.093-1.082.402-2.012.928-2.79a4.994 4.994 0 0 1 2.03-1.755 6.257 6.257 0 0 1 2.712-.588c1.645 0 2.833.535 3.564 1.604.731 1.07 1.005 2.543.821 4.418l-.512 5.255c-.103 1.102-.04 1.887.19 2.355.23.469.711.703 1.442.703h.748l-.09 2.689h-.766c-1.772 0-3.01-.446-3.717-1.338-.707-.892-.953-2.361-.738-4.409l.48-4.458zm-6.845-13.379L187.068 65h-2.983l.864-23.424h2.983zM211.186 62.651c1.695 0 3.416-.384 5.16-1.152l.71 2.474c-.888.436-1.855.77-2.901 1a14.59 14.59 0 0 1-3.152.347c-2.546 0-4.49-.68-5.831-2.042-1.341-1.362-2.012-3.254-2.012-5.676 0-1.848.341-3.487 1.023-4.915.682-1.428 1.66-2.544 2.933-3.347 1.274-.803 2.755-1.204 4.443-1.204 1.66 0 3.008.415 4.044 1.246 1.037.832 1.555 1.997 1.555 3.495 0 1.786-.99 3.193-2.973 4.22-1.982 1.026-4.772 1.583-8.37 1.671l-.559-2.401c2.868-.067 5.074-.401 6.62-1.003 1.547-.602 2.32-1.454 2.32-2.556 0-.668-.249-1.182-.747-1.542-.498-.36-1.152-.54-1.963-.54-1.106 0-2.08.28-2.923.837-.843.558-1.495 1.342-1.957 2.352-.462 1.01-.693 2.181-.693 3.513 0 1.606.44 2.878 1.318 3.816.88.938 2.197 1.407 3.955 1.407zM249.988 48.104c1.278 0 2.731.107 4.36.32l-1.129 2.733c-.694-.256-1.755-.384-3.182-.384-1.478 0-2.787.321-3.928.963a6.82 6.82 0 0 0-2.667 2.686c-.637 1.148-.956 2.443-.956 3.884 0 1.207.227 2.223.68 3.049.453.825 1.236 1.238 2.348 1.238.952 0 1.843-.3 2.672-.9.83-.601 1.518-1.524 2.065-2.77.547-1.245.852-2.795.916-4.65l.294 6.72h-1.326l.64-1.184c-.144 1.726-.743 3.071-1.797 4.034-1.054.963-2.451 1.445-4.19 1.445-1.845 0-3.18-.671-4.003-2.013-.823-1.342-1.235-2.985-1.235-4.928 0-1.977.44-3.741 1.321-5.295a9.365 9.365 0 0 1 3.687-3.639c1.578-.873 3.388-1.309 5.43-1.309zm1.371.32h2.989l-.8 22.496h-2.989l.8-22.496zM264.327 65.32c-1.843 0-3.218-.588-4.124-1.763-.907-1.175-1.36-2.96-1.36-5.352 0-1.34.122-2.819.365-4.434.244-1.615.63-3.494 1.16-5.635l3.008.523c-.547 2.26-.941 4.136-1.182 5.63-.242 1.493-.363 2.819-.363 3.977 0 1.459.246 2.55.737 3.273.49.724 1.218 1.086 2.183 1.086 1.445 0 2.553-.69 3.322-2.07.77-1.38 1.22-3.443 1.352-6.186l.547 6.554h-.992l.7-.856c-.25 1.174-.566 2.133-.947 2.878a4.223 4.223 0 0 1-1.63 1.746c-.707.42-1.632.629-2.776.629zm10.111-.16c-1.625 0-2.81-.354-3.554-1.06-.745-.708-1.097-1.831-1.058-3.371l-.535-3.249.352-9.056h3.009l-.454 11.61c-.039.907.113 1.568.454 1.984.342.416.979.624 1.911.624h.596l-.09 2.518h-.63zM289.421 65.32c-1.65 0-2.925-.373-3.824-1.119s-1.473-1.72-1.723-2.92c-.25-1.201-.275-2.569-.076-4.103l1.132-8.754h2.755l-.898 8.754c-.123 1.279-.142 2.297-.059 3.053.084.758.352 1.346.805 1.765.453.42 1.166.629 2.138.629a5.25 5.25 0 0 0 1.63-.236c.482-.157 1.027-.43 1.634-.817l1.18 2.305c-.74.462-1.48.818-2.217 1.068-.738.25-1.563.375-2.477.375zm-3.744-14.681c-.584.851-1.68 1.941-3.29 3.27a39.76 39.76 0 0 1-5.017 3.535l-1.637-2.302a64.744 64.744 0 0 0 5.371-3.601c1.639-1.228 2.877-2.267 3.715-3.117h.876l-.018 2.215zm.685-5.748c-.6 0-1.112-.21-1.535-.631a2.081 2.081 0 0 1-.634-1.533c0-.601.212-1.113.634-1.535a2.091 2.091 0 0 1 1.535-.634c.601 0 1.113.211 1.536.634.422.422.634.934.634 1.535 0 .601-.212 1.112-.634 1.533-.423.42-.935.63-1.536.63zM305.534 65.32c-2.677 0-4.727-.683-6.151-2.048-1.425-1.365-2.137-3.392-2.137-6.08 0-1.842.333-3.445 1-4.809.665-1.363 1.616-2.412 2.853-3.146 1.236-.734 2.691-1.101 4.365-1.101 1.499 0 2.75.299 3.754.896a4.92 4.92 0 0 1 2.133 2.528l-2.305 1.721c-.396-.811-.9-1.426-1.515-1.846-.614-.42-1.337-.63-2.17-.63-1.536 0-2.769.552-3.7 1.657-.93 1.105-1.395 2.604-1.395 4.497 0 1.878.48 3.292 1.442 4.241.961.95 2.362 1.425 4.203 1.425 1.329 0 2.766-.253 4.312-.76l.608 2.643c-1.418.541-3.184.812-5.297.812zM329.569 65.32c-1.95 0-3.592-.597-4.927-1.792-1.335-1.195-2.323-2.923-2.963-5.184 3.31-1.664 4.965-3.481 4.965-5.45 0-.658-.18-1.17-.54-1.538-.36-.367-.869-.551-1.526-.551-.914 0-1.792.314-2.633.943-.841.628-1.537 1.523-2.088 2.684-.551 1.161-.856 2.497-.914 4.008l-.058-5.488h.578c.22-1.428.83-2.588 1.831-3.479 1.002-.891 2.237-1.337 3.708-1.337 1.458 0 2.599.464 3.422 1.393s1.234 2.113 1.234 3.554a6.033 6.033 0 0 1-1.275 3.763c-.85 1.11-2.082 2.086-3.698 2.926l-.351-2.061c.603 1.802 1.303 3.072 2.1 3.809.798.736 1.85 1.105 3.155 1.105.312 0 .72-.021 1.225-.064l.616 2.553a9.098 9.098 0 0 1-1.861.206zm-10.012-23.744L318.693 65h-2.989l.864-23.424h2.989zM357.952 65.32a36.52 36.52 0 0 1-4.79-.32l1.122-2.759c.576.142 1.227.258 1.953.35a15.87 15.87 0 0 0 1.98.139c2.242 0 3.941-.674 5.098-2.02 1.156-1.346 1.734-3.13 1.734-5.351 0-1.308-.224-2.394-.671-3.258-.447-.864-1.265-1.296-2.452-1.296-.93 0-1.803.3-2.62.898-.818.598-1.501 1.525-2.05 2.779-.55 1.254-.856 2.81-.92 4.669l-.267-6.752h1.3l-.608 1.184c.093-1.127.391-2.1.895-2.921a5.05 5.05 0 0 1 1.996-1.879c.827-.431 1.76-.647 2.8-.647 1.963 0 3.376.687 4.239 2.061.863 1.374 1.294 3.104 1.294 5.191 0 2.014-.398 3.768-1.194 5.263a8.235 8.235 0 0 1-3.457 3.456c-1.51.809-3.303 1.213-5.382 1.213zm-.944-23.744L356.144 65h-2.982l.864-23.424h2.982zM385.05 65.288c-1.747 0-3.041-.512-3.884-1.535-.842-1.024-1.264-2.424-1.264-4.2 0-.443.026-.945.076-1.508.05-.563.126-1.143.227-1.741l1.05-6.21 2.055 1.369c-4.283.898-6.933-.371-7.948-3.807h1.597c1.193 1.564 3.684 1.936 7.471 1.117l-1.167 7.408c-.108.701-.19 1.34-.244 1.919a16.227 16.227 0 0 0-.082 1.484c0 .988.181 1.736.543 2.245.362.51.982.764 1.861.764.497 0 1.001-.077 1.513-.23l.602 2.469c-.64.304-1.442.456-2.406.456zm-15.656-6.803c1.843-1.011 3.092-2.314 3.747-3.908.656-1.594.892-3.524.71-5.79l-.102-1.131h2.424c.574 2.901.476 5.486-.295 7.755-.77 2.269-2.383 4.078-4.836 5.428l-1.648-2.355zM397.56 48.136c1.588 0 2.934.35 4.037 1.052 1.104.7 1.93 1.672 2.481 2.913.551 1.241.826 2.648.826 4.218 0 1.662-.274 3.17-.824 4.525-.55 1.355-1.394 2.44-2.531 3.254-1.137.815-2.55 1.222-4.237 1.222-1.588 0-2.943-.35-4.064-1.052a6.521 6.521 0 0 1-2.52-2.897c-.56-1.23-.84-2.64-.84-4.229 0-1.662.283-3.17.848-4.528.566-1.356 1.423-2.442 2.57-3.256 1.149-.815 2.566-1.222 4.253-1.222zm.031 2.669c-1.074 0-1.97.296-2.687.889-.717.593-1.247 1.364-1.59 2.313a8.827 8.827 0 0 0-.516 3.025c0 1.523.372 2.836 1.114 3.939.742 1.103 1.84 1.654 3.295 1.654 1.075 0 1.974-.292 2.698-.876.724-.584 1.253-1.345 1.587-2.284.335-.94.502-1.95.502-3.035 0-1.54-.365-2.863-1.097-3.968-.73-1.105-1.833-1.657-3.306-1.657zM416.024 57.376l-1.228-8.952 2.533-.128 2.005 14.067h.32c1.749-3.828 2.382-8.475 1.901-13.939h2.956c.295 3.479.119 6.604-.529 9.376-.648 2.771-1.723 5.171-3.227 7.2h-2.78l-1.129-8.144-.822.52zm.095.532l.652-.392L413.42 65h-3.01l-2.268-16.582 2.93-.116 1.575 14.061h.293l3.716-8.468.602 4.013h-1.14zM438.527 54.955c.15-1.298.074-2.314-.225-3.048-.299-.735-.97-1.102-2.011-1.102-.896 0-1.727.3-2.494.9-.766.6-1.403 1.528-1.91 2.782-.507 1.255-.793 2.81-.857 4.664l-.288-7.066h1.326l-.608 1.184c.093-1.082.403-2.012.928-2.79a4.994 4.994 0 0 1 2.031-1.755 6.257 6.257 0 0 1 2.712-.588c1.644 0 2.84.54 3.59 1.617.748 1.079 1.03 2.547.846 4.405l-.512 5.255c-.102 1.12-.047 1.909.165 2.369.213.46.684.689 1.415.689h.748l-.09 2.689h-.766c-1.771 0-3.015-.446-3.73-1.338-.715-.892-.965-2.361-.75-4.409l.48-4.458zm-7.599-6.531l.384 4.141L430.843 65h-2.988l.582-16.576h2.491zM469.054 51.838c.124-3.595.796-6.257 2.014-7.987 1.219-1.73 2.87-2.595 4.955-2.595 1.59 0 2.792.493 3.607 1.48.815.985 1.222 2.286 1.222 3.902 0 2.86-1.446 5.478-4.336 7.854-2.89 2.376-6.855 4.355-11.893 5.938l-.788-2.559c4.574-1.437 8.074-3.073 10.497-4.907 2.424-1.834 3.636-3.951 3.636-6.352 0-.845-.151-1.508-.453-1.99-.301-.482-.844-.724-1.628-.724-1.149 0-2.064.63-2.746 1.89-.682 1.26-1.067 3.217-1.157 5.87l-.62 19.262h-2.936l.626-19.082zm11.29 7.941v2.637h-10.16v-2.637h10.16zM491.32 48.136c1.588 0 2.933.35 4.037 1.052 1.103.7 1.93 1.672 2.481 2.913.55 1.241.826 2.648.826 4.218 0 1.662-.275 3.17-.825 4.525-.55 1.355-1.393 2.44-2.53 3.254-1.138.815-2.55 1.222-4.237 1.222-1.589 0-2.943-.35-4.064-1.052a6.521 6.521 0 0 1-2.52-2.897c-.56-1.23-.84-2.64-.84-4.229 0-1.662.283-3.17.848-4.528.566-1.356 1.422-2.442 2.57-3.256 1.149-.815 2.566-1.222 4.253-1.222zm.031 2.669c-1.074 0-1.97.296-2.687.889-.717.593-1.247 1.364-1.59 2.313a8.827 8.827 0 0 0-.516 3.025c0 1.523.371 2.836 1.113 3.939.743 1.103 1.841 1.654 3.296 1.654 1.075 0 1.974-.292 2.698-.876.723-.584 1.253-1.345 1.587-2.284.335-.94.502-1.95.502-3.035 0-1.54-.365-2.863-1.097-3.968-.731-1.105-1.833-1.657-3.306-1.657zM509.696 55.462l6.107-7.564 2.148 2.09-7.406 7.773-6.59 7.844-2.01-2.096 7.751-8.047zm4.638 9.858c-1.199 0-2.166-.37-2.903-1.108-.737-.739-1.333-1.923-1.789-3.554l-2.07-7.31c-.254-.877-.554-1.52-.902-1.93a1.648 1.648 0 0 0-1.312-.613c-.809 0-1.594.181-2.356.544l-.89-2.468c1.315-.497 2.466-.745 3.455-.745 1.19 0 2.154.368 2.891 1.105.737.737 1.331 1.92 1.783 3.551l2.09 7.31c.255.881.553 1.522.895 1.922.342.4.79.601 1.343.601.847 0 1.708-.217 2.583-.651l.948 2.474a10.64 10.64 0 0 1-1.864.657 8.048 8.048 0 0 1-1.902.215zM551.103 63.133c-.107 2.691-.755 4.705-1.945 6.04s-2.949 2.003-5.278 2.003c-1.378 0-2.743-.19-4.095-.57l.387-2.584c1.485.306 2.65.459 3.493.459 1.424 0 2.505-.45 3.242-1.347.737-.898 1.14-2.257 1.208-4.075l.512-14.635h2.988l-.512 14.709zm-1.618-12.494c-.584.851-1.681 1.941-3.29 3.27a39.76 39.76 0 0 1-5.017 3.535l-1.637-2.302a64.744 64.744 0 0 0 5.37-3.601c1.64-1.228 2.878-2.267 3.716-3.117h.875l-.017 2.215zm.685-5.748c-.601 0-1.113-.21-1.535-.631a2.081 2.081 0 0 1-.634-1.533c0-.601.21-1.113.634-1.535a2.091 2.091 0 0 1 1.535-.634c.6 0 1.112.211 1.535.634.423.422.634.934.634 1.535 0 .601-.211 1.112-.634 1.533-.423.42-.934.63-1.535.63zM564.358 65.32c-1.843 0-3.217-.588-4.124-1.763-.907-1.175-1.36-2.96-1.36-5.352 0-1.34.122-2.819.365-4.434.244-1.615.63-3.494 1.16-5.635l3.008.523c-.547 2.26-.94 4.136-1.182 5.63-.242 1.493-.362 2.819-.362 3.977 0 1.459.245 2.55.736 3.273.491.724 1.219 1.086 2.183 1.086 1.446 0 2.553-.69 3.322-2.07.77-1.38 1.22-3.443 1.352-6.186l.547 6.554h-.992l.7-.856c-.25 1.174-.565 2.133-.946 2.878a4.223 4.223 0 0 1-1.631 1.746c-.706.42-1.632.629-2.776.629zm10.112-.16c-1.626 0-2.81-.354-3.555-1.06-.744-.708-1.097-1.831-1.058-3.371l-.535-3.249.352-9.056h3.009l-.454 11.61c-.039.907.113 1.568.454 1.984.342.416.979.624 1.912.624h.595l-.09 2.518h-.63zM580.015 65h-2.936l.582-16.576h2.445l.357 4.288L580.015 65zm3.753-12.846c.025-.458-.052-.837-.232-1.136-.18-.299-.492-.449-.939-.449-.706 0-1.251.572-1.636 1.714-.384 1.143-.605 2.79-.664 4.941l-.403-6.131h.741c.119-1.025.42-1.774.904-2.247.484-.473 1.132-.71 1.944-.71 1.168 0 1.96.42 2.377 1.258.417.84.603 1.87.556 3.094L585.936 65h-2.643l.475-12.846zm8.385 7.9c-.042.874.027 1.496.207 1.864.18.369.566.553 1.158.553h.69l-.09 2.689h-.708c-1.09 0-1.952-.167-2.583-.5-.631-.334-1.074-.871-1.327-1.613-.253-.742-.338-1.74-.257-2.993l.445-7.9c.026-.44-.047-.815-.218-1.123-.17-.308-.47-.462-.9-.462-.737 0-1.297.558-1.679 1.672-.382 1.114-.605 2.738-.667 4.871l-.485-6.102h.895c.161-1.01.49-1.741.984-2.194.494-.454 1.172-.68 2.033-.68 1.16 0 1.953.421 2.379 1.264.426.843.604 1.872.536 3.088l-.413 7.566zM597.545 48.424h2.503l.372 4.053-.667 18.443h-2.988l.78-22.496zm4.208 16.896c-1.597 0-3.174-.107-4.732-.32l1.065-2.759a17.35 17.35 0 0 0 1.953.35c.726.093 1.386.139 1.98.139 2.242 0 3.941-.674 5.097-2.02 1.157-1.346 1.735-3.13 1.735-5.351 0-1.308-.224-2.394-.671-3.258-.448-.864-1.265-1.296-2.453-1.296-.929 0-1.802.3-2.62.898-.818.598-1.501 1.525-2.05 2.779-.55 1.254-.856 2.81-.92 4.669l-.267-6.752h1.3l-.672 1.184c.093-1.127.397-2.1.91-2.921a5.158 5.158 0 0 1 2.016-1.879c.83-.431 1.772-.647 2.83-.647 1.962 0 3.375.687 4.238 2.061.863 1.374 1.295 3.104 1.295 5.191 0 2.014-.398 3.768-1.194 5.263a8.236 8.236 0 0 1-3.458 3.456c-1.509.809-3.303 1.213-5.382 1.213zM623.618 50.9c-.686.806-1.94 1.945-3.761 3.419-1.821 1.474-3.194 2.487-4.117 3.04l-1.649-2.31c1.263-.82 2.77-1.897 4.521-3.233 1.752-1.336 3.054-2.467 3.907-3.392h1.158l-.059 2.477zm1.035-2.476c.522 1.133 1.218 2.464 2.086 3.992l.59 1.032c.678 1.21 1.178 2.252 1.502 3.124.324.873.486 1.813.486 2.82 0 1.908-.612 3.373-1.834 4.395-1.223 1.022-2.968 1.533-5.235 1.533-1.154 0-2.178-.096-3.072-.288a11.308 11.308 0 0 1-2.697-.968l.535-2.57c.877.405 1.693.695 2.447.87.755.174 1.559.261 2.412.261 1.413 0 2.504-.297 3.274-.89.77-.594 1.155-1.44 1.155-2.538 0-.86-.179-1.697-.536-2.513-.358-.815-.895-1.86-1.61-3.134-.52-.926-.928-1.67-1.221-2.235a11.39 11.39 0 0 1-.735-1.755l.351-1.136h2.102zM660.087 48.136c1.588 0 2.934.35 4.038 1.052 1.103.7 1.93 1.672 2.48 2.913.551 1.241.827 2.648.827 4.218 0 1.662-.275 3.17-.825 4.525-.55 1.355-1.393 2.44-2.53 3.254-1.138.815-2.55 1.222-4.238 1.222-1.588 0-2.943-.35-4.063-1.052a6.521 6.521 0 0 1-2.521-2.897c-.56-1.23-.84-2.64-.84-4.229 0-1.662.283-3.17.849-4.528.565-1.356 1.422-2.442 2.57-3.256 1.148-.815 2.566-1.222 4.253-1.222zm.032 2.669c-1.075 0-1.97.296-2.688.889-.717.593-1.247 1.364-1.59 2.313a8.827 8.827 0 0 0-.515 3.025c0 1.523.37 2.836 1.113 3.939.742 1.103 1.84 1.654 3.296 1.654 1.074 0 1.974-.292 2.697-.876.724-.584 1.253-1.345 1.588-2.284.334-.94.502-1.95.502-3.035 0-1.54-.366-2.863-1.097-3.968-.732-1.105-1.834-1.657-3.306-1.657zM674.284 48.166l3.68 14.186h.295c1.979-1.73 3.384-3.756 4.215-6.077.832-2.32 1.098-4.938.8-7.851h2.82c.355 3.56-.04 6.72-1.186 9.478s-3.04 5.124-5.681 7.098h-3.474l-4.51-16.576 3.041-.258zM698.737 62.651c1.695 0 3.415-.384 5.16-1.152l.71 2.474c-.888.436-1.855.77-2.901 1a14.59 14.59 0 0 1-3.152.347c-2.547 0-4.49-.68-5.831-2.042-1.341-1.362-2.012-3.254-2.012-5.676 0-1.848.341-3.487 1.023-4.915.681-1.428 1.66-2.544 2.933-3.347 1.274-.803 2.755-1.204 4.443-1.204 1.66 0 3.008.415 4.044 1.246 1.037.832 1.555 1.997 1.555 3.495 0 1.786-.99 3.193-2.973 4.22-1.982 1.026-4.772 1.583-8.37 1.671l-.559-2.401c2.868-.067 5.074-.401 6.62-1.003 1.547-.602 2.32-1.454 2.32-2.556 0-.668-.25-1.182-.747-1.542-.498-.36-1.152-.54-1.963-.54-1.106 0-2.08.28-2.923.837-.843.558-1.496 1.342-1.957 2.352-.462 1.01-.693 2.181-.693 3.513 0 1.606.44 2.878 1.318 3.816.879.938 2.197 1.407 3.955 1.407zM722.586 65.288c-1.747 0-3.042-.512-3.885-1.535-.842-1.024-1.263-2.424-1.263-4.2 0-.443.025-.945.075-1.508.05-.563.127-1.143.228-1.741l1.05-6.21 2.055 1.369c-4.284.898-6.933-.371-7.948-3.807h1.596c1.193 1.564 3.684 1.936 7.471 1.117l-1.166 7.408c-.109.701-.19 1.34-.245 1.919a16.227 16.227 0 0 0-.081 1.484c0 .988.18 1.736.542 2.245.362.51.983.764 1.862.764.496 0 1-.077 1.513-.23l.601 2.469c-.64.304-1.442.456-2.405.456zm-15.657-6.803c1.843-1.011 3.092-2.314 3.747-3.908.656-1.594.892-3.524.71-5.79l-.102-1.131h2.425c.574 2.901.475 5.486-.296 7.755-.77 2.269-2.382 4.078-4.835 5.428l-1.649-2.355zM756.408 65.32c-1.837 0-3.256-.409-4.259-1.226-1.002-.818-1.62-2.075-1.855-3.771a18.026 18.026 0 0 1-.118-1.836c-.011-.654.007-1.448.054-2.384l.468-12.671h2.988l-.442 12.384a57.829 57.829 0 0 0-.08 2.486c-.007.761.015 1.338.066 1.73.114.869.445 1.518.993 1.948.548.43 1.325.645 2.33.645.762 0 1.43-.066 2.006-.198.575-.132 1.241-.365 2-.701l.872 2.442c-.799.363-1.594.645-2.384.848-.79.203-1.67.304-2.64.304zm4.159-16.256v2.689h-14.412v-2.689h14.412zM776.088 54.955c.15-1.298.07-2.314-.237-3.048-.308-.735-.983-1.102-2.025-1.102-.896 0-1.727.3-2.494.9-.766.6-1.402 1.528-1.907 2.782-.506 1.255-.79 2.81-.854 4.664l-.294-7.066h1.327l-.609 1.184c.093-1.082.403-2.012.928-2.79a4.994 4.994 0 0 1 2.031-1.755 6.257 6.257 0 0 1 2.712-.588c1.644 0 2.832.535 3.563 1.604.732 1.07 1.005 2.543.822 4.418l-.513 5.255c-.102 1.102-.039 1.887.191 2.355.23.469.71.703 1.441.703h.749l-.09 2.689h-.766c-1.772 0-3.011-.446-3.718-1.338-.706-.892-.952-2.361-.737-4.409l.48-4.458zm-6.846-13.379L768.38 65h-2.983l.864-23.424h2.982zM792.496 62.651c1.696 0 3.416-.384 5.161-1.152l.71 2.474c-.888.436-1.855.77-2.902 1a14.59 14.59 0 0 1-3.152.347c-2.546 0-4.49-.68-5.83-2.042-1.342-1.362-2.012-3.254-2.012-5.676 0-1.848.34-3.487 1.022-4.915.682-1.428 1.66-2.544 2.934-3.347 1.274-.803 2.755-1.204 4.442-1.204 1.66 0 3.008.415 4.045 1.246 1.037.832 1.555 1.997 1.555 3.495 0 1.786-.991 3.193-2.973 4.22-1.982 1.026-4.773 1.583-8.37 1.671l-.559-2.401c2.867-.067 5.074-.401 6.62-1.003 1.546-.602 2.32-1.454 2.32-2.556 0-.668-.25-1.182-.747-1.542-.498-.36-1.152-.54-1.963-.54-1.106 0-2.08.28-2.924.837-.843.558-1.495 1.342-1.957 2.352-.461 1.01-.692 2.181-.692 3.513 0 1.606.44 2.878 1.318 3.816.879.938 2.197 1.407 3.954 1.407zM836.77 64.622c-1.326.465-2.576.698-3.75.698-2.44 0-4.341-.557-5.706-1.67-1.364-1.113-2.298-2.575-2.8-4.384-.504-1.81-.756-3.933-.756-6.368 0-2.246.293-4.25.879-6.01.585-1.761 1.401-3.14 2.447-4.137 1.047-.997 2.249-1.495 3.606-1.495 1.742 0 3.004.633 3.788 1.9.783 1.266 1.175 2.825 1.175 4.678 0 3.434-1.282 6.474-3.844 9.12-2.563 2.646-6.23 4.7-11.001 6.16l-.782-2.558c2.832-.867 5.192-1.917 7.081-3.151 1.89-1.234 3.305-2.667 4.248-4.3.943-1.633 1.414-3.474 1.414-5.524 0-1.06-.144-1.938-.432-2.636-.289-.698-.879-1.047-1.772-1.047-.762 0-1.438.393-2.027 1.179-.589.786-1.043 1.85-1.363 3.192-.32 1.342-.48 2.832-.48 4.469 0 1.756.157 3.353.474 4.791.316 1.438.943 2.647 1.882 3.627.94.98 2.267 1.469 3.984 1.469a8.29 8.29 0 0 0 3.052-.582l.683 2.579zM847.01 48.136c2.334 0 4.034.541 5.097 1.623 1.064 1.082 1.555 2.64 1.474 4.675l-.236 5.6c-.039.907.112 1.568.451 1.982.34.413.978.622 1.914.626h.518l-.09 2.518h-.762c-1.607 0-2.749-.35-3.423-1.048-.675-.698-.993-1.826-.954-3.383h-.558l.204-6.133c.046-1.254-.216-2.2-.789-2.836-.572-.637-1.556-.955-2.95-.955-.712 0-1.49.085-2.335.256-.845.17-1.658.412-2.44.724l-.82-2.552a13.2 13.2 0 0 1 2.796-.825 16.176 16.176 0 0 1 2.903-.272zm2.736 13.768l.956-.465c-.159 1.236-.72 2.191-1.686 2.867-.965.676-2.237 1.014-3.815 1.014-1.699 0-3.015-.404-3.95-1.213-.933-.809-1.4-1.959-1.4-3.45 0-1.45.473-2.644 1.42-3.58.946-.936 2.28-1.564 4.002-1.885 1.721-.32 3.71-.31 5.965.032l.09 2.421c-1.513-.386-2.923-.518-4.228-.396-1.306.122-2.343.47-3.113 1.042-.769.573-1.154 1.318-1.154 2.236 0 .72.242 1.268.727 1.647.484.378 1.188.568 2.111.568 1.353 0 2.481-.382 3.386-1.145.905-.764 1.39-1.908 1.454-3.434l1.34 3.742h-2.105zM866.082 71.208c-2.079 0-3.746-.506-5-1.517-1.255-1.011-1.987-2.475-2.197-4.392l2.788-.674c.141.829.374 1.53.698 2.103.324.573.772 1.02 1.345 1.339.572.319 1.292.478 2.16.478 1.324 0 2.397-.388 3.218-1.164.82-.776 1.23-1.786 1.23-3.029 0-.991-.248-1.8-.747-2.426-.498-.625-1.153-1.08-1.964-1.363-.81-.283-1.701-.423-2.67-.419l-.455.006c-.383 0-.717.018-1 .055l3.925-1.573c1.171 0 2.2.254 3.088.762a5.334 5.334 0 0 1 2.072 2.125c.493.909.74 1.942.74 3.1 0 1.328-.32 2.492-.958 3.49a6.283 6.283 0 0 1-2.608 2.299c-1.1.533-2.321.8-3.665.8zm1.639-13.131l.09.808-4.33 1.32-.38-2.183 4.62.055zm-4.62-.055c1.32-.282 2.471-.686 3.453-1.213.981-.528 1.734-1.125 2.258-1.792.523-.666.785-1.356.785-2.068 0-.742-.298-1.282-.896-1.619-.597-.337-1.511-.505-2.74-.505-1.081 0-2.158.137-3.232.41-1.074.274-2.243.722-3.507 1.345l-.936-2.457a17.321 17.321 0 0 1 4.007-1.511 17.385 17.385 0 0 1 4.007-.476c2.001 0 3.535.365 4.602 1.095 1.066.73 1.6 1.794 1.6 3.192 0 .856-.204 1.674-.61 2.455-.407.78-1 1.474-1.777 2.079-.778.605-1.718 1.09-2.82 1.454l-4.194-.39zM876.809 69.078c8.175-3.53 12.45-10.415 12.827-20.654h3.014c-.777 11.493-5.607 19.184-14.49 23.072l-1.351-2.418zm3.761-20.913c1.874 6.118 4.13 11.027 6.765 14.727l-2.18 1.745c-3.016-4.194-5.577-9.598-7.684-16.213l3.1-.258zM930.397 65.16c-1.278 0-2.25-.27-2.915-.807-.665-.538-1.08-1.375-1.242-2.509a9.247 9.247 0 0 1-.09-1.473l-.509-2.716.603-16.079h2.988l-.678 18.605c0 .36.01.62.032.777.09.574.303 1 .641 1.276.339.276.817.414 1.434.414h.934l-.085 2.512h-1.113zm-5.487-17.056c1.096 0 2.442.107 4.04.32l-1.129 2.733c-.706-.256-1.66-.384-2.861-.384-1.457 0-2.747.321-3.868.963a6.723 6.723 0 0 0-2.609 2.66c-.617 1.13-.926 2.415-.926 3.852 0 1.224.222 2.255.666 3.09.445.837 1.232 1.255 2.361 1.255.931 0 1.775-.295 2.532-.885.756-.59 1.372-1.507 1.846-2.753.474-1.245.743-2.806.807-4.682l.66 6.374h-1.23l.829-.838c-.299 1.752-.973 3.103-2.024 4.053-1.05.95-2.432 1.426-4.146 1.426-1.862 0-3.2-.672-4.015-2.016-.815-1.344-1.222-2.996-1.222-4.957 0-1.976.426-3.736 1.278-5.279a9.158 9.158 0 0 1 3.616-3.623c1.558-.873 3.357-1.309 5.395-1.309zM941.366 48.136c1.588 0 2.934.35 4.038 1.052 1.103.7 1.93 1.672 2.481 2.913.55 1.241.826 2.648.826 4.218 0 1.662-.275 3.17-.825 4.525-.55 1.355-1.393 2.44-2.53 3.254-1.138.815-2.55 1.222-4.237 1.222-1.589 0-2.943-.35-4.064-1.052a6.521 6.521 0 0 1-2.52-2.897c-.56-1.23-.84-2.64-.84-4.229 0-1.662.283-3.17.848-4.528.565-1.356 1.422-2.442 2.57-3.256 1.148-.815 2.566-1.222 4.253-1.222zm.032 2.669c-1.075 0-1.97.296-2.687.889-.717.593-1.248 1.364-1.59 2.313a8.827 8.827 0 0 0-.516 3.025c0 1.523.371 2.836 1.113 3.939.742 1.103 1.841 1.654 3.296 1.654 1.075 0 1.974-.292 2.698-.876.723-.584 1.252-1.345 1.587-2.284.335-.94.502-1.95.502-3.035 0-1.54-.366-2.863-1.097-3.968s-1.833-1.657-3.306-1.657zM959.382 71.208c-1.743 0-3.293-.322-4.648-.966-1.356-.644-2.508-1.642-3.456-2.996l2.387-1.785c.54.879 1.327 1.616 2.358 2.211 1.031.596 2.203.894 3.516.894.856 0 1.618-.133 2.286-.4.668-.265 1.187-.614 1.557-1.047.37-.433.554-.905.554-1.418 0-.41-.127-.747-.381-1.008s-.647-.492-1.177-.694c-.531-.202-1.398-.468-2.6-.797-2.521-.695-4.328-1.57-5.422-2.626-1.094-1.056-1.641-2.5-1.641-4.333 0-1.495.31-2.863.932-4.103.622-1.24 1.483-2.217 2.583-2.932 1.1-.715 2.35-1.072 3.749-1.072 1.235 0 2.341.289 3.32.867.978.578 1.741 1.396 2.29 2.455.55 1.06.824 2.272.824 3.639 0 .999-.177 1.932-.529 2.8-.352.866-.846 1.584-1.481 2.153a4.268 4.268 0 0 1-2.16 1.059l.701-.594v1.512h-3.902v-1.056c.865-.094 1.649-.433 2.352-1.016a5.956 5.956 0 0 0 1.637-2.157 6.304 6.304 0 0 0 .582-2.631c0-.858-.16-1.619-.477-2.283-.318-.664-.759-1.181-1.321-1.551-.563-.37-1.212-.554-1.947-.554-.828 0-1.559.24-2.191.72-.633.48-1.124 1.126-1.474 1.938-.35.812-.525 1.713-.525 2.705 0 .82.162 1.498.488 2.032.326.535.866.992 1.62 1.372.755.38 1.81.744 3.163 1.091 1.509.376 2.675.762 3.498 1.158.824.396 1.415.87 1.775 1.424.36.554.54 1.271.54 2.152 0 1.128-.31 2.135-.932 3.02-.622.885-1.492 1.576-2.611 2.072-1.119.497-2.398.745-3.837.745zm9.591-22.144v2.689c-1.799 0-2.99-.298-3.576-.895l.547-.134-.908 1.117-2.881-2.777h6.818zM978.709 65.32c-.742 0-1.384-.27-1.927-.813-.543-.541-.814-1.183-.814-1.926 0-.762.271-1.41.813-1.941.543-.532 1.186-.798 1.929-.798.762 0 1.408.266 1.94.798.53.532.796 1.18.796 1.943 0 .743-.265 1.385-.797 1.926a2.618 2.618 0 0 1-1.94.811zM1015.425 65.32c-.865 0-1.52-.173-1.967-.52-.446-.346-.76-.928-.943-1.746h-1.01l.882-4.788c0 1.459.245 2.55.736 3.273.491.724 1.217 1.086 2.177 1.086 1.446 0 2.553-.69 3.322-2.07.77-1.38 1.22-3.443 1.352-6.186l.547 6.554h-.992l.7-.856c-.232 1.156-.517 2.111-.855 2.865-.337.754-.824 1.34-1.46 1.76-.637.418-1.466.628-2.489.628zm9.563-.16c-1.625 0-2.81-.354-3.555-1.06-.744-.708-1.097-1.831-1.058-3.371l-.535-3.249.352-9.056h3.01l-.455 11.61c-.038.907.113 1.568.454 1.984.342.416.979.624 1.911.624h.335l-.09 2.518h-.37zm-15.244-16.736h2.995l-.832 23.776h-2.995l.832-23.776zM1040.944 65.32c-1.485 0-2.558-.397-3.22-1.191-.66-.794-.991-2.058-.991-3.791V48.424h2.962v11.754c0 .884.141 1.513.424 1.887.282.373.818.56 1.607.56.303 0 .648-.043 1.036-.128l.355 2.625a12.04 12.04 0 0 1-2.173.198zm-8.257-16.896L1031.535 65h-2.989l1.152-16.576h2.989zm10.016 0v2.689h-16.115v-2.689h16.115zM1053.887 50.75c-1.044 0-1.942.346-2.693 1.037-.752.692-1.327 1.61-1.725 2.757-.398 1.146-.597 2.374-.597 3.684 0 1.282.251 2.336.753 3.16.501.825 1.347 1.237 2.536 1.237 1.461 0 2.604-.69 3.43-2.07.825-1.38 1.295-3.376 1.41-5.987l1.009 6.367h-1.44l.678-.867c-.206 1.675-.811 2.968-1.815 3.882-1.003.913-2.298 1.37-3.885 1.37-1.877 0-3.29-.644-4.24-1.933-.949-1.289-1.424-3.018-1.424-5.188 0-1.876.334-3.57 1.001-5.082.667-1.513 1.589-2.695 2.765-3.545 1.177-.85 2.507-1.276 3.99-1.276 1.028 0 1.85.213 2.469.64.618.427 1.14 1.065 1.567 1.914l-.058 2.39c-.437-.85-.977-1.477-1.62-1.882a3.882 3.882 0 0 0-2.11-.608zm8.133 14.41c-1.642 0-2.832-.35-3.567-1.048-.736-.698-1.084-1.826-1.045-3.383l-.535-3.249.352-9.056h3.009l-.454 11.61c-.039.925.112 1.59.451 1.998.34.407.978.61 1.914.61h.596l-.09 2.518h-.63z" fill="#000" fill-rule="nonzero"/><path d="M49.267 65.24c2.56 0 4.22-1.22 5.26-3.34l-2.48-1.44c-.42 1.14-1.28 2.08-2.78 2.08-1.78 0-2.96-1.2-2.96-3.4V56.9c0-2.2 1.18-3.4 2.96-3.4 1.5 0 2.24.78 2.6 1.94l2.62-1.36c-1.02-2.24-2.66-3.28-5.22-3.28-3.76 0-6.18 2.6-6.18 7.32 0 4.72 2.42 7.12 6.18 7.12zM69.08 65l-4.54-13.96h-3.76L56.18 65h3.08l1-3.32h4.66l1 3.32h3.16zm-4.9-5.9h-3.2l1.54-5.3h.1l1.56 5.3zM81.353 65v-2.7h-6.46v-3.02h5.54V56.6h-5.54v-2.86h6.46v-2.7h-9.5V65zM89.347 65.24c3.48 0 5.44-1.86 5.44-4.54 0-2.4-1.38-3.68-4.24-4.14l-1.38-.22c-1.16-.18-1.66-.54-1.66-1.5 0-.84.66-1.36 2.02-1.36 1.44 0 2.34.54 3 1.32l2.02-2.04c-1.14-1.26-2.74-1.96-4.84-1.96-3.28 0-5.24 1.74-5.24 4.24 0 2.34 1.34 3.78 4.28 4.16l1.38.18c1.3.18 1.62.74 1.62 1.5 0 1.02-.72 1.68-2.2 1.68-1.36 0-2.56-.54-3.5-1.6l-2 2.02c1.2 1.32 2.86 2.26 5.3 2.26zM104.24 65v-2.42h-1.8v-9.12h1.8v-2.42H97.6v2.42h1.8v9.12h-1.8V65zM107.533 51.04v8.24c0 4.12 1.48 5.96 5.48 5.96s5.48-1.84 5.48-5.96v-8.24h-2.96v8.56c0 1.96-.72 2.94-2.52 2.94s-2.52-.98-2.52-2.94v-8.56h-2.96zM132.767 65h2.86V51.04h-3.24l-3.38 6.54h-.04l-3.42-6.54h-3.22V65h2.86v-9.3h.06l1.06 2.2 2.66 4.92 2.72-4.94 1.02-2.04h.06z" fill="#757575" fill-rule="nonzero"/><path d="M171.25 122V99.812h3.25V122h-3.25zm-6.5-19.219v-2.969H181v2.97h-16.25zM195.063 122v-10.781c0-1.052-.26-1.862-.782-2.43-.52-.568-1.25-.852-2.187-.852-2.604 0-3.906 1.584-3.906 4.75l-.97-4.25h1.282c.094-1.114.5-1.945 1.219-2.492.719-.547 1.77-.82 3.156-.82 1.75 0 3.104.531 4.063 1.594.958 1.062 1.437 2.562 1.437 4.5V122h-3.313zm-10.188 0V98.562h3.313V122h-3.313zM211.813 122.313c-2.823 0-5.003-.743-6.54-2.227-1.536-1.484-2.304-3.617-2.304-6.398 0-2.709.65-4.813 1.953-6.313 1.302-1.5 3.14-2.25 5.516-2.25 2.24 0 3.97.677 5.195 2.031 1.224 1.354 1.836 3.323 1.836 5.906 0 .76-.031 1.47-.094 2.126H205.75v-2.532h8.719c0-1.49-.354-2.633-1.063-3.43-.708-.796-1.687-1.195-2.937-1.195-1.406 0-2.498.48-3.274 1.438-.776.958-1.164 2.312-1.164 4.062 0 1.917.534 3.375 1.602 4.375s2.586 1.5 4.554 1.5c.688 0 1.365-.039 2.032-.117a26.428 26.428 0 0 0 2.031-.32l.406 2.906a21.82 21.82 0 0 1-2.687.36c-.813.051-1.531.078-2.156.078zM246.594 122.313c-2.094 0-3.716-.727-4.867-2.18-1.151-1.453-1.727-3.54-1.727-6.258 0-2.781.578-4.935 1.734-6.46 1.157-1.527 2.787-2.29 4.891-2.29 1.333 0 2.362.273 3.086.82.724.547 1.154 1.378 1.289 2.493h1.281l-.969 3.624c0-1.385-.312-2.419-.937-3.101-.625-.682-1.563-1.023-2.813-1.023-1.364 0-2.419.515-3.164 1.546-.744 1.032-1.117 2.495-1.117 4.391 0 1.854.365 3.255 1.094 4.203.73.948 1.802 1.422 3.219 1.422 1.25 0 2.182-.234 2.797-.703.614-.469.922-1.172.922-2.11v-1.812l1.125 4.563H251c-.104.947-.552 1.664-1.344 2.148-.791.484-1.812.727-3.062.727zm4.719 6.874v-20.25l.312-3.5h3v23.75h-3.313zM265 122.313c-1.74 0-3.086-.519-4.04-1.555-.952-1.037-1.429-2.498-1.429-4.383v-10.938h3.313v10.938c0 .948.27 1.68.812 2.195.542.516 1.302.774 2.281.774 1.209 0 2.12-.383 2.735-1.149.614-.765.922-2.05.922-3.851l.844 4.469h-1.094c-.26 1.124-.771 1.99-1.531 2.593-.76.604-1.698.906-2.813.906zm4.875-.157l-.281-3.969v-2.906h3.312V119l2.281.344V122l-5.312.156zm-.281-4.844v-11.874h3.312v10.937l-3.312.938zM284.813 122v-15.625h3.312V122h-3.313zm-6.313 0v-2.906h6.625V122H278.5zm9.313 0v-2.906h5.406V122h-5.406zm-8.375-13.656v-2.906h8.687v2.906h-8.688zm6.921-5.531c-.635 0-1.18-.227-1.632-.68a2.227 2.227 0 0 1-.68-1.633c0-.646.226-1.193.68-1.64a2.24 2.24 0 0 1 1.632-.672c.646 0 1.193.223 1.641.671.448.448.672.995.672 1.641a2.24 2.24 0 0 1-.672 1.633c-.448.453-.995.68-1.64.68zM305.719 122.313c-2.823 0-5.003-.743-6.54-2.227-1.536-1.484-2.304-3.617-2.304-6.398 0-2.709.727-4.813 2.18-6.313 1.453-1.5 3.528-2.25 6.226-2.25 1.615 0 2.998.3 4.149.898 1.15.6 1.971 1.446 2.46 2.54l-2.546 1.921a5.025 5.025 0 0 0-1.797-1.765 4.735 4.735 0 0 0-2.39-.625c-1.563 0-2.777.471-3.641 1.414-.865.943-1.297 2.284-1.297 4.023 0 1.886.508 3.326 1.523 4.32 1.016.995 2.466 1.493 4.352 1.493.77 0 1.541-.037 2.312-.11.771-.073 1.521-.171 2.25-.296l.375 2.906c-.854.187-1.737.312-2.648.375-.912.062-1.8.094-2.664.094zM318.344 115.719v-2.969h1.875c1.375 0 2.505-.237 3.39-.71.886-.475 1.581-1.248 2.086-2.321.506-1.073.878-2.5 1.118-4.281h3.437c-.438 3.447-1.42 6.023-2.945 7.726-1.526 1.703-3.628 2.555-6.305 2.555h-2.656zM316 122V98.562h3.313V122H316zm11.219 0l-4.719-8.063 3.125-1.28 5.688 9.343h-4.094zM357.984 122.313c-.75 0-1.49-.03-2.218-.086a48.55 48.55 0 0 1-2.22-.227l1.282-3.031c.552.26 1.162.414 1.828.46.667.048 1.328.071 1.985.071 1.99 0 3.528-.599 4.617-1.797 1.088-1.198 1.633-2.89 1.633-5.078 0-1.5-.331-2.656-.993-3.469-.661-.812-1.601-1.219-2.82-1.219-2.812 0-4.219 1.584-4.219 4.75l-.968-4.25h1.28c.157-2.208 1.511-3.312 4.063-3.312 2.209 0 3.917.651 5.125 1.953 1.209 1.302 1.813 3.151 1.813 5.547 0 3.073-.888 5.456-2.664 7.148-1.776 1.693-4.284 2.54-7.524 2.54zm-4.437-.313V98.562h3.312v23.157l-3.312.281zM378 114.875l-.969-5.188h1.281c.188-3.041 1.709-4.562 4.563-4.562 1.708 0 2.948.49 3.719 1.469.77.979 1.156 2.562 1.156 4.75h-3.281c0-1.209-.18-2.078-.54-2.61-.359-.53-.94-.796-1.741-.796-1.407 0-2.456.601-3.149 1.804-.693 1.203-1.039 2.914-1.039 5.133zM371 122v-2.906h11.063V122H371zm3.688 0v-16.563h2.687l.625 4.75V122h-3.313zm-3.063-13.656v-2.906h5.531l.313 2.906h-5.844zM397.875 122.313c-2.292 0-4.073-.75-5.344-2.25-1.27-1.5-1.906-3.615-1.906-6.344 0-2.74.635-4.857 1.906-6.352s3.052-2.242 5.344-2.242c2.302 0 4.086.747 5.352 2.242 1.265 1.495 1.898 3.612 1.898 6.352 0 2.729-.633 4.844-1.898 6.344-1.266 1.5-3.05 2.25-5.352 2.25zm0-2.97c1.219 0 2.159-.489 2.82-1.468.662-.98.993-2.365.993-4.156 0-1.802-.331-3.19-.993-4.164-.661-.974-1.601-1.461-2.82-1.461-1.219 0-2.159.487-2.82 1.46-.662.975-.993 2.363-.993 4.165 0 1.791.331 3.177.993 4.156.661.98 1.601 1.469 2.82 1.469zM418.5 122l-1.938-13.156h-.25l-1.359-3.406h3.031l1.954 14.062h.28l1.407-14.063h3.281L422.562 122H418.5zm-8.281 0l-1.875-16.563h3.125l1.25 14.063H413l1.953-14.063h3.031l-1.39 3.407h-.219L414.437 122h-4.218zM438.813 122v-10.781c0-1-.26-1.771-.782-2.313-.52-.541-1.25-.812-2.187-.812-2.604 0-3.906 1.531-3.906 4.594l-.97-4.25h1.282c.094-1.115.5-1.946 1.219-2.493.719-.547 1.77-.82 3.156-.82 1.75 0 3.104.531 4.063 1.594.958 1.062 1.437 2.562 1.437 4.5V122h-3.313zm-10.188 0v-16.563h3l.313 3.5V122h-3.313zM469.781 122v-15.156c0-5.73 2.615-8.594 7.844-8.594 1.188 0 2.333.104 3.438.313l-.344 2.874a27.675 27.675 0 0 0-1.735-.171 23.31 23.31 0 0 0-1.453-.047c-2.958 0-4.437 1.823-4.437 5.469V122h-3.313zm-5.219-10v-2.906h15.313V112h-15.313zM491.625 122.313c-2.292 0-4.073-.75-5.344-2.25-1.27-1.5-1.906-3.615-1.906-6.344 0-2.74.635-4.857 1.906-6.352s3.052-2.242 5.344-2.242c2.302 0 4.086.747 5.352 2.242 1.265 1.495 1.898 3.612 1.898 6.352 0 2.729-.633 4.844-1.898 6.344-1.266 1.5-3.05 2.25-5.352 2.25zm0-2.97c1.219 0 2.159-.489 2.82-1.468.662-.98.993-2.365.993-4.156 0-1.802-.331-3.19-.993-4.164-.661-.974-1.601-1.461-2.82-1.461-1.219 0-2.159.487-2.82 1.46-.662.975-.993 2.363-.993 4.165 0 1.791.331 3.177.993 4.156.661.98 1.601 1.469 2.82 1.469zM502.656 122l6.594-9.125 5.094-7.438h3.75l-6.844 9.407-4.844 7.156h-3.75zm11.688 0l-5.032-7.156-6.656-9.406h3.75l5.094 7.437 6.594 9.125h-3.75zM541.313 129.5l-.157-2.938 3.125-.28c1.677-.147 2.893-.634 3.649-1.462.755-.828 1.133-2.09 1.133-3.789V116h3.312v4.531c0 1.969-.292 3.573-.875 4.813-.583 1.24-1.495 2.174-2.734 2.804-1.24.63-2.839 1.019-4.797 1.165l-2.657.187zm1.312-21.156v-2.906h6.688v2.906h-6.688zm6.438 8.187v-11.094h3.312v11.094h-3.313zm1.312-13.719c-.635 0-1.18-.226-1.633-.68a2.227 2.227 0 0 1-.68-1.632c0-.646.227-1.193.68-1.64a2.24 2.24 0 0 1 1.633-.672c.646 0 1.193.223 1.64.671.449.448.673.995.673 1.641a2.24 2.24 0 0 1-.672 1.633c-.448.453-.995.68-1.641.68zM565 122.313c-1.74 0-3.086-.519-4.04-1.555-.952-1.037-1.429-2.498-1.429-4.383v-10.938h3.313v10.938c0 .948.27 1.68.812 2.195.542.516 1.302.774 2.282.774 1.208 0 2.12-.383 2.734-1.149.614-.765.922-2.05.922-3.851l.843 4.469h-1.093c-.26 1.124-.771 1.99-1.532 2.593-.76.604-1.697.906-2.812.906zm4.875-.157l-.281-3.969v-2.906h3.312V119l2.282.344V122l-5.313.156zm-.281-4.844v-11.874h3.312v10.937l-3.312.938zM589.688 122v-12.656c0-1.146-.428-1.719-1.282-1.719-1.083 0-1.625.75-1.625 2.25l-1.125-2.375h1.282a2.61 2.61 0 0 1 .773-1.672c.463-.469 1.133-.703 2.008-.703 1.146 0 1.979.307 2.5.922.52.614.781 1.61.781 2.984V122h-3.313zm-11.938 0v-16.563h2.938l.375 3.5V122h-3.313zm6.219 0v-12.969c0-.937-.438-1.406-1.313-1.406-1.062 0-1.593.75-1.593 2.25l-.97-2.375h1.063c.125-1.583 1.073-2.375 2.844-2.375.865 0 1.544.297 2.04.89.494.594.741 1.495.741 2.704V122h-2.812zM597.375 129.188v-23.75h3l.313 3.5v20.25h-3.313zm8.016-6.875c-1.271 0-2.295-.292-3.07-.876-.777-.583-1.217-1.395-1.321-2.437h-1.438l1.125-4.719c0 1.709.336 3.005 1.008 3.89.672.886 1.66 1.329 2.961 1.329 1.334 0 2.344-.474 3.032-1.422.687-.948 1.03-2.349 1.03-4.203 0-1.958-.343-3.438-1.03-4.438-.688-1-1.698-1.5-3.032-1.5-1.302 0-2.289.443-2.96 1.329-.673.885-1.009 2.182-1.009 3.89l-1.125-4.719h1.282c.146-1.041.617-1.854 1.414-2.437.797-.583 1.841-.875 3.133-.875 2.177 0 3.823.74 4.937 2.219 1.115 1.479 1.672 3.656 1.672 6.531 0 2.77-.557 4.87-1.672 6.297-1.114 1.427-2.76 2.14-4.937 2.14zM621.594 122.313c-1.25 0-2.32-.037-3.211-.11a17.742 17.742 0 0 1-2.446-.36l.375-3c1.094.167 2.06.292 2.899.376.838.083 1.633.125 2.383.125 1.677 0 2.893-.164 3.648-.492.755-.329 1.133-.852 1.133-1.57 0-.5-.133-.873-.398-1.118-.266-.245-.675-.435-1.227-.57l-3.813-.969c-1.635-.417-2.835-.932-3.601-1.547-.766-.614-1.149-1.547-1.149-2.797 0-1.812.696-3.125 2.086-3.937 1.391-.813 3.633-1.219 6.727-1.219.802 0 1.55.023 2.242.07.693.047 1.404.128 2.133.243l-.344 2.874a39.132 39.132 0 0 0-4.125-.219c-1.854 0-3.198.16-4.031.477-.833.318-1.25.836-1.25 1.555 0 .48.172.826.516 1.04.343.213.87.408 1.578.585l3.062.75c1.74.417 3.013.974 3.82 1.672.808.698 1.212 1.713 1.212 3.047 0 1.781-.652 3.075-1.954 3.883-1.302.807-3.39 1.21-6.265 1.21zM660.375 122.313c-2.292 0-4.073-.75-5.344-2.25-1.27-1.5-1.906-3.615-1.906-6.344 0-2.74.635-4.857 1.906-6.352s3.052-2.242 5.344-2.242c2.302 0 4.086.747 5.352 2.242 1.265 1.495 1.898 3.612 1.898 6.352 0 2.729-.633 4.844-1.898 6.344-1.266 1.5-3.05 2.25-5.352 2.25zm0-2.97c1.219 0 2.159-.489 2.82-1.468.662-.98.992-2.365.992-4.156 0-1.802-.33-3.19-.992-4.164-.661-.974-1.601-1.461-2.82-1.461-1.219 0-2.159.487-2.82 1.46-.662.975-.992 2.363-.992 4.165 0 1.791.33 3.177.992 4.156.661.98 1.601 1.469 2.82 1.469zM676.922 122L671 105.437h3.531l4.453 13.75h.282l4.453-13.75h3.531L681.328 122zM699.313 122.313c-2.823 0-5.003-.743-6.54-2.227-1.536-1.484-2.304-3.617-2.304-6.398 0-2.709.65-4.813 1.953-6.313 1.302-1.5 3.14-2.25 5.515-2.25 2.24 0 3.972.677 5.196 2.031 1.224 1.354 1.836 3.323 1.836 5.906 0 .76-.032 1.47-.094 2.126H693.25v-2.532h8.719c0-1.49-.354-2.633-1.063-3.43-.708-.796-1.687-1.195-2.937-1.195-1.407 0-2.498.48-3.274 1.438-.776.958-1.164 2.312-1.164 4.062 0 1.917.534 3.375 1.602 4.375s2.586 1.5 4.554 1.5c.688 0 1.365-.039 2.032-.117a26.428 26.428 0 0 0 2.031-.32l.406 2.906a21.82 21.82 0 0 1-2.687.36c-.813.051-1.532.078-2.157.078zM715.5 114.875l-.969-5.188h1.282c.187-3.041 1.708-4.562 4.562-4.562 1.708 0 2.948.49 3.719 1.469.77.979 1.156 2.562 1.156 4.75h-3.281c0-1.209-.18-2.078-.54-2.61-.359-.53-.94-.796-1.741-.796-1.407 0-2.456.601-3.149 1.804-.693 1.203-1.039 2.914-1.039 5.133zm-7 7.125v-2.906h11.063V122H708.5zm3.688 0v-16.563h2.687l.625 4.75V122h-3.313zm-3.063-13.656v-2.906h5.531l.313 2.906h-5.844zM757.125 122.313c-2.51 0-4.326-.521-5.445-1.563-1.12-1.042-1.68-2.708-1.68-5v-2.813h3.313v2.657c0 1.312.32 2.265.96 2.86.641.593 1.696.89 3.164.89.521 0 1.073-.029 1.657-.086.583-.057 1.25-.133 2-.227l.375 2.906a24.651 24.651 0 0 1-4.344.375zM750 114.186v-13.75h3.313v13.75H750zm-4.156-5.843v-2.906h15v2.906h-15zM776.313 122v-10.781c0-1.052-.26-1.862-.782-2.43-.52-.568-1.25-.852-2.187-.852-2.604 0-3.907 1.584-3.907 4.75l-.968-4.25h1.281c.094-1.114.5-1.945 1.219-2.492.718-.547 1.77-.82 3.156-.82 1.75 0 3.104.531 4.063 1.594.958 1.062 1.437 2.562 1.437 4.5V122h-3.313zm-10.188 0V98.562h3.313V122h-3.313zM793.063 122.313c-2.823 0-5.003-.743-6.54-2.227-1.536-1.484-2.304-3.617-2.304-6.398 0-2.709.65-4.813 1.953-6.313 1.302-1.5 3.14-2.25 5.515-2.25 2.24 0 3.972.677 5.196 2.031 1.224 1.354 1.836 3.323 1.836 5.906 0 .76-.032 1.47-.094 2.126H787v-2.532h8.719c0-1.49-.354-2.633-1.063-3.43-.708-.796-1.687-1.195-2.937-1.195-1.407 0-2.498.48-3.274 1.438-.776.958-1.164 2.312-1.164 4.062 0 1.917.534 3.375 1.602 4.375s2.586 1.5 4.554 1.5c.688 0 1.365-.039 2.032-.117a26.428 26.428 0 0 0 2.031-.32l.406 2.906a21.82 21.82 0 0 1-2.687.36c-.813.051-1.532.078-2.157.078zM831.594 122.313c-1.917 0-3.302-.521-4.157-1.563-.854-1.042-1.28-2.708-1.28-5V98.562h3.312v17.032c0 .875.083 1.588.25 2.14.166.552.492.959.976 1.22.485.26 1.2.39 2.149.39.864 0 1.968-.198 3.312-.594l.375 2.906a18.86 18.86 0 0 1-2.43.5c-.775.104-1.611.156-2.507.156zm-10.313-20.844v-2.906h5.157v2.906h-5.157zM851.281 122.156l-.218-4.906-.438-1.375v-4.281c0-1.104-.388-1.914-1.164-2.43-.776-.516-1.93-.794-3.461-.836l-3.969-.11.313-2.937 3.343.047c2.74.042 4.774.633 6.102 1.774 1.328 1.14 1.992 2.804 1.992 4.992V119l2.813.344V122l-5.313.156zm-5.843.156c-1.73 0-3.068-.416-4.016-1.25-.948-.833-1.422-2.01-1.422-3.53 0-1.75.654-3.094 1.96-4.032 1.308-.938 3.155-1.406 5.54-1.406.99 0 1.872.06 2.648.18s1.467.299 2.07.538l-.687 2.25a11.399 11.399 0 0 0-2.047-.273 52.456 52.456 0 0 0-2.047-.039c-2.875 0-4.312.875-4.312 2.625 0 .73.247 1.292.742 1.688.495.395 1.196.593 2.102.593 1.031 0 1.893-.177 2.586-.531.692-.354 1.21-.807 1.554-1.36.344-.551.516-1.12.516-1.703v-1.812l.969 4.25h-1.313l.532-.5c0 .958-.222 1.758-.665 2.398-.442.641-1.065 1.12-1.867 1.438-.802.318-1.75.477-2.843.477zM862.094 120.969l-2.282-1.906 11.032-12.532 2.281 1.844-11.031 12.594zM859.812 122v-2.938h13.625V122h-13.625zm0-13.625v-2.938h13.313v2.938h-13.313zM877.172 129.5l-.156-2.969 2.593-.312c1.094-.136 2.029-.433 2.805-.89.776-.46 1.44-1.139 1.992-2.04s1.037-2.08 1.453-3.539l4.125-14.313h3.438l-4.781 15.094c-.625 1.98-1.326 3.573-2.102 4.781-.776 1.209-1.693 2.115-2.75 2.72-1.057.603-2.325.989-3.805 1.155l-2.812.313zm6.281-7.5l-6.594-16.563h3.438l5.406 14.063h.5v2.5h-2.75zM921.61 122.313c-2.167 0-3.81-.714-4.93-2.141-1.12-1.427-1.68-3.526-1.68-6.297 0-2.875.56-5.052 1.68-6.531 1.12-1.48 2.763-2.219 4.93-2.219 1.239 0 2.247.292 3.023.875.776.583 1.232 1.396 1.367 2.438h1.281l-.968 4.718c0-1.708-.336-3.005-1.008-3.89-.672-.886-1.66-1.329-2.961-1.329-1.334 0-2.344.5-3.032 1.5-.687 1-1.03 2.48-1.03 4.438 0 1.854.343 3.255 1.03 4.203.688.948 1.698 1.422 3.032 1.422 1.302 0 2.289-.443 2.96-1.328.673-.886 1.009-2.182 1.009-3.89l1.125 4.718H926c-.104 1.042-.544 1.854-1.32 2.438-.776.583-1.8.874-3.07.874zm5.046-.157l-.343-3.25V98.562h3.312V122l-2.969.156zM941.625 122.313c-2.292 0-4.073-.75-5.344-2.25-1.27-1.5-1.906-3.615-1.906-6.344 0-2.74.635-4.857 1.906-6.352s3.052-2.242 5.344-2.242c2.302 0 4.086.747 5.352 2.242 1.265 1.495 1.898 3.612 1.898 6.352 0 2.729-.633 4.844-1.898 6.344-1.266 1.5-3.05 2.25-5.352 2.25zm0-2.97c1.219 0 2.159-.489 2.82-1.468.662-.98.992-2.365.992-4.156 0-1.802-.33-3.19-.992-4.164-.661-.974-1.601-1.461-2.82-1.461-1.219 0-2.159.487-2.82 1.46-.662.975-.992 2.363-.992 4.165 0 1.791.33 3.177.992 4.156.661.98 1.601 1.469 2.82 1.469zM953.844 129.469l-.157-3.031 5.313-.157c1.677-.052 2.896-.515 3.656-1.39.76-.875 1.146-2.162 1.157-3.86v-12.094l.312-3.5h3v15.094c0 2.948-.672 5.125-2.016 6.531-1.343 1.407-3.484 2.157-6.422 2.25l-4.843.157zm5.265-7.156c-2.166 0-3.81-.714-4.93-2.141-1.12-1.427-1.679-3.526-1.679-6.297 0-2.875.56-5.052 1.68-6.531 1.12-1.48 2.763-2.219 4.93-2.219 1.291 0 2.338.292 3.14.875s1.27 1.396 1.406 2.438h1.282l-1.125 4.718c0-1.708-.336-3.005-1.008-3.89-.672-.886-1.66-1.329-2.961-1.329-1.334 0-2.344.5-3.032 1.5-.687 1-1.03 2.48-1.03 4.438 0 1.854.343 3.255 1.03 4.203.688.948 1.698 1.422 3.032 1.422 1.302 0 2.289-.443 2.96-1.328.673-.886 1.009-2.182 1.009-3.89l1.125 4.718H963.5c-.104 1.042-.544 1.854-1.32 2.438-.776.583-1.8.874-3.07.874zM979.125 122.313c-.635 0-1.18-.227-1.633-.68a2.227 2.227 0 0 1-.68-1.633c0-.646.227-1.193.68-1.64a2.24 2.24 0 0 1 1.633-.672c.646 0 1.193.223 1.64.671.449.448.673.995.673 1.641a2.24 2.24 0 0 1-.672 1.633c-.448.453-.995.68-1.641.68zM1016.016 122.313c-1.688 0-2.756-1.167-3.203-3.5h-.891l-2.313-2.438v-10.938h3.313v9.844c0 1.198.27 2.123.812 2.774.542.65 1.302.976 2.282.976 1.208 0 2.12-.36 2.734-1.078.615-.719.922-1.922.922-3.61l.844 4.47h-1.094c-.219 1.166-.612 2.041-1.18 2.624-.568.584-1.31.876-2.226.876zm-6.407 6.874v-13.906l2.875 3.016.594 10.89h-3.469zm10.344-7.03l-.281-3.97v-2.906h3.312V119l2.282.344V122l-5.313.156zm-.281-4.844v-11.876h3.312v10.938l-3.312.938zM1041.125 122.313c-1.531 0-2.638-.41-3.32-1.227-.683-.818-1.024-2.128-1.024-3.93v-11.719h3.313V117c0 .823.122 1.42.367 1.79.245.369.779.554 1.601.554.146 0 .295-.01.446-.031.15-.021.325-.053.523-.094l.375 2.906c-.385.073-.74.122-1.062.148-.323.026-.73.04-1.219.04zm-11.563-.313v-16.563h3.313V122h-3.313zm-2.624-13.594v-2.969h16.25v2.97h-16.25zM1052.531 122.313c-2.093 0-3.716-.727-4.867-2.18-1.151-1.453-1.726-3.54-1.726-6.258 0-2.781.59-4.935 1.773-6.46 1.182-1.527 2.851-2.29 5.008-2.29 1.281 0 2.27.273 2.968.82.698.547 1.115 1.378 1.25 2.493h1.282l-.969 4.187c0-1.48-.33-2.63-.992-3.453-.662-.823-1.58-1.234-2.758-1.234-1.365 0-2.42.515-3.164 1.546-.745 1.032-1.117 2.495-1.117 4.391 0 3.75 1.375 5.625 4.125 5.625 1.229 0 2.187-.411 2.875-1.234.687-.823 1.031-1.974 1.031-3.454v-.874l1.125 5.062h-1.438c-.072.73-.302 1.341-.687 1.836a3.483 3.483 0 0 1-1.523 1.11c-.63.244-1.362.367-2.196.367zm5-.157l-.281-3.969v-3.843l3.313.937V119l2.28.344V122l-5.312.156zm-.281-4.844v-11.874h3.313v10.937l-3.313.938z" fill="#000" fill-rule="nonzero"/><path d="M36.633 114.24c2.56 0 4.22-1.22 5.26-3.34l-2.48-1.44c-.42 1.14-1.28 2.08-2.78 2.08-1.78 0-2.96-1.2-2.96-3.4v-2.24c0-2.2 1.18-3.4 2.96-3.4 1.5 0 2.24.78 2.6 1.94l2.62-1.36c-1.02-2.24-2.66-3.28-5.22-3.28-3.76 0-6.18 2.6-6.18 7.32 0 4.72 2.42 7.12 6.18 7.12zM56.447 114l-4.54-13.96h-3.76l-4.6 13.96h3.08l1-3.32h4.66l1 3.32h3.16zm-4.9-5.9h-3.2l1.54-5.3h.1l1.56 5.3zM63.74 114.24c3.48 0 5.44-1.86 5.44-4.54 0-2.4-1.38-3.68-4.24-4.14l-1.38-.22c-1.16-.18-1.66-.54-1.66-1.5 0-.84.66-1.36 2.02-1.36 1.44 0 2.34.54 3 1.32l2.02-2.04c-1.14-1.26-2.74-1.96-4.84-1.96-3.28 0-5.24 1.74-5.24 4.24 0 2.34 1.34 3.78 4.28 4.16l1.38.18c1.3.18 1.62.74 1.62 1.5 0 1.02-.72 1.68-2.2 1.68-1.36 0-2.56-.54-3.5-1.6l-2 2.02c1.2 1.32 2.86 2.26 5.3 2.26zM78.173 114.24c2.56 0 4.22-1.22 5.26-3.34l-2.48-1.44c-.42 1.14-1.28 2.08-2.78 2.08-1.78 0-2.96-1.2-2.96-3.4v-2.24c0-2.2 1.18-3.4 2.96-3.4 1.5 0 2.24.78 2.6 1.94l2.62-1.36c-1.02-2.24-2.66-3.28-5.22-3.28-3.76 0-6.18 2.6-6.18 7.32 0 4.72 2.42 7.12 6.18 7.12zM97.987 114l-4.54-13.96h-3.76l-4.6 13.96h3.08l1-3.32h4.66l1 3.32h3.16zm-4.9-5.9h-3.2l1.54-5.3h.1l1.56 5.3zM100.76 114h5.26c3.7 0 6.14-2.34 6.14-6.98 0-4.64-2.44-6.98-6.14-6.98h-5.26V114zm3.04-2.7v-8.56h2.22c1.8 0 2.92.98 2.92 3.2v2.16c0 2.22-1.12 3.2-2.92 3.2h-2.22zM121.633 114v-2.42h-1.8v-9.12h1.8v-2.42h-6.64v2.42h1.8v9.12h-1.8V114zM136.767 114l-4.54-13.96h-3.76l-4.6 13.96h3.08l1-3.32h4.66l1 3.32h3.16zm-4.9-5.9h-3.2l1.54-5.3h.1l1.56 5.3zM133.527 138h3.58l-2.78-3.02c.38-.64.68-1.4.9-2.22h1.26v-2.46h-3.34c-.06.94-.24 1.92-.58 2.78l-2.16-2.34c1.52-.9 2.78-1.98 2.78-3.74 0-2.04-1.74-3.2-4.02-3.2-2.56 0-4.18 1.5-4.18 3.34 0 1.28.78 2.44 1.56 3.32-1.62.94-2.8 1.98-2.8 3.88 0 2.24 1.66 3.9 4.74 3.9 1.94 0 3.12-.66 4-1.38l1.04 1.14zm-4.44-11.94c.72 0 1.28.42 1.28 1.14v.08c0 .8-.48 1.32-1.42 1.88-.82-.92-1.14-1.36-1.14-1.88v-.08c0-.72.56-1.14 1.28-1.14zm-.16 9.72c-1.44 0-2.16-.74-2.16-1.76v-.2c0-.72.34-1.24 1.24-1.78l2.94 3.18c-.54.36-1.22.56-2.02.56zM69.807 162.24c2.06 0 3.56-.9 4.26-2.9l-2.3-1c-.3.84-.78 1.56-1.96 1.56-1.2 0-1.82-.84-1.82-2.16v-1.96c0-1.32.62-2.18 1.82-2.18 1.04 0 1.62.64 1.8 1.44l2.4-1.04c-.62-1.72-2.08-2.74-4.2-2.74-3.16 0-4.9 2.12-4.9 5.48 0 3.36 1.74 5.5 4.9 5.5zM82.94 162h2.96v-10.5h-2.96v6.82c0 1-.94 1.52-1.86 1.52-1.08 0-1.5-.72-1.5-2v-6.34h-2.96v6.6c0 2.64 1.14 4.14 3.28 4.14 1.72 0 2.58-.94 2.94-2h.1V162zM92.453 162v-6.14c0-1.22.84-1.6 2.56-1.6h.74v-2.76h-.52c-1.64 0-2.44 1.12-2.68 2.28h-.1v-2.28h-2.96V162h2.96zM101.967 162.24c2.7 0 4.5-1.48 4.5-3.5 0-1.82-1.18-2.86-3.46-3.16l-1.18-.16c-.86-.12-1.1-.42-1.1-.98 0-.52.4-.88 1.4-.88.88 0 1.76.42 2.42 1.08l1.7-1.74c-1.06-1.04-2.08-1.64-4.28-1.64-2.5 0-4.08 1.4-4.08 3.42 0 1.9 1.16 2.94 3.54 3.24l1.14.14c.74.1 1.06.36 1.06.88 0 .62-.4 1-1.56 1-1.14 0-2.04-.52-2.78-1.34l-1.74 1.76c1.08 1.2 2.4 1.88 4.42 1.88zM110.8 150.38c1.2 0 1.72-.62 1.72-1.46v-.44c0-.84-.52-1.46-1.72-1.46s-1.72.62-1.72 1.46v.44c0 .84.52 1.46 1.72 1.46zM109.32 162h2.96v-10.5h-2.96V162zM121.633 162l3.44-10.5h-2.8l-1.26 4.24-.98 3.8h-.16l-.98-3.8-1.3-4.24h-2.92l3.44 10.5zM131.687 162.24c1.92 0 3.46-.66 4.4-1.74l-1.48-1.84c-.66.68-1.34 1.26-2.58 1.26-1.58 0-2.32-.88-2.32-2.26v-.16h6.74v-.88c0-2.84-1.4-5.36-4.88-5.36-3.16 0-4.92 2.16-4.92 5.48 0 3.36 1.82 5.5 5.04 5.5zm-.06-8.8c1.18 0 1.76.86 1.76 2.14v.18h-3.68v-.16c0-1.3.74-2.16 1.92-2.16z" fill="#757575" fill-rule="nonzero"/><path d="M169.781 162l3.922-22.188h3.25L173.031 162h-3.25zm-3.094-19.219l.516-2.969h16.234l-.515 2.97h-16.234zM183.344 162l3.922-22.188h3.359L186.703 162h-3.36zm10.203 0l1.922-11.016c.166-.958.096-1.68-.211-2.164-.307-.484-.857-.726-1.649-.726-.854 0-1.645.245-2.375.734-.729.49-1.382 1.305-1.96 2.445-.579 1.141-1.076 2.685-1.493 4.633l.781-6.703h.688c.333-1.302 1.003-2.307 2.008-3.016 1.005-.708 2.206-1.062 3.601-1.062 1.677 0 2.847.503 3.508 1.508.662 1.005.815 2.497.461 4.476L196.906 162h-3.36zM210.172 159.344c.833 0 1.724-.13 2.672-.39.948-.261 1.86-.626 2.734-1.095l1.078 2.672c-1.02.563-2.114 1-3.281 1.313-1.167.312-2.281.469-3.344.469-2.146 0-3.82-.563-5.023-1.688-1.203-1.125-1.805-2.693-1.805-4.703 0-2.167.409-4.057 1.227-5.672.817-1.615 1.96-2.872 3.43-3.773 1.468-.901 3.182-1.352 5.14-1.352 1.542 0 2.742.385 3.602 1.156.859.771 1.289 1.844 1.289 3.219 0 2.042-1.045 3.651-3.133 4.828-2.089 1.177-5.003 1.802-8.742 1.875l-.328-2.5c2.791-.042 4.966-.411 6.523-1.11 1.557-.697 2.336-1.66 2.336-2.89 0-.5-.172-.893-.516-1.18-.344-.286-.833-.43-1.469-.43-1.24 0-2.33.318-3.273.954-.943.635-1.677 1.526-2.203 2.672-.526 1.146-.794 2.484-.805 4.015.01 1.136.36 2.021 1.047 2.657.688.635 1.636.953 2.844.953zM244.188 162.328c-1.417 0-2.514-.406-3.29-1.219-.776-.812-1.164-1.958-1.164-3.437 0-1.875.404-3.576 1.211-5.102.808-1.526 1.938-2.83 3.39-3.914 1.454-1.083 3.155-1.916 5.102-2.5 1.948-.583 4.068-.875 6.36-.875h.281l-2.75 2.969c-1.917.083-3.648.529-5.195 1.336-1.547.807-2.776 1.875-3.688 3.203-.911 1.328-1.367 2.826-1.367 4.492 0 .667.188 1.18.563 1.54.375.359.895.538 1.562.538 1.615 0 2.956-.669 4.024-2.007 1.067-1.339 1.867-3.263 2.398-5.774l-.094 6.484h-1.812l.625-.421c-.48 1.49-1.253 2.643-2.32 3.46-1.068.818-2.347 1.227-3.837 1.227zm9.687 7.172c-1.344 0-2.375-.2-3.094-.602-.719-.4-1.169-1.036-1.351-1.906-.183-.87-.154-2.002.086-3.398l3.047-17.313 3.234-1h.312l-3.359 18.938c-.156.854-.11 1.492.14 1.914.25.422.73.633 1.438.633h.594l-.453 2.734h-.594zM263.375 162.328c-1.458 0-2.589-.435-3.39-1.305-.803-.87-1.204-2.09-1.204-3.664 0-1.593.258-3.356.774-5.289.515-1.932 1.346-4.247 2.492-6.945l3.312.61c-1.135 2.76-1.958 5.028-2.468 6.804-.51 1.776-.766 3.253-.766 4.43 0 .76.198 1.349.594 1.765.396.417.953.625 1.672.625 1.385 0 2.53-.669 3.437-2.007.906-1.339 1.6-3.263 2.078-5.774l-.281 6.5h-1.031l.89-.75c-.364 1.021-.78 1.906-1.25 2.656a4.844 4.844 0 0 1-1.836 1.735c-.755.406-1.763.61-3.023.61zm10.406-.172c-1.125 0-2.02-.148-2.687-.445-.667-.297-1.12-.763-1.36-1.399-.24-.635-.291-1.458-.156-2.468l-.187-3.36 1.609-9.047h3.39l-2 11.266c-.176 1-.127 1.703.15 2.11.275.406.871.609 1.788.609H275l-.484 2.734h-.735zM287.422 142.813c-.636 0-1.18-.227-1.633-.68a2.227 2.227 0 0 1-.68-1.633c0-.646.227-1.193.68-1.64a2.24 2.24 0 0 1 1.633-.673c.646 0 1.193.224 1.64.672.448.448.672.995.672 1.641a2.24 2.24 0 0 1-.671 1.633c-.448.453-.995.68-1.641.68zm3.672 15.671l1.078 2.516c-.636.365-1.307.674-2.016.93-.708.255-1.52.382-2.437.382-1.886 0-3.287-.442-4.203-1.328-.917-.885-1.323-2.182-1.22-3.89a8.746 8.746 0 0 1 .462-2.281c.255-.74.531-1.459.828-2.157.297-.698.523-1.37.68-2.015.218-.855.127-1.5-.274-1.938-.4-.437-1.096-.656-2.086-.656-.99 0-1.942.12-2.86.36l-.327-2.845c.614-.177 1.229-.294 1.844-.351.614-.057 1.229-.086 1.843-.086 2.156 0 3.672.492 4.547 1.477.875.984 1.078 2.434.61 4.351-.178.74-.41 1.43-.696 2.07-.286.641-.55 1.274-.789 1.899a7.047 7.047 0 0 0-.437 2.031c-.115 1.594.78 2.39 2.687 2.39.521 0 .977-.064 1.367-.195.39-.13.857-.351 1.399-.664zM303.438 159.344a9.77 9.77 0 0 0 3.18-.531 10.618 10.618 0 0 0 2.757-1.391l1.125 2.562c-1.02.698-2.188 1.26-3.5 1.688a12.9 12.9 0 0 1-4.016.64c-2.052 0-3.64-.53-4.765-1.593-1.125-1.063-1.688-2.558-1.688-4.485 0-2.24.39-4.19 1.172-5.851.781-1.662 1.878-2.953 3.29-3.875 1.41-.922 3.064-1.383 4.96-1.383 1.708 0 3.068.27 4.078.813 1.01.541 1.776 1.416 2.297 2.625l-2.422 1.921c-.541-.833-1.161-1.44-1.86-1.82-.697-.38-1.54-.57-2.53-.57-1.125 0-2.112.323-2.961.969-.85.645-1.506 1.552-1.97 2.718-.463 1.167-.7 2.537-.71 4.11.01 1.093.326 1.942.945 2.547.62.604 1.493.906 2.618.906zM328.438 162.313c-1.948 0-3.506-.6-4.672-1.797-1.167-1.198-1.912-2.917-2.235-5.157 2.084-1 3.516-2 4.297-3 .781-1 1.172-1.927 1.172-2.78 0-.99-.563-1.485-1.688-1.485-.604 0-1.229.164-1.875.492-.645.328-1.26.807-1.843 1.437-.584.63-1.094 1.401-1.531 2.313-.438.911-.756 1.945-.954 3.101l.72-5.609h.608c.23-.948.62-1.773 1.172-2.476a5.773 5.773 0 0 1 2.024-1.641 5.865 5.865 0 0 1 2.617-.586c1.24 0 2.232.375 2.977 1.125.744.75 1.117 1.745 1.117 2.984 0 1.667-.492 3.13-1.477 4.391-.984 1.26-2.367 2.354-4.148 3.281l-.156-2.39c.333 1.78.82 3.03 1.46 3.75.641.718 1.57 1.078 2.79 1.078.302 0 .539-.008.71-.024.172-.015.357-.034.555-.054l.297 2.828c-.292.062-.589.114-.89.156a7.747 7.747 0 0 1-1.048.063zm-13.844-.329l3.297-18.687c.135-.802.09-1.386-.133-1.75-.224-.365-.654-.547-1.29-.547-.26 0-.517.013-.773.04-.255.025-.513.07-.773.132l-.36-2.688a8.55 8.55 0 0 1 1.188-.195 12.94 12.94 0 0 1 1.188-.055c1.812 0 3.052.438 3.718 1.313.667.875.834 2.281.5 4.219l-3.203 18.218h-3.36zM356.625 162.313c-.76 0-1.516-.03-2.266-.086a38.04 38.04 0 0 1-2.265-.243l1.562-3.03c.677.26 1.781.39 3.313.39 1.177 0 2.268-.216 3.273-.649a8.04 8.04 0 0 0 2.633-1.812 8.33 8.33 0 0 0 1.75-2.727c.417-1.041.625-2.177.625-3.406 0-.844-.193-1.497-.578-1.96-.386-.464-.932-.696-1.64-.696-.865 0-1.735.27-2.61.812-.875.542-1.662 1.39-2.36 2.547-.697 1.156-1.213 2.651-1.546 4.484l.609-6.734h1.36l-.813 1.188c.364-1.677 1.125-2.974 2.281-3.891 1.156-.917 2.6-1.375 4.328-1.375 1.365 0 2.425.435 3.18 1.305.755.87 1.133 2.101 1.133 3.695 0 1.74-.3 3.349-.899 4.828a11.788 11.788 0 0 1-2.523 3.875 11.505 11.505 0 0 1-3.805 2.57c-1.453.61-3.034.915-4.742.915zm-2.188-24.079c1.813 0 3.058.438 3.735 1.313s.838 2.281.484 4.219L355.453 162l-3.36-.016 3.266-18.53c.146-.803.105-1.386-.125-1.75-.229-.365-.661-.548-1.296-.548-.26 0-.519.013-.774.04-.255.025-.513.07-.773.132l-.329-2.844a8.55 8.55 0 0 1 1.188-.195 12.94 12.94 0 0 1 1.188-.055zM384.984 162.281c-1.76 0-3.052-.362-3.875-1.086-.823-.724-1.224-1.846-1.203-3.367.01-.552.102-1.182.274-1.89a52.11 52.11 0 0 1 .695-2.532l1.969-6.578 1.984 1.828H375.5v-2.89l10.922-.016-2.188 7.656a824.507 824.507 0 0 0-.703 2.524c-.177.64-.27 1.127-.281 1.46-.042 1.282.64 1.923 2.047 1.923.469 0 .875-.032 1.219-.094l.218 2.781a5.314 5.314 0 0 1-1.75.281zm-12.687-3.469l-2.531-2a14.854 14.854 0 0 0 2.406-3.304 15.343 15.343 0 0 0 1.422-3.883c.312-1.396.469-2.896.469-4.5v-1.344h3.343v1.313c0 1.896-.19 3.666-.57 5.312a18.096 18.096 0 0 1-1.703 4.563 17.29 17.29 0 0 1-2.836 3.844zM396.344 162.313c-1.844 0-3.284-.53-4.32-1.586-1.037-1.058-1.555-2.53-1.555-4.415 0-3.52.786-6.265 2.36-8.234 1.572-1.969 3.754-2.953 6.546-2.953 1.844 0 3.284.542 4.32 1.625 1.037 1.083 1.555 2.594 1.555 4.531 0 3.469-.784 6.175-2.352 8.117-1.567 1.943-3.752 2.915-6.554 2.915zm.578-2.954c1.562 0 2.784-.653 3.664-1.96.88-1.308 1.32-3.123 1.32-5.446 0-1.208-.26-2.154-.781-2.836-.52-.682-1.255-1.023-2.203-1.023-1.604 0-2.857.65-3.758 1.953-.901 1.302-1.351 3.114-1.351 5.437 0 1.22.273 2.17.82 2.852.547.682 1.31 1.023 2.289 1.023zM417.047 162l-.172-7.906-1.219.625-.25-9.281 2.844-.157.422 13.813h.281c.886-1.709 1.61-3.696 2.172-5.961.563-2.266.865-4.83.906-7.696h3.344c-.073 3.563-.589 6.722-1.547 9.477s-2.26 5.117-3.906 7.086h-2.875zm.156-11.031l.469 4.61h-1.5l.734-.688L413.25 162h-3.031l-1.422-16.563 3.312-.156.75 13.813h.282l4.062-8.125zM427.172 162l2.922-16.563h2.765l-.109 3.954L430.531 162h-3.36zm10.125 0l1.922-11.016c.166-.958.096-1.68-.211-2.164-.307-.484-.857-.726-1.649-.726a4.08 4.08 0 0 0-2.343.734c-.72.49-1.368 1.305-1.946 2.445-.578 1.141-1.07 2.685-1.476 4.633l.781-6.703h.688c.333-1.302.994-2.307 1.984-3.016.99-.708 2.177-1.062 3.562-1.062 1.677 0 2.847.503 3.508 1.508.662 1.005.815 2.497.461 4.476L440.656 162h-3.36zM473.297 169.5c-1.98 0-3.51-.823-4.594-2.469-1.083-1.646-1.625-3.963-1.625-6.953 0-4.625.458-8.565 1.375-11.82.917-3.255 2.245-5.737 3.985-7.446 1.74-1.708 3.848-2.562 6.328-2.562a5.72 5.72 0 0 1 4.953 2.766l-2.297 2.14c-.365-.614-.82-1.09-1.367-1.43a3.308 3.308 0 0 0-1.774-.507c-1.666 0-3.086.74-4.258 2.219-1.171 1.479-2.065 3.622-2.68 6.43-.614 2.806-.921 6.21-.921 10.21 0 2.052.265 3.64.797 4.766.531 1.125 1.27 1.687 2.219 1.687 1.447 0 2.171-.875 2.171-2.625 0-1.177-.283-2.396-.851-3.656-.568-1.26-1.362-2.443-2.383-3.547l2.578-2.094a12.848 12.848 0 0 1 2.79 4.25c.66 1.625.991 3.308.991 5.047 0 3.73-1.812 5.594-5.437 5.594zm-8.422-17.547l.516-2.906h14.437l-.515 2.906h-14.438zM490.094 162.313c-1.844 0-3.284-.53-4.32-1.586-1.037-1.058-1.555-2.53-1.555-4.415 0-3.52.786-6.265 2.36-8.234 1.572-1.969 3.754-2.953 6.546-2.953 1.844 0 3.284.542 4.32 1.625 1.037 1.083 1.555 2.594 1.555 4.531 0 3.469-.784 6.175-2.352 8.117-1.567 1.943-3.752 2.915-6.554 2.915zm.578-2.954c1.562 0 2.784-.653 3.664-1.96.88-1.308 1.32-3.123 1.32-5.446 0-1.208-.26-2.154-.781-2.836-.52-.682-1.255-1.023-2.203-1.023-1.604 0-2.857.65-3.758 1.953-.901 1.302-1.351 3.114-1.351 5.437 0 1.22.273 2.17.82 2.852.547.682 1.31 1.023 2.289 1.023zM503.766 162.64l-2.125-2.343 8.359-7.984 6.469-7.5 2.281 2.343-7.969 7.688-7.015 7.797zm9.562-.327c-1.25 0-2.255-.375-3.015-1.125-.76-.75-1.198-1.985-1.313-3.704l-.469-6.922c-.062-.864-.265-1.492-.61-1.882a1.638 1.638 0 0 0-1.28-.586c-.417 0-.818.039-1.204.117-.385.078-.791.21-1.218.398l-.797-2.718c1.437-.51 2.661-.766 3.672-.766 1.24 0 2.242.375 3.008 1.125.765.75 1.205 1.984 1.32 3.703l.469 6.922c.062.865.26 1.492.593 1.883.334.39.766.586 1.297.586.459 0 .904-.05 1.336-.149a7.158 7.158 0 0 0 1.367-.476l.844 2.719c-1.344.583-2.677.875-4 .875zM538.922 169.5l-.156-2.938 3.437-.28c1.333-.115 2.367-.394 3.102-.837.734-.442 1.289-1.08 1.664-1.914.375-.833.672-1.875.89-3.125l1.797-10.078c.146-.802.104-1.383-.125-1.742-.229-.36-.661-.54-1.297-.54-.99 0-1.984.069-2.984.204-1 .135-1.995.292-2.984.469l-.328-2.922a42.649 42.649 0 0 1 3.382-.492c1.14-.12 2.279-.18 3.414-.18 1.813 0 3.055.438 3.727 1.313.672.875.836 2.276.492 4.203l-1.64 9.265c-.282 1.563-.625 2.912-1.032 4.047-.406 1.136-.953 2.083-1.64 2.844-.688.76-1.576 1.344-2.664 1.75-1.089.406-2.451.661-4.086.766l-2.97.187zm13.656-26.688c-.635 0-1.18-.226-1.633-.68a2.227 2.227 0 0 1-.68-1.632c0-.646.227-1.193.68-1.64a2.24 2.24 0 0 1 1.633-.673c.646 0 1.193.224 1.64.672.449.448.673.995.673 1.641a2.24 2.24 0 0 1-.672 1.633c-.448.453-.995.68-1.64.68zM563.375 162.328c-1.458 0-2.589-.435-3.39-1.305-.803-.87-1.204-2.09-1.204-3.664 0-1.593.258-3.356.774-5.289.515-1.932 1.346-4.247 2.492-6.945l3.312.61c-1.135 2.76-1.958 5.028-2.468 6.804-.51 1.776-.766 3.253-.766 4.43 0 .76.198 1.349.594 1.765.396.417.953.625 1.672.625 1.385 0 2.53-.669 3.437-2.007.906-1.339 1.6-3.263 2.078-5.774l-.281 6.5h-1.031l.89-.75c-.364 1.021-.78 1.906-1.25 2.656a4.844 4.844 0 0 1-1.836 1.735c-.755.406-1.763.61-3.023.61zm10.406-.172c-1.125 0-2.02-.148-2.687-.445-.667-.297-1.12-.763-1.36-1.399-.24-.635-.291-1.458-.156-2.468l-.187-3.36 1.609-9.047h3.39l-2 11.266c-.176 1-.127 1.703.15 2.11.275.406.871.609 1.788.609H575l-.484 2.734h-.735zM582.031 145.438l-.203 4.265L579.656 162h-3.36l2.923-16.563h2.812zm.485 16.562l2.28-12.938c.157-.854-.114-1.28-.812-1.28-.645 0-1.218.562-1.718 1.687s-.912 2.713-1.235 4.765l.375-6.28h.797c.26-1.022.659-1.748 1.195-2.18.537-.433 1.185-.649 1.946-.649.968 0 1.648.349 2.039 1.047.39.698.45 1.807.18 3.328l-2.235 12.5h-2.812zm11.234-12.5l-2.203 12.5h-3.36l2.282-12.938c.073-.406.047-.72-.078-.945-.125-.224-.355-.336-.688-.336-.687 0-1.279.563-1.773 1.688-.495 1.125-.899 2.713-1.211 4.765l.218-6.28h1.047c.282-1.032.717-1.761 1.305-2.188.589-.427 1.3-.641 2.133-.641 2.062 0 2.838 1.458 2.328 4.375zM598.016 169.188h-3.36l4.172-23.75h2.797l-.11 3.921-3.5 19.828zm2.437-6.875c-.76 0-1.515-.03-2.265-.086a38.04 38.04 0 0 1-2.266-.243l1.562-3.03c.677.26 1.782.39 3.313.39 1.573 0 2.984-.375 4.234-1.125a8.14 8.14 0 0 0 2.961-3.07c.724-1.297 1.086-2.764 1.086-4.399 0-.844-.193-1.497-.578-1.96-.385-.464-.932-.696-1.64-.696-.865 0-1.735.27-2.61.812-.875.542-1.661 1.39-2.36 2.547-.697 1.156-1.213 2.651-1.546 4.484l.61-6.734h1.359l-.891 1.188c.375-1.677 1.146-2.974 2.312-3.891 1.167-.917 2.625-1.375 4.375-1.375 1.365 0 2.425.435 3.18 1.305.755.87 1.133 2.101 1.133 3.695 0 1.74-.3 3.349-.899 4.828a11.788 11.788 0 0 1-2.523 3.875 11.505 11.505 0 0 1-3.805 2.57c-1.453.61-3.034.915-4.742.915zM624.36 145.438h1.234l-.016 3c-.333.333-.797.729-1.39 1.187-.594.458-1.248.943-1.961 1.453a79.284 79.284 0 0 1-4.133 2.766c-.604.375-1.084.656-1.438.844l-1.64-2.672a68.598 68.598 0 0 0 2.07-1.274 89.229 89.229 0 0 0 2.61-1.726 70.764 70.764 0 0 0 2.609-1.875 24.946 24.946 0 0 0 2.054-1.703zm-.626 1.25l.641-1.25h2.313a43.715 43.715 0 0 0 1.195 3.421c.38.938.716 1.758 1.008 2.461.291.703.523 1.365.695 1.985.172.62.258 1.284.258 1.992.01 2.229-.68 3.956-2.07 5.18-1.391 1.224-3.363 1.835-5.915 1.835-1.166 0-2.187-.098-3.062-.296a9.78 9.78 0 0 1-2.563-.985l.97-2.812c.822.396 1.593.682 2.312.86.718.176 1.5.265 2.343.265 1.48 0 2.623-.339 3.43-1.016.807-.677 1.211-1.635 1.211-2.875 0-.677-.112-1.372-.336-2.086a21.675 21.675 0 0 0-.82-2.18 84.21 84.21 0 0 1-.938-2.234 12.213 12.213 0 0 1-.672-2.266zM658.844 162.313c-1.844 0-3.284-.53-4.32-1.586-1.037-1.058-1.555-2.53-1.555-4.415 0-3.52.786-6.265 2.36-8.234 1.572-1.969 3.754-2.953 6.546-2.953 1.844 0 3.284.542 4.32 1.625 1.037 1.083 1.555 2.594 1.555 4.531 0 3.469-.784 6.175-2.352 8.117-1.567 1.943-3.752 2.915-6.554 2.915zm.578-2.954c1.562 0 2.784-.653 3.664-1.96.88-1.308 1.32-3.123 1.32-5.446 0-1.208-.26-2.154-.781-2.836-.52-.682-1.255-1.023-2.203-1.023-1.604 0-2.857.65-3.758 1.953-.901 1.302-1.351 3.114-1.351 5.437 0 1.22.273 2.17.82 2.852.547.682 1.31 1.023 2.289 1.023zM674.328 162l-2.187-16.563 3.468-.312 1.594 13.969h.281c2.063-1.709 3.63-3.696 4.703-5.961 1.073-2.266 1.662-4.83 1.766-7.696h3.344c-.136 3.563-.943 6.722-2.422 9.477-1.48 2.755-3.646 5.117-6.5 7.086h-4.047zM697.672 159.344c.833 0 1.724-.13 2.672-.39.948-.261 1.86-.626 2.734-1.095l1.078 2.672c-1.02.563-2.114 1-3.281 1.313-1.167.312-2.281.469-3.344.469-2.146 0-3.82-.563-5.023-1.688-1.203-1.125-1.805-2.693-1.805-4.703 0-2.167.409-4.057 1.227-5.672.817-1.615 1.96-2.872 3.43-3.773 1.468-.901 3.182-1.352 5.14-1.352 1.542 0 2.742.385 3.602 1.156.859.771 1.289 1.844 1.289 3.219 0 2.042-1.045 3.651-3.133 4.828-2.089 1.177-5.003 1.802-8.742 1.875l-.328-2.5c2.791-.042 4.966-.411 6.523-1.11 1.557-.697 2.336-1.66 2.336-2.89 0-.5-.172-.893-.516-1.18-.343-.286-.833-.43-1.468-.43-1.24 0-2.331.318-3.274.954-.943.635-1.677 1.526-2.203 2.672-.526 1.146-.794 2.484-.805 4.015.01 1.136.36 2.021 1.047 2.657.688.635 1.636.953 2.844.953zM722.484 162.281c-1.76 0-3.052-.362-3.875-1.086-.823-.724-1.224-1.846-1.203-3.367.01-.552.102-1.182.274-1.89a52.11 52.11 0 0 1 .695-2.532l1.969-6.578 1.984 1.828H713v-2.89l10.922-.016-2.188 7.656a824.507 824.507 0 0 0-.703 2.524c-.177.64-.27 1.127-.281 1.46-.042 1.282.64 1.923 2.047 1.923.469 0 .875-.032 1.219-.094l.218 2.781a5.314 5.314 0 0 1-1.75.281zm-12.687-3.469l-2.531-2a14.854 14.854 0 0 0 2.406-3.304 15.343 15.343 0 0 0 1.422-3.883c.312-1.396.468-2.896.468-4.5v-1.344h3.344v1.313c0 1.896-.19 3.666-.57 5.312a18.096 18.096 0 0 1-1.703 4.563 17.29 17.29 0 0 1-2.836 3.844zM754.89 162.313c-1.916 0-3.325-.41-4.226-1.227-.901-.818-1.351-2.091-1.351-3.82 0-.438.02-.857.062-1.258.042-.401.107-.852.195-1.352.089-.5.196-1.114.32-1.844l2.173-12.375h3.359l-2.172 12.375c-.177 1.042-.32 1.844-.43 2.407a9.067 9.067 0 0 0-.164 1.734c0 .823.23 1.427.688 1.813.458.385 1.177.578 2.156.578.76 0 1.427-.063 2-.188s1.255-.349 2.047-.672l.61 2.672c-.75.323-1.545.597-2.384.82-.838.225-1.799.337-2.882.337zm-8.093-13.97l.515-2.905h14.594l-.515 2.906h-14.594zM774.797 162l1.922-11.016c.166-.958.096-1.68-.211-2.164-.307-.484-.857-.726-1.649-.726-.854 0-1.645.245-2.375.734-.729.49-1.382 1.305-1.96 2.445-.579 1.141-1.076 2.685-1.493 4.633l.782-6.703h.687c.333-1.302 1.003-2.307 2.008-3.016 1.005-.708 2.206-1.062 3.601-1.062 1.677 0 2.847.503 3.508 1.508.662 1.005.815 2.497.461 4.476L778.156 162h-3.36zm-10.219 0l3.281-18.547c.146-.802.105-1.385-.125-1.75-.229-.364-.661-.547-1.297-.547-.26 0-.518.013-.773.04-.255.025-.513.07-.773.132l-.328-2.844a8.55 8.55 0 0 1 1.187-.195 12.94 12.94 0 0 1 1.188-.055c1.812 0 3.054.438 3.726 1.313.672.875.836 2.281.492 4.219L767.938 162h-3.36zM791.422 159.344c.833 0 1.724-.13 2.672-.39.948-.261 1.86-.626 2.734-1.095l1.078 2.672c-1.02.563-2.114 1-3.281 1.313-1.167.312-2.281.469-3.344.469-2.146 0-3.82-.563-5.023-1.688-1.203-1.125-1.805-2.693-1.805-4.703 0-2.167.409-4.057 1.227-5.672.817-1.615 1.96-2.872 3.43-3.773 1.468-.901 3.182-1.352 5.14-1.352 1.542 0 2.742.385 3.602 1.156.859.771 1.289 1.844 1.289 3.219 0 2.042-1.045 3.651-3.133 4.828-2.089 1.177-5.003 1.802-8.742 1.875l-.328-2.5c2.791-.042 4.966-.411 6.523-1.11 1.557-.697 2.336-1.66 2.336-2.89 0-.5-.172-.893-.516-1.18-.343-.286-.833-.43-1.468-.43-1.24 0-2.331.318-3.274.954-.943.635-1.677 1.526-2.203 2.672-.526 1.146-.794 2.484-.805 4.015.01 1.136.36 2.021 1.047 2.657.688.635 1.636.953 2.844.953zM835.453 158.781l.61 2.828c-.74.25-1.412.43-2.016.54a9.986 9.986 0 0 1-1.781.163c-2.927 0-5.05-.955-6.368-2.867-1.317-1.911-1.976-4.981-1.976-9.21 0-2.417.338-4.521 1.015-6.313.678-1.792 1.63-3.185 2.86-4.18 1.229-.995 2.667-1.492 4.312-1.492 1.396 0 2.482.435 3.258 1.305.776.87 1.164 2.08 1.164 3.632 0 2.625-.627 5.03-1.883 7.211-1.255 2.183-3.049 4.063-5.382 5.641-2.334 1.578-5.12 2.779-8.36 3.602l-.625-2.813c2.677-.667 4.985-1.65 6.922-2.953 1.938-1.302 3.43-2.86 4.477-4.672 1.047-1.812 1.57-3.818 1.57-6.016-.02-.614-.174-1.096-.46-1.445-.287-.349-.675-.523-1.165-.523-.885 0-1.661.427-2.328 1.281-.667.854-1.182 2.05-1.547 3.586s-.547 3.336-.547 5.398c0 2.76.412 4.76 1.235 6 .822 1.24 2.145 1.86 3.968 1.86a8.61 8.61 0 0 0 1.563-.133 8.27 8.27 0 0 0 1.484-.43zM843.922 162.328c-1.417 0-2.51-.406-3.281-1.219-.771-.812-1.157-1.958-1.157-3.437 0-1.875.399-3.576 1.196-5.102.797-1.526 1.914-2.83 3.351-3.914 1.438-1.083 3.12-1.916 5.047-2.5 1.927-.583 4.021-.875 6.281-.875h.313l-2.063 11.766c-.145.833-.08 1.437.196 1.812s.872.563 1.789.563h.64l-.468 2.734h-1.11c-.802 0-1.471-.08-2.008-.242-.536-.161-.953-.417-1.25-.766-.296-.349-.487-.81-.57-1.382-.083-.573-.073-1.271.031-2.094l.907.406h-1.813l.828-.906c-.573 1.635-1.458 2.904-2.656 3.805-1.198.9-2.599 1.351-4.203 1.351zm1.015-2.969c1.5 0 2.808-.677 3.922-2.03 1.115-1.355 1.896-3.272 2.344-5.75l.813-4.532 1.265 1.203c-1.458.063-2.82.333-4.086.813-1.265.479-2.375 1.122-3.328 1.93a8.9 8.9 0 0 0-2.234 2.812 7.634 7.634 0 0 0-.805 3.476c0 .667.185 1.18.555 1.54.37.359.888.538 1.554.538zM874.375 148.344l-12.688 11.937-2.78-1.672L872.14 146.5l2.234 1.844zm-1.844 10.75l-.515 2.906h-12.328l-.782-3.39.969.484h12.656zm1.844-10.75h-13.438l.516-2.906h12.453l.469 2.906zM876.047 169.375l-1.39-2.734c2.374-1.032 4.465-2.217 6.273-3.555a23.302 23.302 0 0 0 4.672-4.57c1.307-1.709 2.388-3.644 3.242-5.805.854-2.162 1.515-4.586 1.984-7.274h3.344c-.781 4.053-1.932 7.586-3.453 10.602s-3.482 5.607-5.883 7.774c-2.401 2.166-5.33 4.02-8.79 5.562zm5.015-24.25c1.532 6.25 3.553 10.984 6.063 14.203l-2.89 1.875c-1.303-1.969-2.503-4.26-3.602-6.875-1.1-2.614-2.107-5.578-3.024-8.89l3.453-.313zM919 162.328c-1.438 0-2.55-.406-3.336-1.219-.786-.812-1.18-1.958-1.18-3.437 0-1.906.399-3.63 1.196-5.172.797-1.542 1.914-2.862 3.351-3.96 1.438-1.1 3.12-1.944 5.047-2.532 1.927-.589 4.021-.883 6.281-.883h.282l-2.36 2.969c-1.948.083-3.713.536-5.297 1.36-1.583.822-2.838 1.908-3.765 3.257-.927 1.349-1.39 2.872-1.39 4.57 0 .667.19 1.18.57 1.54.38.359.919.538 1.617.538 1.458 0 2.731-.677 3.82-2.03 1.088-1.355 1.878-3.272 2.367-5.75l-.187 6.483h-1.813l1.563-.89c-.521 1.552-1.373 2.8-2.555 3.742-1.182.943-2.586 1.414-4.211 1.414zm10.578-.172c-.76 0-1.404-.094-1.93-.281-.526-.188-.94-.471-1.242-.852-.302-.38-.495-.864-.578-1.453-.083-.588-.068-1.284.047-2.086l.188-5.156 1.625-9.031c.145-.802.104-1.386-.125-1.75-.23-.365-.662-.547-1.297-.547-.26 0-.519.013-.774.04-.255.025-.513.07-.773.132l-.36-2.688a8.55 8.55 0 0 1 1.188-.195 12.94 12.94 0 0 1 1.187-.055c1.813 0 3.055.438 3.727 1.313.672.875.836 2.281.492 4.219l-2.344 13.265c-.093.531-.096.974-.007 1.328.088.355.273.62.554.797.282.177.662.266 1.14.266h.954l-.484 2.734h-1.188zM940.094 162.313c-1.844 0-3.284-.53-4.32-1.586-1.037-1.058-1.555-2.53-1.555-4.415 0-3.52.786-6.265 2.36-8.234 1.572-1.969 3.754-2.953 6.546-2.953 1.844 0 3.284.542 4.32 1.625 1.037 1.083 1.555 2.594 1.555 4.531 0 3.469-.784 6.175-2.352 8.117-1.567 1.943-3.752 2.915-6.554 2.915zm.578-2.954c1.562 0 2.784-.653 3.664-1.96.88-1.308 1.32-3.123 1.32-5.446 0-1.208-.26-2.154-.781-2.836-.52-.682-1.255-1.023-2.203-1.023-1.604 0-2.857.65-3.758 1.953-.901 1.302-1.351 3.114-1.351 5.437 0 1.22.273 2.17.82 2.852.547.682 1.31 1.023 2.289 1.023zM951.86 169.5l-.157-2.906 3.281-.203c1.302-.084 2.41-.334 3.32-.75.912-.417 1.66-.953 2.243-1.61a7.607 7.607 0 0 0 1.367-2.187c.328-.802.56-1.63.695-2.485l2.078-11.78 3.641-2.298h.125l-2.406 13.578a20.674 20.674 0 0 1-1.133 4.063 10.674 10.674 0 0 1-2.023 3.266c-.855.937-1.95 1.682-3.29 2.234-1.338.552-2.981.87-4.93.953l-2.812.125zM966 148.25c-1.458.063-2.818.333-4.078.813-1.26.479-2.362 1.122-3.305 1.93a8.897 8.897 0 0 0-2.21 2.812 7.696 7.696 0 0 0-.798 3.476c0 .667.19 1.18.57 1.54.38.359.92.538 1.618.538a4.61 4.61 0 0 0 2.781-.898c.823-.599 1.524-1.48 2.102-2.64.578-1.162 1.013-2.576 1.304-4.243l.11-.625 1.61 1.313-1.813 6.125h-1.813l.75-.75c-.469 1.49-1.229 2.643-2.281 3.46-1.052.818-2.307 1.227-3.766 1.227-1.437 0-2.55-.406-3.336-1.219-.786-.812-1.18-1.958-1.18-3.437 0-1.875.4-3.576 1.196-5.102.797-1.526 1.914-2.83 3.351-3.914 1.438-1.083 3.123-1.916 5.055-2.5 1.932-.583 4.029-.875 6.29-.875h.28L966 148.25zM978.016 162.313c-.636 0-1.18-.227-1.633-.68a2.227 2.227 0 0 1-.68-1.633c0-.646.227-1.193.68-1.64a2.24 2.24 0 0 1 1.633-.673c.645 0 1.192.224 1.64.672.448.448.672.995.672 1.641a2.24 2.24 0 0 1-.672 1.633c-.448.453-.995.68-1.64.68zM1014.719 169.328l-.25-.016c-1.76-.114-3.089-.481-3.985-1.101-.895-.62-1.49-1.555-1.78-2.805-.293-1.25-.407-2.875-.345-4.875a41.16 41.16 0 0 1 .368-4.258c.203-1.494.481-3.15.836-4.968.354-1.818.77-3.878 1.25-6.18l3.187.453c-.48 2.583-.893 4.823-1.242 6.719a110.184 110.184 0 0 0-.805 4.898c-.187 1.37-.292 2.576-.312 3.618 0 1.187.036 2.156.109 2.906.073.75.32 1.325.742 1.726s1.154.68 2.196.836l.718.11-.687 2.937zm-2.907-7l-.875-.016.235-2.953h1.656c1.188 0 2.266-.3 3.235-.898.968-.599 1.786-1.477 2.453-2.633.666-1.156 1.13-2.573 1.39-4.25l-.281 6.5h-1.031l.89-.75c-.323 1.021-.78 1.912-1.375 2.672-.593.76-1.398 1.344-2.414 1.75-1.015.406-2.31.599-3.883.578zm11.844-.172c-1.125 0-2.005-.125-2.64-.375-.636-.25-1.063-.687-1.282-1.312-.218-.625-.276-1.495-.172-2.61l.125-1.734-.296-1.64 1.609-9.032h3.39l-2.03 11.406c-.167.948-.094 1.612.218 1.993.313.38.953.57 1.922.57h.453l-.484 2.734h-.813zM1039.469 162.313c-1.48 0-2.49-.373-3.032-1.118-.541-.744-.666-1.935-.374-3.57l2.156-12.188h3.343l-2.124 12.032c-.115.656-.112 1.133.007 1.43.12.296.456.445 1.008.445.25 0 .516-.034.797-.102.281-.068.615-.153 1-.258l.313 2.828a9.22 9.22 0 0 1-1.461.391c-.433.073-.977.11-1.633.11zm-11.594-13.907l.516-2.969h16.25l-.516 2.97h-16.25zm.203 13.594l2.922-16.563h3.344L1031.422 162h-3.344zM1054.063 148.25c-.99 0-1.86.326-2.61.977-.75.65-1.333 1.539-1.75 2.664-.417 1.125-.625 2.4-.625 3.828 0 1.166.227 2.065.68 2.695.453.63 1.086.945 1.898.945 1.396 0 2.602-.68 3.617-2.039 1.016-1.36 1.743-3.273 2.18-5.742l1.094-6.14h3.344l-2.032 11.609c-.145.833-.08 1.437.196 1.812s.872.563 1.789.563h.64l-.468 2.734h-1.11c-1.604 0-2.687-.336-3.25-1.008-.562-.671-.745-1.83-.547-3.476l.907.406h-1.813l.75-.906c-.531 1.635-1.346 2.904-2.445 3.805-1.1.9-2.388 1.351-3.867 1.351-1.563 0-2.771-.544-3.625-1.633-.855-1.088-1.282-2.617-1.282-4.586 0-2.166.336-4.062 1.008-5.687.672-1.625 1.612-2.888 2.82-3.79 1.209-.9 2.62-1.35 4.235-1.35 1.292 0 2.219.231 2.781.695.563.463 1.005 1.065 1.328 1.804h.344l.266 3.313a10.448 10.448 0 0 0-.72-1.11c-.322-.448-.78-.849-1.374-1.203-.594-.354-1.38-.531-2.36-.531z" fill="#000" fill-rule="nonzero"/></g></svg>