<svg xmlns="http://www.w3.org/2000/svg" width="641" height="325" viewBox="0 0 641 325"><path fill="#fff" d="M0 0h641v325H0z"/><path d="M166.483 39.266 157.757 67h3.74l2.056-6.937h10.222L175.589 67h3.676l-7.693-27.734zm-1.965 17.54 4.293-14.488h.323l3.789 14.488zm27.106-10.9c-2.188 0-4.851.42-7.173 1.385l1.033 3.187c1.97-.767 4.265-1.211 6.012-1.211 3.637 0 4.679 1.794 4.586 4.72l-.022.685c-8.015-1.031-13.416 1.579-13.403 6.91 0 3.7 2.444 5.809 6.687 5.809 3.675 0 6.22-1.504 6.808-4.248h.547c.317 2.825 1.903 4.052 5.372 4.052h.61l.11-3.144h-.313c-2.417-.007-3.043-1.129-2.933-3.263l.287-6.999c.189-4.914-2.244-7.883-8.209-7.883M186.4 61.422c0-3.264 4.267-4.867 9.564-3.839l-.03.922-.017-.046c-.156 4.009-2.857 5.713-5.968 5.713-2.32 0-3.55-.967-3.55-2.75m26.776 5.968c7.887 0 12.528-4.822 12.528-12.397 0-4.577-1.605-9.087-6.91-9.087-3.45 0-6.06 1.937-6.878 5.329h-.437l.506-13.532h-3.712L207.178 67a53 53 0 0 0 5.997.39m-2.172-3.41.19-5.104c.49-6.72 3.78-9.61 6.95-9.61 3.247 0 3.905 3.023 3.905 5.692 0 5.29-2.757 9.2-8.543 9.2-.77 0-1.649-.07-2.502-.179m21.005-24.713L231.539 67h16.618v-3.354H235.25l.15-8.856h11.076v-3.353h-11.02l.149-8.818H248.6v-3.353zm24.226 0L255.764 67h3.656l.186-11.038h11.144v-3.353h-11.087l.169-9.99h12.98v-3.353zm31.721 28.124c3.387 0 6.252-.77 7.446-1.171l.227-12.907h-8.465v3.346h4.91l-.143 7.09a16.6 16.6 0 0 1-3.528.385c-5.842 0-8.876-3.641-8.876-10.773 0-5.8 2.238-11.227 8.82-11.227 2.156 0 4.102.994 5.395 2.759l2.637-2.619c-1.418-2.137-4.4-3.398-8.228-3.398-8.856 0-12.35 6.727-12.35 14.759 0 9.011 4.101 13.757 12.155 13.757m20.685 7.617c5.49 0 9.204-3.096 9.204-7.353 0-3.25-1.786-4.518-7.259-5.903-4.986-1.246-6.59-2.667-6.59-5.74 0-3.75 2.002-6.777 5.21-6.777 2.8 0 4.718 2.288 4.718 5.56 0 3.348-2.357 6.993-5.737 7.366v1.327h4.874v-1.885l-.856.732c3.09-.511 5.214-3.782 5.214-7.587 0-5.33-3.37-8.842-8.078-8.842-5.358 0-9.033 4.492-9.033 10.198 0 4.701 2.546 7.156 8.817 8.85 3.882 1.03 5.2 1.56 5.2 3.105 0 1.89-2.21 3.62-5.492 3.62-3.501 0-6.186-1.874-7.43-3.97l-2.708 2.636c2.418 3.253 5.803 4.663 9.947 4.663m3.464-27.93 3.588 3.46 1.146-1.395-.707.195q1.112 1.094 4.49 1.094v-3.354zm26.155-7.812-.208 12.249h-10.487l.207-12.25h-3.655L323.648 67h3.655l.205-12.132h10.487L337.791 67h3.654l.469-27.734zm26.506 0h-16.704v3.353h6.472l-.356 21.027h-6.545V67h16.703v-3.354h-6.503l.355-21.027h6.578zm9.464 0v3.353h8.884l-.196 14.225c-.078 4.799-2.262 7.186-6.606 7.186-1.648 0-3.949-.475-6.1-1.264l-.757 3.258c2.358.895 4.672 1.367 6.74 1.367 6.878 0 10.293-3.555 10.378-10.743l.242-17.382zm21.84 0L395.602 67h17.087v-3.354h-13.376l.412-24.38zm25.853 5.74L430.152 67h4.887l.469-27.734h-3.655l-.372 21.994h-.342l-8.268-21.994h-4.848L417.555 67h3.654l.372-21.994zm19.421 29.377h3.718l.262-7.06c.858.046 1.648.068 2.258.068 7.887 0 12.528-4.823 12.528-12.398 0-4.577-1.605-9.087-6.91-9.087-3.45 0-6.12 1.937-6.953 5.329h-.345l-.473-4.938h-3.126zm4.103-10.399.212-5.717c.634-6.287 3.818-9 6.89-9 3.248 0 3.906 3.022 3.906 5.69 0 5.29-2.757 9.2-8.543 9.2-.759 0-1.623-.068-2.465-.173m34.185 10.828h1.587v-3.186h-1.516c-2.949 0-4.585-1.48-4.856-4.335 7.193-.917 8.754-7.99 8.754-14.673 0-9.173-3.299-13.743-9.882-13.743-8.668 0-10.422 8.026-10.422 15.117 0 8.09 2.7 12.474 8.043 13.267.242 5.005 3.045 7.553 8.292 7.553m-6.35-10.68c-4.128 0-6.227-3.395-6.227-10.21 0-4.424.664-11.79 6.592-11.79 4.16 0 6.228 3.475 6.228 10.525 0 4.494-.711 11.476-6.593 11.476m33.891-24.867h-20.14v3.353h8.19L494.81 67h3.655l.412-24.38h8.296zm2.278 0 8.982 17.728-.17 10.006h3.654l.17-9.896 9.653-17.838h-3.815l-7.32 14.246h-.317l-6.845-14.246zm25.784 35.859q16.654-7.307 18.117-28.828h-3.79q-.688 19.185-16.016 25.805zm-.873-28.828q3.968 12.393 9.614 20.26l2.725-2.2q-4.944-6.933-8.454-18.415zm23.966 17.349V67h17.766v-3.354h-13.751L576.1 42.62v-3.353h-17.374v3.353h13.266zM580.7 48.41l1.182 3.07c3.242-1.602 5.807-2.188 8.421-2.188 3.055 0 4.525.828 4.525 2.718 0 2.736-3.01 5.417-8.094 6.511l.472 2.768c.586-.085 1.2-.132 1.815-.132 3.393-.007 6.734 1.358 6.734 5.255 0 3.15-2.22 5.243-5.556 5.243-3.364 0-4.767-1.989-5.254-4.878l-3.474.824c.533 4.865 3.84 7.407 8.98 7.407 4.99 0 9.023-3.146 9.023-8.238 0-4.218-2.7-7.244-6.843-7.491l-.042-.495c3.795-1.471 5.887-4.328 5.887-7.384 0-3.618-2.787-5.493-7.758-5.493-3.14 0-6.552.707-10.018 2.504m-414.217 62.855L157.757 139h3.74l2.41-8.135c4.885-1.07 9.563 1.435 11.182 6.225l.5 1.91h3.676l-7.693-27.734zm-1.588 16.267 3.916-13.215h.323l4.362 16.68h-.403c-1-2.709-4.363-4.054-8.198-3.465m29.797-9.666c-6.991 0-12.145 5.433-12.145 12.944 0 5.355 2.465 8.54 6.83 8.54 3.602 0 6.082-2.106 7.04-5.79h.366c.005.547.047 1.055.112 1.509.383 2.776 1.946 4.125 5.134 4.125h1.094l.11-3.137h-.881c-1.51 0-2.312-.685-2.522-2.103-.039-.294-.039-.621-.039-.987l.522-14.398c-1.856-.415-3.582-.703-5.62-.703m-8.45 12.83c0-5.473 3.68-9.47 8.192-9.47.712 0 1.398.06 2.023.151l-.178 4.738c-.385 6.917-3.08 9.875-6.174 9.875-2.509 0-3.863-1.855-3.863-5.294m29.255 5.373c-3.166 0-4.661-2.044-4.53-5.909l.781-20.458h-3.743l-.75 20.362c-.234 5.984 2.61 9.326 7.98 9.326 5.833 0 9.679-4.042 9.679-10.072 0-4.333-2.37-7.065-6.578-8.261l1.009 1.217.277-1.157q3.675 1.314 7.3 1.314v-3.354q-4.845 0-10.768-.916l-.174 3.843c3.134.875 5.19 3.436 5.19 6.885 0 4.422-2.067 7.18-5.673 7.18m25.841-25.195c-6.621 0-9.559 2.699-9.559 6.758 0 3.25 1.821 5.703 6.235 6.414v.215c-3.87.211-7.304 2.672-7.304 7.185 0 4.833 3.934 7.943 10.312 7.943 3.746 0 5.639-.312 8.078-1.328l-.82-3.194c-2.734.927-4.211 1.169-7.297 1.169-4.153 0-6.643-1.797-6.643-4.976 0-3.205 2.622-4.974 6.487-4.974h3.259l.43-3.314c-6.716-.203-9.146-1.57-9.146-4.508 0-2.402 1.859-4.132 5.975-4.132 2.461 0 4.483 1.012 5.662 2.752l2.583-2.619c-1.363-2.101-4.197-3.39-8.252-3.39m31.364 3.744v-3.354h-18.174v3.353h12.572v.33c-3.793.583-6.307 3.761-6.417 8.048l-.036 1.231h-5.725v3.29h5.63l-.05 1.762c-.15 4.824-1.375 6.562-4.696 6.562h-2.173v3.353h2.748c5.33 0 7.659-3.118 7.808-10.234l.033-1.443h7.532v-3.29H264.3l.04-1.646c.078-3.9 3.202-6.858 8.363-7.963m15.906-3.744c-7.056 0-11.46 5.064-11.46 13.316 0 7.565 3.797 12.248 10.103 12.248 1.75 0 3.387-.384 4.616-1.062l-.05 2.149c-.086 3.805-1.997 6.128-5.919 6.128-2.006 0-4.03-.384-5.984-1.36l-1.032 3.243c2.219 1.094 4.474 1.47 6.888 1.47 6.254 0 9.57-3.6 9.695-9.8l.117-5.784h-2.335c-1.63 1.307-3.356 1.758-5.414 1.758-4.486 0-6.927-3.416-6.927-9.188 0-6.128 2.882-9.86 7.599-9.86 2.404 0 4.16 1.026 5.232 2.758l2.668-2.654c-1.502-2.099-4.155-3.362-7.797-3.362m28.728 26.595.703-18.9c-1.871-.436-3.76-.703-5.834-.703-7.094 0-12.272 5.532-12.272 12.705 0 4.93 2.443 7.966 6.492 7.966 3.73 0 6.13-1.92 6.891-5.335h.434l-.14 3.82c-.156 4.397-2.877 6.837-6.816 6.837-1.638 0-3.814-.401-5.746-1.04l-.565 3.367c1.879.586 4.326.938 6.335.938 6.144 0 10.283-3.555 10.518-9.654m-13.723-6.947c0-5.207 3.702-9.295 8.62-9.295.71 0 1.364.053 1.952.136l-.171 4.665c-.613 6.416-3.558 9.181-6.624 9.181-2.335 0-3.777-1.776-3.777-4.687m34.646-19.258-.281 16.586h-.394c-1.023-4.007-5.234-6.466-9.996-5.754l.183-10.832h-3.655L323.648 139h3.655l.23-13.59c5.729-.953 10.043 3.126 10.322 9.757l-.064 3.833h3.654l.469-27.734zm18.47 20.364 1.36-3.083c-4.188-1.381-6.248-3.981-6.248-8.08 0-3.89 1.833-6.263 4.76-6.263 3.286 0 5.044 2.98 5.044 9.2 0 8.505-2.706 12.626-8.67 12.626q-2.782 0-5.401-1.24l-.952 3.283q2.965 1.318 6.346 1.318c8.213 0 12.364-5.555 12.364-16.115 0-8.165-3.09-12.4-8.604-12.4-5.106 0-8.504 3.806-8.504 9.637 0 5.54 3.231 9.407 8.505 11.118m16.77 14.265q2.318 1.112 5.162 1.112c5.61 0 8.767-3.519 8.994-10.07l.508-15.723c.227-6.487-3.032-10.34-8.564-10.34-6.129 0-9.268 4.757-9.268 10.358 0 6.449 4.25 11.456 10.28 13.903l1.392-3.244c-4.86-1.89-8.088-5.704-8.088-10.722 0-4.057 2.103-6.973 5.588-6.973 3.328 0 5.162 2.774 5.005 7.241l-.476 15.18c-.156 4.937-1.854 7.036-5.467 7.036q-2.233 0-4.066-1.033zM394.558 139h3.964v-3.354q3.395-2.708 3.48-8.388l.092-5.77c.086-5.068 1.407-7.064 4.874-7.064h2.493v-3.354h-2.71c-5.396 0-8.162 3.416-8.28 10.003l-.124 6.536q-.117 5.659-3.79 8.038zm1.77-3.353V139h16.36v-3.353zm35.572-15.44L431.58 139h3.654l.352-19.95c.085-5.384-2.167-8.175-6.24-8.175-3.94 0-6.543 2.401-7.444 6.773h-.332l.108-6.382h-3.655L417.555 139h3.654l.201-11.883c.384-7.943 3.041-12.825 6.943-12.825 2.462 0 3.624 1.837 3.546 5.915m21.609 13.46c0 3.497 2.322 5.529 6.446 5.529h1.61l.03-3.354h-1.473c-1.943 0-3.132-.895-3.132-2.66 0-2.26 1.882-4.742 1.882-8.446 0-4.184-2.348-6.83-6.052-6.83-3.306 0-5.937 2.045-6.754 5.33h-.41l.28-7.946h-3.75l-1.068 31.093h3.718l.552-15.569c.609-6.098 3.044-9.547 6.39-9.547 2.153 0 3.415 1.4 3.415 3.827 0 3.023-1.684 5.586-1.684 8.574m18.5 5.652 1.064-3.194c-3.971-.135-6.017-3.545-6.017-10.205 0-4.423.664-11.788 6.592-11.788 4.16 0 6.228 3.817 6.228 10.67 0 9.533-4.182 15.154-12.4 18.233v3.347h16.378v-3.347h-11.405v-.322c6.247-1.503 11.153-8.155 11.153-18.217 0-8.743-3.3-13.622-9.883-13.622-8.668 0-10.422 8.026-10.422 15.117 0 8.363 2.937 12.795 8.711 13.328m34.133-24.7v-3.354h-4.646v3.676c-6.457 1.301-11.265 7.612-11.265 14.402 0 6.086 3.856 10.047 10.003 10.047q2.293 0 4.612-.71l-.787-3.283q-1.936.64-3.666.64c-4.01 0-6.443-2.687-6.443-7.099 0-6.14 4.23-11.308 12.193-14.32m-18.912-3.354v3.353h18.913v-3.353zm41.56 25.942.469-25.941h-3.655l-.168 9.422c-.406 7.867-3.056 12.697-6.936 12.697-2.463 0-3.625-1.836-3.547-5.914l.28-16.205h-3.654l-.312 17.361c-.086 5.384 2.166 8.175 6.24 8.175 3.94 0 6.543-2.4 7.444-6.773h.318l-.134 7.498c-.078 3.805-2.106 6.128-6.302 6.128-2.163 0-4.265-.384-6.374-1.36l-1.033 3.243c2.344 1.094 4.748 1.47 7.28 1.47 6.494 0 9.967-3.6 10.084-9.8zm12.949 1.324c3.288 0 5.214-1.524 5.936-4.227h.41l-.098 2.719c-.156 4.397-2.877 6.837-6.816 6.837-1.638 0-3.814-.401-5.746-1.04l-.565 3.367c1.879.586 4.326.938 6.335.938 6.144 0 10.283-3.555 10.51-9.654l.71-19.174h-3.75l-.33 9.14c-.568 5.267-3.094 7.702-6.135 7.702-2.54 0-3.813-1.726-3.813-5.134 0-2.844.746-6.179 2.052-11.42l-3.744-.678c-1.285 5.003-2.027 8.841-2.027 12.095 0 5.717 2.614 8.53 7.07 8.53m29.846-.196c0-3.783-3.502-5.236-9-5.104l-.458-3.152c6.553-2.911 9.926-6.602 9.926-10.825 0-3.431-2.187-5.026-5.846-5.026-2.699 0-5.231.998-7.622 3.125l-1.987-2.874c2.901-2.326 6.26-3.605 10-3.605 5.752 0 9.175 2.92 9.175 7.933 0 4.994-3.409 9.482-8.98 11.73l.02.39c5.067.17 8.49 2.72 8.49 7.217 0 5.425-4.001 8.863-10.378 8.863-2.234 0-4.595-.398-6.793-1.506l1.157-3.236a11.76 11.76 0 0 0 5.526 1.388c4.305 0 6.77-2.01 6.77-5.318m9.117-17.926 1.182 3.07c3.242-1.602 5.807-2.188 8.421-2.188 3.055 0 4.525.828 4.525 2.718 0 2.736-3.01 5.417-8.094 6.511l.472 2.768c.586-.085 1.2-.132 1.815-.132 3.393-.007 6.734 1.358 6.734 5.255 0 3.15-2.22 5.243-5.556 5.243-3.364 0-4.767-1.989-5.254-4.878l-3.474.824c.533 4.865 3.84 7.407 8.98 7.407 4.99 0 9.023-3.146 9.023-8.238 0-4.218-2.7-7.244-6.843-7.491l-.042-.495c3.795-1.471 5.887-4.328 5.887-7.384 0-3.618-2.787-5.493-7.758-5.493-3.14 0-6.552.707-10.018 2.504m-411.764 62.855L156.312 211h3.74l3.53-8.078c4.901-1.11 9.127 1.101 10.261 5.598l.3 2.48h3.677l-3.795-27.734zm-3.859 16.23 5.758-13.178h.323l2.026 16.754-.455.02c-.615-2.687-3.767-4.116-7.652-3.595m31.049-9.63c-6.991 0-12.803 5.333-13.859 12.844-.753 5.355 1.341 8.64 5.706 8.64 3.633 0 6.35-2.06 7.804-5.79h.327c-.058.51-.076.984-.075 1.41-.008 2.775 1.43 4.224 4.617 4.224h1.003l.55-3.137h-.97c-1.51 0-2.152-.587-2.163-2.004.003-.295.062-.62.113-.986l2.56-14.498h-.187c-1.763-.404-3.424-.703-5.426-.703m-10.177 12.93c.77-5.474 5.116-9.57 9.627-9.57.679 0 1.326.05 1.915.129l-.739 4.148v-.02c-1.299 7.298-4.59 10.506-7.762 10.506-2.509 0-3.525-1.754-3.042-5.193m28.425 5.273c-3.165 0-4.294-1.944-3.62-5.809l3.668-20.558h-3.743l-3.6 20.262c-1.076 5.984 1.378 9.426 6.748 9.426 5.834 0 10.143-3.942 10.99-9.972.609-4.333-1.453-7.137-5.494-8.333l.93 1.19.528-1.192q3.582 1.312 7.116 1.347l.29-3.353q-4.935.015-10.64-.9l-.53 3.803c3.01.874 4.63 3.36 4.145 6.81-.621 4.422-3.181 7.279-6.787 7.279m29.382-25.195c-6.622 0-9.833 2.599-10.404 6.658-.454 3.227 1.072 5.75 5.324 6.486l-.033.236c-3.93.174-7.662 2.545-8.301 7.093-.68 4.832 2.894 8.043 9.272 8.043 3.746 0 5.67-.275 8.253-1.29l-.532-3.264c-2.864.927-4.384 1.2-7.47 1.2-4.153 0-6.314-1.697-5.867-4.876.45-3.205 3.425-5.074 7.29-5.074h3.169l.804-3.312c-6.687-.202-8.847-1.473-8.434-4.41.337-2.402 2.543-4.232 6.66-4.232 2.46 0 4.31.928 5.245 2.668l2.83-2.45c-1.068-2.102-3.752-3.476-7.807-3.476m31.015 3.765.385-3.374h-18.173l-.472 3.353H269l-.051.315c-3.876.583-6.737 3.676-7.45 7.963l-.225 1.331h-5.72l-.463 3.29h5.625l-.281 1.662c-.827 4.824-2.4 6.662-5.72 6.662h-2.083l-.47 3.353H255c5.33 0 7.977-3.018 9.144-10.134l.252-1.543h7.527l.462-3.29h-7.45l.254-1.546c.637-3.9 4.264-6.937 9.581-8.042m16.255-3.765c-7.055 0-12.066 4.964-13.225 13.216-1.064 7.565 2.151 12.348 8.458 12.348 1.713 0 3.352-.329 4.655-.965l-.322 1.952c-.62 3.805-2.96 6.228-6.882 6.228-2.007 0-3.973-.338-5.79-1.315l-1.313 3.154c2.066 1.094 4.271 1.515 6.685 1.515 6.254 0 9.973-3.5 10.97-9.701l.941-5.884h-2.334l-.106.097.043-.159c-1.814 1.307-3.632 1.82-5.69 1.82-4.485 0-6.369-3.316-5.558-9.088.861-6.127 4.372-9.96 9.089-9.96 2.405 0 3.983.94 4.813 2.673l2.918-2.486c-1.207-2.1-3.71-3.445-7.352-3.445m25.071 26.695 3.37-19h-.185c-1.78-.424-3.603-.703-5.64-.703-7.095 0-12.946 5.432-13.954 12.605-.692 4.93 1.4 8.066 5.45 8.066 3.764 0 6.372-1.878 7.58-5.335h.398l-.66 3.72c-.775 4.397-3.94 6.937-7.88 6.937-1.637 0-3.757-.37-5.599-1.009l-.856 3.306c1.796.586 4.193.968 6.203.968 6.143 0 10.681-3.455 11.773-9.555m-12.75-6.947c.732-5.207 5.113-9.395 10.032-9.395.673 0 1.29.044 1.844.115l-.796 4.479c-1.512 6.502-4.956 9.388-8.038 9.388-2.335 0-3.451-1.677-3.042-4.587m37.366-19.357-2.624 16.665-.418.018c-.456-3.983-4.318-6.54-9.145-5.887l1.7-10.796h-3.656L322.203 211h3.655l2.133-13.55c5.92-1.023 9.646 2.977 8.967 9.657l-.613 3.893H340l4.367-27.734zm15.7 20.334 1.611-3.021c-3.994-1.382-5.612-3.913-5.036-8.013.547-3.89 2.818-6.362 5.745-6.362 3.287 0 4.55 2.88 3.675 9.1-1.195 8.505-4.585 12.726-10.55 12.726q-2.868.043-5.223-1.196l-1.237 3.199q2.871 1.317 6.164 1.357c8.213.001 13.04-5.454 14.524-16.013 1.147-8.165-1.423-12.501-6.938-12.501-5.106 0-8.934 3.706-9.754 9.537-.778 5.54 1.986 9.476 7.02 11.187zm14.761 14.253q2.253 1.11 5.01 1.153c5.61.002 9.16-3.417 10.307-9.968l2.717-15.723c1.14-6.487-1.659-10.44-7.19-10.44-6.129 0-9.832 4.657-10.62 10.258-.906 6.449 2.716 11.518 8.403 13.964l1.668-3.168c-4.594-1.89-7.211-5.641-6.506-10.66.57-4.056 3.188-7.072 6.673-7.072 3.328 0 4.691 2.673 3.908 7.141l-2.61 15.18c-.85 4.937-2.945 7.136-6.557 7.136q-2.319.052-3.915-.98zM393.112 211h3.965l.532-3.29q3.763-2.61 4.585-8.352l.904-5.77c.798-5.068 2.503-7.164 5.97-7.164h2.402l.471-3.354h-2.8c-5.397 0-8.54 3.316-9.582 9.903l-1.044 6.536q-.98 5.601-4.998 8.081zm2.243-3.354-.47 3.354h16.36l.47-3.354zm37.752-15.539L430.134 211h3.655l3.143-19.85c.842-5.383-1.096-8.275-5.17-8.275-3.968 0-6.845 2.355-8.336 6.773h-.3l1.005-6.382h-3.655L416.109 211h3.655l1.834-11.646c1.494-8.03 4.948-13.062 8.873-13.062 2.462 0 3.288 1.737 2.636 5.815m19.719 13.46c-.491 3.497 1.622 5.628 5.747 5.628h1.517l.504-3.353h-1.565c-1.943 0-2.93-.795-2.682-2.56.318-2.26 2.549-4.743 3.07-8.446.588-4.184-1.465-6.93-5.17-6.93-3.338 0-6.204 2.007-7.445 5.328h-.377l1.398-7.945h-3.75l-5.44 31.094h3.72l2.696-15.328c1.467-6.2 4.493-9.788 7.865-9.788 2.154 0 3.141 1.3 2.8 3.727-.424 3.022-2.468 5.586-2.888 8.573m17.783 5.743 1.33-3.18c-3.952-.135-5.442-3.45-4.506-10.109.622-4.423 2.426-11.888 8.355-11.888 4.16 0 5.614 3.717 4.651 10.57-1.34 9.533-6.405 15.219-15.057 18.298l-.39 3.382h16.379l.47-3.347h-11.324l.049-.3c6.459-1.503 12.2-8.077 13.614-18.139 1.229-8.743-1.461-13.722-8.045-13.722-8.668 0-11.445 7.926-12.441 15.017-1.176 8.363 1.216 12.886 6.915 13.418m37.592-24.655.392-3.39h-4.646l-.604 3.659c-6.64 1.301-12.234 7.53-13.188 14.32-.856 6.086 2.52 10.147 8.667 10.147q2.376.03 4.704-.68l-.49-3.345q-2.116.637-3.765.67c-4.01.001-5.989-2.585-5.37-6.997.864-6.14 5.915-11.373 14.3-14.384m-18.521-3.39-.471 3.354h18.912l.471-3.353zm37.904 26.042 4.126-26.041h-3.655l-1.463 9.23c-1.511 7.93-4.944 12.89-8.84 12.89-2.463 0-3.288-1.737-2.637-5.815l2.57-16.305h-3.655l-2.74 17.261c-.841 5.384 1.096 8.275 5.17 8.275 3.969 0 6.845-2.354 8.337-6.773h.284l-1.173 7.398c-.613 3.805-3.07 6.228-7.266 6.228-2.163 0-4.209-.342-6.18-1.318l-1.313 3.159c2.19 1.093 4.544 1.512 7.076 1.512 6.494 0 10.37-3.5 11.359-9.7zm12.866 1.224c3.327 0 5.402-1.478 6.478-4.227h.365l-.464 2.619c-.774 4.397-3.939 6.937-7.878 6.937-1.638 0-3.758-.37-5.6-1.009l-.856 3.306c1.796.586 4.193.968 6.203.968 6.143 0 10.682-3.455 11.766-9.555l3.415-19.273h-3.75l-1.59 8.97c-1.312 5.33-4.28 7.872-7.333 7.872-2.54 0-3.494-1.626-3.015-5.034.4-2.845 1.636-6.182 3.68-11.424l-3.666-.872c-1.989 5.004-3.247 8.84-3.704 12.092-.804 5.718 1.492 8.63 5.948 8.63m29.768-.095c.531-3.783-2.842-5.338-8.359-5.207l.153-3.107c6.961-2.912 10.763-6.544 11.356-10.767.482-3.431-1.558-5.126-5.217-5.126-2.699 0-5.34.93-8.029 3.058l-1.462-2.745c3.228-2.326 6.795-3.667 10.534-3.667 5.752 0 8.689 2.82 7.984 7.833-.699 4.97-4.788 9.499-10.637 11.762l-.04.457c5.091.134 8.126 2.595 7.49 7.118-.762 5.426-5.352 8.963-11.73 8.963-2.233 0-4.535-.353-6.577-1.461l1.786-3.328a10.74 10.74 0 0 0 5.335 1.436c4.305 0 6.948-1.911 7.413-5.219m9.749 1.064c-.152 4.866 2.864 7.508 8.005 7.508 4.99 0 9.36-3.047 10.076-8.138.588-4.188-1.715-7.29-5.776-7.587l.024-.437c4.042-1.455 6.482-4.269 6.914-7.347.509-3.618-2.091-5.593-7.063-5.593-3.139 0-6.634.66-10.352 2.458l.9 3.16c3.467-1.602 6.129-2.232 8.743-2.232 3.055 0 4.332.728 4.067 2.617-.385 2.736-3.871 5.497-9.11 6.591l.258 2.802a13 13 0 0 1 1.836-.145c3.393-.007 6.466 1.258 5.92 5.154-.444 3.151-3.063 5.343-6.399 5.343-3.363 0-4.427-1.89-4.507-4.779zm-411.03 43.766L156.312 283h3.74l3.03-6.937h10.222l.84 6.937h3.676l-3.795-27.734zm-4.43 17.54 6.329-14.488h.323l1.752 14.488zm28.546-10.9c-2.188 0-4.897.381-7.355 1.346l.742 3.262c2.079-.767 4.447-1.247 6.194-1.247 3.637 0 4.347 1.694 3.843 4.62l-.139.81c-7.905-1.067-13.612 1.435-14.35 6.784-.52 3.7 1.704 5.91 5.947 5.91 3.72 0 6.41-1.45 7.344-4.248h.533c-.029 2.78 1.448 4.052 4.878 4.052h.52l.551-3.144h-.403c-2.417-.008-2.804-1.03-2.394-3.163l1.27-7c.879-4.913-1.216-7.982-7.181-7.982m-7.327 15.615c.456-3.245 4.993-4.957 10.122-3.978l-.15.874-.013-.058c-.72 4.009-3.762 5.812-6.872 5.812-2.32 0-3.337-.866-3.087-2.65m26.041 5.869c7.887 0 13.1-4.722 14.165-12.296.644-4.578-.405-9.187-5.71-9.187-3.482 0-6.309 1.895-7.568 5.328h-.404l2.407-13.531h-3.712L205.733 283h.191c2 .258 4.41.391 5.842.391m-1.788-3.389.85-4.777c1.401-6.902 5.243-9.957 8.453-9.957 3.247 0 3.403 2.923 3.028 5.591-.743 5.29-4.155 9.3-9.94 9.3-.744 0-1.58-.06-2.39-.157m24.481-24.736L230.094 283h16.618l.471-3.354h-12.906l1.394-8.856h11.077l.471-3.354H236.2l1.388-8.817h12.995l.471-3.353zm24.226 0L254.319 283h3.656l1.737-11.038h11.144l.471-3.354H260.24l1.573-9.989h12.98l.472-3.353zm27.86 28.124c3.387 0 6.351-.738 7.601-1.14l-.06-.164 2.02-12.775h-8.466l-.47 3.347h4.91l-1.133 7.054a17 17 0 0 1-3.679.42c-5.842 0-8.288-3.54-7.285-10.672.815-5.8 3.92-11.327 10.502-11.327 2.156 0 3.937.913 4.981 2.678l2.88-2.454c-1.117-2.137-3.953-3.482-7.78-3.482-8.856 0-13.19 6.626-14.32 14.658-1.266 9.012 2.246 13.858 10.299 13.858m19.614 7.617c5.49 0 9.535-2.996 10.133-7.254.457-3.249-1.229-4.592-6.507-5.977-4.81-1.247-6.14-2.593-5.707-5.665.527-3.751 3.06-6.877 6.268-6.877 2.8 0 4.32 2.187 3.86 5.459-.47 3.349-3.443 7.083-6.875 7.455l-.098 1.339h4.874l.265-1.885-.872.749c3.162-.511 5.645-3.7 6.18-7.504.749-5.33-2.204-8.942-6.913-8.942-5.358 0-9.559 4.392-10.361 10.098-.66 4.701 1.617 7.23 7.65 8.923 3.738 1.03 4.904 1.486 4.687 3.032-.266 1.89-2.823 3.72-6.106 3.72-3.5 0-5.889-1.788-6.838-3.884l-2.955 2.47c1.96 3.252 5.172 4.742 9.316 4.742m7.299-27.93 3.101 3.46 1.343-1.395-.66.124q1.048 1.09 4.353 1.162l.38-3.352zm27.252-7.811-1.929 12.248h-10.487l1.929-12.248h-3.656L322.203 283h3.655l1.91-12.132h10.487L336.345 283H340l4.367-27.734zm26.506 0h-16.703l-.471 3.353h6.47l-3.31 21.027h-6.545l-.472 3.354h16.704l.471-3.354h-6.503l3.31-21.027h6.578zm9.465 0-.471 3.353h8.882l-2.181 14.125c-.753 4.799-3.376 7.286-7.72 7.286-1.648 0-3.88-.44-5.923-1.23l-1.034 3.188c2.232.895 4.482 1.403 6.548 1.403 6.879 0 10.69-3.455 11.785-10.643l2.698-17.482zm21.84 0L394.156 283h17.087l.472-3.354h-13.376l3.839-24.38zm25.047 5.74L428.706 283h4.887l4.366-27.734h-3.655l-3.462 21.994h-.342l-5.177-21.994h-4.848L416.109 283h3.655l3.463-21.994zm15.29 29.377h3.72l1.255-7.07a42 42 0 0 0 2.338.078c7.886 0 13.1-4.723 14.165-12.297.644-4.578-.405-9.187-5.71-9.187-3.482 0-6.37 1.895-7.643 5.328h-.312l.22-4.938h-3.126zm5.562-10.378.978-5.505c1.51-6.393 5.193-9.233 8.288-9.233 3.247 0 3.403 2.923 3.028 5.591-.743 5.29-4.155 9.3-9.94 9.3-.732 0-1.554-.059-2.354-.153m32.758 10.807h1.495l.448-3.186h-1.606c-2.978 0-4.34-1.427-4.167-4.322 7.387-.854 9.87-7.873 10.813-14.586 1.289-9.173-1.444-13.843-8.028-13.843-8.668 0-11.445 7.926-12.441 15.017-1.131 8.047.986 12.508 6.17 13.351-.418 4.963 2.097 7.57 7.316 7.57m-5.031-10.679c-4.128 0-5.674-3.295-4.716-10.111.622-4.423 2.426-11.889 8.355-11.889 4.16 0 5.662 3.374 4.672 10.424-.632 4.494-2.429 11.576-8.311 11.576m37.477-24.868h-20.141l-.471 3.353h8.19L493.363 283h3.656l3.839-24.38h8.296zm2.277 0 6.491 17.728L516.817 283h3.655l1.56-9.896 12.16-17.838h-3.814l-9.323 14.246h-.316l-4.843-14.246zm20.822 35.9q17.673-7.207 22.084-28.77l-3.772-.2q-3.462 19.146-19.73 25.865zm3.142-28.964q2.29 12.31 6.789 20.273l2.907-2.037q-4.01-6.835-5.841-18.4zm21.488 17.444-.472 3.354h17.765l.472-3.354h-13.75l16.712-21.027.471-3.353H561.18l-.471 3.353h13.266zm24.047 4.368q9.041-10.094 18.614-18.326l-2.29-2.209q-9.649 8.226-18.694 18.005zm2.873-5.028q4.194 7.494 14.915 3.28l-1.064-3.473q-7.386 3.746-11.983-1.415zm.27-16.69-.468 3.322h15.884l.467-3.321z"/><path fill="#757575" d="M52.92 67h3.072V49.24H52.92v7.296h-.12c-.432-1.44-1.8-2.352-3.456-2.352-3.144 0-4.896 2.352-4.896 6.528 0 4.2 1.752 6.576 4.896 6.576 1.656 0 3-.96 3.456-2.376h.12zm-2.592-2.256c-1.584 0-2.664-1.152-2.664-2.928v-2.16c0-1.776 1.08-2.952 2.664-2.952 1.464 0 2.592.792 2.592 2.016v3.984c0 1.296-1.128 2.04-2.592 2.04m14.28 2.544c2.328 0 4.152-.888 5.184-2.304l-1.656-1.848c-.768.984-1.68 1.704-3.192 1.704-2.016 0-3.048-1.224-3.048-3.024v-.312h8.328v-1.008c0-3.432-1.8-6.312-5.712-6.312-3.672 0-5.808 2.568-5.808 6.528 0 4.008 2.208 6.576 5.904 6.576m-.048-10.8c1.584 0 2.472 1.176 2.472 2.904v.216h-5.136v-.192c0-1.728 1.056-2.928 2.664-2.928m9 10.512h3.072V56.896H79.2v-2.424h-2.568v-2.784H79.2V49.24h-2.184c-2.256 0-3.456 1.224-3.456 3.432v1.8h-1.848v2.424h1.848zm10.872.288c1.872 0 3.24-.84 3.648-2.448h.144c.192 1.296 1.008 2.16 2.328 2.16h1.704v-2.448h-1.248v-5.904c0-2.856-1.8-4.464-5.184-4.464-2.52 0-3.984.96-4.896 2.4l1.824 1.632c.6-.864 1.416-1.584 2.856-1.584 1.632 0 2.328.816 2.328 2.208v.912H85.8c-3.408 0-5.352 1.272-5.352 3.84 0 2.232 1.44 3.696 3.984 3.696m1.032-2.232c-1.2 0-1.896-.504-1.896-1.512v-.408c0-.984.792-1.536 2.4-1.536h1.968v1.656c0 1.176-1.104 1.8-2.472 1.8M102.24 67h3.072V54.472h-3.072v8.28c0 1.344-1.224 1.992-2.448 1.992-1.464 0-2.112-.936-2.112-2.664v-7.608h-3.072v7.92c0 3.12 1.44 4.896 4.008 4.896 2.064 0 3.072-1.128 3.504-2.376h.12zm11.352 0v-2.448h-1.656V49.24h-3.072v14.736c0 1.92.984 3.024 3.072 3.024zm6.12 0h2.208v-2.448h-2.376V56.92h2.568v-2.448h-2.568V51.04h-2.76v2.136c0 .864-.288 1.296-1.2 1.296h-.96v2.448h1.848v6.888c0 2.04 1.128 3.192 3.24 3.192m-73.905 55.36.358 7.5h2.582l.359-7.5zm17.613 4.218h-2.496c-1.378 1.468-4.666 3.795-6.125 4.705l1.58 2.319c1.261-.801 3.938-2.959 5.26-4.266l.18.32c.734 1.275 1.939 3.3 1.98 4.781.028 1.358-1.07 2.1-3.006 2.1-1.29 0-2.32-.206-3.61-.746l-.435 2.496c1.35.69 2.605.947 4.405.947 3.647 0 5.666-1.547 5.61-4.384-.027-1.595-.664-2.943-1.425-4.397-.512-.989-1.21-2.202-1.919-3.875m13.763 0h-2.495c-1.379 1.468-4.667 3.795-6.125 4.705l1.58 2.319c1.26-.801 3.938-2.959 5.26-4.266l.179.32c.735 1.275 1.94 3.3 1.98 4.781.028 1.358-1.069 2.1-3.006 2.1-1.289 0-2.32-.206-3.61-.746l-.435 2.496c1.35.69 2.606.947 4.405.947 3.648 0 5.666-1.547 5.61-4.384-.027-1.595-.664-2.943-1.425-4.397-.511-.989-1.21-2.202-1.918-3.875m11.445 12.656c3.856 0 5.913-2.789 5.913-8.437 0-5.79-1.836-8.672-5.68-8.672-3.855 0-5.913 2.883-5.913 8.672 0 5.648 1.823 8.437 5.68 8.437m0-2.543c-1.034 0-1.758-.559-2.21-1.683l5.12-6.212q.08.902.08 2c0 3.947-1.06 5.895-2.99 5.895m-2.785-5.894c0-4.097 1.09-6.129 3.019-6.129 1.135 0 1.888.703 2.316 2.115l-5.215 6.275q-.12-.993-.12-2.261m11.515 5.673V139h10.57v-2.53h-3.657v-14.11h-2.825l-3.868 1.406v2.713l3.868-1.36v11.35zm17.262-14.11.359 7.5h2.582l.359-7.5zM47.16 211.288c3.336 0 5.256-1.992 5.256-4.44 0-1.992-1.248-3.024-3.36-3.336l-1.176-.168c-1.032-.168-1.344-.648-1.344-1.248 0-.912.72-1.536 2.04-1.536 1.224 0 2.184.504 2.784 1.272l1.872-1.704c-1.056-1.296-2.592-1.944-4.512-1.944-3.408 0-5.016 2.04-5.016 4.32 0 2.016 1.272 3.024 3.336 3.336l1.176.168c1.056.168 1.368.648 1.368 1.248 0 .936-.792 1.656-2.352 1.656-1.44 0-2.4-.576-3.144-1.56l-1.848 1.704c1.056 1.464 2.904 2.232 4.92 2.232M58.896 211l.456-2.376h-1.608l3.072-15.384h-2.904l-3.072 15.384a2.7 2.7 0 0 0-.072.576c0 1.08.768 1.8 2.016 1.8zm13.992 0 .456-2.376h-1.512l2.04-10.152h-2.904l-.432 2.136h-.12c-.216-1.44-1.488-2.424-3.168-2.424-3.48 0-5.904 3.768-5.904 8.616 0 2.664 1.152 4.488 3.48 4.488 1.92 0 3.072-1.104 4.08-3.144h.12l-.072.384c-.024.144-.096.48-.096.744 0 1.08.816 1.728 1.968 1.728zm-6.744-2.136c-1.176 0-1.824-.84-1.824-2.112 0-.384.072-.96.144-1.32l.336-1.728c.408-2.04 1.416-3.096 3.096-3.096 1.536 0 2.448 1.008 2.184 2.28l-.432 2.136c-.216 1.032-.648 1.968-1.272 2.664-.552.648-1.296 1.176-2.232 1.176M77.976 211l1.32-6.6c.192-.984.696-1.92 1.32-2.64.576-.672 1.272-1.104 2.112-1.104 1.056 0 1.464.576 1.464 1.488 0 .432-.048.864-.144 1.32l-1.032 5.16a3 3 0 0 0-.072.672c0 1.08.72 1.704 1.872 1.704h2.016l.48-2.376H85.92l1.08-5.4c.12-.648.216-1.176.216-1.728 0-2.088-1.08-3.312-3.072-3.312-1.92 0-3.144 1.104-4.08 3.072h-.12l.552-2.784h-2.904L75.072 211zm16.752 0 .48-2.376h-2.376l1.56-7.776h2.52l.48-2.376h-2.52l.672-3.432h-2.712l-.432 2.184c-.168.864-.384 1.248-1.368 1.248h-.888l-.456 2.376h1.8l-1.416 7.056c-.072.36-.096.72-.096.96 0 1.392.84 2.136 2.592 2.136zm7.848.288c2.064 0 3.744-.744 5.304-2.736l-1.8-1.488c-1.08 1.344-2.04 1.824-3.288 1.824-1.728 0-2.448-.912-2.448-2.28 0-.168.024-.384.072-.696 5.664-.144 8.112-1.656 8.112-4.272 0-2.592-2.376-3.456-4.344-3.456-4.08 0-6.72 3.696-6.72 7.752 0 3.336 1.728 5.352 5.112 5.352m1.416-10.848c.768 0 1.68.24 1.68 1.416 0 1.224-.84 1.92-4.944 2.136l.12-.6c.336-1.8 1.56-2.952 3.144-2.952M121.32 211l.456-2.376h-1.512l3.096-15.384h-2.904l-1.488 7.368h-.12c-.216-1.44-1.488-2.424-3.168-2.424-3.48 0-5.904 3.768-5.904 8.616 0 2.664 1.152 4.488 3.48 4.488 1.92 0 3.072-1.104 4.08-3.144h.12l-.072.384c-.024.144-.096.48-.096.744 0 1.08.816 1.728 1.968 1.728zm-6.744-2.136c-1.176 0-1.824-.84-1.824-2.112 0-.384.072-.96.144-1.32l.336-1.728c.408-2.04 1.416-3.096 3.096-3.096 1.536 0 2.448 1.008 2.184 2.28l-.432 2.136c-.216 1.032-.648 1.968-1.272 2.664-.552.648-1.296 1.176-2.232 1.176M47.278 266.36l-.695 7.5h2.582l1.413-7.5zm16.982 4.289-1.272-.037.005-.034-1.23-.056c-1.586 1.468-5.214 3.81-6.8 4.72l1.362 2.4c1.385-.807 4.395-2.984 5.885-4.285l.097.233c.557 1.274 1.446 3.29 1.28 4.77-.164 1.358-1.449 2.178-3.386 2.178-1.289 0-2.29-.178-3.503-.718l-.65 2.433c1.253.689 2.475.982 4.275.982 3.647 0 5.8-1.47 6.144-4.308.197-1.594-.28-2.952-.837-4.406-.372-.989-.896-2.2-1.37-3.872m13.763 0-1.273-.037.006-.034-1.231-.056c-1.585 1.468-5.213 3.81-6.8 4.72l1.362 2.4c1.386-.807 4.396-2.984 5.886-4.285l.097.233c.557 1.274 1.445 3.29 1.279 4.77-.164 1.358-1.448 2.178-3.385 2.178-1.29 0-2.29-.178-3.503-.718l-.65 2.433c1.252.689 2.475.982 4.274.982 3.648 0 5.801-1.47 6.145-4.308.196-1.594-.281-2.952-.837-4.406-.373-.989-.896-2.2-1.37-3.872m9.774 12.585c3.856 0 6.224-2.712 7.018-8.36.813-5.79-.677-8.749-4.52-8.749-3.856 0-6.238 2.806-7.051 8.595-.794 5.648.696 8.514 4.553 8.514m.217-2.543c-1.034 0-1.664-.538-1.94-1.644l6.042-6.264a24 24 0 0 1-.202 1.937c-.555 3.946-1.97 5.97-3.9 5.97m-2.1-3.616q.03-.967.203-2.201c.576-4.097 2.032-6.206 3.961-6.206 1.138 0 1.773.68 1.984 2.079zm10.734 2.903-.37 3.023h11.064l.355-2.53h-7.313l.052-.323c5.159-3.523 7.553-6.267 7.976-9.271.423-3.01-1.262-4.751-4.847-4.751-2.276 0-4.64 1.013-5.98 2.68l1.53 2.007c1.181-1.205 2.87-2.074 4.177-2.074 1.654 0 2.312.764 2.097 2.299-.379 2.692-3.202 5.033-8.741 8.94m19.442-13.617-.695 7.5h2.582l1.413-7.5z"/></svg>
