<svg xmlns="http://www.w3.org/2000/svg" width="421" height="208" viewBox="0 0 421 208"><path fill="#fff" d="M0 0h421v208H0z"/><path d="M62.183 35.504v56.64h-4.042v-56.64zM47.97 75.357q3.14 2.31 5.722 3.49 2.58 1.18 5.251 1.181 3.97 0 6.406-1.584 2.435-1.583 2.435-4.517 0-1.95-1.492-3.567t-3.896-2.688l-6.963-3.052q-4.455-1.902-6.709-4.49t-2.253-6.277q0-5.242 3.72-8.148 3.72-2.904 10.062-2.905 4.386 0 7.668 1.21t6.247 3.904l-3.407 4.168q-2.886-2.257-5.268-3.36a11.6 11.6 0 0 0-4.926-1.102q-3.667 0-5.888 1.554t-2.22 4.418q0 1.914 1.19 3.247t3.581 2.392l6.964 3.104q4.52 1.965 7.075 4.793 2.556 2.827 2.556 6.538 0 5.26-3.93 8.189t-10.574 2.929q-4.566 0-8.025-1.21t-6.513-3.851zM96.936 86.64q-7.417 0-11.037-5.574-3.618-5.574-3.618-16.954 0-11.52 3.9-17.312 3.903-5.792 11.395-5.792 7.418 0 11.036 5.734 3.62 5.735 3.619 17.37 0 11.264-3.875 16.896t-11.42 5.632m0-5.221q4.546 0 6.926-4.359t2.38-12.948q0-9.037-2.118-13.46-2.119-4.423-6.548-4.423-4.546 0-6.927 4.513t-2.38 13.37q0 8.77 2.119 13.039 2.119 4.268 6.548 4.268m9.019-30.661 2.908 2.332-20.631 25.678-2.384-3.164zm14.894 28.77q7.471-5.906 11.932-10.198 4.46-4.29 6.709-8.085 2.25-3.795 2.249-7.513 0-3.591-2.078-5.547t-6.053-1.956q-2.637 0-5.424 1.407a15.9 15.9 0 0 0-4.876 3.817l-3.843-3.831q2.258-3.054 6.082-4.834 3.825-1.78 8.189-1.78 6.846 0 10.36 3.235 3.515 3.235 3.515 9.257 0 4.085-2.098 8.246-2.097 4.159-6.415 8.603Q134.78 74.79 127.89 80v6h-7.041zm28.63 1.094V86h-26.686v-5.378zm22.189-36.478-9.694 31.027h-6.017l9.682-31.027zm6.363 25.806v5.221h-22.086l4.012-5.221zm10.988 0v5.221h-6.384V69.95zm-5.744-28.302V86h-5.872V41.648zm41.775 30.028q0 7.104-4.386 11.034t-12.391 3.93q-6.441 0-11.496-1.536l.75-5.355.716.192q2.472.681 4.63 1.08 2.16.398 5.208.398 5.237 0 8.162-2.494t2.925-6.988q0-4.04-2.41-6.23-2.408-2.19-6.883-2.191-4.452 0-8.532 2.282l.213-4.68q2.397-1.48 4.827-2.099a20 20 0 0 1 4.968-.62q6.626 0 10.163 3.45t3.537 9.827m-20.557-30.028-.285 20.539-2.865 3.611h-2.762v-24.15zm19.022 0v5.221h-22.067l-.576-5.221zm41.43 0L246 86h-6.546l19.596-44.352zm-25.062.896v13.025h-5.965V42.544zm25.062-.896-3.971 5.326h-27.056v-5.326zm19.829 19.584q-4.38 0-7.016-2.767-2.634-2.766-2.635-7.409 0-4.579 2.635-7.313 2.636-2.735 7.016-2.735 4.394 0 7.022 2.709 2.63 2.708 2.63 7.339 0 4.642-2.63 7.41-2.628 2.766-7.022 2.766m0-4.071q2.306 0 3.638-1.665t1.332-4.44q0-2.764-1.332-4.371-1.331-1.606-3.638-1.606-2.293 0-3.631 1.606-1.339 1.606-1.339 4.371 0 2.775 1.339 4.44t3.631 1.665m4.928-12.18 1.856 1.658-11.712 10.73-1.856-1.71zm35.47 9.601q0-1.001-.812-1.648-.811-.645-2.22-.646-1.997 0-3.524 1.008l.244-3.233a7.5 7.5 0 0 1 2.157-.95 9.5 9.5 0 0 1 2.418-.297q3.253 0 5.124 1.664 1.87 1.665 1.87 4.375 0 3.032-2.429 4.673-2.429 1.64-6.938 1.704-4.078 0-6.963-.832l1.198-4.204.384.064q2.752.576 4.788.576 2.276 0 3.49-.556 1.213-.557 1.213-1.698m-4.677-12.934-.395 8.768-1.484 2.88h-3.493l.308-11.648zm8.874 0v4.071h-10.845l-.198-4.071zm24.776 52.245q2.154-2.037 3.39-3.731 1.238-1.695 1.493-3.347.255-1.869-.722-2.809-.978-.94-3.19-.94h-1.063v-5h2.656q4.474 0 6.435 2.236t1.227 6.595q-.488 2.765-2.228 5.676t-4.707 5.664l-1.78 1.651-3.43-4.128zm5.637-32.054q-1.983 0-3.4-1.416t-1.416-3.399 1.41-3.368 3.406-1.384 3.38 1.384 1.383 3.368-1.384 3.399q-1.383 1.416-3.379 1.416"/><path fill="#7f7f7f" d="M58.069 175v-64.375h4.175V175zm.15-9.375q-3.75 0-7.027-.602-3.276-.6-6.086-1.804l.775-5.985q3.416 1.438 6.611 2.186t6.227.748q4.516 0 6.717-1.578t2.201-4.793q0-4.094-4.15-6.016l-8.115-3.784q-4.395-2.025-6.736-4.873-2.342-2.85-2.342-7.061 0-5.78 3.473-8.92 3.474-3.144 9.89-3.143 4.43 0 7.862 1.311 3.43 1.312 6.572 4.245l-4.14 4.197q-2.767-2.246-5.204-3.272a12.9 12.9 0 0 0-5.06-1.024q-3.397 0-5.235 1.593-1.84 1.594-1.84 4.731.001 2.188 1.166 3.582t3.434 2.478l6.963 3.33q4.81 2.273 7.295 5.163 2.486 2.892 2.486 7.35 0 5.973-3.904 8.957-3.906 2.984-11.833 2.984m39.031 0q-15.05 0-15.05-22.5Q82.2 120 97.25 120t15.05 23.125q0 22.5-15.05 22.5m0-17.972q-2.025 0-3.278-1.251-1.253-1.252-1.253-3.277 0-2.054 1.253-3.292 1.253-1.24 3.278-1.24 2.053 0 3.292 1.24 1.24 1.238 1.24 3.292 0 2.025-1.24 3.277-1.238 1.251-3.292 1.251m0 12.515q8.73 0 8.731-17.043 0-17.668-8.731-17.668t-8.731 17.668q0 17.043 8.731 17.043M120.825 165v-6.828q10.381-5.744 15.512-11.949 5.132-6.204 5.132-12.817 0-3.95-1.96-5.95t-5.884-2q-2.61 0-5.376 1.435a15.5 15.5 0 0 0-4.799 3.859l-4.062-4.031q2.19-3.045 6.09-4.882A19.2 19.2 0 0 1 133.75 120q6.963 0 10.444 3.353 3.48 3.353 3.48 10.053 0 6.862-4.408 13.12-4.41 6.258-13.353 11.974v6.5zm1.875 0v-5.625h26.85V165zm33.188-9.962 6.174-31.913h6.37l-6.238 31.913zm-.007 0 4.188-5.513h18.48v5.513zm27.563 0v-5.513h4.98v5.513zm-5.52 9.962v-44.375h6.145V165zm32.264.625q-7.15 0-11.068-3.422t-3.917-9.64h6.319q0 3.606 2.264 5.606t6.464 2q4.131 0 6.392-2.483 2.26-2.483 2.26-6.999 0-4.371-2.391-6.78-2.393-2.407-6.792-2.407-4.485 0-8.394 2.25l.363-4.969q2.525-1.553 5.015-2.089a23.8 23.8 0 0 1 5.016-.536q6.384 0 9.887 3.79 3.503 3.788 3.503 10.742 0 4.75-1.756 8.093t-5.083 5.094-8.083 1.75M197.9 143.75l.616-23.125h6.312l-.625 19.406-2.878 3.719zm3.537-17.612-.562-5.513h21.422v5.513zM242.516 165l15.162-44.375h6.747L249.263 165zm-10.503-29v-14.437h6.312V136zm0-9.75v-5.625h32.412l-4.188 5.625zm52.768 14q-4.419 0-7.078-2.788t-2.66-7.43q0-4.582 2.66-7.307t7.078-2.725q4.391 0 7.033 2.683t2.642 7.348q0 4.644-2.642 7.431t-7.033 2.788m0-4.872q1.944 0 3.114-1.473t1.17-3.874q0-2.362-1.17-3.76-1.17-1.4-3.114-1.399-1.999 0-3.173 1.399-1.173 1.398-1.173 3.76 0 2.4 1.173 3.874 1.173 1.473 3.173 1.473m37.375 4.841q-3.93 0-6.084-1.594-2.153-1.593-2.153-4.469h5.672q0 1.725 2.596 1.725 1.38 0 2.12-.609.743-.608.743-1.694 0-1.068-.819-1.651-.818-.583-2.325-.583-1.906 0-3.469.969l.25-3.375a7.8 7.8 0 0 1 2.135-.841q1.186-.285 2.397-.285 3.513 0 5.437 1.466t1.925 4.144q0 3.228-2.198 5.012-2.199 1.785-6.227 1.785m-7.425-7.906.282-11.688h5.456l-.438 8.781-1.594 2.906zm3.55-7.47-.219-4.218h11.332v4.219zm41.468 15.354q-1.842 0-3.158-1.314t-1.316-3.157q0-1.874 1.315-3.174 1.315-1.302 3.16-1.302 1.872 0 3.174 1.302 1.3 1.3 1.301 3.174 0 1.843-1.301 3.157-1.302 1.314-3.175 1.314m-5.655 38.428 2.5-21.562h6.828l-3.64 21.562z"/></svg>
