<svg width="500" height="120" viewBox="0 0 500 120" xmlns="http://www.w3.org/2000/svg"><g fill="none" fill-rule="evenodd"><path fill="#FFF" d="M0 0h500v120H0z"/><path d="M25.888 33.816v-2.112h12.576c.384-.79.672-1.675.864-2.656-3.072.32-6.293.512-9.664.576-.17-.853-.501-1.59-.992-2.208 7.659-.021 14.56-.757 20.704-2.208l.864 2.112a94.538 94.538 0 0 1-8.448 1.44c-.17 1.11-.416 2.09-.736 2.944h13.248v2.112H40.032a11.553 11.553 0 0 1-1.344 1.792c2.005 1.387 3.541 2.997 4.608 4.832a31.393 31.393 0 0 0 6.688-4.288l1.376 1.824a34.61 34.61 0 0 1-7.168 4.32c.341.853.576 1.803.704 2.848 3.883 1.43 7.264 2.965 10.144 4.608l-1.152 2.304c-2.176-1.344-5.141-2.837-8.896-4.48 0 .277-.021.672-.064 1.184-.213 1.984-.928 3.445-2.144 4.384-1.173.917-2.816 1.355-4.928 1.312-1.579-.043-3.04-.395-4.384-1.056a5.66 5.66 0 0 0-.192-2.4c1.685.832 3.125 1.259 4.32 1.28 1.493.021 2.624-.267 3.392-.864.832-.64 1.323-1.696 1.472-3.168.064-.64.085-1.216.064-1.728-1.707-.683-3.093-1.205-4.16-1.568l.768-1.728c1.707.533 2.752.864 3.136.992-.619-2.923-2.368-5.27-5.248-7.04-2.176 1.707-4.981 2.901-8.416 3.584-.363-.704-.875-1.376-1.536-2.016 4.65-.768 8-2.41 10.048-4.928H25.888zm10.848 6.88c-1.408 1.728-2.965 3.19-4.672 4.384 1.045.448 1.6 1.11 1.664 1.984l3.456-1.92.768 1.44-5.44 3.424c-.128-1.28-.448-2.176-.96-2.688-.555-.555-1.397-.683-2.528-.384-.619.32-1.493.715-2.624 1.184-.384-.832-.843-1.483-1.376-1.952 4.245-1.493 7.616-3.723 10.112-6.688l1.6 1.216zM85.312 28.952h-6.848v9.568c1.728.661 2.656 2.155 2.784 4.48a13.18 13.18 0 0 1-.512 4.224c-.448 1.557-1.099 2.848-1.952 3.872h7.808v2.368H68.16v-2.368h7.264a7.666 7.666 0 0 0 2.848-3.616c-.683.363-1.461.48-2.336.352-1.259-.192-2.293-.736-3.104-1.632-.853-.939-1.248-2.027-1.184-3.264.064-1.344.501-2.453 1.312-3.328.81-.875 1.867-1.355 3.168-1.44v-9.216h-6.432V26.84h15.616v2.112zM61.44 33.144c1.344-1.408 2.443-2.87 3.296-4.384h-7.04v-1.984h9.696v1.76a47.825 47.825 0 0 1-4.544 5.856c.832.768 1.557 1.61 2.176 2.528.448-.299.885-.608 1.312-.928l.96 1.728c-.683.47-1.13.779-1.344.928.661 1.472 1.067 3.168 1.216 5.088.277 3.115-.15 5.632-1.28 7.552-1.11 1.877-2.656 2.827-4.64 2.848-1.643.021-2.805-.544-3.488-1.696-.683-1.13-.853-2.763-.512-4.896.256-1.75.907-3.403 1.952-4.96.981-1.472 2.379-2.944 4.192-4.416-.768-1.259-1.899-2.443-3.392-3.552l1.44-1.472zm3.616 10.432c-.064-1.344-.32-2.56-.768-3.648-2.965 2.39-4.587 5.056-4.864 8-.363 2.539.085 3.861 1.344 3.968 1.408.107 2.496-.523 3.264-1.888.832-1.472 1.173-3.616 1.024-6.432zm11.168 1.92c.747.107 1.333 0 1.76-.32.363-.277.672-.768.928-1.472v-.48c-.15-1.856-1.035-2.73-2.656-2.624-.725.043-1.301.31-1.728.8-.384.448-.576 1.003-.576 1.664.085 1.43.843 2.24 2.272 2.432zm-6.688-5.92a8.002 8.002 0 0 0-2.016-.896c2.155-2.752 3.68-5.237 4.576-7.456l1.984 1.024c-1.216 2.475-2.73 4.917-4.544 7.328zm15.424-.16c-1.77-3.05-3.317-5.472-4.64-7.264l2.048-.8a71.302 71.302 0 0 1 4.416 6.912l-1.824 1.152zM102.848 54.808a73.571 73.571 0 0 0-3.392-6.368l2.016-1.12c.277.47.544.928.8 1.376 1.707.576 3.37.917 4.992 1.024 2.261.17 3.979-.16 5.152-.992 1.003-.704 1.504-1.675 1.504-2.912 0-1.707-.95-2.56-2.848-2.56-1.259 0-2.603.213-4.032.64l-.896-1.696 4.928-4.608-19.2 4.64-.608-2.176 1.088-.256a40.132 40.132 0 0 0 11.616-4.928c4.01-2.496 7.253-5.461 9.728-8.896l1.824 1.472c-1.963 2.368-3.925 4.33-5.888 5.888-1.728 1.365-3.744 2.645-6.048 3.84l11.392-2.784.8 2.016-6.368 5.216c.853-.213 1.632-.32 2.336-.32 1.557 0 2.763.384 3.616 1.152.853.768 1.28 1.856 1.28 3.264 0 2.07-.853 3.648-2.56 4.736-1.707 1.088-3.979 1.504-6.816 1.248-1.557-.15-2.795-.395-3.712-.736.384.64.853 1.525 1.408 2.656l-2.112 1.184zm-.128-21.088v-8.544h2.496v8.544h-2.496zm-5.536-.352c-1.43-2.048-2.87-3.861-4.32-5.44l1.952-1.312a72.247 72.247 0 0 1 4.16 5.376l-1.792 1.376zM125.344 30.2v-2.048h8v-3.264h2.464v3.264h6.976V30.2h-6.976v3.36h3.648c2.837-2.027 5.13-4.15 6.88-6.368l1.856 1.376a52.404 52.404 0 0 1-5.312 4.992h5.536v2.08h-8.256a47.317 47.317 0 0 1-4.224 2.688h8.672v1.504a16.993 16.993 0 0 1-3.776 3.84c5.333-.555 8.139.576 8.416 3.392.085.939-.096 1.75-.544 2.432-.49.768-1.29 1.355-2.4 1.76-2.56.96-6.4.853-11.52-.32.384.704.832 1.696 1.344 2.976l-1.952.896a39.06 39.06 0 0 0-2.752-5.6l1.92-.8.576.928c5.141.683 8.683.81 10.624.384 1.77-.384 2.57-1.184 2.4-2.4-.17-1.707-2.25-2.325-6.24-1.856-1.557.17-3.04.672-4.448 1.504l-1.184-1.632c2.88-1.664 4.981-3.37 6.304-5.12h-9.024c-2.688 1.323-5.781 2.624-9.28 3.904-.47-.725-1.11-1.323-1.92-1.792 5.653-1.707 10.71-3.936 15.168-6.688h-14.272v-2.08h11.296V30.2h-8zM178.496 54.584a78.971 78.971 0 0 0-2.08-2.336l-16.032 1.056c-1.067.064-2.07.213-3.008.448l-.928-2.144c1.088-.256 2.048-.79 2.88-1.6 1.515-1.365 3.21-3.253 5.088-5.664H153.6v-2.176h28.928v2.176h-15.04a60.552 60.552 0 0 1-5.856 6.624l12.736-.768a68.992 68.992 0 0 0-3.392-3.104l1.888-1.344a90.973 90.973 0 0 1 7.36 7.232l-1.728 1.6zm-23.232-17.28a7.773 7.773 0 0 0-2.24-1.248c2.325-2.133 4.075-3.99 5.248-5.568 1.152-1.579 2.165-3.477 3.04-5.696l2.304.928c-.661 1.493-1.29 2.752-1.888 3.776h19.008v2.112h-20.352c-1.216 1.77-2.923 3.67-5.12 5.696zm4.16.64v-2.048h18.048v2.048h-18.048zM196.608 50.968h5.024c2.368-2.24 3.808-4.736 4.32-7.488h-.544c-2.07.021-3.659-.384-4.768-1.216-1.045-.81-1.579-1.93-1.6-3.36-.021-1.365.395-2.443 1.248-3.232.853-.79 2.059-1.184 3.616-1.184 2.859.085 4.373 1.525 4.544 4.32.021.427.032 1.035.032 1.824 2.56-1.11 3.733-3.424 3.52-6.944-.256-3.157-2.219-4.736-5.888-4.736-2.73 0-5.312.725-7.744 2.176l-.992-1.984c2.603-1.6 5.547-2.41 8.832-2.432 2.517-.043 4.501.565 5.952 1.824 1.472 1.259 2.219 3.072 2.24 5.44.021 2.475-.523 4.501-1.632 6.08-1.045 1.493-2.539 2.507-4.48 3.04-.427 2.837-1.717 5.461-3.872 7.872h10.24v2.304h-18.048v-2.304zM186.112 32.28c1.792-.32 3.37-.277 4.736.128 1.6.49 2.73 1.44 3.392 2.848a74.014 74.014 0 0 1 1.6-1.088l.96 2.08c-.704.47-1.301.885-1.792 1.248.555 2.304.736 4.757.544 7.36-.192 2.752-.768 4.981-1.728 6.688-.555 1.003-1.259 1.76-2.112 2.272a4.81 4.81 0 0 1-2.496.704c-1.195 0-2.165-.459-2.912-1.376-.79-.981-1.173-2.293-1.152-3.936-.085-4.33 2.283-8.48 7.104-12.448-.341-.981-1.12-1.675-2.336-2.08-1.195-.405-2.528-.459-4-.16l.192-2.24zm5.6 18.208c1.621-3.456 2.016-7.221 1.184-11.296-3.776 3.264-5.61 6.677-5.504 10.24.064 1.472.544 2.293 1.44 2.464 1.344.213 2.304-.256 2.88-1.408zm3.744-22.112l-1.184 1.984c-2.773-1.728-5.141-2.923-7.104-3.584l1.024-2.016c2.624 1.024 5.045 2.23 7.264 3.616zm9.824 12.864c.427 0 .736-.01.928-.032.021-.704 0-1.515-.064-2.432-.128-1.237-.832-1.856-2.112-1.856-1.77.064-2.656.725-2.656 1.984.043.747.395 1.323 1.056 1.728.683.427 1.632.63 2.848.608zM234.496 52.12c2.24-.128 4.032-.437 5.376-.928 1.728-.619 2.603-1.493 2.624-2.624.021-1.067-.65-1.621-2.016-1.664-2.88-.085-6.379.512-10.496 1.792-4.117 1.28-7.797 2.901-11.04 4.864l-1.12-1.888c1.877-1.11 4-2.155 6.368-3.136 1.45-1.173 2.581-2.528 3.392-4.064-1.152.021-2.09-.17-2.816-.576-.875-.49-1.387-1.27-1.536-2.336-.192-1.152.107-2.155.896-3.008.79-.853 1.781-1.259 2.976-1.216 1.216.043 2.144.533 2.784 1.472.597.875.8 1.877.608 3.008l-.064.384c1.067-.299 1.952-.757 2.656-1.376.768-.683 1.216-1.515 1.344-2.496.107-.768-.075-1.387-.544-1.856-.661-.661-2.23-.917-4.704-.768-2.496.15-4.768.65-6.816 1.504l-1.376-1.92c1.11-.555 5.13-2.539 12.064-5.952h-13.952v-2.208h20.256v1.888c-3.84 1.579-7.317 3.147-10.432 4.704 3.136-.427 5.344-.064 6.624 1.088 1.003.896 1.408 2.133 1.216 3.712-.235 1.557-1.056 2.848-2.464 3.872-1.173.853-2.667 1.461-4.48 1.824a16.014 16.014 0 0 1-1.536 2.816c4.587-1.493 8.63-2.272 12.128-2.336 1.28-.021 2.315.288 3.104.928.832.683 1.248 1.664 1.248 2.944 0 3.221-2.987 5.11-8.96 5.664-.299-.725-.736-1.43-1.312-2.112zm10.144-10.656c-1.685-3.008-3.392-5.579-5.12-7.712l2.048-1.12c1.877 2.475 3.53 4.907 4.96 7.296l-1.888 1.536zm-17.696-2.208c-.576 0-1.056.203-1.44.608-.384.405-.512.885-.384 1.44.235 1.13 1.312 1.557 3.232 1.28a8.56 8.56 0 0 0 .224-.928c.107-.597.021-1.13-.256-1.6-.299-.512-.757-.779-1.376-.8zM274.176 40.152c-1.6 0-2.816-.384-3.648-1.152-.832-.768-1.248-1.899-1.248-3.392 0-1.003.235-2.032.704-3.088.47-1.056 1.195-2.107 2.176-3.152l.768-.864 2.112 1.856-.832.928c-.683.747-1.195 1.483-1.536 2.208-.341.725-.512 1.43-.512 2.112 0 .64.203 1.12.608 1.44.405.32 1.013.48 1.824.48h.704v2.624h-1.12zm7.68 0c-1.6 0-2.816-.384-3.648-1.152-.832-.768-1.248-1.899-1.248-3.392 0-1.003.235-2.032.704-3.088.47-1.056 1.195-2.107 2.176-3.152l.768-.864 2.112 1.856-.832.928c-.683.747-1.195 1.483-1.536 2.208-.341.725-.512 1.43-.512 2.112 0 .64.203 1.12.608 1.44.405.32 1.013.48 1.824.48h.704v2.624h-1.12zM296.186 48.651c1.695 0 3.416-.384 5.16-1.152l.71 2.474c-.888.437-1.855.77-2.901 1a14.59 14.59 0 0 1-3.152.347c-2.546 0-4.49-.68-5.831-2.042-1.341-1.362-2.012-3.254-2.012-5.676 0-1.848.341-3.487 1.023-4.915.682-1.428 1.66-2.544 2.933-3.347 1.274-.803 2.755-1.204 4.443-1.204 1.66 0 3.008.415 4.044 1.246 1.037.832 1.555 1.997 1.555 3.495 0 1.786-.99 3.193-2.973 4.22-1.982 1.026-4.772 1.583-8.37 1.671l-.559-2.401c2.868-.067 5.074-.401 6.62-1.003 1.547-.602 2.32-1.454 2.32-2.556 0-.668-.249-1.182-.747-1.542-.498-.36-1.152-.54-1.963-.54-1.106 0-2.08.28-2.923.837-.843.558-1.495 1.342-1.957 2.352-.462 1.01-.693 2.181-.693 3.513 0 1.606.44 2.878 1.318 3.816.88.938 2.197 1.407 3.955 1.407zM313.417 41.462l6.107-7.564 2.148 2.09-7.406 7.773-6.59 7.844-2.011-2.096 7.752-8.047zm4.637 9.858c-1.198 0-2.165-.37-2.902-1.108-.737-.739-1.333-1.923-1.79-3.554l-2.069-7.31c-.254-.877-.555-1.52-.902-1.93a1.648 1.648 0 0 0-1.312-.613c-.809 0-1.594.181-2.357.544l-.89-2.468c1.316-.497 2.467-.745 3.456-.745 1.19 0 2.154.368 2.89 1.105.738.737 1.332 1.92 1.784 3.551l2.09 7.31c.254.881.553 1.522.895 1.922.342.4.79.601 1.343.601.847 0 1.708-.217 2.583-.651l.948 2.474a10.64 10.64 0 0 1-1.865.657 8.048 8.048 0 0 1-1.902.215zM334.278 51.32c-2.677 0-4.727-.683-6.151-2.048-1.425-1.365-2.137-3.392-2.137-6.08 0-1.842.333-3.445 1-4.809.665-1.363 1.616-2.412 2.853-3.146 1.236-.734 2.691-1.101 4.365-1.101 1.499 0 2.75.299 3.754.896a4.92 4.92 0 0 1 2.133 2.528l-2.305 1.721c-.396-.811-.9-1.426-1.515-1.846-.614-.42-1.337-.63-2.17-.63-1.536 0-2.769.552-3.7 1.657-.93 1.105-1.395 2.604-1.395 4.497 0 1.878.48 3.292 1.442 4.241.961.95 2.362 1.425 4.203 1.425 1.329 0 2.766-.253 4.312-.76l.608 2.643c-1.418.541-3.184.812-5.297.812zM349.327 51.32c-1.843 0-3.218-.588-4.124-1.763-.907-1.175-1.36-2.96-1.36-5.352 0-1.34.122-2.819.365-4.434.244-1.615.63-3.494 1.16-5.635l3.008.523c-.547 2.26-.941 4.136-1.182 5.63-.242 1.493-.363 2.819-.363 3.977 0 1.459.246 2.55.737 3.273.49.724 1.218 1.086 2.183 1.086 1.445 0 2.553-.69 3.322-2.07.77-1.38 1.22-3.443 1.352-6.186l.547 6.554h-.992l.7-.856c-.25 1.174-.566 2.133-.947 2.878a4.223 4.223 0 0 1-1.63 1.746c-.707.42-1.632.629-2.776.629zm10.111-.16c-1.625 0-2.81-.354-3.554-1.06-.745-.708-1.097-1.831-1.058-3.372l-.535-3.248.352-9.056h3.009l-.454 11.61c-.039.907.113 1.568.454 1.984.342.416.979.624 1.911.624h.596l-.09 2.518h-.63zM371.083 36.9c-.686.806-1.94 1.945-3.761 3.419-1.822 1.474-3.194 2.487-4.117 3.04l-1.649-2.31c1.263-.82 2.77-1.897 4.521-3.233 1.752-1.336 3.054-2.467 3.907-3.392h1.158l-.059 2.477zm1.035-2.476c.522 1.133 1.218 2.464 2.086 3.992l.59 1.032c.678 1.21 1.178 2.252 1.502 3.124.324.873.486 1.813.486 2.82 0 1.908-.612 3.373-1.835 4.395-1.222 1.022-2.967 1.533-5.234 1.533-1.154 0-2.178-.096-3.072-.288a11.308 11.308 0 0 1-2.697-.968l.535-2.57c.877.405 1.692.695 2.447.87.754.174 1.558.261 2.412.261 1.412 0 2.504-.297 3.274-.89.77-.594 1.155-1.44 1.155-2.538 0-.86-.179-1.697-.537-2.513-.357-.815-.894-1.86-1.61-3.134-.52-.926-.927-1.67-1.22-2.235a11.39 11.39 0 0 1-.735-1.755l.351-1.136h2.102zM389.946 48.651c1.695 0 3.415-.384 5.16-1.152l.71 2.474c-.888.437-1.855.77-2.901 1a14.59 14.59 0 0 1-3.152.347c-2.547 0-4.49-.68-5.831-2.042-1.341-1.362-2.012-3.254-2.012-5.676 0-1.848.341-3.487 1.023-4.915.681-1.428 1.66-2.544 2.933-3.347 1.274-.803 2.755-1.204 4.443-1.204 1.66 0 3.008.415 4.044 1.246 1.037.832 1.555 1.997 1.555 3.495 0 1.786-.99 3.193-2.973 4.22-1.982 1.026-4.772 1.583-8.37 1.671l-.559-2.401c2.868-.067 5.074-.401 6.62-1.003 1.547-.602 2.32-1.454 2.32-2.556 0-.668-.25-1.182-.747-1.542-.498-.36-1.152-.54-1.963-.54-1.106 0-2.08.28-2.923.837-.843.558-1.496 1.342-1.957 2.352-.462 1.01-.693 2.181-.693 3.513 0 1.606.44 2.878 1.318 3.816.879.938 2.197 1.407 3.955 1.407zM413.24 51h-2.936l.582-16.576h2.445l.357 4.288L413.24 51zm3.753-12.846c.025-.458-.053-.837-.232-1.136-.18-.299-.493-.449-.939-.449-.706 0-1.252.572-1.636 1.714-.384 1.143-.606 2.79-.664 4.941l-.403-6.131h.74c.12-1.025.42-1.774.904-2.247.484-.473 1.132-.71 1.945-.71 1.168 0 1.96.42 2.377 1.258.417.84.602 1.87.556 3.094L419.161 51h-2.643l.475-12.846zm8.385 7.9c-.043.874.026 1.496.207 1.864.18.369.566.553 1.158.553h.69l-.09 2.689h-.708c-1.091 0-1.953-.167-2.584-.5-.63-.334-1.073-.871-1.326-1.613-.253-.742-.339-1.74-.257-2.993l.445-7.9c.025-.44-.047-.815-.218-1.123-.171-.308-.47-.462-.9-.462-.737 0-1.297.558-1.68 1.672-.382 1.114-.604 2.738-.666 4.871l-.485-6.102h.895c.161-1.01.489-1.741.983-2.194.495-.454 1.173-.68 2.034-.68 1.16 0 1.952.421 2.378 1.264.426.843.605 1.872.537 3.088l-.413 7.566zM438.202 48.651c1.695 0 3.415-.384 5.16-1.152l.71 2.474c-.888.437-1.855.77-2.901 1a14.59 14.59 0 0 1-3.152.347c-2.547 0-4.49-.68-5.831-2.042-1.341-1.362-2.012-3.254-2.012-5.676 0-1.848.34-3.487 1.023-4.915.681-1.428 1.659-2.544 2.933-3.347 1.274-.803 2.755-1.204 4.443-1.204 1.66 0 3.007.415 4.044 1.246 1.037.832 1.555 1.997 1.555 3.495 0 1.786-.991 3.193-2.973 4.22-1.982 1.026-4.772 1.583-8.37 1.671l-.559-2.401c2.867-.067 5.074-.401 6.62-1.003 1.546-.602 2.32-1.454 2.32-2.556 0-.668-.25-1.182-.747-1.542-.498-.36-1.152-.54-1.963-.54-1.106 0-2.08.28-2.923.837-.843.558-1.496 1.342-1.957 2.352-.462 1.01-.693 2.181-.693 3.513 0 1.606.44 2.878 1.318 3.816.879.938 2.197 1.407 3.955 1.407zM453.618 42.594c0-1.012.215-1.908.646-2.688.43-.78 1.088-1.453 1.972-2.021.871-.57 1.525-1.175 1.962-1.82a3.656 3.656 0 0 0 .654-2.091c0-.887-.287-1.573-.863-2.056-.575-.483-1.388-.725-2.438-.725-.894 0-1.807.186-2.74.558-.933.373-1.852.883-2.758 1.53l-1.43-2.194c.875-.776 1.92-1.4 3.138-1.873a10.46 10.46 0 0 1 3.822-.71c2.007 0 3.564.462 4.67 1.385 1.107.923 1.66 2.231 1.66 3.924 0 1.164-.29 2.224-.87 3.179-.58.955-1.46 1.822-2.639 2.6-.694.446-1.207.937-1.54 1.473a3.254 3.254 0 0 0-.499 1.748v.868h-2.747v-1.087zm1.421 8.726a2.091 2.091 0 0 1-1.535-.634c-.423-.423-.634-.943-.634-1.562 0-.6.211-1.111.634-1.532.423-.42.934-.631 1.535-.631.601 0 1.113.21 1.536.631.423.42.634.931.634 1.532 0 .619-.211 1.14-.634 1.562a2.091 2.091 0 0 1-1.536.634zM476.32 37.72c.682-.768 1.194-1.515 1.535-2.24.342-.725.512-1.419.512-2.08s-.202-1.152-.608-1.472c-.405-.32-1.013-.48-1.824-.48h-.704v-2.624h1.12c1.622 0 2.843.379 3.664 1.136.822.757 1.232 1.904 1.232 3.44 0 .981-.234 2-.704 3.056-.469 1.056-1.194 2.107-2.176 3.152l-.768.864-2.112-1.856.832-.896zm-7.68 0c.682-.768 1.194-1.515 1.535-2.24.342-.725.512-1.419.512-2.08s-.202-1.152-.608-1.472c-.405-.32-1.013-.48-1.824-.48h-.704v-2.624h1.12c1.622 0 2.843.379 3.664 1.136.822.757 1.232 1.904 1.232 3.44 0 .981-.234 2-.704 3.056-.469 1.056-1.194 2.107-2.176 3.152l-.768.864-2.112-1.856.832-.896zM26.496 72.824v-2.048h15.552a162.888 162.888 0 0 1-.096-5.792l2.496-.096a68.117 68.117 0 0 0 .064 5.888h5.056v2.048H44.64l.192 2.528c2.56.299 4.363.907 5.408 1.824.939.832 1.333 1.973 1.184 3.424-.17 1.664-1.696 3.339-4.576 5.024.213.555.373.95.48 1.184.64 1.493 1.323 2.72 2.048 3.68.704.917 1.29 1.376 1.76 1.376a.911.911 0 0 0 .704-.32c.192-.213.384-.576.576-1.088.299-.896.565-1.888.8-2.976.512.768 1.12 1.312 1.824 1.632-.192.747-.448 1.6-.768 2.56-.704 1.877-1.75 2.816-3.136 2.816-.875 0-1.835-.533-2.88-1.6-1.045-1.067-1.963-2.432-2.752-4.096a21.58 21.58 0 0 1-.832-2.016c-2.539 1.259-5.568 2.421-9.088 3.488H43.2v1.888H26.56v-1.888h3.648c5.781-1.664 10.4-3.424 13.856-5.28-.64-2.112-1.141-4.693-1.504-7.744-.49-.021-1.28-.032-2.368-.032a82.532 82.532 0 0 0-2.72.128c.619 1.088.96 2.07 1.024 2.944.128 1.6-.405 2.901-1.6 3.904-1.11.939-2.464 1.376-4.064 1.312-1.792-.085-3.125-.63-4-1.632-.853-.981-1.173-2.25-.96-3.808.235-1.707 1.397-2.955 3.488-3.744 1.941-.725 4.821-1.11 8.64-1.152 1.067 0 1.845.01 2.336.032l-.192-2.368H26.496zm9.472 7.424c-.107-.875-.437-1.77-.992-2.688-1.685.235-2.88.608-3.584 1.12-.619.448-.981 1.067-1.088 1.856-.107.768.053 1.376.48 1.824.448.49 1.163.747 2.144.768.896.021 1.643-.213 2.24-.704.576-.512.843-1.237.8-2.176zm17.024-5.632a56.174 56.174 0 0 0-3.296-6.304l2.176-.832c1.088 1.685 2.155 3.67 3.2 5.952l-2.08 1.184zm-7.904 2.816c.277 2.24.672 4.32 1.184 6.24 1.75-1.195 2.656-2.293 2.72-3.296.043-.747-.213-1.355-.768-1.824-.64-.533-1.685-.907-3.136-1.12zM81.088 68.856c0 1.536-.97 2.677-2.912 3.424 1.472.427 2.176 1.227 2.112 2.4-.064 1.11-1.013 2.005-2.848 2.688h8.736v1.92H57.568v-1.92h15.2c3.03-.917 4.544-1.813 4.544-2.688-.043-.725-1.013-1.248-2.912-1.568-1.216.128-1.899.192-2.048.192l-.672-1.728c4.437-.235 6.688-1.099 6.752-2.592.021-.512-.597-.885-1.856-1.12-1.003-.192-2.336-.288-4-.288-2.155 0-4.416.405-6.784 1.216v6.752h-2.336v-9.44h2.336v.8a24.581 24.581 0 0 1 6.784-1.152c2.837-.085 5.003.181 6.496.8 1.344.555 2.016 1.323 2.016 2.304zM65.664 93.368c-3.37 0-5.056-.853-5.056-2.56 0-.619.235-1.195.704-1.728.512-.576 1.312-1.099 2.4-1.568 3.093-1.344 6.763-2.635 11.008-3.872H60.672v-1.792h20.672v1.664c-5.653 1.707-10.688 3.424-15.104 5.152-1.259.512-2.112.896-2.56 1.152-.427.256-.64.49-.64.704 0 .277.235.47.704.576.448.107 1.312.16 2.592.16H80.64c2.027.085 3.296-.683 3.808-2.304.17-.47.352-1.216.544-2.24.661.725 1.344 1.173 2.048 1.344-.213.939-.405 1.61-.576 2.016-.427 1.173-1.067 2.016-1.92 2.528s-2.037.768-3.552.768H65.664zM114.176 80.152c-1.6 0-2.816-.384-3.648-1.152-.832-.768-1.248-1.899-1.248-3.392 0-1.003.235-2.032.704-3.088.47-1.056 1.195-2.107 2.176-3.152l.768-.864 2.112 1.856-.832.928c-.683.747-1.195 1.483-1.536 2.208-.341.725-.512 1.43-.512 2.112 0 .64.203 1.12.608 1.44.405.32 1.013.48 1.824.48h.704v2.624h-1.12zm7.68 0c-1.6 0-2.816-.384-3.648-1.152-.832-.768-1.248-1.899-1.248-3.392 0-1.003.235-2.032.704-3.088.47-1.056 1.195-2.107 2.176-3.152l.768-.864 2.112 1.856-.832.928c-.683.747-1.195 1.483-1.536 2.208-.341.725-.512 1.43-.512 2.112 0 .64.203 1.12.608 1.44.405.32 1.013.48 1.824.48h.704v2.624h-1.12zM128.754 74.424h2.503l.372 4.053-.667 18.443h-2.988l.78-22.496zm4.208 16.896c-1.597 0-3.174-.107-4.732-.32l1.065-2.759a17.35 17.35 0 0 0 1.953.35c.726.093 1.386.139 1.98.139 2.242 0 3.941-.674 5.097-2.02 1.157-1.346 1.735-3.13 1.735-5.351 0-1.308-.224-2.394-.671-3.258-.448-.864-1.265-1.296-2.453-1.296-.929 0-1.802.3-2.62.898-.818.598-1.501 1.525-2.05 2.779-.55 1.254-.856 2.81-.92 4.669l-.267-6.752h1.3l-.672 1.184c.093-1.127.397-2.1.91-2.921a5.158 5.158 0 0 1 2.016-1.879c.83-.431 1.772-.647 2.83-.647 1.962 0 3.375.687 4.238 2.061.863 1.374 1.295 3.105 1.295 5.191 0 2.013-.398 3.768-1.194 5.263a8.236 8.236 0 0 1-3.458 3.456c-1.509.809-3.303 1.213-5.382 1.213zM153.195 74.136c2.335 0 4.034.541 5.098 1.623 1.064 1.082 1.555 2.64 1.473 4.674l-.235 5.6c-.04.908.111 1.569.45 1.983.34.413.979.622 1.915.626h.517l-.09 2.518h-.761c-1.608 0-2.749-.35-3.424-1.048-.674-.698-.992-1.826-.953-3.383h-.558l.203-6.132c.047-1.255-.216-2.201-.788-2.837-.572-.637-1.556-.955-2.951-.955-.712 0-1.49.085-2.335.256-.844.17-1.657.412-2.439.724l-.82-2.552a13.2 13.2 0 0 1 2.796-.825 16.176 16.176 0 0 1 2.902-.272zm2.736 13.769l.957-.466c-.16 1.236-.721 2.191-1.686 2.867-.965.676-2.237 1.014-3.816 1.014-1.698 0-3.015-.404-3.949-1.213-.934-.809-1.4-1.959-1.4-3.45 0-1.45.473-2.644 1.42-3.58.946-.936 2.28-1.564 4.001-1.885 1.722-.32 3.71-.31 5.965.032l.09 2.421c-1.513-.386-2.922-.518-4.228-.396-1.305.122-2.343.47-3.112 1.042-.77.573-1.154 1.318-1.154 2.236 0 .72.242 1.268.726 1.647.485.378 1.189.567 2.112.567 1.352 0 2.48-.381 3.386-1.144.905-.764 1.39-1.908 1.453-3.433l1.34 3.74h-2.105zM178.787 91.288c-1.747 0-3.042-.512-3.884-1.535-.843-1.024-1.264-2.424-1.264-4.2 0-.443.025-.945.076-1.508.05-.563.126-1.143.227-1.741l1.05-6.21 2.055 1.369c-4.284.898-6.933-.371-7.948-3.807h1.596c1.194 1.564 3.684 1.936 7.471 1.117L177 82.181c-.109.701-.19 1.34-.245 1.919a16.227 16.227 0 0 0-.081 1.485c0 .987.18 1.735.543 2.244.361.51.982.764 1.86.764.497 0 1.002-.077 1.514-.23l.601 2.469c-.64.304-1.442.456-2.405.456zm-15.657-6.803c1.843-1.011 3.092-2.314 3.748-3.908.655-1.594.892-3.524.71-5.79l-.103-1.131h2.425c.574 2.901.475 5.486-.295 7.755-.771 2.269-2.383 4.078-4.836 5.428l-1.649-2.355zM199.078 91.16c-1.278 0-2.25-.27-2.914-.807-.666-.538-1.08-1.375-1.242-2.509a9.247 9.247 0 0 1-.09-1.473l-.51-2.716.603-16.079h2.988l-.677 18.605c0 .36.01.62.032.776.089.575.303 1 .641 1.277.339.276.816.414 1.433.414h.934l-.084 2.512h-1.114zm-5.486-17.056c1.095 0 2.442.107 4.04.32l-1.13 2.733c-.705-.256-1.659-.384-2.86-.384-1.458 0-2.747.321-3.868.963a6.723 6.723 0 0 0-2.609 2.66c-.618 1.13-.927 2.415-.927 3.852 0 1.224.223 2.255.667 3.09.445.837 1.231 1.255 2.36 1.255.932 0 1.776-.295 2.532-.885.757-.59 1.372-1.507 1.847-2.753.474-1.245.743-2.806.807-4.682l.66 6.374h-1.23l.828-.838c-.298 1.752-.973 3.103-2.023 4.053-1.05.95-2.432 1.426-4.147 1.426-1.862 0-3.2-.672-4.015-2.016-.814-1.344-1.222-2.997-1.222-4.958 0-1.975.426-3.735 1.279-5.278a9.158 9.158 0 0 1 3.616-3.623c1.558-.873 3.356-1.309 5.395-1.309zM210.048 74.136c1.588 0 2.934.35 4.037 1.052 1.104.7 1.931 1.672 2.482 2.913.55 1.241.826 2.648.826 4.219 0 1.662-.275 3.17-.825 4.525-.55 1.354-1.393 2.439-2.53 3.253-1.138.815-2.55 1.222-4.238 1.222-1.588 0-2.943-.35-4.064-1.052a6.521 6.521 0 0 1-2.52-2.897c-.56-1.23-.84-2.64-.84-4.228 0-1.662.283-3.172.849-4.528.565-1.357 1.422-2.443 2.57-3.257 1.148-.815 2.566-1.222 4.253-1.222zm.032 2.669c-1.075 0-1.97.296-2.688.889-.717.593-1.247 1.364-1.59 2.313a8.827 8.827 0 0 0-.515 3.025c0 1.523.37 2.836 1.113 3.939.742 1.103 1.84 1.654 3.296 1.654 1.074 0 1.974-.292 2.697-.876.724-.584 1.253-1.345 1.588-2.284.334-.94.502-1.95.502-3.035 0-1.54-.366-2.863-1.097-3.968-.732-1.105-1.834-1.657-3.306-1.657zM232.263 80.954c.15-1.297.075-2.313-.224-3.047-.3-.735-.97-1.102-2.012-1.102-.896 0-1.727.3-2.493.9-.767.6-1.403 1.528-1.91 2.782-.508 1.255-.794 2.81-.858 4.664l-.288-7.066h1.327l-.608 1.184c.093-1.082.402-2.012.928-2.79a4.994 4.994 0 0 1 2.03-1.755 6.257 6.257 0 0 1 2.712-.588c1.645 0 2.841.54 3.59 1.618.749 1.078 1.031 2.546.847 4.404l-.512 5.255c-.103 1.12-.048 1.909.164 2.368.213.46.685.69 1.416.69h.748l-.09 2.689h-.766c-1.772 0-3.015-.446-3.73-1.338-.716-.892-.966-2.362-.75-4.409l.48-4.459zm-7.598-6.53l.383 4.141L224.58 91h-2.988l.581-16.576h2.492zM245.362 82.594c0-1.012.215-1.908.646-2.688.43-.78 1.088-1.453 1.973-2.022.87-.568 1.524-1.174 1.96-1.819a3.656 3.656 0 0 0 .656-2.091c0-.888-.288-1.573-.864-2.056-.575-.483-1.388-.725-2.437-.725-.895 0-1.808.186-2.74.558-.934.373-1.853.883-2.759 1.53l-1.43-2.194c.875-.776 1.921-1.4 3.139-1.873a10.46 10.46 0 0 1 3.822-.71c2.007 0 3.563.462 4.67 1.385 1.106.923 1.66 2.231 1.66 3.925 0 1.163-.29 2.223-.87 3.178-.58.955-1.46 1.822-2.64 2.6-.694.445-1.207.937-1.54 1.473a3.254 3.254 0 0 0-.499 1.748v.868h-2.747v-1.087zm1.422 8.726a2.091 2.091 0 0 1-1.536-.634c-.423-.423-.634-.943-.634-1.562 0-.6.211-1.111.634-1.532.423-.42.935-.631 1.536-.631.6 0 1.112.21 1.535.631.423.42.634.931.634 1.532 0 .619-.211 1.14-.634 1.562a2.091 2.091 0 0 1-1.535.634zM268.064 77.72c.682-.768 1.194-1.515 1.536-2.24.34-.725.512-1.419.512-2.08s-.203-1.152-.608-1.472c-.406-.32-1.014-.48-1.824-.48h-.704v-2.624h1.12c1.62 0 2.842.379 3.664 1.136.82.757 1.232 1.904 1.232 3.44 0 .981-.235 2-.704 3.056-.47 1.056-1.195 2.107-2.176 3.152l-.768.864-2.112-1.856.832-.896zm-7.68 0c.682-.768 1.194-1.515 1.536-2.24.34-.725.512-1.419.512-2.08s-.203-1.152-.608-1.472c-.406-.32-1.014-.48-1.824-.48h-.704v-2.624h1.12c1.62 0 2.842.379 3.664 1.136.82.757 1.232 1.904 1.232 3.44 0 .981-.235 2-.704 3.056-.47 1.056-1.195 2.107-2.176 3.152l-.768.864-2.112-1.856.832-.896zM283.552 91c.853 0 1.546-.256 2.08-.768.554-.533.832-1.237.832-2.112s-.278-1.579-.832-2.112c-.555-.533-1.248-.8-2.08-.8-.896 0-1.611.277-2.144.832-.534.555-.8 1.248-.8 2.08 0 .853.277 1.547.832 2.08.554.533 1.258.8 2.112.8zm0 1.76c-1.344 0-2.454-.437-3.328-1.312-.875-.875-1.312-1.984-1.312-3.328 0-1.301.437-2.4 1.312-3.296.896-.917 2.005-1.376 3.328-1.376 1.28 0 2.368.448 3.264 1.344.896.896 1.344 2.005 1.344 3.328s-.46 2.432-1.376 3.328c-.896.875-1.974 1.312-3.232 1.312z" fill="#000" fill-rule="nonzero"/></g></svg>