<svg xmlns="http://www.w3.org/2000/svg" width="494" height="138" viewBox="0 0 494 138"><path fill="#fff" d="M0 0h494v138H0z"/><path d="M40.526 55.138h3.12V28.909h-3.12zM53.745 42.71l2.073-2.073-13.756-13.755-13.755 13.755 2.073 2.073 7.377-7.398q2.907-2.908 4.305-6.028 1.423 3.144 4.306 6.027zm8.711-3.497v3.12h24.822v-3.12zm10.882 13.334 2.074 2.096L89.305 40.75 75.412 26.857l-2.074 2.096 7.422 7.422q2.953 2.953 6.143 4.375-3.237 1.47-6.143 4.375zm38.558.21V26.552h-3.12v26.205zm-1.584 2.027 13.756-13.756-2.073-2.073-7.377 7.399q-2.883 2.883-4.305 6.05-1.398-3.12-4.306-6.05l-7.376-7.399-2.074 2.073zm23.034-12.451h24.823v-3.12h-24.823zm-2.026-1.583 13.893 13.893 2.073-2.096-7.421-7.422q-2.906-2.906-6.143-4.375 3.19-1.422 6.143-4.375l7.421-7.422-2.073-2.096zm35.752 1.583h22.98v-3.12h-22.98zm-1.958-1.583 9.606 10.212 2.027-2.027-3.088-3.3q-2.975-3.209-6.212-4.885 3.167-1.607 6.212-4.885l3.088-3.3-2.027-2.027zm15.264 8.185 2.027 2.027 9.606-10.212-9.606-10.212-2.027 2.027 3.088 3.3q3.045 3.278 6.211 4.885-3.236 1.677-6.211 4.885zm33.892 5.18v-26.73h-3.12v26.73zm-1.583 1.958 10.681-10.212-2.027-2.028-3.768 3.58q-3.21 3.069-4.886 6.327-1.629-3.236-4.885-6.326l-3.768-3.58-2.027 2.027zm8.654-18.406 2.027-2.028-10.68-10.212-10.681 10.212 2.027 2.028 3.768-3.58q3.256-3.092 4.885-6.327 1.677 3.258 4.886 6.326zm14.221 19.723v3.051h22.5v-3.05zm12.834-3.275v-26.73h-3.12v26.73zm-1.584 1.958 10.681-10.212-2.027-2.028-3.768 3.58q-3.21 3.069-4.886 6.327-1.629-3.236-4.885-6.326l-3.768-3.58-2.027 2.027zm8.654-18.406 2.027-2.028-10.68-10.212-10.681 10.212 2.027 2.028 3.768-3.58q3.256-3.092 4.885-6.327 1.677 3.258 4.886 6.326zm23.912 12.929v4.542h3.166v-4.542zm0-7.693v4.47h3.166v-4.47zm0-7.318v4.403h3.166v-4.403zm13.242 7.126 2.073-2.073-13.756-13.755-13.755 13.755 2.073 2.073 11.682-11.727zm24.049-16.159h-3.166v4.519h3.166zm0 7.764h-3.166v4.448h3.166zm0 7.362h-3.166v4.403h3.166zm-1.607 13.106 13.756-13.756-2.073-2.073-11.683 11.75-11.682-11.75-2.073 2.073zm22.942-12.451H358.7v-22.3h-3.166v19.18h-17.53zm-1.934-1.583 10.212 10.212 2.027-2.027-3.81-3.81q-2.904-2.906-6.073-4.375 3.12-1.398 6.074-4.375l3.81-3.81-2.028-2.027zm36.06 1.583h22.57V25.658h-3.166v13.555h-19.405zm-1.935-1.583 10.212 10.212 2.027-2.027-3.81-3.81q-2.904-2.906-6.073-4.375 3.12-1.398 6.074-4.375l3.81-3.81-2.028-2.027zm58.961-4.666v-4.176c0-3.909-2.34-6.25-6.25-6.25h-3.966v3.12h3.713c2.209 0 3.36 1.128 3.36 3.36v3.693c0 2.232-1.151 3.382-3.36 3.382h-16.399v3.12h16.652c3.91 0 6.25-2.34 6.25-6.25M404.32 40.75l10.212 10.212 2.027-2.027-3.81-3.81q-2.904-2.906-6.073-4.375 3.12-1.398 6.074-4.375l3.81-3.81-2.028-2.027zm59.333-6.778c0-5.011-3.348-8.314-8.429-8.314h-2.159v3.12h2.16c3.265 0 5.262 1.998 5.262 5.194 0 3.173-2.044 5.241-5.263 5.241H440.38v3.12h14.845c5.057 0 8.43-3.373 8.43-8.36m-25.208 6.778 10.212 10.212 2.027-2.027-3.81-3.81q-2.904-2.906-6.073-4.375 3.12-1.398 6.074-4.375l3.81-3.81-2.028-2.027zM50.804 98.553H33.321l8.741-8.627zm-21.722 2.657h25.961v-2.657l-12.98-12.705-12.981 12.705zm22.933 8.087H32.11v-3.008h19.906zm-22.933-5.69v8.465h25.961v-8.464zm50.84-1.223h-7.47v-5.451h-5.828l9.563-9.023 9.564 9.023h-5.829zM69.495 99.52v5.362H82.88V99.52h7.134v-2.587L76.187 83.95 62.361 96.933v2.587zm10.427 12.866h-7.47v-3.033h7.47zm-10.427-5.507V115H82.88v-8.121zm44.552 1.551h-7.47V97.752h-5.92l9.655-9.633 9.657 9.633h-5.922zm-10.427-7.927v10.839h13.385v-10.839h7.134v-2.75L110.312 83.95 96.486 97.753v2.75zm50.648-1.133 2.327-2.328-12.158-12.158-12.158 12.158 2.327 2.328 9.831-9.992zm24.259-6.29q-2.273-7.422-7.933-7.422h-4.288v3.235h4.288q3.378 0 4.929 5.05l3.075 10.091q2.226 7.308 7.933 7.308h4.287v-3.235h-4.287q-3.426 0-4.93-4.935zm3.294-7.422v3.235h8.997v-3.235zm33.906 7.936q1.504-4.935 4.93-4.935h4.287v-3.235h-4.288q-5.707 0-7.933 7.308l-3.075 10.09q-1.55 5.05-4.929 5.05h-4.287v3.235h4.287q5.66 0 7.933-7.422zm9.217 14.278h-8.997v3.235h8.997zm19.279-1.962v-2.072h5.18v2.073c0 3.464 2.364 5.899 5.43 5.899 3.113 0 5.43-2.317 5.43-5.43 0-3.066-2.435-5.43-5.899-5.43h-2.073v-5.18h2.073c3.674 0 5.899-2.365 5.899-5.43 0-3.114-2.317-5.43-5.43-5.43-3.066 0-5.43 2.434-5.43 5.898v2.073h-5.18v-2.073c0-3.464-2.365-5.899-5.43-5.899-3.114 0-5.43 2.317-5.43 5.43 0 3.066 2.434 5.43 5.898 5.43h2.073v5.18h-2.073c-3.464 0-5.899 2.365-5.899 5.43 0 3.114 2.317 5.43 5.43 5.43 3.066 0 5.43-2.434 5.43-5.898m-2.89-15.056v2.027h-2.026c-1.88 0-3.079-1.06-3.079-2.542 0-1.506 1.059-2.564 2.564-2.564 1.483 0 2.542 1.198 2.542 3.079m-5.105 15.526c0-1.483 1.198-2.542 3.079-2.542h2.027v2.027c0 1.88-1.06 3.079-2.542 3.079-1.505 0-2.564-1.059-2.564-2.564m7.995-5.43v-5.18h5.18v5.18zm8.068 4.915v-2.027h2.027c1.88 0 3.079 1.059 3.079 2.542 0 1.505-1.059 2.564-2.564 2.564-1.483 0-2.542-1.198-2.542-3.079m0-12.984v-2.027c0-1.88 1.06-3.079 2.542-3.079 1.505 0 2.564 1.058 2.564 2.564 0 1.671-1.01 2.542-3.079 2.542zm19.068 5.993h-3.097c0 7.428 5.647 13.098 13.098 13.098 7.429 0 13.098-5.67 13.098-13.098s-5.67-13.098-13.098-13.098v3.096c5.659 0 10.002 4.344 10.002 10.002s-4.343 10.002-10.002 10.002c-5.658 0-10.001-4.344-10.001-10.002m6.777-10.298v-2.683h-9.71v9.97h2.682l-.246-5.39 10.475 10.475 2.143-2.143-10.471-10.471zM301 96.776v3.12h19.069v-3.12zm8.74 9.721 2.029 2.028 10.212-10.212L311.769 88.1l-2.028 2.028 3.81 3.81q2.976 2.976 6.096 4.375-3.19 1.469-6.096 4.374zm13.705-17.766v19.163h3.12V88.731zm20.405 11.165h19.069v-3.12H343.85zm-1.935-1.583 10.213 10.212 2.027-2.028-3.81-3.81q-2.905-2.905-6.073-4.374 3.12-1.4 6.074-4.375l3.81-3.81-2.028-2.028zm-4.584 9.581h3.12V88.731h-3.12zm34.359-22.236v3.167h23.245v-3.167zm21.523 19.235 2.257-2.28-12.158-12.159-12.158 12.158 2.258 2.281 9.9-10.084zm12.437-19.235v25.403h16.193l9.703-12.702-9.703-12.7zm14.68 22.42h-11.676V88.64h11.676l7.395 9.72zm1.255-5.115-3.846-4.604 3.846-4.603-1.75-1.773-3.718 4.436-3.707-4.436-1.774 1.773 3.856 4.603-3.856 4.604 1.774 1.773 3.707-4.436 3.718 4.436zm25.572 8.097h16.193V85.659h-16.193l-9.703 12.701zm13.188-22.42v19.439H448.67l-7.395-9.72 7.395-9.72zm-1.981 5.116-1.774-1.773-3.708 4.436-3.717-4.436-1.75 1.773 3.846 4.603-3.847 4.604 1.751 1.773 3.717-4.436 3.708 4.436 1.774-1.773-3.856-4.604z"/></svg>
