<svg width="421" height="208" viewBox="0 0 421 208" xmlns="http://www.w3.org/2000/svg"><g fill="none" fill-rule="evenodd"><path fill="#FFF" d="M0 0h421v208H0z"/><path d="M62.183 35.504v56.64h-4.042v-56.64h4.042zM47.97 75.357c2.094 1.54 4.001 2.703 5.722 3.49 1.72.787 3.471 1.181 5.251 1.181 2.647 0 4.782-.528 6.406-1.584 1.623-1.055 2.435-2.561 2.435-4.517 0-1.3-.497-2.488-1.492-3.567-.995-1.078-2.293-1.974-3.896-2.688l-6.963-3.052c-2.97-1.268-5.206-2.765-6.709-4.49-1.502-1.726-2.253-3.818-2.253-6.277 0-3.495 1.24-6.21 3.72-8.148 2.48-1.936 5.835-2.905 10.062-2.905 2.924 0 5.48.403 7.668 1.21 2.187.807 4.27 2.108 6.247 3.904l-3.407 4.168c-1.924-1.505-3.68-2.624-5.268-3.36a11.604 11.604 0 0 0-4.926-1.102c-2.445 0-4.407.518-5.888 1.554-1.48 1.036-2.22 2.509-2.22 4.418 0 1.276.397 2.358 1.19 3.247.793.889 1.987 1.686 3.581 2.392l6.964 3.104c3.013 1.31 5.371 2.908 7.075 4.793 1.704 1.885 2.556 4.064 2.556 6.538 0 3.507-1.31 6.236-3.93 8.189-2.62 1.953-6.145 2.929-10.574 2.929-3.044 0-5.719-.403-8.025-1.21-2.306-.807-4.477-2.09-6.513-3.851l3.187-4.366zM96.936 86.64c-4.945 0-8.624-1.858-11.037-5.574-2.412-3.716-3.618-9.367-3.618-16.954 0-7.68 1.3-13.45 3.9-17.312 2.602-3.861 6.4-5.792 11.395-5.792 4.945 0 8.624 1.911 11.036 5.734 2.413 3.823 3.619 9.613 3.619 17.37 0 7.51-1.292 13.141-3.875 16.896-2.583 3.755-6.39 5.632-11.42 5.632zm0-5.221c3.03 0 5.34-1.453 6.926-4.359 1.587-2.906 2.38-7.222 2.38-12.948 0-6.025-.705-10.511-2.118-13.46-1.413-2.949-3.595-4.423-6.548-4.423-3.03 0-5.34 1.504-6.927 4.513-1.587 3.009-2.38 7.465-2.38 13.37 0 5.847.706 10.193 2.119 13.038 1.413 2.846 3.595 4.269 6.548 4.269zm9.019-30.661l2.908 2.332-20.631 25.678-2.384-3.164 20.107-24.846zM120.849 79.528c4.981-3.937 8.958-7.337 11.932-10.198 2.973-2.86 5.21-5.556 6.709-8.085 1.5-2.53 2.249-5.034 2.249-7.513 0-2.394-.693-4.243-2.078-5.547-1.386-1.304-3.403-1.956-6.053-1.956-1.758 0-3.566.47-5.424 1.407a15.88 15.88 0 0 0-4.876 3.817l-3.843-3.831c1.505-2.036 3.533-3.647 6.082-4.834 2.55-1.187 5.28-1.78 8.189-1.78 4.564 0 8.018 1.078 10.36 3.235 2.343 2.157 3.515 5.242 3.515 9.257 0 2.723-.7 5.472-2.098 8.245-1.398 2.774-3.537 5.642-6.415 8.604-2.879 2.961-6.615 6.178-11.208 9.651v6h-7.041v-6.472zm28.63 1.094V86h-26.686v-5.378h26.686zM171.668 44.144l-9.694 31.027h-6.017l9.682-31.027h6.029zm6.363 25.806v5.221h-22.086l4.012-5.221h18.074zm10.988 0v5.221h-6.384V69.95h6.384zm-5.744-28.302V86h-5.872V41.648h5.872zM225.05 71.676c0 4.736-1.462 8.414-4.386 11.034-2.924 2.62-7.055 3.93-12.391 3.93-4.294 0-8.126-.512-11.496-1.536l.75-5.355.716.192c1.648.454 3.191.814 4.63 1.08 1.44.265 3.175.398 5.208.398 3.492 0 6.212-.831 8.162-2.494 1.95-1.663 2.925-3.992 2.925-6.988 0-2.693-.803-4.77-2.41-6.23-1.605-1.46-3.9-2.191-6.883-2.191-2.968 0-5.812.76-8.532 2.282l.213-4.68c1.598-.986 3.207-1.686 4.827-2.099a20.01 20.01 0 0 1 4.968-.62c4.417 0 7.805 1.15 10.163 3.45 2.358 2.3 3.537 5.576 3.537 9.827zm-20.557-30.028l-.285 20.539-2.865 3.611h-2.762v-24.15h5.912zm19.022 0v5.221h-22.067l-.576-5.221h22.643zM264.946 41.648L246 86h-6.546l19.596-44.352h5.896zm-25.062.896v13.025h-5.965V42.544h5.965zm25.062-.896l-3.971 5.326h-27.056v-5.326h31.027zM284.775 61.232c-2.92 0-5.259-.922-7.016-2.767-1.756-1.844-2.635-4.314-2.635-7.409 0-3.053.879-5.49 2.635-7.313 1.757-1.824 4.096-2.735 7.016-2.735 2.93 0 5.27.903 7.022 2.709 1.753 1.805 2.63 4.252 2.63 7.339 0 3.095-.877 5.565-2.63 7.41-1.752 1.844-4.093 2.766-7.022 2.766zm0-4.071c1.537 0 2.75-.555 3.638-1.665.888-1.11 1.332-2.59 1.332-4.44 0-1.843-.444-3.3-1.332-4.371-.888-1.07-2.1-1.606-3.638-1.606-1.528 0-2.739.535-3.631 1.606-.892 1.07-1.339 2.528-1.339 4.371 0 1.85.447 3.33 1.339 4.44.892 1.11 2.103 1.665 3.631 1.665zm4.928-12.18l1.856 1.658-11.712 10.73-1.856-1.71 11.712-10.678zM325.173 54.582c0-.667-.27-1.217-.812-1.648-.541-.43-1.281-.646-2.22-.646-1.332 0-2.506.336-3.524 1.008l.244-3.233a7.478 7.478 0 0 1 2.157-.95 9.543 9.543 0 0 1 2.418-.297c2.169 0 3.877.555 5.124 1.664 1.247 1.11 1.87 2.568 1.87 4.375 0 2.021-.81 3.579-2.429 4.673-1.619 1.093-3.932 1.661-6.938 1.704-2.718 0-5.04-.277-6.963-.832l1.198-4.204.384.064c1.835.384 3.431.576 4.788.576 1.518 0 2.68-.185 3.49-.556.809-.372 1.213-.937 1.213-1.698zm-4.677-12.934l-.395 8.768-1.484 2.88h-3.493l.308-11.648h5.064zm8.874 0v4.071h-10.845l-.198-4.071h11.043zM354.146 93.893c1.436-1.358 2.566-2.602 3.39-3.731.825-1.13 1.323-2.245 1.493-3.347.17-1.246-.07-2.182-.722-2.809-.652-.627-1.715-.94-3.19-.94h-1.063v-5h2.656c2.983 0 5.128.745 6.435 2.236 1.307 1.491 1.716 3.69 1.227 6.595-.325 1.843-1.068 3.735-2.228 5.676-1.16 1.941-2.729 3.83-4.707 5.664l-1.78 1.651-3.43-4.128 1.92-1.867zm5.637-32.054c-1.322 0-2.455-.472-3.4-1.416-.944-.944-1.416-2.077-1.416-3.399 0-1.323.47-2.445 1.41-3.368.941-.923 2.076-1.384 3.406-1.384s2.457.461 3.38 1.384c.922.923 1.383 2.045 1.383 3.368 0 1.322-.461 2.455-1.384 3.399-.922.944-2.049 1.416-3.379 1.416zM58.069 175v-64.375h4.175V175h-4.175zm.15-9.375c-2.5 0-4.842-.2-7.027-.602-2.184-.4-4.213-1.002-6.086-1.804l.775-5.985c2.277.959 4.481 1.687 6.611 2.186 2.13.499 4.206.748 6.227.748 3.01 0 5.25-.526 6.717-1.578 1.467-1.052 2.201-2.65 2.201-4.793 0-2.73-1.383-4.734-4.15-6.016l-8.115-3.784c-2.93-1.35-5.175-2.974-6.736-4.873-1.561-1.9-2.342-4.253-2.342-7.061 0-3.853 1.158-6.826 3.473-8.92 2.316-2.096 5.612-3.143 9.89-3.143 2.953 0 5.574.437 7.862 1.311 2.287.874 4.478 2.29 6.572 4.245l-4.14 4.197c-1.845-1.498-3.579-2.588-5.204-3.272a12.928 12.928 0 0 0-5.06-1.024c-2.264 0-4.01.53-5.235 1.593-1.226 1.062-1.84 2.64-1.84 4.731 0 1.459.39 2.652 1.166 3.582.777.929 1.922 1.755 3.434 2.478l6.963 3.33c3.206 1.516 5.638 3.236 7.295 5.163 1.657 1.928 2.486 4.378 2.486 7.35 0 3.982-1.301 6.967-3.904 8.957-2.604 1.99-6.548 2.984-11.833 2.984zM97.25 165.625c-10.033 0-15.05-7.5-15.05-22.5C82.2 127.708 87.217 120 97.25 120c10.033 0 15.05 7.708 15.05 23.125 0 15-5.017 22.5-15.05 22.5zm0-17.972c-1.35 0-2.443-.417-3.278-1.251-.836-.835-1.253-1.927-1.253-3.277 0-1.369.418-2.467 1.253-3.292.836-.826 1.928-1.24 3.278-1.24 1.369 0 2.466.414 3.292 1.24.826.825 1.24 1.923 1.24 3.292 0 1.35-.414 2.442-1.24 3.277-.825.834-1.923 1.251-3.292 1.251zm0 12.515c5.82 0 8.731-5.68 8.731-17.043 0-11.779-2.91-17.668-8.731-17.668-5.82 0-8.731 5.889-8.731 17.668 0 11.362 2.91 17.043 8.731 17.043zM120.825 165v-6.828c6.92-3.83 12.092-7.812 15.512-11.949 3.421-4.136 5.132-8.409 5.132-12.817 0-2.633-.653-4.617-1.96-5.95-1.306-1.333-3.267-2-5.884-2-1.74 0-3.532.479-5.376 1.435a15.53 15.53 0 0 0-4.799 3.859l-4.062-4.031c1.46-2.03 3.49-3.657 6.09-4.882A19.171 19.171 0 0 1 133.75 120c4.642 0 8.123 1.118 10.444 3.353 2.32 2.235 3.48 5.586 3.48 10.053 0 4.575-1.469 8.948-4.408 13.12-2.94 4.172-7.39 8.163-13.353 11.974v6.5h-9.088zm1.875 0v-5.625h26.85V165H122.7zM155.888 155.038l6.174-31.913h6.37l-6.238 31.913h-6.306zm-.007 0l4.188-5.513h18.48v5.513h-22.668zm27.563 0v-5.513h4.98v5.513h-4.98zm-5.52 9.962v-44.375h6.145V165h-6.144zM210.188 165.625c-4.767 0-8.456-1.14-11.068-3.422-2.611-2.281-3.917-5.495-3.917-9.64h6.319c0 2.404.755 4.273 2.264 5.606 1.51 1.333 3.664 2 6.464 2 2.754 0 4.885-.828 6.392-2.483 1.507-1.655 2.26-3.988 2.26-6.999 0-2.914-.797-5.174-2.391-6.78-1.595-1.604-3.859-2.407-6.792-2.407-2.99 0-5.788.75-8.394 2.25l.363-4.969c1.683-1.035 3.355-1.732 5.015-2.089a23.78 23.78 0 0 1 5.016-.536c4.256 0 7.552 1.263 9.887 3.79 2.336 2.525 3.503 6.106 3.503 10.742 0 3.166-.585 5.864-1.756 8.093-1.17 2.23-2.865 3.927-5.083 5.094-2.217 1.167-4.912 1.75-8.083 1.75zM197.9 143.75l.616-23.125h6.312l-.625 19.406-2.878 3.719H197.9zm3.537-17.612l-.562-5.513h21.422v5.513h-20.86zM242.516 165l15.162-44.375h6.747L249.263 165h-6.747zm-10.503-29v-14.438h6.312V136h-6.312zm0-9.75v-5.625h32.412l-4.188 5.625h-28.224zM284.781 140.25c-2.946 0-5.305-.93-7.078-2.788-1.773-1.858-2.66-4.335-2.66-7.43 0-3.055.887-5.49 2.66-7.307 1.773-1.817 4.132-2.725 7.078-2.725 2.927 0 5.272.894 7.033 2.683 1.761 1.788 2.642 4.238 2.642 7.348 0 3.096-.88 5.573-2.642 7.431-1.761 1.859-4.106 2.788-7.033 2.788zm0-4.872c1.296 0 2.334-.491 3.114-1.473.78-.983 1.17-2.274 1.17-3.874 0-1.575-.39-2.828-1.17-3.76-.78-.933-1.818-1.399-3.114-1.399-1.333 0-2.39.466-3.173 1.399-.782.932-1.173 2.185-1.173 3.76 0 1.6.39 2.891 1.173 3.874.782.982 1.84 1.473 3.173 1.473zM322.156 140.219c-2.62 0-4.649-.531-6.084-1.594-1.435-1.063-2.153-2.552-2.153-4.469h5.672c0 1.15.865 1.725 2.596 1.725.92 0 1.626-.203 2.12-.609.495-.406.743-.97.743-1.694 0-.712-.273-1.263-.819-1.651-.546-.389-1.32-.583-2.325-.583-1.27 0-2.427.323-3.469.969l.25-3.375a7.751 7.751 0 0 1 2.135-.841c.791-.19 1.59-.285 2.397-.285 2.342 0 4.154.489 5.437 1.466 1.283.977 1.925 2.358 1.925 4.144 0 2.152-.733 3.823-2.198 5.012-1.466 1.19-3.541 1.785-6.227 1.785zm-7.425-7.906l.282-11.688h5.456l-.438 8.781-1.594 2.906h-3.706zm3.55-7.47l-.219-4.218h11.332v4.219H318.28zM359.749 140.197c-1.228 0-2.281-.438-3.158-1.314-.878-.876-1.316-1.928-1.316-3.157 0-1.249.438-2.307 1.315-3.174.877-.868 1.93-1.302 3.16-1.302 1.248 0 2.306.434 3.174 1.302.867.867 1.301 1.925 1.301 3.174 0 1.229-.434 2.28-1.301 3.157-.868.876-1.926 1.314-3.175 1.314zm-5.655 38.428l2.5-21.563h6.828l-3.64 21.563h-5.688z" fill="#000" fill-rule="nonzero"/></g></svg>