<svg width="475" height="384" viewBox="0 0 475 384" xmlns="http://www.w3.org/2000/svg"><g fill="none" fill-rule="evenodd"><path fill="#FFF" d="M0 0h475v384H0z"/><path d="M127.688 347.192c1.088 0 1.963-.256 2.624-.768.662-.512.992-1.28.992-2.304 0-.939-.33-1.664-.992-2.176-.661-.512-1.578-.768-2.752-.768h-3.648l-.352-1.632h6.112c1.899 0 3.366.453 4.4 1.36 1.035.907 1.552 2.192 1.552 3.856 0 2.09-.65 3.653-1.952 4.688-1.301 1.035-3.018 1.552-5.152 1.552h-4.864l.064-3.808h3.968zm-3.104-18.368L124.2 351h-4.128l.384-22.176h4.128zm4.704 9.728v1.536h-6.176l.032-1.536h6.144zm-1.728-1.184c.982 0 1.718-.213 2.208-.64.49-.427.747-1.067.768-1.92 0-.747-.256-1.301-.768-1.664s-1.29-.544-2.336-.544h-3.072l-.288-3.776h3.584c2.304 0 4.086.464 5.344 1.392 1.259.928 1.888 2.256 1.888 3.984 0 1.643-.538 2.859-1.616 3.648-1.077.79-2.47 1.184-4.176 1.184h-5.216l.032-1.664h3.648zM146.216 334.136c1.579 0 2.955.352 4.128 1.056a7.055 7.055 0 0 1 2.704 2.912c.63 1.237.944 2.645.944 4.224 0 1.643-.31 3.147-.928 4.512-.619 1.365-1.53 2.453-2.736 3.264-1.205.81-2.64 1.216-4.304 1.216-1.579 0-2.955-.352-4.128-1.056a7.032 7.032 0 0 1-2.704-2.928c-.63-1.248-.944-2.661-.944-4.24 0-1.643.31-3.147.928-4.512.619-1.365 1.53-2.448 2.736-3.248 1.205-.8 2.64-1.2 4.304-1.2zm.064 4c-.832 0-1.53.235-2.096.704-.565.47-.981 1.077-1.248 1.824a6.893 6.893 0 0 0-.4 2.336c0 1.173.288 2.181.864 3.024.576.843 1.43 1.264 2.56 1.264.832 0 1.53-.235 2.096-.704.565-.47.981-1.077 1.248-1.824.267-.747.4-1.525.4-2.336 0-1.173-.288-2.181-.864-3.024-.576-.843-1.43-1.264-2.56-1.264zM173.224 350.616c-1.493.47-2.901.704-4.224.704-2.432 0-4.341-.533-5.728-1.6-1.387-1.067-2.352-2.49-2.896-4.272-.544-1.781-.816-3.877-.816-6.288 0-2.368.299-4.448.896-6.24.597-1.792 1.45-3.184 2.56-4.176s2.39-1.488 3.84-1.488c1.899 0 3.296.635 4.192 1.904.896 1.27 1.344 2.896 1.344 4.88 0 3.584-1.317 6.736-3.952 9.456-2.635 2.72-6.384 4.827-11.248 6.32l-1.248-3.552c2.581-.79 4.81-1.808 6.688-3.056 1.877-1.248 3.323-2.65 4.336-4.208 1.013-1.557 1.52-3.19 1.52-4.896 0-.81-.107-1.515-.32-2.112-.213-.597-.65-.896-1.312-.896-.64 0-1.19.336-1.648 1.008-.459.672-.81 1.61-1.056 2.816-.245 1.205-.368 2.597-.368 4.176 0 1.536.101 2.88.304 4.032.203 1.152.667 2.133 1.392 2.944.725.81 1.813 1.216 3.264 1.216a9.802 9.802 0 0 0 3.296-.544l1.184 3.872zM191.4 351.16c-1.344 0-2.443-.187-3.296-.56-.853-.373-1.365-1.157-1.536-2.352a7.39 7.39 0 0 1-.032-1.152l-.672-2.048.672-17.472h4.224l-.64 17.632c-.021.32-.01.704.032 1.152.064.448.256.763.576.944.32.181.875.272 1.664.272h.64l-.128 3.584H191.4zm-4.48-17.024c1.045 0 2.24.096 3.584.288l-1.28 4.096c-.619-.256-1.483-.384-2.592-.384-1.344 0-2.539.267-3.584.8s-1.856 1.275-2.432 2.224c-.576.95-.864 2.032-.864 3.248 0 .896.165 1.6.496 2.112.33.512.933.768 1.808.768.725 0 1.376-.24 1.952-.72.576-.48 1.045-1.227 1.408-2.24.363-1.013.587-2.288.672-3.824l3.52 7.2h-4.544l1.184-.576c-.341 1.344-.95 2.379-1.824 3.104-.875.725-2.005 1.088-3.392 1.088-1.899 0-3.296-.672-4.192-2.016-.896-1.344-1.344-2.997-1.344-4.96s.48-3.717 1.44-5.264c.96-1.547 2.304-2.757 4.032-3.632 1.728-.875 3.712-1.312 5.952-1.312zM51.432 313.32a19.89 19.89 0 0 1-3.595-.313 15.146 15.146 0 0 1-3.116-.903l.561-3.791c1.161.5 2.262.875 3.302 1.127 1.04.251 2.043.377 3.008.377 1.18 0 2.118-.205 2.815-.615.698-.41 1.046-1.064 1.046-1.96 0-1.104-.623-1.959-1.87-2.565l-3.43-1.679c-1.528-.75-2.671-1.645-3.43-2.685-.758-1.04-1.138-2.242-1.138-3.607 0-2.086.666-3.64 1.998-4.665 1.332-1.025 3.064-1.537 5.196-1.537 1.418 0 2.72.228 3.905.684 1.185.456 2.265 1.156 3.238 2.1l-2.623 2.844c-.783-.709-1.579-1.243-2.388-1.603-.81-.36-1.59-.54-2.343-.54-.978 0-1.743.22-2.295.66-.551.442-.833 1.078-.846 1.909-.012.607.157 1.132.51 1.576.351.444.886.84 1.604 1.19l3.08 1.517c1.607.786 2.84 1.7 3.702 2.742.862 1.042 1.292 2.21 1.292 3.504.013 2.228-.754 3.823-2.302 4.787-1.547.964-3.508 1.446-5.88 1.446zM72.613 309.885c1.702 0 3.409-.378 5.12-1.133l.844 3.267c-.947.436-1.945.761-2.994.977-1.05.216-2.14.324-3.27.324-2.664 0-4.692-.672-6.085-2.016-1.392-1.344-2.089-3.26-2.089-5.745 0-1.831.363-3.46 1.088-4.888.724-1.427 1.752-2.54 3.082-3.338 1.33-.798 2.878-1.197 4.643-1.197 1.732 0 3.14.45 4.225 1.349 1.085.9 1.628 2.15 1.628 3.753 0 1.788-.975 3.163-2.925 4.125-1.95.961-4.767 1.474-8.45 1.538l-.804-3.02c2.65-.03 4.712-.288 6.184-.774 1.472-.487 2.208-1.168 2.208-2.046 0-.534-.222-.93-.666-1.184-.443-.255-.993-.383-1.647-.383-.999 0-1.876.253-2.632.76-.756.505-1.342 1.208-1.759 2.108-.416.9-.625 1.926-.625 3.08 0 1.418.411 2.513 1.233 3.285.822.772 2.052 1.158 3.691 1.158zM85.526 313H81.79l.614-16.576h3.154l.398 4.288-.43 12.288zm2.907-12.078c.022-.384-.041-.71-.189-.975-.147-.266-.413-.4-.797-.4-.489 0-.866.341-1.132 1.022-.266.681-.42 1.679-.463 2.993l-.536-4.875h.875c.157-.892.457-1.541.899-1.945.442-.404 1.045-.606 1.81-.606 1.076 0 1.804.434 2.185 1.302.38.868.548 1.884.506 3.05L91.11 313h-3.12l.442-12.078zm8.854 6.805c-.043.661.015 1.141.173 1.441.158.3.519.45 1.082.45h.464l-.115 3.542h-.634c-1.173 0-2.115-.177-2.824-.531-.71-.354-1.217-.917-1.522-1.69-.304-.772-.414-1.799-.328-3.08l.453-6.937a1.884 1.884 0 0 0-.173-.96c-.136-.276-.38-.414-.73-.414-.52 0-.924.341-1.215 1.024-.29.683-.451 1.68-.482 2.99l-.57-4.875h1.005c.187-.914.514-1.568.979-1.961.466-.393 1.1-.59 1.903-.59 1.19 0 2.008.415 2.456 1.245.447.83.633 1.866.556 3.107l-.478 7.24zM113.176 313.32c-1.814 0-3.203-.403-4.166-1.21-.964-.807-1.571-1.874-1.823-3.202-.252-1.328-.263-2.867-.034-4.616l1.014-7.868h3.6l-.72 7.868c-.131 1.425-.17 2.497-.116 3.215.054.717.276 1.266.667 1.645.39.38 1.036.569 1.936.569.568 0 1.071-.065 1.509-.196.438-.13.947-.369 1.528-.715l1.469 3.227c-.78.406-1.55.722-2.307.946-.757.225-1.61.337-2.557.337zm-3.687-13.871c-.71.794-1.887 1.833-3.53 3.116-1.644 1.283-3.176 2.365-4.597 3.243l-2.145-2.994a79.238 79.238 0 0 0 5.012-3.323c1.667-1.196 2.924-2.219 3.772-3.067h1.563l-.075 3.025zm.442-5.892a2.547 2.547 0 0 1-1.858-.757 2.5 2.5 0 0 1-.767-1.85c0-.728.256-1.347.767-1.858a2.531 2.531 0 0 1 1.858-.767c.729 0 1.348.256 1.859.767.51.51.766 1.13.766 1.858a2.5 2.5 0 0 1-.766 1.85c-.51.504-1.13.757-1.859.757zM125.694 313.32c-1.446 0-3.198-.107-5.255-.32l1.227-3.663c.695.137 1.438.25 2.23.34.793.09 1.463.134 2.01.134 1.987 0 3.468-.547 4.443-1.64.975-1.094 1.462-2.653 1.462-4.676 0-1.1-.175-2.006-.526-2.72-.35-.715-1.024-1.072-2.02-1.072-.786 0-1.528.26-2.225.782-.697.521-1.277 1.327-1.741 2.416-.464 1.09-.728 2.44-.792 4.051l-.332-7.205h1.33l-.437.995c.073-.962.324-1.79.753-2.486a4.171 4.171 0 0 1 1.74-1.581c.732-.36 1.584-.539 2.558-.539 1.95 0 3.36.685 4.233 2.054.872 1.37 1.308 3.082 1.308 5.135 0 2.055-.393 3.833-1.18 5.333a8.135 8.135 0 0 1-3.426 3.455c-1.495.805-3.282 1.207-5.36 1.207zm-.534-23.744L124.296 313h-3.857l.864-23.424h3.857zM146.242 296.136c1.588 0 2.955.35 4.102 1.05a6.791 6.791 0 0 1 2.619 2.905c.599 1.237.898 2.645.898 4.224 0 1.66-.294 3.17-.882 4.531-.588 1.361-1.472 2.447-2.65 3.258-1.18.81-2.61 1.216-4.292 1.216-1.587 0-2.959-.35-4.115-1.05a6.804 6.804 0 0 1-2.638-2.908c-.603-1.239-.905-2.652-.905-4.24 0-1.66.299-3.17.895-4.531.597-1.362 1.487-2.444 2.67-3.249 1.184-.804 2.617-1.206 4.298-1.206zm.051 3.567c-.91 0-1.67.254-2.28.763-.608.509-1.057 1.17-1.346 1.981a7.608 7.608 0 0 0-.432 2.566c0 1.278.312 2.383.936 3.313.624.93 1.55 1.395 2.776 1.395.91 0 1.673-.252 2.286-.757.613-.504 1.062-1.16 1.346-1.968a7.695 7.695 0 0 0 .427-2.572c0-1.287-.31-2.396-.93-3.326-.62-.93-1.547-1.395-2.783-1.395zM173.106 312.616c-1.423.47-2.766.704-4.027.704-2.45 0-4.366-.538-5.748-1.613-1.382-1.075-2.337-2.506-2.863-4.292-.527-1.786-.79-3.897-.79-6.334 0-2.324.299-4.378.896-6.161.597-1.783 1.44-3.173 2.527-4.17 1.088-.996 2.34-1.494 3.755-1.494 1.837 0 3.182.633 4.035 1.898.852 1.264 1.278 2.863 1.278 4.794 0 3.54-1.304 6.662-3.913 9.364-2.608 2.703-6.327 4.796-11.156 6.281l-1.09-3.25c2.677-.825 4.95-1.854 6.819-3.09 1.868-1.234 3.29-2.643 4.264-4.227a9.664 9.664 0 0 0 1.46-5.158c0-.88-.113-1.626-.34-2.237-.226-.61-.7-.915-1.422-.915-.667 0-1.247.355-1.74 1.067-.494.71-.874 1.689-1.142 2.933-.267 1.245-.4 2.657-.4 4.236 0 1.597.12 3.022.363 4.274.242 1.253.76 2.315 1.556 3.187.795.872 1.957 1.308 3.487 1.308a9.136 9.136 0 0 0 3.19-.558l1.001 3.453zM191.44 313.16c-1.327 0-2.382-.222-3.165-.665-.784-.443-1.26-1.258-1.431-2.444a8.026 8.026 0 0 1-.059-1.204l-.645-2.389.645-16.882h3.857l-.653 17.973c-.013.329-.002.656.032.982.073.491.271.845.596 1.061.324.217.841.325 1.552.325h.758l-.115 3.243h-1.372zm-4.926-17.037c1.08 0 2.366.1 3.859.301l-1.227 3.65c-.663-.256-1.584-.384-2.763-.384-1.362 0-2.57.284-3.623.853a6.12 6.12 0 0 0-2.452 2.361c-.58 1.006-.871 2.153-.871 3.438 0 .993.176 1.801.529 2.427.353.626.997.938 1.933.938.795 0 1.511-.255 2.148-.765.637-.51 1.157-1.305 1.559-2.385.402-1.079.641-2.434.718-4.066l2.379 6.859h-3.22l1.08-.681c-.324 1.484-.96 2.628-1.91 3.432-.948.804-2.182 1.206-3.7 1.206-1.872 0-3.235-.672-4.087-2.016-.852-1.344-1.278-2.993-1.278-4.947 0-1.971.456-3.73 1.368-5.277.912-1.547 2.194-2.757 3.848-3.632s3.557-1.312 5.71-1.312zM90.056 262.403l2.448-9.579h2.225l-.018 3.936h-.913l-2.494 9.415h-1.958l.518-3.772h.192zm-4.11-9.579L85.176 275h-3.263l.768-22.176h3.263zm-.577 3.936l.11-3.936h2.225l2.096 9.579h.128l.274 3.772h-1.778l-2.142-9.415h-.913zm12.157-3.936V275h-3.263v-22.176h3.263zM109.986 272.226c1.675 0 3.382-.382 5.12-1.146l.791 2.887c-.911.444-1.894.78-2.948 1.01a15.086 15.086 0 0 1-3.21.343c-2.577 0-4.549-.672-5.915-2.016-1.366-1.344-2.05-3.233-2.05-5.666 0-1.849.352-3.491 1.055-4.927.703-1.436 1.702-2.558 2.997-3.365 1.296-.807 2.791-1.21 4.486-1.21 1.714 0 3.096.43 4.146 1.29 1.05.86 1.575 2.06 1.575 3.603 0 1.805-.98 3.221-2.938 4.248-1.959 1.028-4.723 1.573-8.293 1.637l-.645-2.745c2.676-.039 4.75-.336 6.222-.892 1.472-.556 2.208-1.339 2.208-2.347 0-.579-.22-1.021-.659-1.329-.439-.307-1.025-.461-1.758-.461-1.017 0-1.918.266-2.705.798-.786.533-1.399 1.277-1.837 2.233-.439.957-.658 2.056-.658 3.298 0 1.47.422 2.63 1.266 3.481.843.85 2.093 1.276 3.75 1.276zM135.223 275.16c-1.31 0-2.32-.257-3.034-.77-.713-.513-1.155-1.358-1.326-2.536-.06-.399-.088-.818-.084-1.256l-.62-2.73.62-16.292h3.49l-.667 18.314c-.004.337.007.608.032.811.081.535.287.929.615 1.18.329.251.81.377 1.441.377h.876l-.101 2.902h-1.242zm-5.372-17.05c1.116 0 2.494.105 4.135.314l-1.175 3.204c-.706-.256-1.684-.384-2.933-.384-1.38 0-2.6.302-3.663.905a6.334 6.334 0 0 0-2.471 2.5c-.585 1.063-.877 2.272-.877 3.628 0 1.088.187 2.002.561 2.742.375.739 1.06 1.108 2.057 1.108.866 0 1.647-.27 2.346-.811.698-.541 1.268-1.384 1.71-2.529.441-1.144.696-2.58.763-4.309l1.238 6.518h-1.894l.974-.786c-.307 1.624-.971 2.877-1.995 3.76-1.023.883-2.36 1.324-4.008 1.324-1.846 0-3.174-.672-3.982-2.016-.809-1.344-1.213-2.989-1.213-4.934 0-1.98.432-3.743 1.295-5.29.864-1.547 2.086-2.757 3.665-3.632 1.58-.875 3.402-1.312 5.467-1.312zM150.536 275.32c-1.666 0-2.96-.364-3.884-1.092-.924-.728-1.521-1.695-1.79-2.9-.27-1.207-.304-2.588-.1-4.144l1.132-8.76h3.234l-.865 8.76c-.114 1.25-.134 2.214-.058 2.893.076.679.318 1.194.726 1.547s1.054.53 1.936.53c.603 0 1.135-.072 1.595-.216.46-.143.993-.401 1.6-.774l1.338 2.742a11.82 11.82 0 0 1-2.294 1.044c-.758.247-1.614.37-2.57.37zm-3.727-14.238c-.587.82-1.64 1.852-3.157 3.096a41.257 41.257 0 0 1-4.904 3.447l-1.922-2.693a70.197 70.197 0 0 0 5.32-3.526c1.584-1.166 2.786-2.16 3.609-2.982h1.077l-.023 2.658zm.758-5.801a2.322 2.322 0 0 1-1.702-.698 2.306 2.306 0 0 1-.7-1.698c0-.667.233-1.234.7-1.701a2.317 2.317 0 0 1 1.702-.701c.666 0 1.233.234 1.7.7.468.468.702 1.035.702 1.702s-.234 1.233-.701 1.698a2.321 2.321 0 0 1-1.701.698zM162.97 275.32c-1.873 0-3.26-.609-4.158-1.826-.9-1.218-1.349-3.002-1.349-5.353 0-1.329.123-2.808.368-4.437.245-1.629.63-3.485 1.157-5.568l3.527.582c-.543 2.217-.935 4.069-1.177 5.556-.241 1.488-.362 2.79-.362 3.905 0 1.307.21 2.298.632 2.97.42.674 1.072 1.01 1.955 1.01 1.298 0 2.29-.64 2.975-1.918.686-1.28 1.091-3.17 1.215-5.673l.61 6.577h-.991l.667-.877c-.227 1.157-.519 2.093-.875 2.807a3.884 3.884 0 0 1-1.538 1.658c-.669.391-1.554.587-2.656.587zm9.945-.16c-1.571 0-2.738-.338-3.5-1.014-.763-.676-1.146-1.762-1.15-3.26l-.64-3.406.352-9.056h3.522l-.437 11.258c-.039.889.09 1.54.385 1.954.295.415.893.622 1.796.622h.683l-.102 2.902h-.909zM179.077 275h-3.409l.588-16.576h2.853l.41 4.288-.442 12.288zm3.221-12.668c.021-.385-.046-.699-.202-.943-.156-.244-.426-.366-.81-.366-.594 0-1.05.49-1.369 1.468-.318.978-.498 2.387-.541 4.226l-.497-5.846h.823c.122-.954.417-1.649.885-2.083.469-.435 1.094-.652 1.876-.652 1.129 0 1.892.425 2.29 1.275.397.85.575 1.876.532 3.077l-.48 12.512h-2.975l.468-12.668zm8.683 7.435c-.043.809.02 1.385.186 1.729.167.343.537.515 1.109.515h.608l-.101 3.149h-.661c-1.173 0-2.102-.173-2.785-.518-.684-.345-1.165-.906-1.443-1.683s-.375-1.827-.29-3.152l.428-7.476c.021-.362-.04-.67-.186-.926-.146-.255-.398-.382-.756-.382-.633 0-1.112.486-1.438 1.457-.326.972-.509 2.384-.547 4.236l-.597-5.845h1.018c.161-.976.483-1.675.966-2.1.483-.423 1.144-.635 1.982-.635 1.163 0 1.957.42 2.383 1.258.426.84.605 1.87.537 3.094l-.413 7.279zM110.472 214.824L110.088 237h-3.232l.384-22.176h3.232zm6.496 0v2.944h-16.256v-2.944h16.256zM130.76 226.984c.15-1.216.101-2.17-.144-2.864-.245-.693-.87-1.04-1.872-1.04-.853 0-1.643.283-2.368.848-.725.565-1.328 1.44-1.808 2.624-.48 1.184-.752 2.65-.816 4.4l-.288-7.072h1.344l-.608 1.184c.085-1.067.384-1.973.896-2.72a4.689 4.689 0 0 1 1.984-1.664 6.43 6.43 0 0 1 2.656-.544c1.664 0 2.848.528 3.552 1.584.704 1.056.96 2.512.768 4.368l-.512 5.056c-.107 1.11-.048 1.893.176 2.352.224.459.71.688 1.456.688h.672l-.096 2.976h-.672c-1.92 0-3.259-.459-4.016-1.376-.757-.917-1.019-2.464-.784-4.64l.48-4.16zm-6.336-13.408L123.56 237h-3.328l.864-23.424h3.328zM150.472 237.32c-1.6 0-2.853-.347-3.76-1.04-.907-.693-1.499-1.616-1.776-2.768-.277-1.152-.32-2.464-.128-3.936l1.184-9.152h3.072l-.928 9.152c-.107 1.173-.117 2.09-.032 2.752.085.661.336 1.163.752 1.504.416.341 1.061.512 1.936.512.619 0 1.163-.075 1.632-.224.47-.15 1.013-.416 1.632-.8l1.28 2.528c-.768.47-1.53.832-2.288 1.088-.757.256-1.616.384-2.576.384zm-3.744-14.4c-.533.832-1.53 1.861-2.992 3.088-1.461 1.227-3.141 2.405-5.04 3.536l-1.824-2.56c2.09-1.259 3.91-2.464 5.456-3.616 1.547-1.152 2.725-2.133 3.536-2.944h.864v2.496zm.896-5.76c-.64 0-1.184-.224-1.632-.672a2.222 2.222 0 0 1-.672-1.632c0-.64.224-1.184.672-1.632a2.222 2.222 0 0 1 1.632-.672c.64 0 1.184.224 1.632.672.448.448.672.992.672 1.632 0 .64-.224 1.184-.672 1.632a2.222 2.222 0 0 1-1.632.672zM166.76 237.32c-2.688 0-4.752-.683-6.192-2.048-1.44-1.365-2.16-3.392-2.16-6.08 0-1.835.336-3.435 1.008-4.8.672-1.365 1.632-2.416 2.88-3.152 1.248-.736 2.715-1.104 4.4-1.104 1.515 0 2.779.299 3.792.896a4.962 4.962 0 0 1 2.16 2.528l-2.528 1.92c-.384-.768-.87-1.36-1.456-1.776-.587-.416-1.275-.624-2.064-.624-1.45 0-2.619.528-3.504 1.584-.885 1.056-1.328 2.48-1.328 4.272 0 1.792.464 3.141 1.392 4.048.928.907 2.277 1.36 4.048 1.36 1.301 0 2.71-.245 4.224-.736l.672 2.912c-1.43.533-3.21.8-5.344.8zM190.76 237.32c-1.941 0-3.579-.597-4.912-1.792-1.333-1.195-2.32-2.923-2.96-5.184 3.115-1.621 4.672-3.381 4.672-5.28 0-.619-.165-1.104-.496-1.456-.33-.352-.805-.528-1.424-.528-.832 0-1.637.299-2.416.896-.779.597-1.424 1.456-1.936 2.576s-.79 2.416-.832 3.888l-.064-5.6H181c.15-1.408.693-2.544 1.632-3.408.939-.864 2.112-1.296 3.52-1.296 1.493 0 2.661.49 3.504 1.472.843.981 1.264 2.208 1.264 3.68 0 1.387-.395 2.63-1.184 3.728-.79 1.099-1.941 2.064-3.456 2.896l-.48-2.4c.576 1.77 1.237 3.019 1.984 3.744.747.725 1.728 1.088 2.944 1.088.32 0 .736-.021 1.248-.064l.704 2.816a8.709 8.709 0 0 1-1.92.224zm-9.696-23.744L180.2 237h-3.328l.864-23.424h3.328zM238.808 222.472v2.912h-15.616v-2.912h15.616zm0 7.168v2.912h-15.616v-2.912h15.616zM238.424 71.4v1.408h-14.848V71.4h14.848zm0 6.848v1.408h-14.848v-1.408h14.848zM239.064 335.96v3.904h-16.128v-3.904h16.128zm0 7.2v3.904h-16.128v-3.904h16.128zM71.704 187.743c1.295 0 2.311-.356 3.048-1.067.736-.711 1.104-1.714 1.104-3.01 0-1.326-.349-2.353-1.046-3.083-.698-.73-1.678-1.096-2.94-1.096h-4.925l-.326-2.663H71.9c2.207 0 3.912.56 5.117 1.681 1.204 1.121 1.806 2.717 1.806 4.788 0 2.266-.626 4.018-1.878 5.258-1.251 1.24-3.008 1.86-5.269 1.86H66.69l.052-2.668h4.963zm-4.21-10.919L67.08 199h-2.904l.384-22.176h2.936zm6.733 11.744L79.362 199h-3.375l-4.9-10.432h3.14zM91.17 196.651c1.696 0 3.416-.384 5.161-1.152l.71 2.475c-.888.436-1.855.769-2.902 1a14.59 14.59 0 0 1-3.152.346c-2.546 0-4.49-.68-5.83-2.042-1.342-1.362-2.012-3.254-2.012-5.677 0-1.847.34-3.486 1.022-4.914.682-1.428 1.66-2.544 2.934-3.347 1.274-.803 2.755-1.204 4.442-1.204 1.66 0 3.008.416 4.045 1.246 1.036.832 1.555 1.996 1.555 3.495 0 1.786-.991 3.193-2.973 4.22-1.983 1.026-4.773 1.583-8.37 1.671l-.56-2.401c2.868-.067 5.075-.401 6.621-1.003 1.546-.602 2.32-1.454 2.32-2.556 0-.668-.25-1.182-.747-1.542-.498-.36-1.153-.54-1.963-.54-1.106 0-2.08.28-2.924.837-.843.558-1.495 1.342-1.957 2.352-.461 1.01-.692 2.181-.692 3.513 0 1.606.44 2.878 1.318 3.816.878.938 2.197 1.407 3.954 1.407zM108.04 205.208c-1.743 0-3.293-.322-4.648-.966-1.356-.644-2.507-1.642-3.456-2.996l2.387-1.785c.541.879 1.327 1.616 2.358 2.211 1.031.596 2.203.893 3.516.893.856 0 1.618-.132 2.286-.398.669-.266 1.187-.615 1.557-1.048.37-.433.554-.905.554-1.417 0-.412-.127-.748-.381-1.009-.254-.261-.647-.492-1.177-.694-.53-.202-1.398-.468-2.6-.797-2.52-.695-4.328-1.57-5.422-2.626-1.094-1.056-1.64-2.5-1.64-4.332 0-1.496.31-2.864.931-4.104.622-1.24 1.483-2.217 2.583-2.932 1.101-.715 2.35-1.072 3.749-1.072 1.235 0 2.341.289 3.32.867.978.578 1.742 1.396 2.29 2.455.55 1.06.824 2.272.824 3.639 0 .999-.176 1.932-.529 2.8-.352.866-.845 1.584-1.48 2.153a4.268 4.268 0 0 1-2.16 1.058l.7-.593v1.512H107.7v-1.055c.865-.096 1.649-.434 2.352-1.017a5.956 5.956 0 0 0 1.637-2.157 6.304 6.304 0 0 0 .582-2.631c0-.858-.159-1.619-.477-2.283-.318-.664-.759-1.181-1.321-1.551-.563-.37-1.212-.554-1.947-.554-.828 0-1.559.24-2.191.72-.633.48-1.124 1.126-1.474 1.938-.35.812-.525 1.713-.525 2.704 0 .821.163 1.499.488 2.033.326.535.866.992 1.621 1.372.754.38 1.809.744 3.162 1.091 1.509.376 2.675.762 3.498 1.158.824.396 1.416.87 1.775 1.424.36.554.54 1.271.54 2.151 0 1.13-.31 2.136-.932 3.021-.622.885-1.492 1.576-2.61 2.073-1.12.496-2.399.744-3.838.744zm9.591-22.144v2.689c-1.798 0-2.99-.298-3.576-.895l.547-.135-.908 1.117-2.88-2.776h6.817zM125.56 199.32c-1.843 0-3.218-.588-4.125-1.763-.906-1.175-1.36-2.96-1.36-5.352 0-1.34.122-2.819.365-4.434.244-1.615.63-3.494 1.16-5.635l3.008.524c-.546 2.259-.94 4.135-1.182 5.629-.242 1.493-.362 2.819-.362 3.977 0 1.459.245 2.55.736 3.274.491.723 1.219 1.085 2.183 1.085 1.446 0 2.553-.69 3.322-2.07.77-1.38 1.22-3.443 1.352-6.186l.547 6.554h-.992l.7-.856c-.25 1.174-.565 2.133-.946 2.878a4.223 4.223 0 0 1-1.631 1.746c-.706.42-1.631.629-2.776.629zm10.11-.16c-1.625 0-2.81-.354-3.554-1.06-.744-.708-1.097-1.832-1.058-3.371l-.535-3.249.352-9.056h3.01l-.455 11.61c-.038.907.113 1.568.454 1.984.342.416.979.624 1.912.624h.595l-.09 2.518h-.63zM154.196 198.622c-1.327.465-2.577.698-3.75.698-2.44 0-4.342-.557-5.706-1.67-1.364-1.113-2.298-2.575-2.801-4.385-.503-1.81-.755-3.932-.755-6.367 0-2.246.293-4.25.878-6.01.586-1.761 1.402-3.14 2.448-4.137 1.046-.997 2.248-1.495 3.606-1.495 1.741 0 3.004.633 3.787 1.9.784 1.266 1.176 2.826 1.176 4.677 0 3.435-1.282 6.475-3.845 9.121-2.562 2.646-6.23 4.7-11 6.16l-.782-2.559c2.831-.866 5.192-1.916 7.08-3.15 1.89-1.234 3.306-2.667 4.249-4.3.942-1.633 1.414-3.474 1.414-5.524 0-1.06-.144-1.938-.433-2.636-.288-.698-.878-1.046-1.77-1.046-.764 0-1.44.392-2.028 1.178-.589.786-1.043 1.85-1.364 3.192-.32 1.342-.48 2.832-.48 4.469 0 1.756.158 3.353.474 4.791.317 1.438.944 2.647 1.883 3.627.94.98 2.267 1.469 3.984 1.469a8.29 8.29 0 0 0 3.052-.582l.683 2.579zM164.436 182.136c2.334 0 4.033.541 5.097 1.623 1.064 1.082 1.555 2.64 1.474 4.675l-.236 5.6c-.039.907.111 1.567.451 1.982.34.413.978.622 1.914.626h.518l-.09 2.518h-.762c-1.608 0-2.749-.35-3.423-1.048-.675-.698-.993-1.826-.954-3.383h-.558l.204-6.133c.046-1.255-.217-2.2-.789-2.837-.572-.636-1.556-.954-2.95-.954-.713 0-1.49.085-2.335.256-.845.17-1.658.412-2.44.724l-.82-2.553a13.2 13.2 0 0 1 2.796-.824 16.176 16.176 0 0 1 2.903-.272zm2.736 13.769l.956-.466c-.159 1.236-.72 2.191-1.686 2.867-.965.676-2.237 1.014-3.815 1.014-1.7 0-3.015-.404-3.95-1.213-.933-.809-1.4-1.959-1.4-3.45 0-1.45.473-2.644 1.42-3.58.946-.936 2.28-1.564 4.002-1.885 1.72-.32 3.71-.31 5.965.031l.09 2.422c-1.514-.386-2.923-.518-4.229-.396-1.305.122-2.343.47-3.112 1.042-.77.573-1.154 1.318-1.154 2.236 0 .72.242 1.268.727 1.647.484.378 1.188.567 2.111.567 1.352 0 2.481-.381 3.386-1.145.905-.763 1.39-1.907 1.454-3.433l1.34 3.742h-2.105zM190.027 199.288c-1.747 0-3.042-.512-3.884-1.536-.843-1.023-1.264-2.423-1.264-4.2 0-.442.025-.944.076-1.507.05-.563.126-1.143.227-1.741l1.05-6.21 2.055 1.369c-4.284.898-6.933-.371-7.948-3.807h1.597c1.193 1.564 3.683 1.936 7.47 1.118l-1.166 7.407c-.109.701-.19 1.34-.244 1.919a16.227 16.227 0 0 0-.082 1.484c0 .988.181 1.736.543 2.245.362.51.982.764 1.861.764.497 0 1.001-.077 1.513-.23l.602 2.469c-.64.304-1.442.456-2.406.456zm-15.656-6.804c1.842-1.01 3.091-2.313 3.747-3.907.655-1.594.892-3.524.71-5.79l-.102-1.131h2.424c.574 2.901.476 5.486-.295 7.755-.771 2.269-2.383 4.078-4.836 5.428l-1.648-2.355zM32.68 161.32c-1.204 0-2.334-.093-3.39-.28a14.234 14.234 0 0 1-2.974-.855l.334-2.335a20.5 20.5 0 0 0 3.215 1.005c1.025.224 2.038.335 3.04.335 1.487 0 2.712-.264 3.675-.794.963-.53 1.444-1.473 1.444-2.831 0-1.487-.732-2.6-2.196-3.338l-4.884-2.494c-1.276-.649-2.222-1.4-2.839-2.251-.616-.852-.925-1.879-.925-3.08 0-2.005.603-3.49 1.807-4.453 1.205-.963 2.837-1.445 4.895-1.445 1.428 0 2.705.216 3.83.648 1.125.432 2.167 1.111 3.125 2.038l-1.604 1.62c-.929-.747-1.844-1.296-2.747-1.648a7.418 7.418 0 0 0-2.715-.529c-1.316 0-2.355.289-3.115.866-.76.577-1.14 1.502-1.14 2.776 0 .737.186 1.357.56 1.86.374.502.956.951 1.745 1.347l4.39 2.204c1.436.713 2.512 1.536 3.23 2.469.717.933 1.076 2.038 1.076 3.315 0 2.153-.725 3.666-2.176 4.54-1.45.873-3.337 1.31-5.66 1.31zM53.656 159.143c1.75 0 3.496-.385 5.234-1.153l.605 2.035a13.14 13.14 0 0 1-2.854.96c-1.03.223-2.06.335-3.095.335-2.56 0-4.498-.696-5.815-2.09-1.317-1.392-1.975-3.31-1.975-5.754 0-1.834.33-3.455.99-4.862.662-1.408 1.624-2.506 2.887-3.295 1.264-.789 2.76-1.183 4.49-1.183 1.576 0 2.884.405 3.924 1.215s1.56 1.95 1.56 3.422c0 1.737-1.008 3.093-3.025 4.067-2.017.975-4.894 1.527-8.632 1.656l-.527-2.005c3.188-.107 5.622-.476 7.3-1.106 1.679-.63 2.518-1.528 2.518-2.692 0-.794-.303-1.396-.909-1.809-.606-.412-1.352-.618-2.24-.618-1.252 0-2.338.291-3.258.873-.92.582-1.622 1.405-2.108 2.468-.487 1.063-.73 2.305-.73 3.726 0 1.809.462 3.23 1.386 4.261.924 1.032 2.349 1.549 4.274 1.549zM65.738 161h-2.35l.592-16.576h1.953l.253 4.288L65.738 161zm4.453-12.7c.032-.59-.059-1.093-.273-1.507-.215-.414-.6-.621-1.159-.621-.824 0-1.467.6-1.928 1.803-.461 1.202-.735 2.951-.821 5.249l-.268-5.88h.637c.14-1.101.454-1.911.945-2.43.49-.519 1.164-.778 2.018-.778 1.196 0 2.013.416 2.45 1.248.438.832.63 1.866.577 3.104L71.89 161h-2.162l.464-12.7zm7.988 8.234c-.042.875.035 1.502.233 1.881s.607.569 1.226.569h.721l-.08 2.176h-.77c-.944 0-1.696-.16-2.253-.48-.558-.32-.952-.817-1.18-1.492-.229-.675-.306-1.56-.232-2.653l.498-8.234c.032-.58-.056-1.08-.265-1.5-.21-.42-.588-.629-1.135-.629-.835 0-1.48.571-1.936 1.713-.455 1.142-.732 2.819-.829 5.029l-.265-5.799h.665c.182-1.024.524-1.777 1.025-2.258.502-.48 1.19-.721 2.065-.721 1.174 0 1.982.421 2.426 1.264.443.843.627 1.872.552 3.088l-.466 8.047zM94.722 161.32c-1.742 0-3.055-.42-3.94-1.26-.884-.84-1.427-1.905-1.628-3.192-.202-1.288-.195-2.755.018-4.401l1.037-8.043H92.4l-.846 8.042c-.15 1.468-.185 2.665-.105 3.593.08.928.379 1.67.898 2.23.52.559 1.353.838 2.5.838.574 0 1.116-.086 1.623-.257.508-.17 1.054-.454 1.64-.849l1.003 1.909a9.493 9.493 0 0 1-2.092 1.03c-.703.24-1.47.36-2.3.36zm-3.744-15.183c-.675.886-1.95 2.084-3.824 3.594-1.874 1.51-3.533 2.688-4.975 3.536l-1.302-1.843a62.35 62.35 0 0 0 5.22-3.575c1.802-1.364 3.147-2.506 4.033-3.425h.897l-.05 1.713zm.309-5.727c-.532 0-.986-.186-1.363-.558a1.83 1.83 0 0 1-.566-1.355c0-.531.188-.986.566-1.363a1.858 1.858 0 0 1 1.363-.565c.531 0 .985.188 1.363.565.377.377.566.832.566 1.363s-.189.983-.566 1.355a1.872 1.872 0 0 1-1.363.558zM116.713 160.632c-1.334.459-2.587.688-3.76.688-2.377 0-4.237-.58-5.58-1.738-1.344-1.159-2.27-2.659-2.776-4.5-.507-1.84-.76-3.944-.76-6.31 0-2.218.282-4.198.847-5.942.565-1.743 1.362-3.108 2.39-4.095 1.03-.986 2.215-1.479 3.559-1.479 1.727 0 2.978.64 3.75 1.92.774 1.28 1.16 2.844 1.16 4.689 0 3.358-1.274 6.332-3.823 8.922-2.549 2.59-6.202 4.605-10.959 6.044l-.635-2.097c2.86-.853 5.263-1.913 7.211-3.178 1.949-1.264 3.417-2.724 4.405-4.378.988-1.654 1.482-3.488 1.482-5.503 0-1.199-.182-2.208-.547-3.028-.365-.82-1.067-1.23-2.106-1.23-.867 0-1.635.409-2.305 1.226-.669.817-1.183 1.933-1.541 3.349-.359 1.415-.538 2.994-.538 4.736 0 1.88.174 3.577.522 5.089.347 1.511 1.03 2.774 2.045 3.788 1.015 1.015 2.448 1.522 4.297 1.522 1.046 0 2.07-.198 3.073-.593l.589 2.099zM132.226 161.32c-1.742 0-3.055-.42-3.94-1.26-.884-.84-1.427-1.905-1.629-3.192-.2-1.288-.194-2.755.02-4.401l1.036-8.043h2.191l-.846 8.042c-.15 1.468-.185 2.665-.106 3.593.08.928.38 1.67.9 2.23.519.559 1.352.838 2.498.838.575 0 1.116-.086 1.624-.257.507-.17 1.054-.454 1.64-.849l1.003 1.909a9.493 9.493 0 0 1-2.092 1.03c-.703.24-1.47.36-2.3.36zm-3.744-15.183c-.675.886-1.95 2.084-3.824 3.594-1.875 1.51-3.533 2.688-4.975 3.536l-1.302-1.843a62.35 62.35 0 0 0 5.22-3.575c1.802-1.364 3.147-2.506 4.033-3.425h.897l-.05 1.713zm.309-5.727c-.532 0-.986-.186-1.363-.558a1.83 1.83 0 0 1-.566-1.355c0-.531.188-.986.566-1.363a1.858 1.858 0 0 1 1.363-.565c.531 0 .985.188 1.363.565.377.377.566.832.566 1.363s-.189.983-.566 1.355a1.872 1.872 0 0 1-1.363.558zM145.544 167.208c-1.695 0-3.21-.325-4.549-.976-1.338-.651-2.47-1.643-3.398-2.976l1.906-1.429c.632.962 1.479 1.74 2.54 2.332 1.063.591 2.261.888 3.595.888.974 0 1.83-.142 2.569-.425.738-.283 1.307-.666 1.708-1.147.401-.482.602-1.017.602-1.606 0-.46-.145-.854-.434-1.181-.289-.327-.744-.62-1.365-.877-.622-.258-1.54-.541-2.757-.85-2.451-.638-4.21-1.486-5.276-2.542-1.065-1.056-1.598-2.479-1.598-4.27 0-1.46.303-2.804.91-4.03.608-1.226 1.445-2.196 2.51-2.911 1.066-.715 2.27-1.072 3.613-1.072 1.193 0 2.267.29 3.22.872.955.582 1.7 1.395 2.24 2.44.537 1.045.807 2.233.807 3.565a7.662 7.662 0 0 1-.586 2.998c-.39.93-.928 1.691-1.612 2.284-.684.593-1.443.948-2.275 1.065l.753-.626v1.356h-3.442v-.94c.809-.075 1.593-.38 2.352-.918.759-.537 1.374-1.254 1.846-2.151.472-.898.708-1.893.708-2.987 0-.941-.177-1.776-.53-2.503-.353-.727-.837-1.291-1.452-1.692-.614-.401-1.317-.601-2.108-.601-.899 0-1.695.259-2.39.777-.696.519-1.236 1.214-1.62 2.085-.386.87-.578 1.83-.578 2.877 0 .876.168 1.611.504 2.205.336.594.889 1.096 1.657 1.508.768.412 1.819.777 3.152 1.096 1.537.362 2.738.752 3.603 1.168.865.417 1.485.911 1.858 1.482.374.571.561 1.283.561 2.136 0 1.087-.304 2.053-.911 2.9-.608.847-1.46 1.505-2.559 1.973-1.098.469-2.356.703-3.774.703zm9.518-22.144v2.177c-2.078 0-3.399-.26-3.963-.781l.61-.144-.814 1.054-2.368-2.306h6.535zM168.982 150.903c.15-1.445.014-2.57-.405-3.378-.42-.808-1.185-1.212-2.296-1.212-.973 0-1.88.332-2.72.995-.839.663-1.534 1.685-2.084 3.065-.551 1.38-.858 3.09-.922 5.133l-.304-7.055h1.295l-.608 1.184c.107-1.11.435-2.082.985-2.916a5.56 5.56 0 0 1 2.115-1.917 6.033 6.033 0 0 1 2.81-.666c1.61 0 2.805.547 3.585 1.641.78 1.094 1.085 2.596.915 4.507l-.512 5.61c-.096 1.088-.023 1.874.217 2.36.24.487.712.73 1.415.73h.884l-.08 2.176h-.932c-1.507 0-2.569-.423-3.185-1.27-.615-.847-.833-2.178-.653-3.995l.48-4.993zm-7.755-13.327L160.363 161h-2.366l.864-23.424h2.366zM186.575 161.32c-1.725 0-3.069-.405-4.033-1.216-.964-.81-1.564-2.036-1.798-3.677a17.224 17.224 0 0 1-.129-1.856c-.01-.64.01-1.5.065-2.583l.447-12.556h2.382l-.432 12.384a52.63 52.63 0 0 0-.08 2.612c0 .69.032 1.278.097 1.76.128.975.49 1.708 1.083 2.2.593.493 1.413.739 2.46.739.79 0 1.48-.07 2.073-.208.593-.14 1.279-.39 2.058-.754l.716 2.003a13.78 13.78 0 0 1-2.327.848c-.773.203-1.633.304-2.582.304zm3.929-16.256v2.177h-14.317v-2.177h14.317zM104.046 100.824L103.662 123h-1.76l.385-22.176h1.76zm11.929 20.512V123h-13.432l.032-1.664h13.4zM132.55 123.32c-1.832 0-3.183-.467-4.054-1.401-.871-.935-1.383-2.09-1.535-3.465-.153-1.374-.115-2.94.113-4.698l.943-7.332h1.626l-.794 7.331c-.178 1.656-.23 3.033-.153 4.131.077 1.099.408 1.997.993 2.696.586.698 1.539 1.047 2.86 1.047.547 0 1.087-.093 1.618-.278.532-.184 1.08-.478 1.646-.88l.825 1.511a8.382 8.382 0 0 1-1.967.994 6.491 6.491 0 0 1-2.12.344zm-3.744-15.685c-.765.921-2.218 2.227-4.357 3.918-2.14 1.69-3.784 2.87-4.933 3.536l-.967-1.382c1.412-.866 3.101-2.05 5.067-3.55 1.967-1.5 3.417-2.744 4.353-3.733h.917l-.08 1.211zm-.068-5.707c-.461 0-.858-.161-1.19-.484a1.58 1.58 0 0 1-.498-1.177c0-.462.166-.858.498-1.19a1.624 1.624 0 0 1 1.19-.498c.462 0 .859.166 1.19.498.333.332.499.728.499 1.19 0 .462-.166.854-.498 1.177a1.647 1.647 0 0 1-1.19.484zM145.544 129.208c-1.646 0-3.129-.329-4.45-.987-1.32-.658-2.434-1.642-3.34-2.954l1.424-1.074a7.718 7.718 0 0 0 2.725 2.452c1.093.588 2.318.883 3.673.883 1.092 0 2.043-.15 2.85-.452.808-.3 1.428-.716 1.86-1.246.433-.53.65-1.128.65-1.793 0-.51-.163-.96-.487-1.354-.324-.394-.842-.747-1.554-1.06-.712-.314-1.683-.615-2.913-.903-2.382-.582-4.091-1.401-5.13-2.457-1.037-1.056-1.556-2.459-1.556-4.208 0-1.425.296-2.744.89-3.957.594-1.212 1.406-2.175 2.437-2.89 1.03-.715 2.189-1.072 3.476-1.072 1.151 0 2.192.293 3.121.877.93.585 1.659 1.393 2.186 2.424.528 1.031.792 2.195.792 3.493a7.973 7.973 0 0 1-.643 3.196c-.429.993-1.01 1.798-1.743 2.415-.732.617-1.53.974-2.39 1.07l.806-.657v1.199h-2.982v-.826c.753-.053 1.537-.326 2.352-.817.814-.493 1.5-1.208 2.055-2.147.555-.94.833-2.053.833-3.343 0-1.024-.194-1.931-.582-2.721-.387-.79-.915-1.402-1.582-1.834-.667-.432-1.424-.648-2.27-.648-.969 0-1.832.278-2.59.835-.758.557-1.347 1.3-1.767 2.23-.42.93-.63 1.947-.63 3.05 0 .933.174 1.725.52 2.378.348.653.912 1.201 1.695 1.644.782.443 1.829.81 3.14 1.102 1.565.348 2.801.74 3.708 1.178.908.438 1.555.95 1.943 1.54.387.588.581 1.295.581 2.12 0 1.044-.297 1.97-.89 2.78-.594.808-1.43 1.432-2.507 1.873-1.077.44-2.314.661-3.71.661zm9.445-22.144v1.664c-2.357 0-3.807-.222-4.35-.665l.672-.155-.72.992-1.855-1.836h6.253zM169.442 112.85c.15-1.59-.041-2.826-.572-3.707-.531-.881-1.387-1.322-2.568-1.322-1.05 0-2.031.364-2.944 1.09-.913.725-1.667 1.841-2.263 3.346-.596 1.506-.926 3.374-.99 5.605l-.315-7.045h1.264l-.608 1.184c.12-1.138.469-2.152 1.043-3.041a6.158 6.158 0 0 1 2.198-2.08 5.88 5.88 0 0 1 2.91-.744c1.575 0 2.777.56 3.606 1.678.83 1.118 1.165 2.65 1.01 4.596l-.513 5.966c-.089 1.073-.008 1.862.243 2.365.25.503.714.755 1.39.755h1.02l-.07 1.664h-1.1c-1.242 0-2.126-.4-2.651-1.202-.525-.801-.715-1.995-.57-3.582l.48-5.526zm-8.665-13.274L159.913 123h-1.748l.864-23.424h1.748zM186.805 123.32c-1.613 0-2.882-.402-3.808-1.205-.926-.804-1.506-1.998-1.741-3.584a16.627 16.627 0 0 1-.139-1.877c-.01-.626.014-1.552.075-2.78l.427-12.442h1.775l-.421 12.384a48.002 48.002 0 0 0-.08 2.737c.006.622.05 1.22.128 1.793.142 1.078.532 1.895 1.171 2.45.639.555 1.502.833 2.591.833.818 0 1.532-.073 2.142-.219.61-.146 1.315-.414 2.115-.805l.559 1.563c-.757.363-1.514.645-2.27.848-.755.203-1.596.304-2.524.304zm3.699-16.256v1.664h-14.223v-1.664h14.223zM128.36 62.824L127.944 85h-1.472l.416-22.176h1.472zm6.976 0v1.408h-15.488v-1.408h15.488zM150.92 74.824c.15-1.664-.07-2.955-.656-3.872-.587-.917-1.488-1.376-2.704-1.376-1.088 0-2.107.379-3.056 1.136-.95.757-1.733 1.92-2.352 3.488-.619 1.568-.96 3.515-1.024 5.84l-.32-7.04h1.248l-.608 1.184c.128-1.152.485-2.187 1.072-3.104a6.47 6.47 0 0 1 2.24-2.16 5.824 5.824 0 0 1 2.96-.784c1.557 0 2.763.565 3.616 1.696.853 1.13 1.205 2.677 1.056 4.64l-.512 6.144c-.085 1.067 0 1.856.256 2.368.256.512.715.768 1.376.768h1.088l-.064 1.408h-1.184c-1.11 0-1.904-.39-2.384-1.168-.48-.779-.656-1.904-.528-3.376l.48-5.792zm-9.12-13.248L140.936 85h-1.44l.864-23.424h1.44zM170.216 85.32c-1.877 0-3.248-.49-4.112-1.472-.864-.981-1.36-2.181-1.488-3.6-.128-1.419-.075-3.035.16-4.848l.896-6.976h1.344l-.768 6.976c-.192 1.75-.25 3.216-.176 4.4.075 1.184.421 2.16 1.04 2.928.619.768 1.632 1.152 3.04 1.152.533 0 1.072-.096 1.616-.288a6.455 6.455 0 0 0 1.648-.896l.736 1.312a7.86 7.86 0 0 1-1.904.976 6.199 6.199 0 0 1-2.032.336zm-3.744-15.936c-.81.939-2.352 2.299-4.624 4.08-2.272 1.781-3.91 2.96-4.912 3.536l-.8-1.152c1.28-.79 2.944-1.968 4.992-3.536s3.552-2.864 4.512-3.888h.928l-.096.96zm-.256-5.696c-.427 0-.795-.15-1.104-.448a1.456 1.456 0 0 1-.464-1.088c0-.427.155-.795.464-1.104.31-.31.677-.464 1.104-.464.427 0 .795.155 1.104.464.31.31.464.677.464 1.104 0 .427-.155.79-.464 1.088-.31.299-.677.448-1.104.448zM188.424 74.824c.15-1.664-.07-2.955-.656-3.872-.587-.917-1.488-1.376-2.704-1.376-1.088 0-2.107.379-3.056 1.136-.95.757-1.739 1.92-2.368 3.488-.63 1.568-.976 3.515-1.04 5.84l-.288-7.04h1.248l-.608 1.184c.128-1.152.485-2.187 1.072-3.104a6.47 6.47 0 0 1 2.24-2.16 5.824 5.824 0 0 1 2.96-.784c1.557 0 2.763.565 3.616 1.696.853 1.13 1.205 2.677 1.056 4.64l-.512 6.144c-.085 1.067 0 1.856.256 2.368.256.512.715.768 1.376.768h1.088l-.064 1.408h-1.184c-1.11 0-1.904-.39-2.384-1.168-.48-.779-.656-1.904-.528-3.376l.48-5.792zm-9.664-6.4l.096 5.056L178.44 85h-1.472l.608-16.576h1.184z" fill="#000" fill-rule="nonzero"/><path d="M104.267 37.24c2.56 0 4.22-1.22 5.26-3.34l-2.48-1.44c-.42 1.14-1.28 2.08-2.78 2.08-1.78 0-2.96-1.2-2.96-3.4V28.9c0-2.2 1.18-3.4 2.96-3.4 1.5 0 2.24.78 2.6 1.94l2.62-1.36c-1.02-2.24-2.66-3.28-5.22-3.28-3.76 0-6.18 2.6-6.18 7.32 0 4.72 2.42 7.12 6.18 7.12zM124.08 37l-4.54-13.96h-3.76L111.18 37h3.08l1-3.32h4.66l1 3.32h3.16zm-4.9-5.9h-3.2l1.54-5.3h.1l1.56 5.3zM136.353 37v-2.7h-6.46v-3.02h5.54V28.6h-5.54v-2.86h6.46v-2.7h-9.5V37zM144.347 37.24c3.48 0 5.44-1.86 5.44-4.54 0-2.4-1.38-3.68-4.24-4.14l-1.38-.22c-1.16-.18-1.66-.54-1.66-1.5 0-.84.66-1.36 2.02-1.36 1.44 0 2.34.54 3 1.32l2.02-2.04c-1.14-1.26-2.74-1.96-4.84-1.96-3.28 0-5.24 1.74-5.24 4.24 0 2.34 1.34 3.78 4.28 4.16l1.38.18c1.3.18 1.62.74 1.62 1.5 0 1.02-.72 1.68-2.2 1.68-1.36 0-2.56-.54-3.5-1.6l-2 2.02c1.2 1.32 2.86 2.26 5.3 2.26zM159.24 37v-2.42h-1.8v-9.12h1.8v-2.42h-6.64v2.42h1.8v9.12h-1.8V37zM162.533 23.04v8.24c0 4.12 1.48 5.96 5.48 5.96s5.48-1.84 5.48-5.96v-8.24h-2.96v8.56c0 1.96-.72 2.94-2.52 2.94s-2.52-.98-2.52-2.94v-8.56h-2.96zM187.767 37h2.86V23.04h-3.24l-3.38 6.54h-.04l-3.42-6.54h-3.22V37h2.86v-9.3h.06l1.06 2.2 2.66 4.92 2.72-4.94 1.02-2.04h.06z" fill="#757575" fill-rule="nonzero"/><path d="M275.14 351v-3.797h3.954c1.128 0 2.003-.266 2.627-.797.623-.532.935-1.276.935-2.234 0-.948-.328-1.683-.984-2.203-.656-.521-1.588-.781-2.797-.781h-3.672l-.375-1.657h6.125c1.927 0 3.414.468 4.461 1.404 1.047.937 1.57 2.26 1.57 3.971 0 1.938-.606 3.438-1.819 4.5C283.952 350.47 282.231 351 280 351h-4.86zm-3.906 0v-22.188h4.125V351h-4.125zm2.844-10.906v-1.531h6.156v1.53h-6.156zm1.063-1.063v-1.656h3.015c.969 0 1.7-.21 2.196-.633.494-.422.742-1.044.742-1.867 0-.75-.263-1.315-.79-1.695-.525-.38-1.314-.57-2.366-.57h-2.735l-.375-3.798h3.266c2.334 0 4.14.477 5.415 1.429 1.275.952 1.913 2.31 1.913 4.072 0 1.51-.494 2.675-1.482 3.492-.987.818-2.39 1.226-4.206 1.226h-4.593zM297.125 351.313c-2.385 0-4.234-.75-5.547-2.25-1.312-1.5-1.969-3.615-1.969-6.344 0-2.74.657-4.857 1.97-6.352 1.312-1.495 3.16-2.242 5.546-2.242s4.236.747 5.548 2.242c1.312 1.495 1.968 3.612 1.968 6.352 0 2.729-.656 4.844-1.968 6.344-1.312 1.5-3.162 2.25-5.548 2.25zm.008-4.016c1.015 0 1.8-.399 2.351-1.196.552-.797.829-1.925.829-3.384 0-1.468-.277-2.597-.83-3.389-.553-.792-1.34-1.187-2.358-1.187-1.01 0-1.794.396-2.352 1.189-.557.792-.836 1.922-.836 3.389 0 1.458.28 2.586.836 3.383.558.796 1.344 1.195 2.36 1.195zM318.344 351.313c-2.084 0-3.586-.573-4.508-1.72-.922-1.145-1.383-2.978-1.383-5.5v-16.53h4.219v16.375c0 .687.073 1.25.219 1.687.145.438.427.76.843.969.417.208 1.037.312 1.86.312.916 0 2.073-.198 3.469-.594l.484 4.344c-.886.23-1.74.396-2.563.5a21.06 21.06 0 0 1-2.64.156zm-10.578-19.86v-3.89h4.968v3.89h-4.968zM332.984 351.313c-2.052 0-3.648-.74-4.789-2.22-1.14-1.478-1.71-3.598-1.71-6.359 0-2.74.57-4.859 1.71-6.359 1.14-1.5 2.748-2.25 4.82-2.25 1.209 0 2.128.273 2.758.82.63.547 1.04 1.378 1.227 2.493h1.375l-.969 5.296c0-1.604-.268-2.776-.804-3.515-.537-.74-1.347-1.11-2.43-1.11-1.073 0-1.901.404-2.485 1.211-.583.808-.875 1.946-.875 3.414 0 1.521.284 2.667.852 3.438.568.77 1.404 1.156 2.508 1.156 1.208 0 2.05-.364 2.523-1.094.474-.729.711-1.895.711-3.5l1.125 5.266h-1.469c-.166 1.104-.598 1.932-1.296 2.484-.698.552-1.625.829-2.782.829zm5.032-.157l-.61-3.281v-20.313h4.235V351l-3.625.156zM277.61 294.313c-1.261 0-2.467-.105-3.62-.315a15.02 15.02 0 0 1-3.134-.904l.5-3.794c1.146.483 2.272.854 3.377 1.113 1.105.258 2.147.387 3.126.387 1.252 0 2.198-.22 2.838-.662.64-.442.96-1.093.96-1.954 0-1.11-.637-1.96-1.91-2.55l-3.45-1.628c-1.548-.737-2.743-1.64-3.584-2.71-.842-1.068-1.263-2.302-1.263-3.702 0-1.938.618-3.438 1.853-4.5 1.236-1.063 2.983-1.594 5.244-1.594 1.414 0 2.718.231 3.91.694 1.193.462 2.287 1.163 3.28 2.103l-2.58 2.847c-.799-.713-1.576-1.248-2.332-1.605-.756-.357-1.51-.536-2.262-.536-.98 0-1.74.22-2.282.661-.541.44-.812 1.085-.812 1.933 0 .581.185 1.094.554 1.537.37.444.905.843 1.605 1.197l3.1 1.54c1.596.797 2.82 1.713 3.67 2.75.852 1.038 1.277 2.233 1.277 3.585 0 1.986-.686 3.5-2.06 4.542-1.372 1.043-3.374 1.565-6.006 1.565zM298.488 294.313c-2.85 0-5.05-.743-6.602-2.227-1.551-1.484-2.327-3.617-2.327-6.399 0-2.708.659-4.812 1.976-6.312 1.316-1.5 3.176-2.25 5.578-2.25 2.314 0 4.103.687 5.368 2.06 1.265 1.373 1.897 3.37 1.897 5.99 0 .754-.032 1.466-.096 2.134H292.34v-2.775h8.343c0-1.263-.312-2.232-.936-2.908-.624-.676-1.492-1.013-2.604-1.013-1.225 0-2.176.427-2.852 1.282-.676.856-1.014 2.068-1.014 3.636 0 1.703.484 2.998 1.453 3.887.968.888 2.346 1.332 4.132 1.332.725 0 1.44-.04 2.144-.117a30.008 30.008 0 0 0 2.152-.32l.407 3.562a23.923 23.923 0 0 1-2.818.36c-.852.051-1.605.077-2.26.077zM319.84 294v-11.794c0-1.146-.37-1.718-1.112-1.718-.883 0-1.325.671-1.325 2.015l-1.125-3.003h1.356c.077-.702.354-1.274.83-1.714.476-.44 1.127-.661 1.952-.661 1.127 0 1.95.307 2.467.922.518.614.776 1.61.776 2.984V294h-3.818zm-11.75 0v-16.563h3.454l.375 3.5V294h-3.828zm6.304 0v-12.106c0-.938-.375-1.406-1.125-1.406-.9 0-1.35.671-1.35 2.015l-.969-3.003h1.137c.188-1.583 1.07-2.375 2.647-2.375.83 0 1.482.297 1.957.89.475.594.712 1.495.712 2.704V294h-3.01zM333.79 294v-15.625h3.857V294h-3.856zm-6.2 0v-3.506h6.513V294h-6.512zm9.744 0v-3.506h5.294V294h-5.294zm-8.806-13.056v-3.507h9.119v3.507h-9.119zm7.034-5.897c-.735 0-1.343-.24-1.824-.722-.482-.481-.722-1.09-.722-1.825 0-.74.24-1.349.722-1.828.48-.48 1.09-.719 1.825-.719.74 0 1.348.24 1.828.719.479.479.718 1.088.718 1.828 0 .735-.24 1.344-.718 1.825-.48.481-1.089.722-1.829.722zM350.984 294.313c-.775 0-1.54-.03-2.294-.086a53.098 53.098 0 0 1-2.303-.227l1.441-3.734c.552.26 1.162.414 1.828.46.667.047 1.328.07 1.985.07 1.84 0 3.264-.537 4.27-1.612 1.007-1.076 1.51-2.595 1.51-4.559 0-1.275-.29-2.258-.87-2.948-.58-.691-1.404-1.036-2.473-1.036-2.55 0-3.825 1.349-3.825 4.046l-.969-4.25h1.357c.23-2.208 1.56-3.312 3.987-3.312 2.134 0 3.784.651 4.952 1.953 1.168 1.302 1.751 3.151 1.751 5.547 0 3.073-.9 5.456-2.701 7.148-1.801 1.693-4.35 2.54-7.646 2.54zm-4.597-.313v-23.438h3.866v23.157l-3.866.281zM372.125 294.313c-2.348 0-4.17-.75-5.466-2.25-1.296-1.5-1.943-3.615-1.943-6.344 0-2.74.647-4.857 1.943-6.352s3.118-2.242 5.466-2.242c2.353 0 4.176.747 5.47 2.242 1.293 1.495 1.94 3.612 1.94 6.352 0 2.729-.647 4.844-1.94 6.344-1.294 1.5-3.117 2.25-5.47 2.25zm.005-3.597c1.096 0 1.943-.435 2.539-1.305.596-.87.894-2.102.894-3.693 0-1.602-.299-2.835-.895-3.7-.596-.864-1.444-1.296-2.543-1.296-1.094 0-1.94.433-2.54 1.298-.598.865-.897 2.098-.897 3.699 0 1.591.299 2.822.898 3.692.599.87 1.447 1.305 2.544 1.305zM393.344 294.313c-2.017 0-3.473-.553-4.367-1.657-.895-1.104-1.343-2.87-1.343-5.3v-16.793h3.857V287.2c0 .762.077 1.385.23 1.869.155.483.454.84.898 1.068.444.23 1.102.344 1.975.344.896 0 2.031-.198 3.406-.594l.44 3.77c-.868.228-1.705.395-2.509.5-.804.103-1.666.156-2.587.156zm-10.472-20.254v-3.497h5.044v3.497h-5.044zM408.134 294.313c-2.098 0-3.713-.73-4.845-2.188-1.132-1.458-1.698-3.57-1.698-6.334 0-2.794.566-4.937 1.698-6.428 1.132-1.492 2.754-2.238 4.864-2.238 1.22 0 2.176.28 2.864.842.689.562 1.116 1.385 1.283 2.47h1.337l-.968 5.066c0-1.646-.296-2.868-.886-3.665-.59-.798-1.471-1.197-2.642-1.197-1.177 0-2.079.442-2.704 1.326-.625.885-.937 2.159-.937 3.824 0 1.654.308 2.902.923 3.743.616.842 1.522 1.263 2.718 1.263 1.245 0 2.145-.396 2.698-1.188.553-.791.83-2.01.83-3.656l1.125 5.047h-1.457c-.141 1.08-.577 1.901-1.306 2.466-.729.564-1.695.846-2.897.846zm5.038-.157l-.503-3.269v-20.325h3.865V294l-3.362.156zM277.61 186.313c-1.226 0-2.377-.098-3.454-.292a14.546 14.546 0 0 1-3.015-.875l.343-2.61c1.122.455 2.212.8 3.271 1.037 1.06.236 2.094.354 3.104.354 1.615 0 2.819-.281 3.612-.844.794-.562 1.19-1.415 1.19-2.557 0-1.462-.725-2.543-2.177-3.245l-4.557-2.224c-1.358-.645-2.396-1.42-3.115-2.325-.718-.905-1.078-2.02-1.078-3.347 0-1.899.569-3.355 1.706-4.367s2.779-1.518 4.925-1.518c1.447 0 2.74.218 3.88.654 1.139.435 2.213 1.129 3.224 2.08l-1.797 1.818c-.934-.746-1.826-1.294-2.675-1.643a6.823 6.823 0 0 0-2.617-.524c-1.27 0-2.241.284-2.911.852-.67.568-1.005 1.416-1.005 2.544 0 .754.198 1.376.593 1.867.396.492.98.927 1.75 1.305l4.021 1.98c1.504.725 2.64 1.563 3.409 2.515.77.951 1.154 2.13 1.154 3.536 0 1.945-.644 3.402-1.933 4.373-1.288.97-3.237 1.456-5.849 1.456zM298.568 186.313c-2.782 0-4.93-.752-6.448-2.256-1.518-1.503-2.276-3.647-2.276-6.432 0-2.694.64-4.785 1.922-6.27 1.28-1.487 3.09-2.23 5.427-2.23 2.194 0 3.893.672 5.096 2.016 1.203 1.343 1.805 3.276 1.805 5.797 0 .7-.031 1.326-.094 1.875h-11.922v-2.157h9.516c0-1.639-.385-2.9-1.154-3.786-.77-.886-1.841-1.328-3.216-1.328-1.535 0-2.725.522-3.57 1.567-.846 1.045-1.269 2.52-1.269 4.422 0 2.052.57 3.626 1.711 4.722 1.141 1.095 2.756 1.643 4.847 1.643.652 0 1.316-.04 1.99-.117.673-.079 1.34-.185 2-.32l.348 2.416c-.85.17-1.678.286-2.482.346-.803.061-1.547.091-2.231.091zM320.677 186v-12.656c0-1.382-.538-2.073-1.615-2.073-1.336 0-2.005.868-2.005 2.604l-1.125-2.375h1.22c.09-.698.377-1.268.86-1.71.485-.444 1.169-.665 2.05-.665 1.14 0 1.976.313 2.51.94.536.627.803 1.616.803 2.966V186h-2.698zm-12.302 0v-16.563h2.375l.323 3.5V186h-2.698zm6.318 0v-12.969c0-1.173-.547-1.76-1.641-1.76-1.32 0-1.979.868-1.979 2.604l-.969-2.375h1.037c.208-1.583 1.206-2.375 2.994-2.375.934 0 1.655.297 2.162.89.507.594.76 1.495.76 2.704V186h-2.364zM334.37 186v-15.688h2.698V186h-2.698zm-6.495 0v-2.406h6.813V186h-6.813zm8.875 0v-2.406h5.594V186h-5.594zm-7.938-14.156v-2.406h8.256v2.406h-8.255zm6.77-5.526c-.565 0-1.05-.202-1.454-.604a1.975 1.975 0 0 1-.607-1.452c0-.574.202-1.061.606-1.462.404-.401.89-.602 1.456-.602.573 0 1.06.2 1.461.602.401.4.602.888.602 1.462 0 .565-.2 1.049-.602 1.452a1.987 1.987 0 0 1-1.462.604zM356.208 186.313c-1.902 0-3.294-.508-4.174-1.524-.88-1.016-1.32-2.608-1.32-4.779v-17.447h2.697v17.343c0 .906.109 1.65.326 2.232a2.33 2.33 0 0 0 1.128 1.294c.534.282 1.277.422 2.229.422.857 0 1.942-.182 3.255-.547l.307 2.401c-.76.212-1.49.366-2.19.461-.7.096-1.452.143-2.258.143zm-10.552-21.344v-2.406h5.339v2.406h-5.339zM371.87 186v-15.688h2.698V186h-2.698zm-6.495 0v-2.406h6.813V186h-6.813zm8.875 0v-2.406h5.594V186h-5.594zm-7.938-14.156v-2.406h8.256v2.406h-8.255zm6.77-5.526c-.565 0-1.05-.202-1.454-.604a1.975 1.975 0 0 1-.607-1.452c0-.574.202-1.061.606-1.462.404-.401.89-.602 1.456-.602.573 0 1.06.2 1.461.602.401.4.602.888.602 1.462 0 .565-.2 1.049-.602 1.452a1.987 1.987 0 0 1-1.462.604zM384.469 193.469l-.125-2.48 5.156-.166c1.844-.063 3.187-.575 4.029-1.537.842-.961 1.266-2.38 1.273-4.255v-11.99l.26-3.603h2.438v15.093c0 2.948-.662 5.124-1.987 6.529-1.325 1.404-3.433 2.155-6.325 2.252l-4.72.157zm5.265-7.156c-2.166 0-3.81-.714-4.93-2.141-1.12-1.427-1.679-3.526-1.679-6.297 0-2.875.563-5.052 1.688-6.531 1.125-1.48 2.776-2.219 4.953-2.219 1.385 0 2.502.307 3.351.922.85.614 1.362 1.491 1.54 2.63h1.218l-1.073 4.64c0-1.916-.38-3.368-1.138-4.356-.759-.988-1.874-1.482-3.346-1.482-1.48 0-2.6.54-3.362 1.617-.762 1.079-1.144 2.671-1.144 4.779 0 2 .382 3.514 1.146 4.542.764 1.027 1.888 1.541 3.37 1.541 1.469 0 2.582-.494 3.339-1.481.757-.988 1.135-2.439 1.135-4.352l1.125 4.573h-1.38c-.156 1.128-.646 2.013-1.469 2.654-.823.64-1.937.96-3.344.96zM413.552 186v-10.802c0-1.191-.304-2.109-.911-2.753-.608-.644-1.457-.966-2.547-.966-2.93 0-4.396 1.73-4.396 5.188l-.98-4.23h1.23c.163-1.114.626-1.945 1.388-2.492.762-.547 1.84-.82 3.232-.82 1.809 0 3.208.531 4.198 1.594.99 1.062 1.484 2.562 1.484 4.5V186h-2.698zM403 186v-23.438h2.698V186H403zM431.375 186.313c-2.323 0-4.02-.534-5.089-1.602-1.069-1.068-1.604-2.739-1.604-5.013v-2.76h2.698v2.656c0 1.462.343 2.537 1.029 3.226.686.69 1.779 1.034 3.279 1.034.562 0 1.131-.028 1.708-.086a45.293 45.293 0 0 0 1.89-.232l.308 2.401a23.266 23.266 0 0 1-4.219.375zm-6.693-8.125v-13.75h2.698v13.75h-2.698zm-4.463-6.344v-2.406h14.75v2.406h-14.75zM271.75 136v-22.188h2.063V136h-2.063zm0 0v-1.927h14.188V136H271.75zM297.177 136v-15.75h2.083V136h-2.083zm-6.677 0v-1.906h7V136h-7zm8.438 0v-1.906h5.78V136h-5.78zm-7.5-14.656v-1.906h7.822v1.906h-7.822zm6.616-5.521c-.494 0-.92-.176-1.275-.529a1.724 1.724 0 0 1-.534-1.27c0-.502.177-.93.533-1.284a1.748 1.748 0 0 1 1.28-.532c.5 0 .926.177 1.28.532.355.354.532.782.532 1.284 0 .494-.177.918-.531 1.27a1.755 1.755 0 0 1-1.285.529zM309.594 143.469l-.094-1.927 5-.177c2.01-.073 3.477-.634 4.401-1.683.924-1.048 1.387-2.599 1.39-4.65v-11.886l.209-3.709h1.875v15.094c0 2.948-.653 5.124-1.958 6.526-1.306 1.403-3.382 2.155-6.23 2.256l-4.593.156zm5.265-7.156c-2.166 0-3.81-.714-4.93-2.141-1.12-1.427-1.679-3.526-1.679-6.297 0-2.875.565-5.052 1.695-6.531 1.13-1.48 2.79-2.219 4.977-2.219 1.479 0 2.667.323 3.562.969.896.646 1.454 1.587 1.672 2.823h1.156l-1.02 4.562c0-2.125-.423-3.732-1.269-4.823-.845-1.09-2.089-1.635-3.731-1.635-1.625 0-2.856.578-3.693 1.734-.837 1.156-1.255 2.863-1.255 5.12 0 2.146.42 3.773 1.26 4.88.84 1.108 2.077 1.662 3.709 1.662 1.635 0 2.874-.545 3.716-1.636.842-1.09 1.263-2.694 1.263-4.812l1.125 4.427h-1.323c-.209 1.215-.748 2.172-1.617 2.87-.87.698-2.076 1.047-3.618 1.047zM339.042 136v-10.823c0-1.33-.348-2.355-1.042-3.075-.694-.721-1.663-1.081-2.906-1.081-3.257 0-4.886 1.875-4.886 5.625l-.99-4.209h1.178c.232-1.114.752-1.945 1.557-2.492.806-.547 1.908-.82 3.307-.82 1.868 0 3.313.531 4.334 1.594 1.02 1.062 1.531 2.562 1.531 4.5V136h-2.083zm-10.917 0v-23.438h2.083V136h-2.083zM356.375 136.313c-2.135 0-3.713-.547-4.732-1.641-1.019-1.094-1.528-2.77-1.528-5.026v-2.708h2.083v2.656c0 1.61.365 2.809 1.096 3.594.731.784 1.862 1.177 3.394 1.177.604 0 1.19-.03 1.76-.086a29.49 29.49 0 0 0 1.781-.237l.24 1.895a21.922 21.922 0 0 1-4.094.375zm-6.26-8.125v-13.75h2.083v13.75h-2.083zm-4.771-6.844v-1.906h14.5v1.906h-14.5zM271.875 85V62.812h1.469V85h-1.469zm0 0v-1.406h13.938V85h-13.938zm0-10.406v-1.406H283v1.406h-11.125zm0-10.375v-1.406h13.938v1.406h-13.938zM289.781 85l6.906-8.75 5.938-7.813h1.844l-6.844 8.876-6 7.687h-1.844zm12.844 0l-5.953-7.766-6.89-8.796h1.843l6.016 7.734L304.469 85h-1.844zM318.875 85.313c-1.948 0-3.406-.56-4.375-1.68-.969-1.12-1.453-2.8-1.453-5.04v-2.656h1.469v2.657c0 1.76.388 3.08 1.164 3.96.776.88 1.945 1.321 3.507 1.321a17.932 17.932 0 0 0 3.485-.328l.172 1.39a20.618 20.618 0 0 1-3.969.375zm-5.828-8.126v-13.75h1.469v13.75h-1.47zm-5.078-7.343v-1.406h14.25v1.406h-14.25zM332.578 77.875l-.969-5.188h1.094c.48-3.041 2.162-4.562 5.047-4.562 1.796 0 3.099.49 3.91 1.469.81.979 1.215 2.562 1.215 4.75h-1.5c0-1.688-.29-2.906-.871-3.656s-1.52-1.126-2.817-1.126c-1.715 0-2.996.721-3.841 2.163-.845 1.441-1.268 3.491-1.268 6.15zM326.875 85v-1.406h10.688V85h-10.688zm4.234 0V68.437h1.157l.312 4.75V85h-1.469zM327.5 69.844v-1.406h4.234v1.406H327.5zM357.719 85.156l-.266-6.531-.094.39V75.47c0-1.99-.487-3.43-1.46-4.32-.975-.891-2.545-1.352-4.712-1.383l-3.28-.047.312-1.438 2.969.047c2.687.042 4.638.643 5.851 1.805 1.214 1.161 1.82 3.008 1.82 5.539v8.14l2.86.204V85l-4 .156zm-6.719.156c-1.635 0-2.898-.374-3.79-1.124-.89-.75-1.335-1.803-1.335-3.157 0-1.74.596-3.039 1.79-3.898 1.192-.86 2.98-1.29 5.366-1.29a33.6 33.6 0 0 1 3.266.15c1.01.098 1.786.252 2.328.46l-.14 1.266c-.667-.26-1.521-.412-2.563-.453a74.43 74.43 0 0 0-2.969-.063c-3.719 0-5.578 1.24-5.578 3.719 0 .948.318 1.677.953 2.187.636.51 1.526.766 2.672.766 1.208 0 2.292-.206 3.25-.617.958-.412 1.716-.969 2.273-1.672a3.736 3.736 0 0 0 .836-2.383V77.25l1.172 4.25h-1.375l.266-.313c-.083.782-.417 1.482-1 2.102-.583.62-1.341 1.112-2.274 1.477-.932.364-1.981.546-3.148.546zM375.688 85.313c-1.875 0-3.28-.482-4.211-1.446-.933-.963-1.399-2.409-1.399-4.336V61.562h1.469v17.97c0 .968.159 1.773.476 2.413a3.15 3.15 0 0 0 1.43 1.446c.636.323 1.432.484 2.39.484.844 0 1.891-.151 3.141-.453l.172 1.39c-.594.178-1.164.305-1.71.383-.548.078-1.134.118-1.759.118zm-11.032-22.344v-1.407h5.703v1.407h-5.703zM391.234 85V69.187h1.47V85h-1.47zm-6.859 0v-1.406h7.188V85h-7.188zm8 0v-1.406h5.969V85h-5.969zm-7.063-15.156v-1.406h7.391v1.406h-7.39zm6.464-5.516a1.51 1.51 0 0 1-1.096-.453 1.472 1.472 0 0 1-.461-1.089c0-.43.153-.799.459-1.106.306-.308.674-.461 1.103-.461.427 0 .795.153 1.102.46.307.308.46.677.46 1.107 0 .424-.153.787-.46 1.089a1.522 1.522 0 0 1-1.107.453zM403.469 92.469l-.063-1.375 4.844-.188c2.177-.083 3.768-.692 4.773-1.828 1.006-1.135 1.508-2.818 1.508-5.047V72.25l.156-3.813H416v15.094c0 2.948-.643 5.123-1.93 6.524-1.286 1.4-3.33 2.153-6.132 2.257l-4.47.157zm5.265-7.156c-2.166 0-3.81-.714-4.93-2.141-1.12-1.427-1.679-3.526-1.679-6.297 0-2.875.568-5.052 1.703-6.531 1.136-1.48 2.802-2.219 5-2.219 1.573 0 2.83.339 3.774 1.016.942.677 1.544 1.682 1.804 3.015h1.094l-.969 4.485c0-2.334-.466-4.097-1.398-5.29-.932-1.192-2.305-1.788-4.117-1.788-1.771 0-3.112.617-4.024 1.851-.911 1.234-1.367 3.055-1.367 5.461 0 2.292.458 4.031 1.375 5.219.917 1.187 2.266 1.781 4.047 1.781 1.802 0 3.167-.596 4.094-1.79.927-1.192 1.39-2.95 1.39-5.272l1.125 4.28h-1.265c-.26 1.303-.85 2.331-1.766 3.087-.917.755-2.214 1.132-3.89 1.132zM433.281 85V74.156c0-1.469-.39-2.601-1.172-3.398-.78-.797-1.87-1.195-3.265-1.195-3.584 0-5.375 2.02-5.375 6.062l-1-4.188h1.125c.302-1.114.877-1.945 1.726-2.492.85-.547 1.977-.82 3.383-.82 1.927 0 3.417.531 4.469 1.594 1.052 1.062 1.578 2.562 1.578 4.5V85h-1.469zM422 85V61.562h1.469V85H422zM450.125 85.313c-1.948 0-3.406-.56-4.375-1.68-.969-1.12-1.453-2.8-1.453-5.04v-2.656h1.469v2.657c0 1.76.388 3.08 1.164 3.96.776.88 1.945 1.321 3.507 1.321a17.932 17.932 0 0 0 3.485-.328l.172 1.39a20.618 20.618 0 0 1-3.969.375zm-5.828-8.126v-13.75h1.469v13.75h-1.47zm-5.078-7.343v-1.406h14.25v1.406h-14.25z" fill="#000" fill-rule="nonzero"/><path d="M276.18 37.24c2.56 0 4.22-1.22 5.26-3.34l-2.48-1.44c-.42 1.14-1.28 2.08-2.78 2.08-1.78 0-2.96-1.2-2.96-3.4V28.9c0-2.2 1.18-3.4 2.96-3.4 1.5 0 2.24.78 2.6 1.94l2.62-1.36c-1.02-2.24-2.66-3.28-5.22-3.28-3.76 0-6.18 2.6-6.18 7.32 0 4.72 2.42 7.12 6.18 7.12zM295.993 37l-4.54-13.96h-3.76l-4.6 13.96h3.08l1-3.32h4.66l1 3.32h3.16zm-4.9-5.9h-3.2l1.54-5.3h.1l1.56 5.3zM303.287 37.24c3.48 0 5.44-1.86 5.44-4.54 0-2.4-1.38-3.68-4.24-4.14l-1.38-.22c-1.16-.18-1.66-.54-1.66-1.5 0-.84.66-1.36 2.02-1.36 1.44 0 2.34.54 3 1.32l2.02-2.04c-1.14-1.26-2.74-1.96-4.84-1.96-3.28 0-5.24 1.74-5.24 4.24 0 2.34 1.34 3.78 4.28 4.16l1.38.18c1.3.18 1.62.74 1.62 1.5 0 1.02-.72 1.68-2.2 1.68-1.36 0-2.56-.54-3.5-1.6l-2 2.02c1.2 1.32 2.86 2.26 5.3 2.26zM317.72 37.24c2.56 0 4.22-1.22 5.26-3.34l-2.48-1.44c-.42 1.14-1.28 2.08-2.78 2.08-1.78 0-2.96-1.2-2.96-3.4V28.9c0-2.2 1.18-3.4 2.96-3.4 1.5 0 2.24.78 2.6 1.94l2.62-1.36c-1.02-2.24-2.66-3.28-5.22-3.28-3.76 0-6.18 2.6-6.18 7.32 0 4.72 2.42 7.12 6.18 7.12zM337.533 37l-4.54-13.96h-3.76l-4.6 13.96h3.08l1-3.32h4.66l1 3.32h3.16zm-4.9-5.9h-3.2l1.54-5.3h.1l1.56 5.3zM340.307 37h5.26c3.7 0 6.14-2.34 6.14-6.98 0-4.64-2.44-6.98-6.14-6.98h-5.26V37zm3.04-2.7v-8.56h2.22c1.8 0 2.92.98 2.92 3.2v2.16c0 2.22-1.12 3.2-2.92 3.2h-2.22zM361.18 37v-2.42h-1.8v-9.12h1.8v-2.42h-6.64v2.42h1.8v9.12h-1.8V37zM376.313 37l-4.54-13.96h-3.76l-4.6 13.96h3.08l1-3.32h4.66l1 3.32h3.16zm-4.9-5.9h-3.2l1.54-5.3h.1l1.56 5.3z" fill="#757575" fill-rule="nonzero"/><path d="M274.219 228.563v-2.97h4.594c1.24 0 2.205-.327 2.898-.984.693-.656 1.039-1.578 1.039-2.765 0-1.302-.346-2.305-1.04-3.008-.692-.703-1.658-1.055-2.897-1.055h-4.532l-.375-2.969h4.906c2.303 0 4.081.584 5.336 1.75 1.256 1.167 1.883 2.823 1.883 4.97 0 2.228-.627 3.958-1.883 5.187-1.255 1.229-3.033 1.844-5.336 1.844h-4.593zM271.188 237v-22.188h3.25V237h-3.25zm11.906 0l-4.969-10.438h3.438l5.28 10.438h-3.75zM298.563 237.313c-2.823 0-5.003-.743-6.54-2.227-1.536-1.484-2.304-3.617-2.304-6.399 0-2.708.65-4.812 1.953-6.312 1.302-1.5 3.14-2.25 5.515-2.25 2.24 0 3.972.677 5.196 2.031 1.224 1.354 1.836 3.323 1.836 5.906 0 .76-.031 1.47-.094 2.125H292.5v-2.53h8.719c0-1.49-.354-2.634-1.063-3.43-.708-.797-1.687-1.196-2.937-1.196-1.406 0-2.498.48-3.274 1.438-.776.958-1.164 2.312-1.164 4.062 0 1.917.534 3.375 1.602 4.375s2.586 1.5 4.555 1.5c.687 0 1.364-.039 2.03-.117a26.428 26.428 0 0 0 2.032-.32l.406 2.906a21.82 21.82 0 0 1-2.687.36c-.813.051-1.531.077-2.156.077zM309.344 244.469l-.156-3.031 5.312-.157c1.677-.052 2.896-.515 3.656-1.39.76-.875 1.146-2.162 1.156-3.86v-12.094l.313-3.5h3v15.094c0 2.948-.672 5.125-2.016 6.531-1.343 1.407-3.484 2.157-6.421 2.25l-4.844.157zm5.265-7.156c-2.166 0-3.81-.714-4.93-2.141-1.12-1.427-1.679-3.526-1.679-6.297 0-2.875.56-5.052 1.68-6.531 1.12-1.48 2.763-2.219 4.93-2.219 1.291 0 2.338.292 3.14.875s1.27 1.396 1.406 2.438h1.281l-1.125 4.718c0-1.708-.335-3.005-1.007-3.89-.672-.886-1.66-1.328-2.961-1.328-1.334 0-2.344.5-3.031 1.5-.688 1-1.032 2.479-1.032 4.437 0 1.854.344 3.255 1.031 4.203.688.948 1.698 1.422 3.032 1.422 1.302 0 2.289-.443 2.96-1.328.673-.886 1.009-2.182 1.009-3.89l1.125 4.718H319c-.104 1.042-.544 1.854-1.32 2.438-.776.583-1.8.875-3.07.875zM333 237.313c-1.74 0-3.086-.519-4.04-1.555-.952-1.037-1.429-2.498-1.429-4.383v-10.938h3.313v10.938c0 .948.27 1.68.812 2.195.542.516 1.302.774 2.281.774 1.209 0 2.12-.383 2.735-1.149.614-.765.922-2.05.922-3.851l.844 4.469h-1.094c-.26 1.125-.771 1.99-1.531 2.593-.76.604-1.698.906-2.813.906zm4.875-.157l-.281-3.969v-2.906h3.312V234l2.281.344V237l-5.312.156zm-.281-4.844v-11.875h3.312v10.938l-3.312.938zM355.844 237.313c-1.917 0-3.302-.521-4.156-1.563-.855-1.042-1.282-2.708-1.282-5v-17.188h3.313v17.032c0 .875.083 1.588.25 2.14.166.552.492.959.976 1.22.485.26 1.2.39 2.149.39.864 0 1.969-.198 3.312-.594l.375 2.906a18.86 18.86 0 0 1-2.43.5c-.775.104-1.611.156-2.507.156zm-10.313-20.844v-2.906h5.156v2.906h-5.156zM375.531 237.156l-.219-4.906-.437-1.375v-4.281c0-1.104-.388-1.914-1.164-2.43-.776-.516-1.93-.794-3.461-.836l-3.969-.11.313-2.937 3.344.047c2.74.042 4.773.633 6.101 1.774 1.328 1.14 1.992 2.804 1.992 4.992V234l2.813.344V237l-5.313.156zm-5.844.156c-1.729 0-3.067-.416-4.015-1.25-.948-.833-1.422-2.01-1.422-3.53 0-1.75.654-3.095 1.96-4.032 1.308-.938 3.155-1.406 5.54-1.406.99 0 1.872.06 2.648.18s1.467.299 2.07.538l-.687 2.25a11.399 11.399 0 0 0-2.047-.273 52.456 52.456 0 0 0-2.046-.039c-2.875 0-4.313.875-4.313 2.625 0 .73.247 1.292.742 1.688.495.395 1.195.593 2.102.593 1.031 0 1.893-.177 2.586-.531.692-.354 1.21-.807 1.554-1.36.344-.551.516-1.12.516-1.702v-1.813l.969 4.25h-1.313l.531-.5c0 .958-.22 1.758-.664 2.398-.442.641-1.065 1.12-1.867 1.438-.802.318-1.75.476-2.844.476zM389.75 229.875l-.969-5.188h1.281c.188-3.041 1.709-4.562 4.563-4.562 1.708 0 2.948.49 3.719 1.469.77.979 1.156 2.562 1.156 4.75h-3.281c0-1.209-.18-2.078-.54-2.61-.359-.53-.94-.797-1.741-.797-1.407 0-2.456.602-3.149 1.805-.693 1.203-1.039 2.914-1.039 5.133zm-7 7.125v-2.906h11.063V237H382.75zm3.688 0v-16.563h2.687l.625 4.75V237h-3.313zm-3.063-13.656v-2.906h5.531l.313 2.906h-5.844z" fill="#000" fill-rule="nonzero"/></g></svg>