<svg width="421" height="270" viewBox="0 0 421 270" xmlns="http://www.w3.org/2000/svg"><g fill="none" fill-rule="evenodd"><path fill="#FFF" d="M0 0h421v270H0z"/><path d="M47.776 140.016c.256-7.424 1.632-12.864 4.128-16.32 2.496-3.456 5.856-5.184 10.08-5.184 3.243 0 5.696.992 7.36 2.976 1.664 1.984 2.496 4.619 2.496 7.904 0 5.76-2.89 11.008-8.672 15.744-5.781 4.736-13.792 8.683-24.032 11.84l-1.728-5.632c9.259-2.859 16.245-6.048 20.96-9.568 4.715-3.52 7.072-7.67 7.072-12.448 0-1.579-.267-2.805-.8-3.68s-1.525-1.312-2.976-1.312c-2.133 0-3.85 1.205-5.152 3.616-1.301 2.41-2.037 6.261-2.208 11.552l-1.216 38.336H46.56l1.216-37.824zm22.848 15.296v5.824H50.272v-5.824h20.352zM104.992 166.576c-3.627 0-6.304-1.067-8.032-3.2-1.728-2.133-2.592-5.035-2.592-8.704a37.747 37.747 0 0 1 .512-5.888l2.112-12.48 4.672 3.008c-8.661 1.835-13.91-.832-15.744-8h3.392c2.176 2.987 7.083 3.712 14.72 2.176l-2.368 15.296a51.549 51.549 0 0 0-.384 3.264 32.88 32.88 0 0 0-.128 2.688c0 1.92.33 3.381.992 4.384.661 1.003 1.824 1.504 3.488 1.504.939 0 1.92-.15 2.944-.448l1.344 5.44c-1.28.64-2.923.96-4.928.96zm-31.36-13.888c3.67-1.92 6.144-4.459 7.424-7.616 1.28-3.157 1.75-6.997 1.408-11.52l-.192-2.24h5.376c1.195 5.888 1.013 11.136-.544 15.744-1.557 4.608-4.832 8.235-9.824 10.88l-3.648-5.248zM128.864 132.272c4.779 0 8.245 1.088 10.4 3.264 2.155 2.176 3.147 5.333 2.976 9.472l-.448 10.368c-.085 1.877.192 3.253.832 4.128.64.875 1.92 1.312 3.84 1.312h1.152l-.192 5.504h-1.792c-3.2 0-5.504-.661-6.912-1.984-1.408-1.323-2.112-3.541-2.112-6.656h-1.28l.384-12.288c.085-2.432-.405-4.245-1.472-5.44-1.067-1.195-2.944-1.792-5.632-1.792-1.408 0-2.955.17-4.64.512a27.567 27.567 0 0 0-4.896 1.472l-1.792-5.632a26.282 26.282 0 0 1 5.696-1.696 33.05 33.05 0 0 1 5.888-.544zm5.12 27.584l1.984-.896c-.256 2.432-1.333 4.32-3.232 5.664-1.899 1.344-4.427 2.016-7.584 2.016-3.413 0-6.048-.81-7.904-2.432-1.856-1.621-2.784-3.947-2.784-6.976 0-2.901.917-5.28 2.752-7.136 1.835-1.856 4.448-3.115 7.84-3.776 3.392-.661 7.37-.693 11.936-.096l.192 5.312c-2.816-.725-5.461-.981-7.936-.768-2.475.213-4.448.853-5.92 1.92-1.472 1.067-2.208 2.475-2.208 4.224 0 1.323.437 2.325 1.312 3.008.875.683 2.165 1.024 3.872 1.024 2.603 0 4.747-.736 6.432-2.208 1.685-1.472 2.592-3.573 2.72-6.304l3.008 7.424h-4.48zM166.112 178.416c-3.541 0-6.677-.64-9.408-1.92-2.73-1.28-5.056-3.285-6.976-6.016l5.312-3.968c.981 1.664 2.485 3.093 4.512 4.288 2.027 1.195 4.341 1.792 6.944 1.792 1.579 0 2.997-.256 4.256-.768 1.259-.512 2.24-1.173 2.944-1.984.704-.81 1.056-1.685 1.056-2.624 0-.768-.235-1.376-.704-1.824-.47-.448-1.184-.843-2.144-1.184-.96-.341-2.635-.853-5.024-1.536-5.12-1.45-8.79-3.232-11.008-5.344-2.219-2.112-3.328-5.024-3.328-8.736 0-3.03.63-5.792 1.888-8.288 1.259-2.496 3.008-4.459 5.248-5.888 2.24-1.43 4.79-2.144 7.648-2.144 2.517 0 4.768.576 6.752 1.728 1.984 1.152 3.53 2.795 4.64 4.928 1.11 2.133 1.664 4.587 1.664 7.36 0 1.92-.33 3.712-.992 5.376-.661 1.664-1.6 3.05-2.816 4.16-1.216 1.11-2.613 1.813-4.192 2.112l1.344-1.152v3.2h-8.32v-2.24a8.318 8.318 0 0 0 4.704-2.144 11.796 11.796 0 0 0 3.04-4.32c.683-1.664 1.024-3.285 1.024-4.864 0-1.621-.299-3.061-.896-4.32-.597-1.259-1.43-2.24-2.496-2.944-1.067-.704-2.304-1.056-3.712-1.056-1.579 0-2.965.459-4.16 1.376-1.195.917-2.123 2.155-2.784 3.712-.661 1.557-.992 3.296-.992 5.216 0 1.579.32 2.87.96 3.872.64 1.003 1.707 1.867 3.2 2.592 1.493.725 3.605 1.45 6.336 2.176 2.987.768 5.28 1.536 6.88 2.304 1.6.768 2.752 1.696 3.456 2.784.704 1.088 1.056 2.528 1.056 4.32 0 2.304-.63 4.363-1.888 6.176-1.259 1.813-3.019 3.232-5.28 4.256s-4.843 1.536-7.744 1.536zm19.264-44.288v5.952c-3.285 0-5.525-.64-6.72-1.92l1.024-.256-1.92 2.304-6.336-6.08h13.952zM49.248 71.16c.213-6.144 1.408-10.955 3.584-14.432 2.176-3.477 5.227-5.216 9.152-5.216 2.901 0 5.088.96 6.56 2.88 1.472 1.92 2.208 4.373 2.208 7.36 0 5.547-2.89 10.73-8.672 15.552-5.781 4.821-13.344 8.832-22.688 12.032l-.896-2.816c8.661-2.944 15.712-6.581 21.152-10.912 5.44-4.33 8.16-8.95 8.16-13.856 0-2.176-.459-3.947-1.376-5.312-.917-1.365-2.421-2.048-4.512-2.048-3.03 0-5.365 1.504-7.008 4.512-1.643 3.008-2.57 7.2-2.784 12.576l-1.344 39.36H47.84l1.408-39.68zm21.376 18.496v2.816h-20.16v-2.816h20.16zM105.376 99.576c-2.901 0-5.099-.832-6.592-2.496-1.493-1.664-2.24-4.01-2.24-7.04 0-1.024.085-2.325.256-3.904.17-1.579.427-3.35.768-5.312l2.048-12.16 1.6 1.536c-8.15 1.621-13.675-.341-16.576-5.888h2.304c3.328 3.755 8.64 4.587 15.936 2.496l-2.176 12.672c-.427 2.517-.747 4.65-.96 6.4-.213 1.75-.32 3.157-.32 4.224 0 2.219.501 3.872 1.504 4.96 1.003 1.088 2.592 1.632 4.768 1.632 1.237 0 2.368-.17 3.392-.512l.576 2.688c-1.28.47-2.71.704-4.288.704zM74.272 87.224c3.755-2.475 6.357-5.376 7.808-8.704 1.45-3.328 1.941-7.275 1.472-11.84l-.256-2.368h2.496c.939 5.419.672 10.24-.8 14.464S80.522 86.584 76 89.528l-1.728-2.304zM128.992 65.272c4.181 0 7.274 1.056 9.28 3.168 2.005 2.112 2.944 5.045 2.816 8.8l-.576 14.912c-.043 1.536.362 2.613 1.216 3.232.853.619 2.112.95 3.776.992h.512l-.128 2.944h-.32c-3.286 0-5.472-.864-6.56-2.592-1.088-1.728-1.419-4.15-.992-7.264h-.384l.512-12.16c.128-2.859-.555-5.099-2.048-6.72-1.494-1.621-3.862-2.432-7.104-2.432-1.494 0-3.094.17-4.8.512a31.53 31.53 0 0 0-4.8 1.344l-.96-2.752c1.493-.597 3.2-1.077 5.12-1.44s3.733-.544 5.44-.544zm7.04 27.328l1.6-1.088c-.598 2.645-1.93 4.661-4 6.048-2.07 1.387-4.683 2.08-7.84 2.08-3.328 0-5.952-.8-7.872-2.4-1.92-1.6-2.88-3.787-2.88-6.56 0-2.901 1.077-5.323 3.232-7.264 2.154-1.941 5.066-3.19 8.736-3.744 3.67-.555 7.637-.299 11.904.768l.128 2.752c-3.968-.981-7.563-1.28-10.784-.896-3.222.384-5.75 1.323-7.584 2.816-1.835 1.493-2.752 3.35-2.752 5.568 0 1.963.693 3.488 2.08 4.576 1.386 1.088 3.317 1.632 5.792 1.632 3.157 0 5.92-.885 8.288-2.656 2.368-1.77 3.616-4.896 3.744-9.376l1.216 7.744h-3.008zM166.112 111.416c-3.243 0-6.176-.661-8.8-1.984-2.624-1.323-4.832-3.285-6.624-5.888l2.368-1.792c1.536 2.176 3.413 3.85 5.632 5.024 2.218 1.173 4.693 1.76 7.424 1.76 2.304 0 4.298-.31 5.984-.928 1.685-.619 2.976-1.483 3.872-2.592.896-1.11 1.344-2.368 1.344-3.776 0-1.067-.342-2.027-1.024-2.88-.683-.853-1.782-1.621-3.296-2.304-1.515-.683-3.51-1.301-5.984-1.856-4.694-1.11-8.064-2.72-10.112-4.832-2.048-2.112-3.072-4.896-3.072-8.352 0-2.816.586-5.43 1.76-7.84 1.173-2.41 2.773-4.33 4.8-5.76 2.026-1.43 4.298-2.144 6.816-2.144 2.261 0 4.31.587 6.144 1.76 1.834 1.173 3.274 2.784 4.32 4.832 1.045 2.048 1.568 4.352 1.568 6.912 0 2.347-.448 4.544-1.344 6.592-.896 2.048-2.102 3.701-3.616 4.96-1.515 1.259-3.147 1.973-4.896 2.144l1.664-1.344v2.24h-5.504v-1.536c1.45-.085 3.018-.597 4.704-1.536 1.685-.939 3.125-2.368 4.32-4.288 1.194-1.92 1.792-4.267 1.792-7.04 0-2.133-.406-4.021-1.216-5.664-.81-1.643-1.91-2.912-3.296-3.808-1.387-.896-2.955-1.344-4.704-1.344-2.006 0-3.798.576-5.376 1.728-1.579 1.152-2.806 2.688-3.68 4.608-.875 1.92-1.312 4.01-1.312 6.272 0 1.92.352 3.563 1.056 4.928.704 1.365 1.845 2.507 3.424 3.424 1.578.917 3.67 1.653 6.272 2.208 3.157.683 5.664 1.472 7.52 2.368 1.856.896 3.178 1.941 3.968 3.136s1.184 2.603 1.184 4.224c0 2.048-.587 3.861-1.76 5.44-1.174 1.579-2.827 2.795-4.96 3.648-2.134.853-4.587 1.28-7.36 1.28zm18.816-44.288v2.816c-4.992 0-8.022-.405-9.088-1.216l1.408-.32-1.344 1.92-3.2-3.2h12.224zM46.944 207.016c.256-6.528 1.621-11.744 4.096-15.648s6.059-5.856 10.752-5.856c3.413 0 6.037 1.045 7.872 3.136 1.835 2.09 2.752 4.864 2.752 8.32 0 6.059-2.976 11.381-8.928 15.968-5.952 4.587-14.027 8.544-24.224 11.872l-2.432-6.912c8.448-2.773 15.168-5.824 20.16-9.152 4.992-3.328 7.488-7.125 7.488-11.392 0-1.195-.245-2.187-.736-2.976-.49-.79-1.29-1.184-2.4-1.184-2.005 0-3.541 1.301-4.608 3.904-1.067 2.603-1.664 6.016-1.792 10.24l-1.28 37.504H45.6l1.344-37.824zm23.68 14.592v7.552H50.08v-7.552h20.544zM104.736 233.576c-3.925 0-6.773-1.163-8.544-3.488-1.77-2.325-2.656-5.301-2.656-8.928 0-.853.064-1.952.192-3.296.128-1.344.299-2.57.512-3.68l2.176-11.52 6.08 5.248c-9.941 2.39-15.53-.81-16.768-9.6h3.84c3.285 3.115 8.533 3.712 15.744 1.792l-2.56 13.76a81.751 81.751 0 0 0-.544 3.808c-.15 1.259-.224 2.165-.224 2.72 0 1.621.341 2.976 1.024 4.064s1.813 1.632 3.392 1.632c.597 0 1.28-.064 2.048-.192L109.92 233a23.544 23.544 0 0 1-5.184.576zm-31.168-15.232c2.944-1.365 5.099-3.616 6.464-6.752 1.365-3.136 1.813-6.859 1.344-11.168l-.192-2.112h6.208c2.005 6.315 2.25 11.819.736 16.512-1.515 4.693-4.683 8.384-9.504 11.072l-5.056-7.552zM129.12 199.272c4.565 0 8.064 1.024 10.496 3.072 2.432 2.048 3.584 4.821 3.456 8.32l-.384 11.712c-.043 1.323.117 2.283.48 2.88.362.597 1.184.896 2.464.896h1.408l-.256 7.168h-3.456c-2.603 0-4.47-.747-5.6-2.24-1.13-1.493-1.718-3.627-1.76-6.4h-1.536l.576-12.992c.085-1.579-.47-2.848-1.664-3.808-1.195-.96-2.944-1.44-5.248-1.44-1.323 0-2.763.16-4.32.48-1.558.32-3.126.8-4.704 1.44l-2.368-6.848a30.948 30.948 0 0 1 6.208-1.696c2.176-.363 4.245-.544 6.208-.544zm4.288 28.48l2.048-1.408c-.214 2.176-1.248 3.936-3.104 5.28-1.856 1.344-4.406 2.016-7.648 2.016-3.499 0-6.219-.853-8.16-2.56-1.942-1.707-2.912-4.096-2.912-7.168 0-3.03 1.002-5.536 3.008-7.52 2.005-1.984 4.81-3.307 8.416-3.968 3.605-.661 7.712-.565 12.32.288l.256 6.208c-3.414-.597-6.283-.8-8.608-.608-2.326.192-4.054.704-5.184 1.536-1.13.832-1.696 1.888-1.696 3.168 0 .981.373 1.739 1.12 2.272.746.533 1.845.8 3.296.8 2.346 0 4.256-.587 5.728-1.76 1.472-1.173 2.272-2.933 2.4-5.28l5.824 8.704h-7.104zM166.624 245.416c-3.542 0-6.859-.661-9.952-1.984-3.094-1.323-5.622-3.179-7.584-5.568l6.016-5.824c1.792 1.92 3.616 3.339 5.472 4.256 1.856.917 3.85 1.376 5.984 1.376 1.194 0 2.293-.139 3.296-.416 1.002-.277 1.802-.683 2.4-1.216.597-.533.896-1.141.896-1.824 0-.512-.214-.97-.64-1.376-.427-.405-1.11-.8-2.048-1.184-.939-.384-2.262-.81-3.968-1.28-5.163-1.408-8.896-3.264-11.2-5.568-2.304-2.304-3.456-5.333-3.456-9.088 0-3.072.682-5.867 2.048-8.384 1.365-2.517 3.21-4.49 5.536-5.92 2.325-1.43 4.874-2.144 7.648-2.144 2.602 0 4.95.63 7.04 1.888 2.09 1.259 3.722 2.997 4.896 5.216 1.173 2.219 1.76 4.693 1.76 7.424 0 1.792-.299 3.467-.896 5.024-.598 1.557-1.526 2.837-2.784 3.84-1.259 1.003-2.827 1.547-4.704 1.632l1.984-1.216v3.648h-9.28l-.064-3.264c2.048-.299 3.626-1.056 4.736-2.272 1.11-1.216 1.845-2.507 2.208-3.872.362-1.365.544-2.56.544-3.584 0-1.237-.256-2.379-.768-3.424s-1.206-1.867-2.08-2.464c-.875-.597-1.824-.896-2.848-.896a5.13 5.13 0 0 0-3.296 1.152c-.96.768-1.696 1.77-2.208 3.008a10.274 10.274 0 0 0-.768 3.968c0 1.408.277 2.624.832 3.648.554 1.024 1.44 1.899 2.656 2.624 1.216.725 2.805 1.301 4.768 1.728 3.285.683 5.866 1.504 7.744 2.464 1.877.96 3.221 2.08 4.032 3.36.81 1.28 1.216 2.816 1.216 4.608 0 2.39-.63 4.48-1.888 6.272-1.259 1.792-3.03 3.179-5.312 4.16-2.283.981-4.939 1.472-7.968 1.472zm19.072-44.288v7.808c-3.2-.085-5.355-.64-6.464-1.664h1.344l-1.536 1.28-8.64-7.424h15.296zM254.594 181c-3.959 0-7.021-1.646-9.188-4.938-2.166-3.291-3.25-7.927-3.25-13.906 0-9.25.917-17.13 2.75-23.64 1.834-6.51 4.49-11.474 7.969-14.891 3.48-3.417 7.698-5.125 12.656-5.125 2.063 0 3.959.484 5.688 1.453 1.729.969 3.135 2.328 4.219 4.078l-4.594 4.281c-.73-1.229-1.64-2.182-2.735-2.859a6.616 6.616 0 0 0-3.546-1.016c-3.334 0-6.172 1.48-8.516 4.438-2.344 2.958-4.13 7.245-5.36 12.86-1.229 5.614-1.843 12.421-1.843 20.421 0 4.104.531 7.281 1.594 9.531 1.062 2.25 2.541 3.375 4.437 3.375 2.896 0 4.344-1.75 4.344-5.25 0-2.354-.568-4.791-1.703-7.312-1.136-2.52-2.724-4.885-4.766-7.094l5.156-4.187c2.396 2.416 4.255 5.25 5.578 8.5a26.53 26.53 0 0 1 1.985 10.094c0 7.458-3.625 11.187-10.875 11.187zm-16.844-35.094l1.031-5.812h28.875l-1.031 5.812H237.75zM302.969 166.563c-3.521 0-6.104-.724-7.75-2.172-1.646-1.448-2.448-3.693-2.406-6.735.02-1.104.203-2.364.546-3.781.344-1.417.808-3.104 1.391-5.063l3.938-13.156 3.968 3.656H284v-5.78l21.844-.032-4.375 15.313c-.584 2.083-1.052 3.765-1.406 5.046-.355 1.282-.542 2.256-.563 2.922-.083 2.563 1.281 3.844 4.094 3.844.937 0 1.75-.063 2.437-.188l.438 5.563c-1.084.375-2.25.563-3.5.563zm-25.375-6.938l-5.063-4a29.708 29.708 0 0 0 4.813-6.61c1.27-2.385 2.219-4.973 2.844-7.765s.937-5.792.937-9v-2.688h6.688v2.625c0 3.792-.38 7.334-1.141 10.625-.76 3.292-1.896 6.334-3.406 9.125a34.579 34.579 0 0 1-5.672 7.688zM320.844 166.656c-2.834 0-5.021-.812-6.563-2.437-1.541-1.625-2.312-3.917-2.312-6.875 0-3.75.797-7.151 2.39-10.203 1.594-3.052 3.829-5.662 6.704-7.828 2.875-2.167 6.24-3.834 10.093-5 3.854-1.167 8.042-1.75 12.563-1.75h.625l-4.125 23.53c-.292 1.667-.162 2.876.39 3.626s1.745 1.125 3.579 1.125h1.28l-.937 5.469h-2.219c-1.604 0-2.942-.162-4.015-.485-1.073-.323-1.906-.833-2.5-1.531-.594-.698-.974-1.62-1.14-2.766-.167-1.146-.147-2.541.062-4.187l1.812.812h-3.625l1.656-1.812c-1.145 3.27-2.916 5.807-5.312 7.61-2.396 1.801-5.198 2.702-8.406 2.702zm2.031-5.937c3 0 5.615-1.354 7.844-4.063 2.229-2.708 3.791-6.541 4.687-11.5l1.625-9.062 2.531 2.406c-2.916.125-5.64.667-8.171 1.625-2.532.958-4.75 2.245-6.657 3.86-1.906 1.614-3.395 3.489-4.468 5.624-1.073 2.136-1.61 4.453-1.61 6.953 0 1.334.37 2.36 1.11 3.079.74.718 1.776 1.078 3.109 1.078zM349.219 181l-.313-5.813 6.563-.406c2.604-.166 4.817-.666 6.64-1.5 1.823-.833 3.318-1.906 4.485-3.219a15.214 15.214 0 0 0 2.734-4.375 22.303 22.303 0 0 0 1.39-4.968l4.157-23.563 7.281-4.594h.25l-4.812 27.157c-.521 2.937-1.276 5.646-2.266 8.125s-2.338 4.656-4.047 6.531c-1.708 1.875-3.9 3.365-6.578 4.469-2.677 1.104-5.963 1.74-9.86 1.906l-5.624.25zm28.281-42.5c-2.917.125-5.635.667-8.156 1.625-2.521.958-4.724 2.245-6.61 3.86-1.885 1.614-3.359 3.489-4.421 5.624-1.063 2.136-1.594 4.453-1.594 6.953 0 1.334.38 2.36 1.14 3.079.76.718 1.839 1.078 3.235 1.078 2.062 0 3.916-.6 5.562-1.797 1.646-1.198 3.047-2.958 4.203-5.281 1.157-2.323 2.026-5.151 2.61-8.485l.219-1.25 3.218 2.625-3.625 12.25h-3.625l1.5-1.5c-.937 2.98-2.458 5.287-4.562 6.922-2.104 1.636-4.615 2.453-7.531 2.453-2.875 0-5.1-.812-6.672-2.437-1.573-1.625-2.36-3.917-2.36-6.875 0-3.75.797-7.151 2.39-10.203 1.595-3.052 3.829-5.662 6.704-7.828 2.875-2.167 6.245-3.834 10.11-5 3.864-1.167 8.057-1.75 12.577-1.75h.563L377.5 138.5zM254.469 114c-3.7 0-6.563-1.646-8.588-4.938-2.025-3.291-3.037-7.927-3.037-13.906 0-9.25.854-17.13 2.562-23.64 1.709-6.51 4.224-11.474 7.547-14.891 3.323-3.417 7.412-5.125 12.266-5.125 2.062 0 3.958.476 5.687 1.428 1.73.953 3.136 2.29 4.219 4.01l-2.344 2.156c-.954-1.497-2.146-2.658-3.578-3.482a9.14 9.14 0 0 0-4.64-1.237c-3.966 0-7.343 1.599-10.13 4.797-2.789 3.198-4.917 7.832-6.386 13.903-1.469 6.07-2.203 13.431-2.203 22.081 0 5.078.791 9.01 2.375 11.793 1.583 2.784 3.802 4.176 6.656 4.176 4.438 0 6.656-2.77 6.656-8.313 0-2.718-.479-5.533-1.437-8.445-.959-2.911-2.604-5.648-4.938-8.21l2.438-1.938c2.198 2.416 3.903 5.25 5.117 8.5a28.626 28.626 0 0 1 1.82 10.094c0 7.458-3.354 11.187-10.062 11.187zM238.75 77.5l.5-2.813h27.844l-.5 2.813H238.75zM302.5 99.563c-2.458 0-4.27-.495-5.438-1.485-1.166-.99-1.74-2.526-1.718-4.61.02-1.603.312-3.437.875-5.5.562-2.062 1.27-4.53 2.125-7.406l3.562-11.906.906.656h-18.656v-2.78l21.375-.032-4.094 13.75c-1.02 3.333-1.786 6.016-2.296 8.047-.51 2.031-.776 3.568-.797 4.61-.084 2.52 1.437 3.78 4.562 3.78 1.334 0 2.459-.166 3.375-.5l.188 2.688c-1.23.458-2.552.688-3.969.688zm-26.938-8.72l-2.25-2.03a28.898 28.898 0 0 0 4.907-6.61c1.312-2.427 2.302-5.062 2.969-7.906.666-2.844 1-5.86 1-9.047v-2.688h3v2.626c0 3.458-.365 6.734-1.094 9.828-.73 3.093-1.808 5.968-3.235 8.625a31.588 31.588 0 0 1-5.296 7.203zM321.625 99.656c-3.02 0-5.36-.812-7.016-2.437-1.656-1.625-2.484-3.917-2.484-6.875 0-3.75.75-7.151 2.25-10.203 1.5-3.052 3.604-5.662 6.313-7.829 2.708-2.166 5.895-3.833 9.562-5 3.667-1.166 7.656-1.75 11.969-1.75h.562l-4.469 25.376c-.312 1.729-.14 3.078.516 4.046.656.97 1.724 1.454 3.203 1.454h2.188l-.5 2.874h-1.469c-1.458 0-2.672-.182-3.64-.546-.97-.365-1.709-.927-2.22-1.688-.51-.76-.807-1.729-.89-2.906-.083-1.177.02-2.578.313-4.203l2.156.156h-3l1.5-3.063c-1.25 4.021-3.172 7.126-5.766 9.313-2.594 2.188-5.62 3.281-9.078 3.281zm.469-2.875c3.666 0 6.885-1.51 9.656-4.531 2.77-3.02 4.635-7.302 5.594-12.844l2.031-11.562 2.594.594c-4.063.145-7.745.78-11.047 1.906-3.302 1.125-6.13 2.65-8.485 4.578-2.354 1.927-4.161 4.182-5.421 6.766-1.26 2.583-1.891 5.416-1.891 8.5 0 2.083.615 3.703 1.844 4.859 1.229 1.156 2.937 1.734 5.125 1.734zM348.781 114l-.125-2.875 6.375-.281c3.167-.146 5.854-.724 8.063-1.735 2.208-1.01 4.026-2.323 5.453-3.937a18.958 18.958 0 0 0 3.36-5.39c.812-1.98 1.406-4 1.78-6.063l4.688-26.625 3.031-1.531h.25l-4.812 27.156c-.521 2.937-1.266 5.646-2.235 8.125-.968 2.479-2.302 4.656-4 6.531s-3.864 3.365-6.5 4.469c-2.635 1.104-5.87 1.74-9.703 1.906l-5.625.25zm31.875-45.563c-3.833.146-7.406.787-10.719 1.922-3.312 1.136-6.208 2.667-8.687 4.594-2.48 1.927-4.417 4.156-5.813 6.688-1.395 2.53-2.093 5.276-2.093 8.234 0 2.27.547 3.99 1.64 5.156 1.094 1.167 2.714 1.75 4.86 1.75 2.833 0 5.375-.896 7.625-2.687 2.25-1.792 4.166-4.255 5.75-7.39 1.583-3.136 2.77-6.714 3.562-10.735l.25-1.25.344 2.625-1.781 12.25h-2.688l1.5-1.5c-1.166 3.687-3.015 6.536-5.547 8.547-2.53 2.01-5.692 3.015-9.484 3.015-2.958 0-5.203-.786-6.734-2.36-1.532-1.572-2.297-3.89-2.297-6.952 0-3.75.77-7.151 2.312-10.203 1.542-3.052 3.703-5.662 6.485-7.829 2.78-2.166 6.036-3.833 9.765-5 3.73-1.166 7.781-1.75 12.156-1.75h.594l-1 2.876zM255.219 248c-4.5 0-7.99-1.698-10.469-5.094-2.48-3.396-3.719-8.187-3.719-14.375 0-9.125.959-16.89 2.875-23.297 1.917-6.406 4.703-11.297 8.36-14.672 3.656-3.375 8.078-5.062 13.265-5.062 2.063 0 3.959.401 5.688 1.203 1.729.802 3.135 1.932 4.219 3.39l-4.594 6.345a7.482 7.482 0 0 0-2.735-2.141 8.283 8.283 0 0 0-3.546-.766c-3.271 0-6.063 1.36-8.375 4.078-2.313 2.72-4.079 6.662-5.297 11.828-1.22 5.167-1.828 11.428-1.828 18.782 0 3.729.567 6.62 1.703 8.672 1.135 2.052 2.713 3.078 4.734 3.078 2.333 0 3.5-1.406 3.5-4.219 0-1.875-.547-3.813-1.64-5.813-1.094-2-2.63-3.885-4.61-5.656l6.719-5.125c2.375 2.292 4.229 4.865 5.562 7.719 1.334 2.854 2 5.708 2 8.563 0 8.375-3.937 12.562-11.812 12.562zm-18-34.031l1.375-7.75h29.5l-1.375 7.75h-29.5zM300.938 233.563c-3.188 0-5.521-.698-7-2.094-1.48-1.396-2.198-3.563-2.157-6.5.021-1.104.167-2.375.438-3.813.27-1.437.677-3.114 1.219-5.031l3.875-13.469 5.5 4.844h-18.657v-7.75l22.625-.031-4.719 16.094c-.541 1.875-.942 3.416-1.203 4.625-.26 1.208-.4 2.114-.421 2.718-.063 1.938 1.041 2.906 3.312 2.906.938 0 1.75-.062 2.438-.187l.437 7.125c-1.77.375-3.667.563-5.688.563zm-22.875-6.313l-6.157-5.094c2.167-2.166 3.886-4.338 5.156-6.515 1.271-2.177 2.183-4.578 2.735-7.203s.828-5.688.828-9.188v-2.688h8.031v2.625c0 4.084-.338 7.704-1.015 10.86a31.096 31.096 0 0 1-3.329 8.828c-1.541 2.73-3.625 5.52-6.25 8.375zM320.813 233.656c-3.125 0-5.542-.812-7.25-2.437-1.709-1.625-2.563-3.917-2.563-6.875 0-3.75.833-7.151 2.5-10.203 1.667-3.052 4.005-5.662 7.016-7.828 3.01-2.167 6.536-3.834 10.578-5 4.041-1.167 8.437-1.75 13.187-1.75h.781l-3.968 22.78c-.25 1.46-.104 2.46.437 3 .542.542 1.667.813 3.375.813h1.5l-1.25 7.156h-3.406c-2.27 0-4.016-.244-5.234-.734-1.22-.49-2.058-1.135-2.516-1.937a5.321 5.321 0 0 1-.703-2.625c-.01-.948.047-1.891.172-2.828l2.062.812h-3.625l1.969-4.219c-1.083 3.771-2.77 6.693-5.063 8.766-2.291 2.073-4.958 3.11-8 3.11zm2.03-8.031c2.73 0 5.131-1.172 7.204-3.516 2.073-2.343 3.484-5.661 4.234-9.953l1.594-9.062 3 4.5c-2.688.104-5.198.557-7.531 1.36-2.334.801-4.375 1.874-6.125 3.218-1.75 1.344-3.115 2.906-4.094 4.687a11.779 11.779 0 0 0-1.469 5.766c0 1.02.26 1.776.781 2.266s1.323.734 2.407.734zM349.344 248l-.313-7.344 6.563-.406c2.396-.146 4.427-.594 6.094-1.344 1.666-.75 3.046-1.703 4.14-2.86a12.893 12.893 0 0 0 2.547-3.89 20.858 20.858 0 0 0 1.313-4.437l4.156-23.563 9.187-4.594h.25l-4.812 27.157c-.521 2.937-1.292 5.646-2.313 8.125-1.02 2.479-2.416 4.65-4.187 6.515-1.771 1.865-4.042 3.35-6.813 4.453-2.77 1.105-6.166 1.75-10.187 1.938l-5.625.25zm27.187-40.344c-2.583.104-4.99.568-7.219 1.39-2.229.824-4.182 1.938-5.859 3.345-1.677 1.406-2.984 3.03-3.922 4.875-.937 1.843-1.406 3.838-1.406 5.984 0 1.02.276 1.813.828 2.375.552.563 1.328.844 2.328.844 1.854 0 3.521-.547 5-1.64 1.48-1.095 2.74-2.71 3.781-4.845 1.042-2.135 1.834-4.744 2.375-7.828l.22-1.25 3.937 2.625-3.625 12.563h-4.875l2.125-3.063c-.98 3.375-2.552 5.99-4.719 7.844-2.167 1.854-4.77 2.781-7.813 2.781-2.625 0-4.65-.786-6.078-2.36-1.427-1.572-2.14-3.786-2.14-6.64 0-3.812.833-7.255 2.5-10.328 1.666-3.073 4.005-5.713 7.015-7.922 3.01-2.208 6.532-3.9 10.563-5.078 4.031-1.177 8.411-1.766 13.14-1.766h.563l-6.719 8.094z" fill="#000" fill-rule="nonzero"/><path d="M98.267 37.24c2.56 0 4.22-1.22 5.26-3.34l-2.48-1.44c-.42 1.14-1.28 2.08-2.78 2.08-1.78 0-2.96-1.2-2.96-3.4V28.9c0-2.2 1.18-3.4 2.96-3.4 1.5 0 2.24.78 2.6 1.94l2.62-1.36c-1.02-2.24-2.66-3.28-5.22-3.28-3.76 0-6.18 2.6-6.18 7.32 0 4.72 2.42 7.12 6.18 7.12zM118.08 37l-4.54-13.96h-3.76L105.18 37h3.08l1-3.32h4.66l1 3.32h3.16zm-4.9-5.9h-3.2l1.54-5.3h.1l1.56 5.3zM130.353 37v-2.7h-6.46v-3.02h5.54V28.6h-5.54v-2.86h6.46v-2.7h-9.5V37zM138.347 37.24c3.48 0 5.44-1.86 5.44-4.54 0-2.4-1.38-3.68-4.24-4.14l-1.38-.22c-1.16-.18-1.66-.54-1.66-1.5 0-.84.66-1.36 2.02-1.36 1.44 0 2.34.54 3 1.32l2.02-2.04c-1.14-1.26-2.74-1.96-4.84-1.96-3.28 0-5.24 1.74-5.24 4.24 0 2.34 1.34 3.78 4.28 4.16l1.38.18c1.3.18 1.62.74 1.62 1.5 0 1.02-.72 1.68-2.2 1.68-1.36 0-2.56-.54-3.5-1.6l-2 2.02c1.2 1.32 2.86 2.26 5.3 2.26zM153.24 37v-2.42h-1.8v-9.12h1.8v-2.42h-6.64v2.42h1.8v9.12h-1.8V37zM156.533 23.04v8.24c0 4.12 1.48 5.96 5.48 5.96s5.48-1.84 5.48-5.96v-8.24h-2.96v8.56c0 1.96-.72 2.94-2.52 2.94s-2.52-.98-2.52-2.94v-8.56h-2.96zM181.767 37h2.86V23.04h-3.24l-3.38 6.54h-.04l-3.42-6.54h-3.22V37h2.86v-9.3h.06l1.06 2.2 2.66 4.92 2.72-4.94 1.02-2.04h.06zM242.18 37.24c2.56 0 4.22-1.22 5.26-3.34l-2.48-1.44c-.42 1.14-1.28 2.08-2.78 2.08-1.78 0-2.96-1.2-2.96-3.4V28.9c0-2.2 1.18-3.4 2.96-3.4 1.5 0 2.24.78 2.6 1.94l2.62-1.36c-1.02-2.24-2.66-3.28-5.22-3.28-3.76 0-6.18 2.6-6.18 7.32 0 4.72 2.42 7.12 6.18 7.12zM261.993 37l-4.54-13.96h-3.76l-4.6 13.96h3.08l1-3.32h4.66l1 3.32h3.16zm-4.9-5.9h-3.2l1.54-5.3h.1l1.56 5.3zM269.287 37.24c3.48 0 5.44-1.86 5.44-4.54 0-2.4-1.38-3.68-4.24-4.14l-1.38-.22c-1.16-.18-1.66-.54-1.66-1.5 0-.84.66-1.36 2.02-1.36 1.44 0 2.34.54 3 1.32l2.02-2.04c-1.14-1.26-2.74-1.96-4.84-1.96-3.28 0-5.24 1.74-5.24 4.24 0 2.34 1.34 3.78 4.28 4.16l1.38.18c1.3.18 1.62.74 1.62 1.5 0 1.02-.72 1.68-2.2 1.68-1.36 0-2.56-.54-3.5-1.6l-2 2.02c1.2 1.32 2.86 2.26 5.3 2.26zM283.72 37.24c2.56 0 4.22-1.22 5.26-3.34l-2.48-1.44c-.42 1.14-1.28 2.08-2.78 2.08-1.78 0-2.96-1.2-2.96-3.4V28.9c0-2.2 1.18-3.4 2.96-3.4 1.5 0 2.24.78 2.6 1.94l2.62-1.36c-1.02-2.24-2.66-3.28-5.22-3.28-3.76 0-6.18 2.6-6.18 7.32 0 4.72 2.42 7.12 6.18 7.12zM303.533 37l-4.54-13.96h-3.76l-4.6 13.96h3.08l1-3.32h4.66l1 3.32h3.16zm-4.9-5.9h-3.2l1.54-5.3h.1l1.56 5.3zM306.307 37h5.26c3.7 0 6.14-2.34 6.14-6.98 0-4.64-2.44-6.98-6.14-6.98h-5.26V37zm3.04-2.7v-8.56h2.22c1.8 0 2.92.98 2.92 3.2v2.16c0 2.22-1.12 3.2-2.92 3.2h-2.22zM327.18 37v-2.42h-1.8v-9.12h1.8v-2.42h-6.64v2.42h1.8v9.12h-1.8V37zM342.313 37l-4.54-13.96h-3.76l-4.6 13.96h3.08l1-3.32h4.66l1 3.32h3.16zm-4.9-5.9h-3.2l1.54-5.3h.1l1.56 5.3z" fill="#757575" fill-rule="nonzero"/></g></svg>