<svg width="590" height="208" viewBox="0 0 590 208" xmlns="http://www.w3.org/2000/svg"><g fill="none" fill-rule="evenodd"><path fill="#FFF" d="M0 0h590v208H0z"/><path d="M59.432 86.64c-4.945 0-8.624-1.858-11.037-5.574-2.412-3.716-3.618-9.367-3.618-16.954 0-7.68 1.3-13.45 3.901-17.312 2.6-3.861 6.399-5.792 11.394-5.792 4.945 0 8.624 1.911 11.037 5.734 2.412 3.823 3.618 9.613 3.618 17.37 0 7.51-1.291 13.141-3.874 16.896-2.584 3.755-6.39 5.632-11.421 5.632zm0-5.221c3.03 0 5.34-1.453 6.927-4.359 1.587-2.906 2.38-7.222 2.38-12.948 0-6.025-.706-10.511-2.119-13.46-1.413-2.949-3.595-4.423-6.548-4.423-3.03 0-5.34 1.504-6.927 4.513-1.587 3.009-2.38 7.465-2.38 13.37 0 5.847.706 10.193 2.119 13.038 1.413 2.846 3.595 4.269 6.548 4.269zm9.019-30.661l2.908 2.332-20.631 25.678-2.384-3.164 20.107-24.846zM105.522 52.848h7.017L98.855 71.477 88.99 86h-7.03l13.302-18.099 10.26-15.053zm-23.561 0h7.029l10.283 15.017L112.539 86h-7.017L95.367 71.441 81.96 52.848zM138.604 41.648V86h-5.82V41.648h5.82zm-5.192 38.974V86H121.46v-5.378h11.95zm15.35 0V86h-10.758v-5.378h10.759zm-15.978-38.974v5.779l-10.695 3.637V45.36l10.695-3.712zM158.353 79.528c4.981-3.937 8.958-7.337 11.932-10.198 2.973-2.86 5.21-5.556 6.709-8.085 1.5-2.53 2.249-5.034 2.249-7.513 0-2.394-.693-4.243-2.078-5.547-1.386-1.304-3.403-1.956-6.053-1.956-1.758 0-3.566.47-5.424 1.407a15.88 15.88 0 0 0-4.876 3.817l-3.843-3.831c1.505-2.036 3.533-3.647 6.082-4.834 2.55-1.187 5.28-1.78 8.189-1.78 4.564 0 8.018 1.078 10.36 3.235 2.343 2.157 3.515 5.242 3.515 9.257 0 2.723-.7 5.472-2.098 8.245-1.398 2.774-3.537 5.642-6.415 8.604-2.879 2.961-6.615 6.178-11.208 9.651v6h-7.041v-6.472zm28.63 1.094V86h-26.686v-5.378h26.686zM207.08 86.64c-4.13 0-7.88-.512-11.251-1.536l.697-5.355.885.245c1.648.453 3.16.804 4.534 1.052 1.375.249 3.001.373 4.879.373 3.406 0 6.05-.67 7.932-2.008 1.882-1.339 2.823-3.228 2.823-5.668 0-1.727-.54-3.208-1.618-4.444-1.079-1.236-2.64-2.174-4.685-2.814-2.045-.64-4.51-.96-7.396-.96h-1.007l-.71-3.839 9.127.78c3.696.299 6.658 1.484 8.885 3.555 2.226 2.071 3.34 4.802 3.34 8.192 0 3.937-1.429 6.992-4.285 9.166-2.856 2.174-6.906 3.261-12.15 3.261zm-4.916-24.954c4.833-.655 8.461-1.803 10.884-3.442 2.423-1.64 3.635-3.642 3.635-6.009 0-1.913-.633-3.392-1.898-4.438-1.265-1.045-3.048-1.568-5.348-1.568-1.739 0-3.51.4-5.31 1.199-1.803.799-3.528 1.978-5.177 3.537l-3.89-3.89c1.87-2.094 4.046-3.629 6.528-4.604 2.482-.975 5.313-1.463 8.495-1.463 3.982 0 7.057.864 9.223 2.592 2.166 1.728 3.249 4.17 3.249 7.328 0 2.685-.892 5.027-2.674 7.026-1.783 2-4.147 3.366-7.092 4.099v3.425l-9.916.047-.71-3.839zM246.676 44.144l-9.694 31.027h-6.017l9.682-31.027h6.029zm6.363 25.806v5.221h-22.086l4.012-5.221h18.074zm10.988 0v5.221h-6.384V69.95h6.384zm-5.744-28.302V86h-5.872V41.648h5.872zM59.432 166.64c-4.945 0-8.624-1.858-11.037-5.574-2.412-3.716-3.618-9.367-3.618-16.954 0-7.68 1.3-13.45 3.901-17.312 2.6-3.861 6.399-5.792 11.394-5.792 4.945 0 8.624 1.911 11.037 5.734 2.412 3.823 3.618 9.613 3.618 17.37 0 7.51-1.291 13.141-3.874 16.896-2.584 3.755-6.39 5.632-11.421 5.632zm0-5.221c3.03 0 5.34-1.453 6.927-4.359 1.587-2.906 2.38-7.222 2.38-12.948 0-6.025-.706-10.511-2.119-13.46-1.413-2.949-3.595-4.423-6.548-4.423-3.03 0-5.34 1.504-6.927 4.513-1.587 3.009-2.38 7.465-2.38 13.37 0 5.847.706 10.193 2.119 13.038 1.413 2.846 3.595 4.269 6.548 4.269zm9.019-30.661l2.908 2.332-20.631 25.678-2.384-3.164 20.107-24.846zM89.869 119.152V166h-5.976v-46.848h5.976zm9.806 47.488c-2.685 0-4.835-.614-6.451-1.842-1.616-1.228-2.562-2.942-2.837-5.142h-2.822l2.304-9.256c0 3.64.717 6.402 2.15 8.286 1.435 1.884 3.547 2.826 6.337 2.826 2.81 0 4.948-.992 6.417-2.977 1.469-1.985 2.203-4.915 2.203-8.791 0-4.055-.733-7.126-2.198-9.213-1.465-2.087-3.602-3.131-6.411-3.131-2.79 0-4.904.942-6.342 2.826-1.437 1.884-2.156 4.646-2.156 8.286l-2.245-9.379h2.763c.337-2.192 1.305-3.883 2.904-5.075 1.599-1.19 3.715-1.786 6.349-1.786 4.325 0 7.61 1.472 9.853 4.416 2.244 2.944 3.366 7.296 3.366 13.056 0 5.547-1.118 9.75-3.354 12.608-2.236 2.859-5.513 4.288-9.83 4.288zM138.604 121.648V166h-5.82v-44.352h5.82zm-5.192 38.974V166H121.46v-5.378h11.95zm15.35 0V166h-10.758v-5.378h10.759zm-15.978-38.974v5.779l-10.695 3.637v-5.704l10.695-3.712zM171.944 166.64c-4.946 0-8.624-1.858-11.037-5.574-2.412-3.716-3.618-9.367-3.618-16.954 0-7.68 1.3-13.45 3.9-17.312 2.601-3.861 6.4-5.792 11.395-5.792 4.945 0 8.624 1.911 11.036 5.734 2.413 3.823 3.619 9.613 3.619 17.37 0 7.51-1.292 13.141-3.875 16.896-2.583 3.755-6.39 5.632-11.42 5.632zm0-5.221c3.03 0 5.34-1.453 6.926-4.359 1.587-2.906 2.38-7.222 2.38-12.948 0-6.025-.706-10.511-2.118-13.46-1.413-2.949-3.596-4.423-6.548-4.423-3.03 0-5.34 1.504-6.927 4.513-1.587 3.009-2.38 7.465-2.38 13.37 0 5.847.706 10.193 2.119 13.038 1.412 2.846 3.595 4.269 6.548 4.269zm9.019-30.661l2.908 2.332-20.631 25.678-2.384-3.164 20.107-24.846zM209.448 166.64c-4.946 0-8.625-1.858-11.037-5.574-2.412-3.716-3.618-9.367-3.618-16.954 0-7.68 1.3-13.45 3.9-17.312 2.601-3.861 6.4-5.792 11.395-5.792 4.945 0 8.624 1.911 11.036 5.734 2.412 3.823 3.619 9.613 3.619 17.37 0 7.51-1.292 13.141-3.875 16.896-2.583 3.755-6.39 5.632-11.42 5.632zm0-5.221c3.03 0 5.34-1.453 6.926-4.359 1.587-2.906 2.38-7.222 2.38-12.948 0-6.025-.706-10.511-2.118-13.46-1.413-2.949-3.596-4.423-6.548-4.423-3.031 0-5.34 1.504-6.927 4.513-1.587 3.009-2.38 7.465-2.38 13.37 0 5.847.706 10.193 2.119 13.038 1.412 2.846 3.595 4.269 6.548 4.269zm9.019-30.661l2.908 2.332-20.631 25.678-2.384-3.164 20.107-24.846zM251.116 121.648V166h-5.82v-44.352h5.82zm-5.192 38.974V166h-11.951v-5.378h11.95zm15.35 0V166h-10.758v-5.378h10.759zm-15.978-38.974v5.779l-10.695 3.637v-5.704l10.695-3.712z" fill="#000" fill-rule="nonzero"/><path d="M343.432 86.64c-4.945 0-8.624-1.858-11.036-5.574-2.413-3.716-3.619-9.367-3.619-16.954 0-7.68 1.3-13.45 3.901-17.312 2.6-3.861 6.399-5.792 11.394-5.792 4.945 0 8.624 1.911 11.036 5.734 2.413 3.823 3.619 9.613 3.619 17.37 0 7.51-1.291 13.141-3.874 16.896-2.584 3.755-6.39 5.632-11.421 5.632zm0-5.221c3.03 0 5.34-1.453 6.926-4.359 1.587-2.906 2.381-7.222 2.381-12.948 0-6.025-.706-10.511-2.119-13.46-1.413-2.949-3.595-4.423-6.548-4.423-3.03 0-5.34 1.504-6.926 4.513-1.588 3.009-2.381 7.465-2.381 13.37 0 5.847.706 10.193 2.119 13.038 1.413 2.846 3.595 4.269 6.548 4.269zm9.019-30.661l2.908 2.332-20.631 25.678-2.384-3.164 20.107-24.846z" fill="#757575" fill-rule="nonzero"/><path d="M380.826 66.924l12.214-15.128 4.296 4.18-14.812 15.547-13.18 15.687-4.022-4.192 15.504-16.094zM390.1 86.64c-2.397 0-4.332-.739-5.805-2.216-1.473-1.477-2.666-3.847-3.578-7.108l-4.14-14.621c-.508-1.753-1.11-3.04-1.804-3.858-.694-.818-1.569-1.227-2.624-1.227-1.617 0-3.188.363-4.713 1.088l-1.78-4.937c2.63-.993 4.934-1.489 6.91-1.489 2.382 0 4.31.737 5.783 2.21 1.473 1.474 2.662 3.842 3.566 7.103l4.18 14.62c.509 1.761 1.105 3.043 1.79 3.844.685.8 1.58 1.201 2.686 1.201 1.695 0 3.417-.434 5.166-1.303l1.896 4.948c-1.303.59-2.546 1.028-3.73 1.315-1.182.287-2.45.43-3.803.43z" fill="#000" fill-rule="nonzero"/><path d="M422.604 41.648V86h-5.82V41.648h5.82zm-5.192 38.974V86H405.46v-5.378h11.95zm15.35 0V86h-10.758v-5.378h10.759zm-15.978-38.974v5.779l-10.695 3.637V45.36l10.695-3.712zM442.353 79.528c4.981-3.937 8.958-7.337 11.932-10.198 2.973-2.86 5.21-5.556 6.709-8.085 1.5-2.53 2.249-5.034 2.249-7.513 0-2.394-.693-4.243-2.078-5.547-1.386-1.304-3.403-1.956-6.053-1.956-1.758 0-3.566.47-5.424 1.407a15.88 15.88 0 0 0-4.876 3.817l-3.843-3.831c1.505-2.036 3.533-3.647 6.082-4.834 2.55-1.187 5.28-1.78 8.189-1.78 4.564 0 8.018 1.078 10.36 3.235 2.343 2.157 3.515 5.242 3.515 9.257 0 2.723-.7 5.472-2.098 8.245-1.398 2.774-3.537 5.642-6.415 8.604-2.879 2.961-6.615 6.178-11.208 9.651v6h-7.041v-6.472zm28.63 1.094V86h-26.686v-5.378h26.686zM491.08 86.64c-4.13 0-7.88-.512-11.251-1.536l.697-5.355.885.245c1.648.453 3.16.804 4.534 1.052 1.375.249 3.001.373 4.879.373 3.406 0 6.05-.67 7.932-2.008 1.882-1.339 2.823-3.228 2.823-5.668 0-1.727-.54-3.208-1.618-4.444-1.079-1.236-2.64-2.174-4.685-2.814-2.045-.64-4.51-.96-7.396-.96h-1.007l-.71-3.839 9.127.78c3.696.299 6.658 1.484 8.885 3.555 2.226 2.071 3.34 4.802 3.34 8.192 0 3.937-1.429 6.992-4.285 9.166-2.856 2.174-6.906 3.261-12.15 3.261zm-4.916-24.954c4.833-.655 8.461-1.803 10.884-3.442 2.423-1.64 3.635-3.642 3.635-6.009 0-1.913-.633-3.392-1.898-4.438-1.265-1.045-3.048-1.568-5.348-1.568-1.739 0-3.51.4-5.31 1.199-1.803.799-3.528 1.978-5.177 3.537l-3.89-3.89c1.87-2.094 4.046-3.629 6.528-4.604 2.482-.975 5.313-1.463 8.495-1.463 3.982 0 7.057.864 9.223 2.592 2.166 1.728 3.249 4.17 3.249 7.328 0 2.685-.892 5.027-2.674 7.026-1.783 2-4.147 3.366-7.092 4.099v3.425l-9.916.047-.71-3.839zM530.676 44.144l-9.694 31.027h-6.017l9.682-31.027h6.029zm6.363 25.806v5.221h-22.086l4.012-5.221h18.074zm10.988 0v5.221h-6.384V69.95h6.384zm-5.744-28.302V86h-5.872V41.648h5.872zM343.432 166.64c-4.945 0-8.624-1.858-11.036-5.574-2.413-3.716-3.619-9.367-3.619-16.954 0-7.68 1.3-13.45 3.901-17.312 2.6-3.861 6.399-5.792 11.394-5.792 4.945 0 8.624 1.911 11.036 5.734 2.413 3.823 3.619 9.613 3.619 17.37 0 7.51-1.291 13.141-3.874 16.896-2.584 3.755-6.39 5.632-11.421 5.632zm0-5.221c3.03 0 5.34-1.453 6.926-4.359 1.587-2.906 2.381-7.222 2.381-12.948 0-6.025-.706-10.511-2.119-13.46-1.413-2.949-3.595-4.423-6.548-4.423-3.03 0-5.34 1.504-6.926 4.513-1.588 3.009-2.381 7.465-2.381 13.37 0 5.847.706 10.193 2.119 13.038 1.413 2.846 3.595 4.269 6.548 4.269zm9.019-30.661l2.908 2.332-20.631 25.678-2.384-3.164 20.107-24.846z" fill="#757575" fill-rule="nonzero"/><path d="M377.369 166.64a73.04 73.04 0 0 1-9.581-.64l2.245-5.518c1.152.283 2.454.517 3.906.701 1.453.184 2.772.276 3.959.276 4.485 0 7.883-1.346 10.196-4.038 2.313-2.693 3.469-6.26 3.469-10.703 0-2.615-.447-4.787-1.342-6.516-.895-1.728-2.53-2.592-4.904-2.592-1.859 0-3.606.598-5.241 1.795-1.635 1.197-3.002 3.05-4.1 5.559-1.098 2.508-1.711 5.62-1.84 9.338l-.534-13.504h2.6l-1.216 2.368c.187-2.254.783-4.202 1.79-5.843 1.007-1.64 2.337-2.893 3.992-3.756 1.655-.863 3.522-1.295 5.6-1.295 3.926 0 6.752 1.374 8.478 4.122 1.726 2.748 2.589 6.209 2.589 10.383 0 4.026-.796 7.534-2.388 10.525-1.592 2.99-3.897 5.295-6.915 6.912-3.017 1.617-6.605 2.426-10.763 2.426zm-1.888-47.488L373.753 166h-5.965l1.728-46.848h5.965z" fill="#000" fill-rule="nonzero"/><path d="M422.604 121.648V166h-5.82v-44.352h5.82zm-5.192 38.974V166H405.46v-5.378h11.95zm15.35 0V166h-10.758v-5.378h10.759zm-15.978-38.974v5.779l-10.695 3.637v-5.704l10.695-3.712zM455.944 166.64c-4.946 0-8.624-1.858-11.037-5.574-2.412-3.716-3.618-9.367-3.618-16.954 0-7.68 1.3-13.45 3.9-17.312 2.601-3.861 6.4-5.792 11.395-5.792 4.945 0 8.624 1.911 11.036 5.734 2.413 3.823 3.619 9.613 3.619 17.37 0 7.51-1.292 13.141-3.875 16.896-2.583 3.755-6.39 5.632-11.42 5.632zm0-5.221c3.03 0 5.34-1.453 6.926-4.359 1.587-2.906 2.38-7.222 2.38-12.948 0-6.025-.706-10.511-2.118-13.46-1.413-2.949-3.596-4.423-6.548-4.423-3.03 0-5.34 1.504-6.927 4.513-1.587 3.009-2.38 7.465-2.38 13.37 0 5.847.706 10.193 2.119 13.038 1.412 2.846 3.595 4.269 6.548 4.269zm9.019-30.661l2.908 2.332-20.631 25.678-2.384-3.164 20.107-24.846zM493.448 166.64c-4.946 0-8.625-1.858-11.037-5.574-2.412-3.716-3.618-9.367-3.618-16.954 0-7.68 1.3-13.45 3.9-17.312 2.601-3.861 6.4-5.792 11.395-5.792 4.945 0 8.624 1.911 11.036 5.734 2.412 3.823 3.619 9.613 3.619 17.37 0 7.51-1.292 13.141-3.875 16.896-2.583 3.755-6.39 5.632-11.42 5.632zm0-5.221c3.03 0 5.34-1.453 6.926-4.359 1.587-2.906 2.38-7.222 2.38-12.948 0-6.025-.706-10.511-2.118-13.46-1.413-2.949-3.596-4.423-6.548-4.423-3.031 0-5.34 1.504-6.927 4.513-1.587 3.009-2.38 7.465-2.38 13.37 0 5.847.706 10.193 2.119 13.038 1.412 2.846 3.595 4.269 6.548 4.269zm9.019-30.661l2.908 2.332-20.631 25.678-2.384-3.164 20.107-24.846zM535.116 121.648V166h-5.82v-44.352h5.82zm-5.192 38.974V166h-11.951v-5.378h11.95zm15.35 0V166h-10.758v-5.378h10.759zm-15.978-38.974v5.779l-10.695 3.637v-5.704l10.695-3.712z" fill="#757575" fill-rule="nonzero"/></g></svg>