<svg xmlns="http://www.w3.org/2000/svg" width="647" height="137" viewBox="0 0 647 137"><path fill="#334" d="M-.25 0h647v137h-647z"/><path fill="#f2fef7" d="M34.817 27.36 34.536 44h10.252v-2.012h-8.025l.247-14.629zm17.957 3.984c-1.312 0-2.91.251-4.303.83l.62 1.913c1.182-.46 2.558-.727 3.607-.727 2.182 0 2.807 1.077 2.751 2.833l-.013.41c-4.809-.619-8.05.947-8.042 4.146 0 2.22 1.466 3.485 4.012 3.485 2.206 0 3.732-.902 4.085-2.548h.328c.19 1.695 1.142 2.431 3.223 2.431h.366l.066-1.887h-.187c-1.45-.004-1.826-.677-1.76-1.957l.172-4.2c.113-2.948-1.346-4.73-4.925-4.73m-3.134 9.31c0-1.96 2.56-2.921 5.74-2.304l-.019.553-.01-.028c-.094 2.406-1.714 3.428-3.58 3.428-1.393 0-2.13-.58-2.13-1.65m19.191-9.074h-1.605c-1.407 1.536-4.813 4-6.313 4.95l1.23 1.735c1.08-.643 4.077-2.953 5.482-4.369.258.503.545 1.001.827 1.508.705 1.258 1.62 2.758 1.62 4.254 0 1.639-1.198 2.562-3.32 2.562-1.301 0-2.345-.247-3.651-.852l-.397 1.925c1.332.673 2.574.943 4.323.943 3.373 0 5.295-1.547 5.295-4.436 0-1.672-.631-2.942-1.483-4.47-.54-.96-1.253-2.133-2.007-3.75m14.621 12.656c1.596 0 2.727-.375 3.769-.867l-.658-1.831c-1.127.513-1.839.682-3.009.682-1.487 0-2.304-.642-2.48-1.946-.088-.64-.046-1.869.01-3.163l.106-3.05h5.336v-2.012h-5.265l.147-4.219h-2.232l-.162 4.219h-3.373v2.012h3.295l-.126 3.261c-.051 1.509-.074 2.248.047 3.165.37 2.55 1.83 3.75 4.595 3.75m31.404-2.462q-1.244.445-2.382.445c-3.201 0-4.742-2.408-4.742-7.41 0-3.68 1.132-6.642 2.886-6.642 1.535 0 1.665 1.605 1.665 2.771 0 4.625-3.2 7.8-9.568 9.737l.592 1.917c7.179-2.205 11.13-6.345 11.13-11.469 0-2.4-.896-4.934-3.727-4.934-3.086 0-5.19 3.647-5.19 8.737 0 6.315 2.182 9.31 6.885 9.31q1.504 0 2.875-.493zm8.665-10.429c-3.945 0-5.754 3.156-5.754 6.76 0 3.51 1.868 6.13 5.573 6.13 3.96 0 5.702-3.17 5.702-6.752 0-3.47-1.816-6.138-5.52-6.138m.024 2.016c2.36 0 3.3 2.159 3.3 4.222 0 2.294-1.028 4.636-3.581 4.636-2.34 0-3.304-2.131-3.304-4.195 0-2.278 1.046-4.663 3.585-4.663m13.499 15.445c3.294 0 5.522-1.858 5.522-4.412 0-1.95-1.072-2.71-4.355-3.542-2.992-.747-3.955-1.6-3.955-3.444 0-2.25 1.202-4.066 3.126-4.066 1.68 0 2.831 1.373 2.831 3.336 0 2.009-1.414 4.196-3.442 4.42v.796h2.924v-1.131l-.513.44c1.853-.308 3.128-2.27 3.128-4.553 0-3.198-2.022-5.305-4.847-5.305-3.215 0-5.42 2.695-5.42 6.119 0 2.82 1.528 4.293 5.29 5.31 2.33.617 3.121.935 3.121 1.862 0 1.134-1.326 2.172-3.295 2.172-2.101 0-3.712-1.124-4.458-2.382l-1.625 1.582c1.451 1.952 3.482 2.798 5.968 2.798m2.078-16.758 2.153 2.076.687-.837-.424.117q.667.656 2.695.656v-2.012zm15.801 12.187c1.476 0 2.537-.443 3.528-1.08l-.888-1.731c-.897.571-1.545.795-2.438.795-2.302 0-2.439-1.532-2.163-4.092l.662-6.548h-2.142c-1.191 1.209-3.831 3.192-6.823 5.019l1.222 1.729c2.01-1.19 4.082-2.783 5.33-4.046l-.5 3.846c-.398 3.12.293 6.108 4.212 6.108m-2.291-15.318c.905 0 1.631-.722 1.631-1.628a1.61 1.61 0 0 0-1.631-1.612 1.61 1.61 0 0 0-1.632 1.612c0 .906.726 1.628 1.632 1.628m15.687 7.539-.375 3.364c-.321 3.113.765 4.298 3.367 4.298h.565l.066-2.012h-.548c-1.146 0-1.32-.72-1.184-2.286l.379-3.947c.253-2.713-.793-4.528-3.325-4.528-1.876 0-3.559 1.027-4.091 2.967h-.304l-.265-2.733h-1.867L160.314 44h2.231l.211-5.434c.398-3.634 2.104-5.206 3.877-5.206 1.713 0 1.861 1.472 1.689 3.095m11.334-1.518c.995 0 1.806-.816 1.806-1.806s-.811-1.787-1.806-1.787a1.8 1.8 0 0 0-1.806 1.787c0 .99.816 1.806 1.806 1.806m0 9.297c.995 0 1.806-.811 1.806-1.802 0-.994-.811-1.786-1.806-1.786-.99 0-1.806.792-1.806 1.786 0 .99.816 1.802 1.806 1.802m27.422 0c3.128 0 5.972-.945 5.972-4.512 0-5.386-8.031-4.61-8.031-8.142 0-1.774 1.16-2.5 2.792-2.5 1.322 0 2.621.488 3.98 1.625l1.49-1.528c-1.571-1.46-3.188-2.052-5.193-2.052-3.08 0-5.224 1.455-5.224 4.589 0 5.43 7.916 4.35 7.916 8.123 0 2.038-1.856 2.443-3.563 2.443-1.541 0-2.845-.294-4.498-.989l-.507 2.05c1.398.597 3.098.893 4.866.893m14.446-12.89c-1.312 0-2.91.251-4.303.83l.62 1.913c1.182-.46 2.558-.727 3.607-.727 2.182 0 2.807 1.077 2.751 2.833l-.013.41c-4.809-.619-8.05.947-8.042 4.146 0 2.22 1.466 3.485 4.012 3.485 2.206 0 3.732-.902 4.085-2.548h.328c.19 1.695 1.142 2.431 3.223 2.431h.366l.066-1.887h-.187c-1.45-.004-1.826-.677-1.76-1.957l.172-4.2c.113-2.948-1.346-4.73-4.925-4.73m-3.134 9.31c0-1.96 2.56-2.921 5.74-2.304l-.019.553-.01-.028c-.094 2.406-1.714 3.428-3.58 3.428-1.393 0-2.13-.58-2.13-1.65m19.751 3.582c1.595 0 2.727-.375 3.768-.867l-.657-1.831c-1.128.513-1.84.682-3.01.682-1.487 0-2.303-.642-2.48-1.946-.087-.64-.045-1.869.01-3.163l.107-3.05h5.336v-2.012h-5.266l.147-4.219h-2.231l-.163 4.219h-3.373v2.012h3.295l-.125 3.261c-.051 1.509-.075 2.248.047 3.165.37 2.55 1.83 3.75 4.595 3.75m25.186-.001c3.128 0 5.972-.945 5.972-4.512 0-5.386-8.031-4.61-8.031-8.142 0-1.774 1.16-2.5 2.792-2.5 1.322 0 2.621.488 3.98 1.625l1.49-1.528c-1.571-1.46-3.188-2.052-5.193-2.052-3.08 0-5.224 1.455-5.224 4.589 0 5.43 7.916 4.35 7.916 8.123 0 2.038-1.856 2.443-3.563 2.443-1.541 0-2.845-.294-4.498-.989l-.507 2.05c1.398.597 3.098.893 4.866.893m15.746-1.997c-2.325 0-3.553-1.17-3.874-2.923 5.282-.156 8.36-1.742 8.36-4.404 0-2.316-1.776-3.566-4.213-3.566-3.872 0-6.292 2.927-6.292 7.116 0 3.562 1.992 5.774 5.885 5.774 1.561 0 3.204-.347 4.527-1.01l-.52-1.854c-1.299.582-2.595.867-3.873.867m-3.917-4.736c.274-2.552 1.857-4.218 4.137-4.218 1.182 0 2.036.538 2.036 1.576 0 1.603-2.241 2.492-6.173 2.642m11.824 10.929h2.231l.157-4.236c.515.027.99.04 1.355.04 4.732 0 7.517-2.893 7.517-7.438 0-2.746-.963-5.452-4.146-5.452-2.07 0-3.672 1.162-4.172 3.197h-.207l-.284-2.963h-1.875zm2.462-6.24.127-3.43c.38-3.772 2.291-5.4 4.135-5.4 1.948 0 2.343 1.814 2.343 3.415 0 3.174-1.654 5.52-5.126 5.52-.455 0-.974-.041-1.479-.105m30.932 2.044c3.582 0 5.644-2.051 5.644-5.603 0-3.294-1.684-5.178-4.667-5.178-2.054 0-3.552.984-4.034 2.719h-.19c.01-4.388 2.499-6.652 7.576-6.87l-.209-2.013c-6.54.324-9.674 3.594-9.674 9.877v1.16c0 4.012 1.751 5.908 5.554 5.908m.083-1.954c-2.144 0-3.402-1.269-3.402-3.436 0-2.191 1.292-3.44 3.568-3.44 2.05 0 3.178 1.163 3.178 3.227 0 2.317-1.219 3.649-3.344 3.649m11.638 4.858-.788.711 1.36 1.635.737-.647c1.641-1.491 2.545-3.043 2.794-4.477.386-2.29-.66-3.496-3.06-3.496h-1.077v1.96h.413c1.188 0 1.746.51 1.582 1.498-.155.923-.88 1.829-1.96 2.816m29.418-9.068c2.05 0 3.557-.984 4.034-2.718h.19c-.01 4.387-2.494 6.655-7.58 6.87l.213 2.012c6.56-.324 9.694-3.594 9.694-9.877v-1.16c0-4.03-1.77-5.908-5.574-5.908-3.577 0-5.643 2.052-5.643 5.603 0 3.295 1.683 5.178 4.666 5.178m.728-1.954c-2.05 0-3.178-1.156-3.178-3.224 0-2.312 1.22-3.648 3.344-3.648 2.149 0 3.402 1.292 3.402 3.436 0 2.191-1.287 3.436-3.568 3.436m14.288-1.179c.995 0 1.806-.816 1.806-1.806s-.811-1.787-1.806-1.787a1.8 1.8 0 0 0-1.806 1.787c0 .99.816 1.806 1.806 1.806m0 9.297c.995 0 1.806-.811 1.806-1.802 0-.994-.811-1.786-1.806-1.786-.99 0-1.806.792-1.806 1.786 0 .99.816 1.802 1.806 1.802m11.571-15.937-3.618 11.634-.007.01h8.045V44h2.193v-4.06h2.155v-1.954h-2.155V27.36h-2.193v10.627h-5.183l3.032-9.69zm11.567 13.691V44H409.9v-2.012h-3.794V27.359h-2.194l-4.014 1.407v2.13l4.014-1.359v12.45zm19.05-7.051c.994 0 1.806-.816 1.806-1.806s-.812-1.787-1.806-1.787a1.8 1.8 0 0 0-1.806 1.787c0 .99.815 1.806 1.806 1.806m0 9.297c.994 0 1.806-.811 1.806-1.802 0-.994-.812-1.786-1.806-1.786-.99 0-1.806.792-1.806 1.786 0 .99.815 1.802 1.806 1.802m13.054 0c3.927 0 6.16-1.693 6.16-4.644 0-2.42-1.611-3.978-4.026-4.355v-.216c2.19-.562 3.674-2.126 3.674-4.167 0-2.387-1.708-3.727-4.684-3.727-2.228 0-4.008.665-5.506 2.13l1.316 1.62c1.287-1.216 2.725-1.795 3.953-1.795 1.712 0 2.705.827 2.705 2.25 0 1.743-1.718 3.093-5.439 3.364l.26 1.678h.392c3.246 0 5.139 1.074 5.139 3.026 0 1.83-1.48 2.882-4.037 2.882-1.738 0-2.827-.337-3.865-.644l-.256 2.036c1.102.328 2.502.562 4.214.562m14.954 0c3.743 0 5.737-2.789 5.737-8.437 0-5.79-1.764-8.672-5.503-8.672-3.74 0-5.738 2.883-5.738 8.672 0 5.648 1.764 8.437 5.504 8.437m0-1.954c-1.2 0-2.046-.616-2.573-1.852l5.896-7.348q.16 1.183.16 2.717c0 4.332-1.241 6.483-3.483 6.483m-3.249-6.483c0-4.492 1.24-6.717 3.483-6.717 1.3 0 2.185.748 2.7 2.254l-5.977 7.39q-.207-1.245-.206-2.927m31.608-4.453c-3.946 0-5.755 3.156-5.755 6.76 0 3.51 1.868 6.13 5.574 6.13 3.96 0 5.701-3.17 5.701-6.752 0-3.47-1.815-6.138-5.52-6.138m.023 2.016c2.36 0 3.3 2.159 3.3 4.222 0 2.294-1.028 4.636-3.58 4.636-2.341 0-3.305-2.131-3.305-4.195 0-2.278 1.047-4.663 3.585-4.663m16.651 3.095-.375 3.364c-.322 3.113.764 4.298 3.367 4.298h.565l.066-2.012h-.548c-1.146 0-1.321-.72-1.185-2.286l.38-3.947c.253-2.713-.794-4.528-3.325-4.528-1.877 0-3.56 1.027-4.092 2.967h-.304l-.264-2.733h-1.867L483.752 44h2.23l.212-5.434c.397-3.634 2.104-5.206 3.877-5.206 1.713 0 1.86 1.472 1.688 3.095m27.633 7.779c1.595 0 2.727-.375 3.768-.867l-.657-1.831c-1.128.513-1.84.682-3.01.682-1.487 0-2.303-.642-2.48-1.946-.087-.64-.045-1.869.01-3.163l.107-3.05h5.336v-2.012H517.2l.147-4.219h-2.231l-.163 4.219h-3.373v2.012h3.295l-.125 3.261c-.051 1.509-.075 2.248.047 3.165.37 2.55 1.83 3.75 4.595 3.75m14.062-.001c1.596 0 2.727-.375 3.769-.867l-.658-1.831c-1.127.513-1.839.682-3.009.682-1.487 0-2.304-.642-2.48-1.946-.088-.64-.046-1.869.01-3.163l.106-3.05h5.336v-2.012h-5.265l.147-4.219h-2.232l-.162 4.219h-3.373v2.012h3.295l-.126 3.261c-.051 1.509-.074 2.248.047 3.165.37 2.55 1.83 3.75 4.595 3.75m6.737 4.64q9.993-4.385 10.87-17.297h-2.274q-.412 11.511-9.61 15.483zm-.524-17.297q2.38 7.436 5.769 12.156l1.634-1.32q-2.966-4.16-5.072-11.049zm21.353 0h-1.606c-1.406 1.536-4.813 4-6.313 4.95l1.23 1.735c1.08-.643 4.078-2.953 5.483-4.369.258.503.545 1.001.826 1.508.706 1.258 1.62 2.758 1.62 4.254 0 1.639-1.198 2.562-3.319 2.562-1.302 0-2.346-.247-3.652-.852l-.396 1.925c1.331.673 2.574.943 4.323.943 3.373 0 5.294-1.547 5.294-4.436 0-1.672-.63-2.942-1.483-4.47-.539-.96-1.252-2.133-2.007-3.75m12.269 12.656c3.743 0 5.737-2.789 5.737-8.437 0-5.79-1.763-8.672-5.503-8.672-3.739 0-5.737 2.883-5.737 8.672 0 5.648 1.764 8.437 5.503 8.437m0-1.954c-1.2 0-2.046-.616-2.573-1.852l5.897-7.348q.16 1.183.159 2.717c0 4.332-1.24 6.483-3.483 6.483m-3.248-6.483c0-4.492 1.24-6.717 3.482-6.717 1.301 0 2.186.748 2.7 2.254l-5.976 7.39q-.207-1.245-.206-2.927m17.311 8.437c3.743 0 5.737-2.789 5.737-8.437 0-5.79-1.764-8.672-5.503-8.672-3.74 0-5.738 2.883-5.738 8.672 0 5.648 1.764 8.437 5.504 8.437m0-1.954c-1.2 0-2.046-.616-2.573-1.852l5.896-7.348q.16 1.183.16 2.717c0 4.332-1.241 6.483-3.483 6.483m-3.249-6.483c0-4.492 1.24-6.717 3.483-6.717 1.3 0 2.185.748 2.7 2.254l-5.977 7.39q-.207-1.245-.206-2.927m12.441 6.191V44h10.232v-2.012h-3.794V27.359h-2.194l-4.014 1.407v2.13l4.014-1.359v12.45zM33.223 70.375v1.063h1.912v-1.184c0-1.34.429-1.815 1.388-1.815 1.546 0 3.22 2.854 5.555 2.854 1.935 0 2.761-1.149 2.761-3.867v-1.063h-1.935v1.199c0 1.343-.33 1.815-1.08 1.815-1.193 0-3.198-2.893-5.488-2.893-2.169 0-3.113 1.191-3.113 3.891m23.575-11.789L47.23 79.68h2.168l9.563-21.094zm6.144.774L62.661 76h10.252v-2.012h-8.025l.247-14.629zm21.981-.774L75.355 79.68h2.168l9.563-21.094zM95.46 68.725h-2.686l.124-7.354h2.693c2.608 0 3.985 1.184 3.985 3.39 0 2.636-1.516 3.964-4.116 3.964m-4.721-9.366L90.458 76h2.193l.089-5.264h2.682c3.973 0 6.39-1.932 6.39-6.018 0-3.513-2.159-5.359-6.179-5.359zm22.309-.773L103.48 79.68h2.168l9.563-21.094zm12.18 17.648c1.43 0 2.755-.257 4.112-.818l-.473-1.874a7.5 7.5 0 0 1-3.27.738c-3.577 0-5.405-2.15-5.405-6.474 0-3.391 1.362-6.726 5.034-6.726 1.219 0 2.325.622 3.003 1.694l1.562-1.563c-.756-1.327-2.414-2.086-4.57-2.086-5.164 0-7.284 3.972-7.284 8.86 0 5.47 2.47 8.25 7.29 8.25zm11.922-12.89c-1.313 0-2.911.251-4.304.83l.62 1.913c1.182-.46 2.558-.727 3.607-.727 2.182 0 2.807 1.077 2.751 2.833l-.013.41c-4.809-.619-8.05.947-8.042 4.146 0 2.22 1.466 3.485 4.012 3.485 2.206 0 3.732-.902 4.085-2.548h.328c.19 1.695 1.142 2.431 3.223 2.431h.366l.066-1.887h-.187c-1.45-.004-1.826-.677-1.76-1.957l.172-4.2c.113-2.948-1.346-4.73-4.925-4.73m-3.135 9.31c0-1.96 2.56-2.921 5.74-2.304l-.019.553-.01-.028c-.094 2.406-1.714 3.428-3.58 3.428-1.393 0-2.13-.58-2.13-1.65m18.496 1.585c-2.324 0-3.553-1.17-3.873-2.923 5.281-.156 8.36-1.742 8.36-4.404 0-2.316-1.777-3.566-4.214-3.566-3.871 0-6.292 2.927-6.292 7.116 0 3.562 1.992 5.774 5.885 5.774 1.562 0 3.205-.347 4.528-1.01l-.52-1.854c-1.3.582-2.595.867-3.874.867m-3.917-4.736c.274-2.552 1.857-4.218 4.137-4.218 1.183 0 2.036.538 2.036 1.576 0 1.603-2.24 2.492-6.173 2.642m18.676-5.923h-1.606c-1.406 1.536-4.813 4-6.313 4.95l1.23 1.735c1.08-.643 4.078-2.953 5.483-4.369.258.503.545 1.001.826 1.508.706 1.258 1.62 2.758 1.62 4.254 0 1.639-1.198 2.562-3.319 2.562-1.302 0-2.346-.247-3.652-.852l-.396 1.925c1.331.673 2.574.943 4.323.943 3.373 0 5.294-1.547 5.294-4.436 0-1.672-.63-2.942-1.483-4.47-.539-.96-1.252-2.133-2.007-3.75m15.781 12.656c1.476 0 2.537-.443 3.528-1.08l-.888-1.731c-.897.571-1.545.795-2.438.795-2.302 0-2.439-1.532-2.163-4.092l.662-6.548h-2.142c-1.191 1.209-3.831 3.192-6.823 5.019l1.222 1.729c2.01-1.19 4.082-2.783 5.33-4.046l-.5 3.846c-.398 3.12.293 6.108 4.212 6.108m-2.291-15.318c.905 0 1.631-.722 1.631-1.628a1.61 1.61 0 0 0-1.631-1.612 1.61 1.61 0 0 0-1.632 1.612c0 .906.726 1.628 1.632 1.628m11.61 15.318c2.43 0 3.321-1.296 3.86-3.295h.26c-.004 2.227 1.09 3.178 3.45 3.178h.481l.066-1.887h-.455c-1.451 0-1.807-.677-1.76-1.957l.336-8.695h-2.265l-.188 4.87c-.253 3.796-1.367 5.77-3.474 5.77-1.441 0-2.19-1.083-2.19-3.268 0-1.78.352-3.895 1.155-7.2l-2.246-.406c-.771 3.119-1.14 5.54-1.14 7.562 0 3.57 1.355 5.329 4.11 5.329m14.549-9.874L206.567 76h1.978l.267-7.01c.175-2.46.741-3.821 1.714-3.821.702 0 .855.642.823 1.192l-.326 5.926c-.155 2.795.688 3.83 3.118 3.83h.541l.066-2.012h-.509c-.935 0-1.112-.575-1.023-1.818l.307-5.662c.075-1.513-.256-3.281-2.186-3.281-1.287 0-2.029.629-2.276 2.156h-.206c-.153-1.143-.69-2.156-2.153-2.156-1.191 0-1.952.665-2.133 2.216h-.226l-.162-1.982h-1.833L201.898 76h2.213l.21-5.839v.003-.025l.026-.684c.136-2.758.694-4.286 1.686-4.286.74 0 .913.6.885 1.192M240 79.562h.519v-1.94h-.328c-3.774 0-5.931-3.232-5.931-8.817 0-5.51 2.157-8.678 5.93-8.678h.329v-1.916h-.52c-5.051 0-7.955 3.844-7.955 10.594 0 6.843 2.904 10.757 7.955 10.757"/><path fill="#eeb0ff" d="M248.82 67.375 248.516 76h2.437l.32-8.517c.147-.79.53-1.186.993-1.186.585 0 .68.656.656 1.078l-.352 4.805c-.234 2.812 1.055 3.937 3.61 3.937h.468l.094-2.953h-.234c-.914 0-.961-.492-.914-1.148l.398-5.391c.117-1.64-.328-3.281-2.32-3.281-1.125 0-1.781.492-2.11 1.781h-.367c-.196-.938-.69-1.781-1.812-1.781-1.102 0-1.688.515-1.992 1.781h-.357l-.136-1.547h-2.601L243.828 76h3.047l.267-8.081c.087-1.081.411-1.622.952-1.622.633 0 .75.61.726 1.078m14.977-4.031c-1.336 0-3.07.234-4.664.843l.89 2.579c1.196-.493 2.414-.727 3.375-.727 1.782 0 2.649.844 2.602 1.969l-.013.3c-4.761-.636-8.003 1.052-8.003 4.34 0 2.25 1.5 3.586 4.149 3.586 2.241 0 3.564-.918 3.935-2.203h.395c.264 1.288 1.031 2.086 2.654 2.086h1.29l.116-2.695h-.539c-1.054 0-1.125-.563-1.101-1.406l.14-4.383c.094-2.602-1.78-4.29-5.226-4.29m-2.625 8.883c0-1.25 1.49-1.982 4.714-1.594l-.01.254c-.141 1.77-1.433 2.511-3.04 2.511-1.078 0-1.664-.398-1.664-1.171m20.461 4.008c1.5 0 2.601-.375 3.633-.867l-1.196-2.765c-.82.445-1.336.609-2.156.609-2.133 0-2.04-1.406-1.781-4.406l.445-5.227h-3.14c-1.477 1.477-5.04 3.797-6.47 4.688l1.782 2.484c1.02-.66 2.841-1.972 4.326-3.132l-.154 1.187c-.516 3.914.047 7.43 4.71 7.43m-2.649-14.601c1.172 0 2.133-.938 2.133-2.11 0-1.195-.96-2.156-2.133-2.156a2.145 2.145 0 0 0-2.132 2.156c0 1.172.96 2.11 2.132 2.11m15.259 6.843-.258 3.234c-.257 3.14 1.266 4.406 4.008 4.406h.445l.094-2.953h-.21c-1.173 0-1.22-.703-1.15-1.617l.305-3.867c.235-2.813-.914-4.336-3.351-4.336-1.684 0-3.24.7-3.667 2.25h-.369l-.206-2.016h-2.742L286.695 76h3.164l.16-4.617.004.07c.141-3.562 1.43-5.11 2.86-5.11 1.242 0 1.453 1.055 1.36 2.134"/><path fill="#fefef7" d="M305.243 57.156v23.906h1.96V57.156z"/><path fill="#7bf048" d="m315.922 65.922-3.14 1.828 4.804 8.25h3.633l6.984-15.68-3.328-1.5-5.531 13.032z"/><path fill="#fefef7" d="M330.06 77.623h-.329v1.94h.52c5.051 0 7.955-3.915 7.955-10.758 0-6.75-2.904-10.594-7.955-10.594h-.52v1.916h.328c3.774 0 5.93 3.167 5.93 8.678 0 5.585-2.156 8.818-5.93 8.818"/><path fill="#7bf048" d="m356.187 70.539 1.36 1.875 11.18-7.547-1.36-1.828zm9.329 5.695c2.25 0 3.75-1.5 3.75-3.773 0-2.297-1.5-3.797-3.75-3.797-2.274 0-3.774 1.5-3.774 3.797 0 2.273 1.5 3.773 3.774 3.773m0-2.484c-.727 0-1.172-.54-1.172-1.29 0-.773.445-1.312 1.172-1.312.703 0 1.148.54 1.148 1.313 0 .75-.445 1.289-1.148 1.289m-5.93-7.055c2.25 0 3.75-1.5 3.75-3.773 0-2.297-1.5-3.797-3.75-3.797-2.274 0-3.774 1.5-3.774 3.797 0 2.273 1.5 3.773 3.774 3.773m0-2.508c-.727 0-1.172-.492-1.172-1.265 0-.797.445-1.29 1.172-1.29.703 0 1.148.493 1.148 1.29 0 .773-.445 1.265-1.148 1.265"/><path fill="#48cbff" d="M390.36 80.805c3.421 0 5.671-1.782 5.671-4.5 0-1.946-1.148-3.118-4.851-3.914-2.25-.47-3.094-1.477-3.094-3.047 0-1.594.89-3.117 2.344-3.117 1.172 0 2.132 1.125 2.132 2.601 0 .774-.257 3.352-2.812 3.703l.023 1.242h3.493v-1.382l-.75.468c2.203-.117 3.14-1.945 3.14-3.914 0-3.14-2.226-5.601-5.203-5.601-3.14 0-5.648 2.648-5.648 6.258 0 2.812 1.617 4.476 5.507 5.53 1.875.516 2.485.868 2.485 1.43 0 .797-1.125 1.336-2.461 1.336-1.64 0-3.024-.726-4.406-2.203l-1.993 2.485c1.5 1.64 3.844 2.625 6.422 2.625m1.406-16.758 3.093 2.976.75-.89h-.468q.563.796 2.367.844v-2.93zm16.43 12.187c1.5 0 2.602-.375 3.633-.867l-1.195-2.765c-.82.445-1.336.609-2.157.609-2.132 0-2.039-1.406-1.78-4.406l.445-5.227H404c-1.477 1.477-5.04 3.797-6.469 4.688l1.781 2.484c1.021-.66 2.842-1.972 4.327-3.132l-.155 1.187c-.515 3.914.047 7.43 4.711 7.43m-2.648-14.601c1.172 0 2.133-.938 2.133-2.11 0-1.195-.961-2.156-2.133-2.156s-2.133.961-2.133 2.156c0 1.172.96 2.11 2.133 2.11m15.469 14.6c1.71 0 2.953-.328 4.101-.75l-.96-2.789c-1.15.375-1.876.516-3.048.516-1.242 0-1.851-.445-1.992-1.477-.117-.867-.094-1.453-.047-2.953l.066-1.804h5.231v-2.93h-5.123l.154-4.219h-3.21l-.155 4.219H413v2.93h2.925l-.066 1.804c-.07 1.805-.023 2.742.118 3.82.328 2.415 2.18 3.633 5.039 3.633"/><path fill="#eeb0ff" d="M441.669 80.43h2.231l.157-4.236c.515.027.989.04 1.355.04 4.732 0 7.517-2.893 7.517-7.438 0-2.746-.964-5.452-4.147-5.452-2.07 0-3.672 1.162-4.171 3.197h-.207l-.284-2.963h-1.876zm2.462-6.24.127-3.43c.38-3.772 2.29-5.4 4.134-5.4 1.949 0 2.343 1.814 2.343 3.415 0 3.174-1.654 5.52-5.125 5.52-.455 0-.974-.041-1.48-.105m15.428 2.044c2.43 0 3.32-1.296 3.86-3.295h.26c-.005 2.227 1.09 3.178 3.45 3.178h.48l.067-1.887h-.456c-1.45 0-1.807-.677-1.76-1.957l.337-8.695h-2.266l-.188 4.87c-.253 3.796-1.366 5.77-3.474 5.77-1.44 0-2.19-1.083-2.19-3.268 0-1.78.352-3.895 1.156-7.2l-2.247-.406c-.77 3.119-1.14 5.54-1.14 7.562 0 3.57 1.356 5.329 4.11 5.329m20.926-2.462q-1.244.445-2.382.445c-3.201 0-4.742-2.408-4.742-7.41 0-3.68 1.132-6.642 2.886-6.642 1.535 0 1.665 1.605 1.665 2.771 0 4.625-3.2 7.8-9.568 9.737l.592 1.917c7.179-2.205 11.13-6.345 11.13-11.469 0-2.4-.896-4.934-3.727-4.934-3.086 0-5.19 3.647-5.19 8.737 0 6.315 2.182 9.31 6.885 9.31q1.504 0 2.875-.493zm14.063 0q-1.245.445-2.383.445c-3.2 0-4.742-2.408-4.742-7.41 0-3.68 1.132-6.642 2.886-6.642 1.535 0 1.666 1.605 1.666 2.771 0 4.625-3.201 7.8-9.568 9.737l.592 1.917c7.178-2.205 11.13-6.345 11.13-11.469 0-2.4-.897-4.934-3.728-4.934-3.085 0-5.19 3.647-5.19 8.737 0 6.315 2.182 9.31 6.886 9.31q1.504 0 2.874-.493zm22.727-10.429c-3.945 0-5.754 3.156-5.754 6.76 0 3.51 1.868 6.13 5.573 6.13 3.96 0 5.702-3.17 5.702-6.752 0-3.47-1.816-6.138-5.52-6.138m.024 2.016c2.36 0 3.3 2.159 3.3 4.222 0 2.294-1.028 4.636-3.581 4.636-2.34 0-3.304-2.131-3.304-4.195 0-2.278 1.046-4.663 3.585-4.663m18.728 10.85c.72 0 1.359-.131 1.885-.334l-.445-1.85c-.409.098-.812.207-1.266.207-1.334 0-1.952-.974-1.952-2.321 0-.593.113-1.452.315-2.568l.993-5.51q-4.293.923-5.632-.842h-1.207q.908 4.037 5.976 2.854l-1.505-1.022-.888 4.73a13.5 13.5 0 0 0-.24 2.447c0 2.608 1.25 4.21 3.966 4.21m-11.76-5.018 1.231 1.762c3.715-2.168 4.6-5.876 3.671-9.538l-.143 1.552h1.135l-.545-1.976h-2.103l.074.853c.294 3.16-.463 5.667-3.32 7.346m20.594 9.613c3.293 0 5.522-1.858 5.522-4.412 0-1.95-1.072-2.71-4.356-3.542-2.992-.747-3.955-1.6-3.955-3.444 0-2.25 1.202-4.066 3.127-4.066 1.68 0 2.83 1.373 2.83 3.336 0 2.009-1.414 4.196-3.441 4.42v.796h2.924v-1.131l-.514.44c1.854-.308 3.129-2.27 3.129-4.553 0-3.198-2.022-5.305-4.847-5.305-3.215 0-5.42 2.695-5.42 6.119 0 2.82 1.528 4.293 5.29 5.31 2.33.617 3.12.935 3.12 1.862 0 1.134-1.325 2.172-3.295 2.172-2.1 0-3.711-1.124-4.458-2.382l-1.624 1.582c1.45 1.952 3.481 2.798 5.967 2.798m2.077-16.758 2.153 2.076.688-.837-.424.117q.666.656 2.694.656v-2.012zm15.803 12.187c1.476 0 2.537-.443 3.527-1.08l-.888-1.731c-.897.571-1.545.795-2.437.795-2.303 0-2.439-1.532-2.164-4.092l.662-6.548h-2.141c-1.192 1.209-3.832 3.192-6.823 5.019l1.222 1.729c2.009-1.19 4.081-2.783 5.33-4.046l-.5 3.846c-.399 3.12.292 6.108 4.212 6.108m-2.292-15.318c.906 0 1.632-.722 1.632-1.628a1.61 1.61 0 0 0-1.632-1.612 1.61 1.61 0 0 0-1.631 1.612c0 .906.726 1.628 1.631 1.628m15.688 7.539-.375 3.364c-.322 3.113.764 4.298 3.367 4.298h.565l.066-2.012h-.548c-1.146 0-1.321-.72-1.185-2.286l.38-3.947c.253-2.713-.794-4.528-3.325-4.528-1.877 0-3.56 1.027-4.092 2.967h-.304l-.264-2.733h-1.867L568.127 76h2.23l.212-5.434c.397-3.634 2.104-5.206 3.877-5.206 1.713 0 1.86 1.472 1.688 3.095"/><path fill="#48cbff" d="M317.836 106.82v4.875h3.89v-4.875h4.852v-3.89h-4.851v-4.875h-3.891v4.875h-4.852v3.89z"/><path fill="#ffdf29" d="M353.461 104.875a6.44 6.44 0 0 0 6.445 6.445 6.44 6.44 0 0 0 6.446-6.445 6.44 6.44 0 0 0-6.446-6.445 6.44 6.44 0 0 0-6.445 6.445"/><path fill="#fefef7" d="M374.65 99.131v14.51h1.863v-7.177c3.845-2.39 7.344 3.234 10.229-.024v-7.543c-3.177 3.047-5.28-3.352-12.093.234"/><path fill="#f78" d="m333.117 109.5 2.602 2.602 4.148-4.266 4.125 4.266 2.578-2.579-4.265-4.148 4.265-4.125-2.601-2.602-4.125 4.266-4.149-4.266-2.578 2.579 4.266 4.148z"/></svg>
