<svg width="166" height="34" viewBox="0 0 166 34" xmlns="http://www.w3.org/2000/svg"><g fill="#000" fill-rule="nonzero"><path d="M16.872 26.32c-6.885 0-10.327-3.676-10.327-11.027 0-3.554.856-6.407 2.568-8.56 1.713-2.153 4.299-3.229 7.759-3.229 1.498 0 2.807.237 3.928.71 1.12.474 1.954 1.153 2.504 2.036l-2.336 2.739a4.804 4.804 0 0 0-1.77-1.462 5.28 5.28 0 0 0-2.345-.52c-1.465 0-2.675.374-3.63 1.122-.955.748-1.649 1.725-2.082 2.932-.434 1.207-.65 2.532-.65 3.976 0 5.187 2.319 7.78 6.957 7.78 1.532 0 3.025-.316 4.48-.947l.672 3.394a16.023 16.023 0 0 1-5.728 1.056zM32.755 9.136c2.327 0 4.07.525 5.229 1.575 1.159 1.05 1.702 2.516 1.63 4.396l-.206 5.581c-.03.775.075 1.34.313 1.696.238.355.742.533 1.513.533h.652l-.115 3.243h-1.387c-1.424 0-2.447-.356-3.069-1.067-.622-.712-.94-1.796-.952-3.253h-.716l.25-6.351c.042-.965-.222-1.711-.793-2.24-.571-.527-1.472-.791-2.703-.791-.679 0-1.421.082-2.226.246a13.61 13.61 0 0 0-2.391.727l-1.066-3.175a14.491 14.491 0 0 1 2.999-.848 17.908 17.908 0 0 1 3.038-.272zm2.315 14.056l1.011-.599c-.115 1.14-.641 2.047-1.578 2.719-.937.672-2.207 1.008-3.811 1.008-1.732 0-3.075-.418-4.028-1.254-.953-.836-1.43-2.017-1.43-3.544 0-1.489.484-2.716 1.452-3.682.968-.966 2.331-1.614 4.09-1.945 1.759-.33 3.786-.308 6.081.066l.115 2.92c-1.584-.325-2.973-.437-4.166-.337-1.193.1-2.108.383-2.743.847-.635.464-.953 1.064-.953 1.8 0 .561.2.99.6 1.287.4.298.988.446 1.765.446 1.226 0 2.229-.324 3.009-.972.78-.648 1.201-1.598 1.265-2.85l2.335 4.09H35.07zM53.38 22.885c1.703 0 3.41-.378 5.12-1.133l.844 3.267c-.946.436-1.944.761-2.994.977-1.05.216-2.14.324-3.269.324-2.664 0-4.693-.672-6.085-2.016-1.393-1.344-2.09-3.26-2.09-5.745 0-1.831.363-3.46 1.088-4.888.725-1.427 1.753-2.54 3.083-3.338 1.33-.798 2.878-1.197 4.642-1.197 1.732 0 3.14.45 4.226 1.349 1.085.9 1.627 2.15 1.627 3.753 0 1.788-.975 3.163-2.925 4.125-1.95.961-4.766 1.474-8.45 1.538l-.803-3.02c2.65-.03 4.711-.289 6.183-.775 1.472-.486 2.208-1.167 2.208-2.045 0-.534-.221-.93-.665-1.184-.444-.255-.993-.383-1.648-.383-.998 0-1.876.253-2.632.76-.756.505-1.342 1.208-1.758 2.108-.417.9-.625 1.926-.625 3.08 0 1.418.41 2.513 1.233 3.285.821.772 2.052 1.158 3.69 1.158zM71.665 12.617c-.733.802-1.923 1.882-3.57 3.238-1.648 1.356-2.951 2.339-3.91 2.947L62.06 15.72c1.22-.76 2.68-1.777 4.38-3.05 1.699-1.272 2.962-2.354 3.79-3.246h1.594l-.158 3.194zm1.888-3.193c.491 1.167 1.184 2.585 2.08 4.252l.495.923c.61 1.182 1.076 2.217 1.396 3.104.32.887.487 1.807.5 2.76.037 1.882-.592 3.329-1.888 4.34-1.296 1.011-3.16 1.517-5.594 1.517-1.199 0-2.252-.096-3.161-.288a11.236 11.236 0 0 1-2.726-.973l.595-3.345c.853.368 1.653.627 2.4.78.747.151 1.547.227 2.4.227 1.298 0 2.293-.243 2.987-.728.694-.486 1.035-1.177 1.022-2.075-.012-.858-.254-1.787-.726-2.788-.472-1.002-1.104-2.195-1.896-3.58-.273-.489-.487-.876-.643-1.16a8.533 8.533 0 0 1-.446-.963l-.087-2.003h3.292zM93.943 26.32c-1.814 0-3.202-.403-4.166-1.21-.963-.807-1.57-1.874-1.823-3.202-.252-1.328-.263-2.867-.033-4.616l1.014-7.868h3.6l-.72 7.868c-.132 1.425-.17 2.497-.117 3.215.054.718.277 1.266.667 1.645.391.38 1.036.569 1.936.569.569 0 1.072-.065 1.51-.196.437-.13.947-.369 1.528-.715l1.468 3.227c-.78.406-1.549.722-2.306.946-.758.225-1.61.337-2.558.337zm-3.687-13.871c-.71.794-1.886 1.833-3.53 3.116-1.644 1.283-3.176 2.365-4.596 3.244l-2.145-2.995a79.238 79.238 0 0 0 5.012-3.323c1.666-1.196 2.923-2.219 3.772-3.067h1.563l-.076 3.025zm.443-5.892A2.547 2.547 0 0 1 88.84 5.8a2.5 2.5 0 0 1-.766-1.85c0-.728.255-1.347.766-1.858a2.531 2.531 0 0 1 1.859-.766c.728 0 1.348.255 1.859.766.51.51.766 1.13.766 1.859a2.5 2.5 0 0 1-.766 1.849c-.511.504-1.13.757-1.86.757zM106.129 26.32c-1.96 0-3.382-.66-4.263-1.977-.882-1.318-1.323-3.11-1.323-5.372 0-1.294.123-2.74.368-4.339.246-1.599.622-3.43 1.13-5.496l3.908.595c-.517 2.164-.892 3.984-1.124 5.458-.233 1.475-.35 2.752-.35 3.833 0 1.176.18 2.09.54 2.74.36.652.99.978 1.89.978 1.193 0 2.1-.603 2.72-1.808.62-1.205.988-2.993 1.103-5.364l.69 6.76h-.992l.509-1.27c-.21 1.219-.473 2.196-.79 2.931-.316.736-.794 1.308-1.432 1.717-.639.41-1.5.614-2.584.614zm9.42-.16c-1.457 0-2.537-.342-3.238-1.027-.701-.685-1.058-1.732-1.07-3.142l-.64-3.511.351-9.056h3.89l-.411 11.245c-.03.775.074 1.343.312 1.705.238.362.743.543 1.514.543h.71l-.115 3.243h-1.303zM122.55 26h-3.736l.614-16.576h3.154l.397 4.288L122.55 26zm2.907-12.078c.021-.384-.042-.71-.19-.975-.147-.266-.413-.4-.797-.4-.488 0-.866.341-1.132 1.022-.265.681-.42 1.679-.462 2.993l-.537-4.874h.876c.157-.893.456-1.542.898-1.946.443-.404 1.046-.606 1.81-.606 1.077 0 1.805.434 2.185 1.302.38.868.549 1.884.506 3.05L128.134 26h-3.12l.443-12.078zm8.853 6.806c-.042.66.015 1.14.173 1.44.158.3.52.45 1.083.45h.464l-.115 3.542h-.634c-1.174 0-2.115-.177-2.825-.531-.71-.354-1.217-.917-1.521-1.69-.305-.772-.414-1.798-.329-3.08l.454-6.937a1.884 1.884 0 0 0-.173-.96c-.137-.276-.38-.414-.73-.414-.52 0-.925.341-1.216 1.024-.29.683-.45 1.68-.481 2.99l-.57-4.874h1.005c.187-.915.513-1.569.978-1.962.466-.393 1.1-.59 1.903-.59 1.19 0 2.009.415 2.456 1.245.448.83.633 1.866.557 3.107l-.479 7.24zM142.635 30.182c.782-.721 1.391-1.381 1.829-1.98.437-.599.699-1.186.784-1.763.107-.648-.015-1.144-.367-1.49-.35-.345-.927-.518-1.728-.518h-.564v-2.617h1.439c1.597 0 2.744.396 3.44 1.186.697.79.912 1.952.647 3.486-.185.982-.584 1.98-1.198 2.995-.613 1.015-1.456 2.003-2.526 2.963l-.974.884-1.831-2.206 1.05-.94z"/></g></svg>