<svg width="333" height="34" viewBox="0 0 333 34" xmlns="http://www.w3.org/2000/svg"><g fill="#fff" fill-rule="nonzero"><path d="M8.94 9.136c2.334 0 4.033.541 5.097 1.623 1.064 1.082 1.555 2.64 1.473 4.675l-.235 5.6c-.039.907.111 1.568.451 1.982.34.414.978.622 1.914.626h.517l-.09 2.518h-.761c-1.608 0-2.749-.35-3.424-1.048-.674-.698-.992-1.826-.953-3.383h-.558l.203-6.132c.047-1.255-.216-2.201-.788-2.837-.572-.637-1.556-.955-2.951-.955-.712 0-1.49.085-2.335.256-.844.17-1.657.412-2.439.724l-.82-2.552a13.2 13.2 0 0 1 2.796-.825 16.176 16.176 0 0 1 2.902-.272zm2.735 13.769l.957-.466c-.159 1.236-.721 2.191-1.686 2.867-.965.676-2.237 1.014-3.816 1.014-1.698 0-3.014-.404-3.949-1.213-.933-.809-1.4-1.959-1.4-3.45 0-1.45.473-2.644 1.42-3.58.946-.936 2.28-1.564 4.002-1.885 1.72-.32 3.71-.31 5.965.032l.09 2.421c-1.514-.386-2.923-.518-4.229-.396-1.305.122-2.343.47-3.112 1.042-.77.573-1.154 1.318-1.154 2.236 0 .72.242 1.268.727 1.647.484.378 1.188.568 2.111.568 1.352 0 2.481-.382 3.386-1.145.905-.764 1.39-1.908 1.454-3.433l1.34 3.74h-2.105zM40.774 26.32c-2.676 0-4.727-.683-6.151-2.048-1.424-1.365-2.137-3.392-2.137-6.08 0-1.842.333-3.445 1-4.809.665-1.363 1.617-2.412 2.853-3.146 1.236-.734 2.691-1.101 4.365-1.101 1.499 0 2.75.299 3.754.896a4.92 4.92 0 0 1 2.133 2.528l-2.305 1.721c-.396-.811-.9-1.426-1.515-1.846-.614-.42-1.337-.63-2.17-.63-1.535 0-2.769.552-3.7 1.657-.93 1.105-1.395 2.604-1.395 4.497 0 1.878.481 3.292 1.442 4.241.961.95 2.362 1.425 4.203 1.425 1.33 0 2.766-.253 4.312-.76l.608 2.644c-1.418.54-3.183.811-5.297.811zM55.823 26.32c-1.843 0-3.217-.588-4.124-1.763-.907-1.175-1.36-2.96-1.36-5.352 0-1.34.122-2.819.365-4.434.244-1.615.63-3.494 1.16-5.635l3.008.523c-.547 2.26-.94 4.136-1.182 5.63-.242 1.493-.363 2.818-.363 3.976 0 1.46.246 2.55.737 3.274.49.724 1.219 1.086 2.183 1.086 1.446 0 2.553-.69 3.322-2.07.77-1.38 1.22-3.443 1.352-6.186l.547 6.554h-.992l.7-.856c-.25 1.174-.566 2.133-.947 2.878a4.223 4.223 0 0 1-1.63 1.746c-.707.42-1.632.629-2.776.629zm10.111-.16c-1.625 0-2.81-.354-3.554-1.06-.744-.708-1.097-1.832-1.058-3.372l-.535-3.248.352-9.056h3.009l-.454 11.61c-.039.907.113 1.568.454 1.984.342.416.979.624 1.911.624h.596l-.09 2.518h-.63zM82.787 26.288c-1.747 0-3.042-.512-3.884-1.535-.843-1.024-1.264-2.424-1.264-4.2 0-.443.025-.945.076-1.508.05-.563.126-1.143.227-1.741l1.05-6.21 2.055 1.369c-4.284.898-6.933-.371-7.948-3.807h1.596c1.194 1.564 3.684 1.936 7.471 1.118L81 17.18c-.109.701-.19 1.34-.245 1.919a16.227 16.227 0 0 0-.081 1.484c0 .988.18 1.736.543 2.245.361.51.982.764 1.86.764.497 0 1.002-.077 1.514-.23l.601 2.468c-.64.305-1.442.457-2.405.457zM67.13 19.485c1.843-1.011 3.092-2.314 3.748-3.908.655-1.594.892-3.524.71-5.79l-.103-1.131h2.425c.574 2.901.475 5.486-.295 7.755-.771 2.269-2.383 4.078-4.836 5.428l-1.649-2.354zM96.331 11.9c-.686.806-1.94 1.945-3.761 3.419-1.822 1.474-3.194 2.487-4.117 3.04l-1.649-2.31c1.263-.82 2.77-1.897 4.521-3.233 1.752-1.336 3.054-2.467 3.907-3.392h1.158L96.33 11.9zm1.035-2.476c.522 1.133 1.218 2.463 2.086 3.992l.59 1.032c.678 1.21 1.178 2.252 1.502 3.125.324.872.486 1.812.486 2.819 0 1.908-.612 3.373-1.834 4.395-1.223 1.022-2.968 1.533-5.235 1.533-1.154 0-2.178-.096-3.072-.288a11.308 11.308 0 0 1-2.697-.968l.535-2.57c.877.405 1.693.695 2.447.87.755.174 1.558.261 2.412.261 1.412 0 2.504-.297 3.274-.89.77-.594 1.155-1.44 1.155-2.538 0-.86-.179-1.697-.536-2.513-.358-.815-.895-1.86-1.61-3.135-.52-.925-.928-1.67-1.221-2.234a11.39 11.39 0 0 1-.735-1.755l.351-1.136h2.102zM118.421 26.32c-1.65 0-2.925-.373-3.824-1.119s-1.473-1.72-1.723-2.92c-.25-1.201-.275-2.569-.076-4.103l1.132-8.754h2.755l-.898 8.754c-.123 1.279-.142 2.296-.059 3.053.084.757.352 1.346.805 1.765.453.42 1.166.629 2.138.629a5.25 5.25 0 0 0 1.63-.236c.482-.157 1.027-.43 1.634-.817l1.18 2.306c-.74.46-1.48.817-2.217 1.067-.738.25-1.563.375-2.477.375zm-3.744-14.681c-.584.851-1.68 1.941-3.29 3.27a39.76 39.76 0 0 1-5.017 3.536l-1.637-2.303a64.744 64.744 0 0 0 5.371-3.601c1.639-1.228 2.877-2.267 3.715-3.117h.876l-.018 2.215zm.685-5.748c-.6 0-1.112-.21-1.535-.632a2.081 2.081 0 0 1-.634-1.532c0-.601.212-1.113.634-1.535a2.091 2.091 0 0 1 1.535-.634c.601 0 1.113.211 1.536.634.422.422.634.934.634 1.535 0 .601-.212 1.112-.634 1.532-.423.421-.935.631-1.536.631zM128.245 9.165l3.68 14.187h.295c1.979-1.73 3.384-3.756 4.215-6.077.832-2.32 1.098-4.938.8-7.851h2.82c.355 3.56-.04 6.72-1.186 9.478s-3.04 5.124-5.681 7.098h-3.474l-4.51-16.576 3.041-.258zM152.698 23.651c1.695 0 3.415-.384 5.16-1.152l.71 2.475c-.888.436-1.855.769-2.901 1a14.59 14.59 0 0 1-3.152.346c-2.547 0-4.49-.68-5.831-2.042-1.341-1.362-2.012-3.254-2.012-5.676 0-1.849.341-3.487 1.023-4.915.681-1.428 1.66-2.544 2.933-3.347 1.274-.803 2.755-1.204 4.443-1.204 1.66 0 3.007.415 4.044 1.247 1.037.83 1.555 1.995 1.555 3.495 0 1.785-.991 3.192-2.973 4.218-1.982 1.027-4.772 1.584-8.37 1.672l-.559-2.402c2.867-.066 5.074-.4 6.62-1.002 1.547-.602 2.32-1.454 2.32-2.556 0-.668-.25-1.182-.747-1.542-.498-.36-1.152-.54-1.963-.54-1.106 0-2.08.28-2.923.837-.843.558-1.496 1.342-1.957 2.352-.462 1.01-.693 2.182-.693 3.513 0 1.606.44 2.878 1.318 3.816.879.938 2.197 1.407 3.955 1.407zM175.992 26h-2.936l.582-16.576h2.445l.357 4.288L175.992 26zm3.753-12.846c.025-.458-.053-.837-.232-1.136-.18-.299-.493-.449-.939-.449-.706 0-1.252.572-1.636 1.714-.384 1.143-.606 2.79-.664 4.941l-.403-6.132h.74c.12-1.024.42-1.773.904-2.246.484-.473 1.132-.71 1.945-.71 1.168 0 1.96.42 2.377 1.258.417.84.602 1.87.556 3.094L181.913 26h-2.643l.475-12.846zm8.385 7.9c-.043.874.026 1.496.207 1.864.18.369.566.553 1.158.553h.689l-.09 2.689h-.707c-1.091 0-1.953-.167-2.584-.5-.63-.334-1.073-.871-1.326-1.613-.253-.742-.339-1.74-.257-2.994l.445-7.899c.025-.44-.047-.815-.218-1.123-.171-.308-.471-.462-.9-.462-.737 0-1.297.558-1.68 1.672-.382 1.114-.604 2.738-.666 4.872l-.485-6.102h.895c.161-1.01.489-1.742.983-2.195.495-.454 1.173-.68 2.034-.68 1.16 0 1.952.421 2.378 1.264.426.843.605 1.872.537 3.088l-.413 7.565zM199.807 9.136c1.589 0 2.935.35 4.038 1.052 1.104.7 1.93 1.672 2.481 2.913.551 1.241.826 2.648.826 4.219 0 1.662-.274 3.17-.824 4.525-.55 1.354-1.394 2.439-2.531 3.253-1.137.815-2.55 1.222-4.237 1.222-1.588 0-2.943-.35-4.064-1.052a6.521 6.521 0 0 1-2.52-2.897c-.56-1.23-.84-2.64-.84-4.228 0-1.662.283-3.172.848-4.528.566-1.357 1.423-2.443 2.57-3.257 1.149-.815 2.566-1.222 4.253-1.222zm.032 2.669c-1.074 0-1.97.296-2.687.889-.717.593-1.247 1.364-1.59 2.313a8.827 8.827 0 0 0-.516 3.025c0 1.523.372 2.836 1.114 3.939.742 1.103 1.84 1.654 3.295 1.654 1.075 0 1.974-.292 2.698-.876.724-.584 1.253-1.345 1.587-2.284.335-.94.502-1.95.502-3.035 0-1.54-.365-2.863-1.097-3.968-.73-1.105-1.833-1.657-3.306-1.657zM222.023 15.954c.15-1.297.074-2.313-.225-3.048-.299-.734-.97-1.101-2.011-1.101-.896 0-1.727.3-2.494.9-.766.6-1.403 1.528-1.91 2.783-.507 1.254-.793 2.808-.857 4.663l-.288-7.066h1.326l-.608 1.184c.093-1.082.403-2.012.928-2.79a4.994 4.994 0 0 1 2.031-1.755 6.257 6.257 0 0 1 2.712-.588c1.644 0 2.84.54 3.59 1.617.749 1.079 1.03 2.547.846 4.405l-.512 5.255c-.102 1.12-.047 1.909.165 2.369.213.46.684.689 1.415.689h.748l-.09 2.689h-.766c-1.771 0-3.015-.446-3.73-1.338-.715-.892-.965-2.361-.75-4.409l.48-4.459zm-7.599-6.53l.384 4.141L214.339 26h-2.988l.582-16.576h2.491zM237.311 9.136c1.589 0 2.935.35 4.038 1.052 1.104.7 1.93 1.672 2.481 2.913.551 1.241.826 2.648.826 4.219 0 1.662-.275 3.17-.824 4.525-.55 1.354-1.394 2.439-2.531 3.253-1.137.815-2.55 1.222-4.237 1.222-1.588 0-2.943-.35-4.064-1.052a6.521 6.521 0 0 1-2.52-2.897c-.56-1.23-.84-2.64-.84-4.228 0-1.662.283-3.172.848-4.528.566-1.357 1.422-2.443 2.57-3.257 1.149-.815 2.566-1.222 4.253-1.222zm.032 2.669c-1.074 0-1.97.296-2.687.889-.717.593-1.247 1.364-1.59 2.313a8.827 8.827 0 0 0-.516 3.025c0 1.523.371 2.836 1.114 3.939.742 1.103 1.84 1.654 3.295 1.654 1.075 0 1.974-.292 2.698-.876.724-.584 1.253-1.345 1.587-2.284.335-.94.502-1.95.502-3.035 0-1.54-.365-2.863-1.097-3.968-.73-1.105-1.833-1.657-3.306-1.657zM263.302 12.838c.124-3.595.796-6.257 2.014-7.987 1.219-1.73 2.87-2.595 4.955-2.595 1.59 0 2.793.493 3.607 1.48.815.985 1.222 2.286 1.222 3.901 0 2.86-1.446 5.479-4.336 7.855-2.89 2.376-6.855 4.355-11.893 5.938l-.788-2.559c4.574-1.437 8.074-3.073 10.497-4.907 2.424-1.834 3.636-3.952 3.636-6.353 0-.843-.151-1.507-.453-1.989-.301-.482-.844-.724-1.628-.724-1.149 0-2.064.63-2.746 1.89-.682 1.26-1.067 3.217-1.157 5.87l-.62 19.262h-2.936l.626-19.082zm11.29 7.941v2.637h-10.16v-2.637h10.16zM285.567 9.136c1.589 0 2.935.35 4.038 1.052 1.103.7 1.93 1.672 2.481 2.913.55 1.241.826 2.648.826 4.219 0 1.662-.275 3.17-.824 4.525-.55 1.354-1.394 2.439-2.531 3.253-1.138.815-2.55 1.222-4.237 1.222-1.589 0-2.943-.35-4.064-1.052a6.521 6.521 0 0 1-2.52-2.897c-.56-1.23-.84-2.64-.84-4.228 0-1.662.283-3.172.848-4.528.566-1.357 1.422-2.443 2.57-3.257 1.149-.815 2.566-1.222 4.253-1.222zm.032 2.669c-1.074 0-1.97.296-2.687.889-.717.593-1.247 1.364-1.59 2.313a8.827 8.827 0 0 0-.516 3.025c0 1.523.371 2.836 1.114 3.939.742 1.103 1.84 1.654 3.295 1.654 1.075 0 1.974-.292 2.698-.876.723-.584 1.253-1.345 1.587-2.284.335-.94.502-1.95.502-3.035 0-1.54-.365-2.863-1.097-3.968-.731-1.105-1.833-1.657-3.306-1.657zM307.783 15.954c.149-1.297.074-2.313-.225-3.048-.299-.734-.97-1.101-2.011-1.101-.896 0-1.727.3-2.494.9-.766.6-1.403 1.528-1.91 2.783-.508 1.254-.793 2.808-.857 4.663l-.288-7.066h1.326l-.608 1.184c.093-1.082.403-2.012.928-2.79a4.994 4.994 0 0 1 2.031-1.755 6.257 6.257 0 0 1 2.712-.588c1.644 0 2.84.54 3.59 1.617.748 1.079 1.03 2.547.846 4.405l-.512 5.255c-.102 1.12-.048 1.909.165 2.369.212.46.684.689 1.415.689h.748l-.09 2.689h-.766c-1.771 0-3.015-.446-3.73-1.338-.715-.892-.965-2.361-.75-4.409l.48-4.459zm-7.599-6.53l.384 4.141L300.099 26h-2.988l.582-16.576h2.491zM325.632 26.32c-1.836 0-3.256-.409-4.258-1.226-1.003-.818-1.621-2.075-1.856-3.771a18.026 18.026 0 0 1-.118-1.836c-.01-.654.007-1.448.054-2.383l.468-12.672h2.989l-.442 12.384a57.83 57.83 0 0 0-.08 2.486c-.007.761.015 1.338.065 1.73.114.869.446 1.518.994 1.948.548.43 1.324.645 2.33.645.761 0 1.43-.066 2.005-.198s1.242-.365 2-.701l.873 2.442c-.8.363-1.594.645-2.384.848-.79.203-1.67.304-2.64.304zm4.16-16.256v2.689H315.38v-2.689h14.411z"/></g></svg>