<svg xmlns="http://www.w3.org/2000/svg" width="166" height="34" viewBox="0 0 166 34"><path fill="#fff" d="M16.818 26.313c1.906 0 3.756-.344 5.555-1.063l-.669-3.377c-1.443.638-2.836.937-4.31.937-4.423 0-6.687-2.578-6.687-7.766 0-4.067 1.663-8.042 6.105-8.042 1.6 0 3.043.739 3.936 1.979l2.331-2.737C22.02 4.482 19.732 3.5 16.831 3.5 9.783 3.5 6.773 8.595 6.773 15.294c0 7.331 3.392 11.019 10.045 11.019M32.761 9.125c-1.768 0-4.004.313-6.052 1.125l1.072 3.181c1.594-.643 3.296-.968 4.616-.968 2.554 0 3.53 1.214 3.468 3.022l-.014.382c-6.378-.792-10.622 1.374-10.622 5.703 0 3 1.974 4.743 5.454 4.743 2.982 0 4.846-1.225 5.305-3.117h.494c.338 1.945 1.489 2.96 3.898 2.96h1.245l.13-3.248h-.526c-1.663 0-1.872-.852-1.815-2.22l.2-5.575c.138-3.687-2.144-5.988-6.853-5.988m-3.654 12.049c0-1.988 2.481-3.037 6.634-2.442l-.014.384-.005-.008c-.125 2.61-1.926 3.808-4.242 3.808-1.553 0-2.373-.596-2.373-1.742m24.265 1.703c-2.722 0-4.26-1.113-4.745-3 7.059-.194 10.948-2.129 10.948-5.644 0-3.297-2.497-5.108-5.854-5.108-5.389 0-8.812 3.9-8.812 9.433 0 4.916 2.774 7.755 8.17 7.755 2.205 0 4.331-.395 6.26-1.302l-.842-3.253c-1.695.744-3.364 1.12-5.125 1.12m-4.766-6.03c.513-2.614 2.32-4.362 4.856-4.362 1.162 0 2.32.43 2.32 1.574 0 1.614-2.626 2.608-7.176 2.788m24.953-7.41h-3.327c-1.838 1.957-6.222 5.06-8.166 6.273l2.107 3.091c1.68-1.068 5.25-3.944 7.012-5.687l.239.428c.98 1.698 2.586 4.4 2.642 6.374.036 1.81-1.427 2.8-4.01 2.8-1.718 0-3.093-.276-4.812-.996l-.58 3.329c1.8.919 3.474 1.263 5.873 1.263 4.863 0 7.554-2.063 7.48-5.846-.036-2.126-.886-3.924-1.9-5.864-.682-1.318-1.614-2.935-2.558-5.165M93.94 26.313c2.038 0 3.494-.552 4.856-1.285l-1.465-3.213c-1.145.657-1.884.902-3.029.902-2.805 0-2.834-1.747-2.49-5.427l.722-7.852h-3.778C86.992 11.2 82.908 14 79.977 15.803l2.145 3.005c1.932-1.189 4.38-2.99 6.185-4.529l-.392 3.011c-.623 4.77.293 9.023 6.025 9.023M90.69 6.562a2.614 2.614 0 0 0 2.627-2.608 2.623 2.623 0 0 0-2.626-2.631 2.623 2.623 0 0 0-2.626 2.631 2.614 2.614 0 0 0 2.626 2.608m15.424 19.751c2.936 0 3.95-1.495 4.556-3.992h.57c.12 2.599 1.492 3.835 4.293 3.835h1.303l.112-3.248h-.706c-1.662 0-1.858-.87-1.814-2.239l.4-11.231h-3.89l-.258 6.76c-.304 4.223-1.461 6.537-3.79 6.537-1.897 0-2.434-1.615-2.434-3.706 0-2.202.469-5.015 1.489-9.292l-3.916-.612c-1.007 4.114-1.494 7.272-1.494 9.854 0 4.141 1.443 7.334 5.58 7.334m19.33-12.402L125.014 26h3.11l.4-10.682c.21-1.808.786-2.78 1.618-2.78.782 0 .932.785.901 1.373l-.443 6.944c-.274 3.853 1.227 5.301 4.659 5.301h.65l.112-3.54h-.453c-1.219 0-1.345-.695-1.257-1.89l.467-7.226c.13-2.11-.386-4.375-3.004-4.375-1.577 0-2.503.708-2.89 2.554h-.403c-.243-1.342-.922-2.554-2.58-2.554-1.494 0-2.378.739-2.707 2.554h-.415l-.203-2.241h-3.161L118.803 26h3.742l.338-9.904c.127-2.305.648-3.558 1.569-3.558.844 0 1.025.722.994 1.373m17.182 16.273-1.05.949 1.814 2.18.982-.864c2.188-1.988 3.392-4.056 3.725-5.968.514-3.054-.881-4.662-4.08-4.662h-1.436v2.612h.55c1.584 0 2.329.682 2.11 1.998-.207 1.23-1.174 2.439-2.615 3.755"/></svg>
