<svg xmlns="http://www.w3.org/2000/svg" width="333" height="34" viewBox="0 0 333 34"><path d="M8.949 9.125c-1.75 0-3.88.335-5.738 1.108l.826 2.55c1.576-.614 3.412-.97 4.81-.97 2.91 0 3.743 1.436 3.669 3.777l-.018.548C6.086 15.313 1.765 17.4 1.776 21.665c0 2.96 1.955 4.648 5.35 4.648 2.94 0 4.975-1.203 5.446-3.398h.437c.254 2.26 1.523 3.241 4.298 3.241h.488l.087-2.515h-.25c-1.933-.006-2.434-.903-2.346-2.61l.23-5.6c.15-3.931-1.795-6.306-6.567-6.306M4.771 21.538c0-2.612 3.413-3.894 7.651-3.071l-.024.737-.013-.037c-.125 3.207-2.286 4.57-4.775 4.57-1.856 0-2.84-.773-2.84-2.2m35.986 4.776c1.764 0 3.59-.168 5.298-.793l-.594-2.663c-1.398.491-2.838.767-4.304.767-3.655 0-5.644-1.878-5.644-5.664 0-3.862 2.06-6.147 5.076-6.147 1.687 0 2.906.83 3.696 2.444l2.303-1.694c-.867-2.17-2.878-3.438-5.9-3.438-5.048 0-8.213 3.508-8.213 9.063 0 5.4 2.96 8.125 8.281 8.125m15.072 0c3.24 0 4.428-1.729 5.147-4.394h.346c-.006 2.97 1.453 4.237 4.6 4.237h.642l.088-2.515h-.608c-1.934 0-2.41-.903-2.347-2.61l.45-11.593h-3.021l-.251 6.494c-.337 5.06-1.822 7.692-4.632 7.692-1.921 0-2.92-1.444-2.92-4.357 0-2.375.47-5.193 1.54-9.6l-2.994-.542c-1.029 4.16-1.52 7.386-1.52 10.083 0 4.761 1.807 7.105 5.48 7.105m26.957-.032a7 7 0 0 0 2.514-.446l-.593-2.467c-.546.131-1.083.276-1.688.276-1.779 0-2.603-1.299-2.603-3.095 0-.79.15-1.936.42-3.423l1.324-7.347q-5.724 1.23-7.51-1.122h-1.61q1.213 5.381 7.97 3.805L79 11.099l-1.184 6.306a18 18 0 0 0-.321 3.263c0 3.477 1.667 5.613 5.288 5.613M67.105 19.59l1.641 2.35c4.954-2.891 6.133-7.834 4.895-12.718l-.191 2.07h1.514l-.727-2.635h-2.805l.1 1.137c.392 4.213-.617 7.557-4.427 9.795M97.36 9.438h-2.141c-1.875 2.048-6.417 5.332-8.417 6.6l1.64 2.313c1.44-.858 5.436-3.938 7.31-5.825.344.67.726 1.334 1.102 2.01.94 1.677 2.16 3.677 2.16 5.672 0 2.185-1.598 3.416-4.426 3.416-1.736 0-3.128-.33-4.87-1.136l-.528 2.566c1.776.898 3.432 1.259 5.765 1.259 4.497 0 7.059-2.063 7.059-5.915 0-2.23-.841-3.924-1.977-5.96-.72-1.282-1.67-2.844-2.677-5m21.042 16.875c1.968 0 3.382-.591 4.703-1.44l-1.184-2.309c-1.196.762-2.06 1.06-3.25 1.06-3.07 0-3.252-2.043-2.885-5.456l.883-8.73h-2.855c-1.589 1.611-5.109 4.255-9.097 6.69l1.629 2.306c2.679-1.585 5.442-3.71 7.107-5.394l-.667 5.128c-.532 4.16.39 8.145 5.616 8.145m-3.056-20.425a2.163 2.163 0 0 0 2.176-2.17c0-1.207-.969-2.15-2.176-2.15s-2.175.943-2.175 2.15.968 2.17 2.175 2.17m9.836 3.55L129.705 26h3.475c5.31-3.96 7.55-9.472 6.868-16.562h-2.836c.625 5.821-1.05 10.435-5.003 13.919h-.287l-3.688-14.203zm27.5 14.212c-3.1 0-4.738-1.56-5.165-3.898 7.042-.207 11.148-2.322 11.148-5.872 0-3.088-2.37-4.755-5.62-4.755-5.162 0-8.388 3.903-8.388 9.488 0 4.75 2.655 7.7 7.846 7.7 2.082 0 4.273-.464 6.037-1.347l-.693-2.473c-1.733.776-3.46 1.156-5.165 1.156m-5.223-6.315c.366-3.403 2.476-5.624 5.516-5.624 1.577 0 2.715.717 2.715 2.101 0 2.137-2.988 3.322-8.231 3.523m32.266-4.186L179.257 26h2.637l.355-9.346c.234-3.281.988-5.096 2.286-5.096.935 0 1.14.857 1.097 1.59l-.435 7.902c-.207 3.726.918 5.106 4.158 5.106h.722l.088-2.683h-.68c-1.247 0-1.483-.767-1.363-2.423l.409-7.55c.1-2.017-.341-4.375-2.915-4.375-1.716 0-2.705.838-3.034 2.875h-.275c-.204-1.524-.92-2.875-2.87-2.875-1.59 0-2.603.887-2.845 2.956h-.301l-.216-2.643h-2.444l-.6 16.562h2.95l.281-7.785v.004-.033l.034-.913c.182-3.676.926-5.715 2.249-5.715.987 0 1.217.8 1.18 1.59m20.056-4.023c-5.26 0-7.673 4.208-7.673 9.014 0 4.679 2.491 8.174 7.432 8.174 5.28 0 7.602-4.228 7.602-9.003 0-4.628-2.42-8.185-7.36-8.185m.031 2.688c3.146 0 4.4 2.879 4.4 5.63 0 3.058-1.37 6.181-4.775 6.181-3.12 0-4.405-2.841-4.405-5.593 0-3.038 1.396-6.218 4.78-6.218m22.2 4.127-.5 4.485c-.429 4.152 1.02 5.731 4.49 5.731h.753l.088-2.683h-.73c-1.529 0-1.762-.96-1.58-3.048l.505-5.262c.338-3.618-1.057-6.038-4.432-6.038-2.503 0-4.746 1.37-5.456 3.956h-.405l-.353-3.643h-2.49L211.337 26h2.975l.28-7.246c.53-4.845 2.806-6.94 5.17-6.94 2.284 0 2.481 1.963 2.251 4.126m15.268-6.815c-5.26 0-7.673 4.208-7.673 9.014 0 4.679 2.491 8.174 7.432 8.174 5.28 0 7.602-4.228 7.602-9.003 0-4.628-2.42-8.185-7.36-8.185m.031 2.688c3.146 0 4.4 2.879 4.4 5.63 0 3.058-1.37 6.181-4.775 6.181-3.12 0-4.405-2.841-4.405-5.593 0-3.038 1.396-6.218 4.78-6.218m25.762 1.021-.136 4.184c-1.534.66-3.237 1.279-5.086 1.864l.795 2.555a52 52 0 0 0 4.198-1.52l-.388 11.99h2.924l.275-8.646h8.718v-2.638h-8.634l.065-2.07c5.632-2.899 9.066-6.624 9.066-10.923 0-3.062-1.523-5.38-4.81-5.38-3.98 0-6.743 3.129-6.987 10.584m2.826 2.738.092-2.914c.188-5.5 1.705-7.77 3.911-7.77 1.733 0 2.095 1.264 2.095 2.716 0 3.213-2.225 5.8-6.098 7.968m19.63-6.447c-5.26 0-7.673 4.208-7.673 9.014 0 4.679 2.491 8.174 7.432 8.174 5.28 0 7.602-4.228 7.602-9.003 0-4.628-2.42-8.185-7.36-8.185m.031 2.688c3.146 0 4.4 2.879 4.4 5.63 0 3.058-1.37 6.181-4.775 6.181-3.12 0-4.405-2.841-4.405-5.593 0-3.038 1.396-6.218 4.78-6.218m22.2 4.127-.5 4.485c-.429 4.152 1.02 5.731 4.49 5.731h.753l.088-2.683h-.73c-1.529 0-1.762-.96-1.58-3.048l.505-5.262c.338-3.618-1.057-6.038-4.432-6.038-2.503 0-4.746 1.37-5.456 3.956h-.405l-.353-3.643h-2.49L297.087 26h2.975l.28-7.246c.53-4.845 2.806-6.94 5.17-6.94 2.284 0 2.481 1.963 2.251 4.126m18.093 10.373c2.127 0 3.636-.5 5.025-1.157l-.878-2.441c-1.503.684-2.451.91-4.011.91-1.984 0-3.072-.857-3.308-2.596-.117-.853-.06-2.491.014-4.216l.142-4.068h7.114v-2.682h-7.02l.196-5.625h-2.975l-.217 5.625h-4.497v2.682h4.393l-.168 4.348c-.068 2.012-.1 2.998.063 4.22.494 3.4 2.44 5 6.127 5"/></svg>
